G04 #@! TF.GenerationSoftware,KiCad,Pcbnew,10.0.5*
G04 #@! TF.CreationDate,2026-08-10T00:33:20+02:00*
G04 #@! TF.ProjectId,ad8317_powermeter,61643833-3137-45f7-906f-7765726d6574,A*
G04 #@! TF.SameCoordinates,Original*
G04 #@! TF.FileFunction,Copper,L1,Top*
G04 #@! TF.FilePolarity,Positive*
%FSLAX46Y46*%
G04 Gerber Fmt 4.6, Leading zero omitted, Abs format (unit mm)*
G04 Created by KiCad (PCBNEW 10.0.5) date 2026-08-10 00:33:20*
%MOMM*%
%LPD*%
G01*
G04 APERTURE LIST*
G04 #@! TA.AperFunction,SMDPad,CuDef*
%ADD10R,1.240000X0.600000*%
G04 #@! TD*
G04 #@! TA.AperFunction,SMDPad,CuDef*
%ADD11R,1.240000X0.300000*%
G04 #@! TD*
G04 #@! TA.AperFunction,HeatsinkPad*
%ADD12O,2.100000X1.000000*%
G04 #@! TD*
G04 #@! TA.AperFunction,HeatsinkPad*
%ADD13O,1.800000X1.000000*%
G04 #@! TD*
G04 #@! TA.AperFunction,ComponentPad*
%ADD14O,2.000000X1.700000*%
G04 #@! TD*
G04 #@! TA.AperFunction,SMDPad,CuDef*
%ADD15R,5.080000X0.500000*%
G04 #@! TD*
G04 #@! TA.AperFunction,SMDPad,CuDef*
%ADD16R,5.080000X1.500000*%
G04 #@! TD*
G04 #@! TA.AperFunction,HeatsinkPad*
%ADD17R,2.340000X0.500000*%
G04 #@! TD*
G04 #@! TA.AperFunction,ComponentPad*
%ADD18R,1.700000X1.700000*%
G04 #@! TD*
G04 #@! TA.AperFunction,ComponentPad*
%ADD19C,1.700000*%
G04 #@! TD*
G04 #@! TA.AperFunction,HeatsinkPad*
%ADD20C,0.600000*%
G04 #@! TD*
G04 #@! TA.AperFunction,HeatsinkPad*
%ADD21R,1.890000X1.830000*%
G04 #@! TD*
G04 #@! TA.AperFunction,SMDPad,CuDef*
%ADD22R,2.400000X0.740000*%
G04 #@! TD*
G04 #@! TA.AperFunction,SMDPad,CuDef*
%ADD23R,1.600000X1.400000*%
G04 #@! TD*
G04 #@! TA.AperFunction,ViaPad*
%ADD24C,0.457200*%
G04 #@! TD*
G04 #@! TA.AperFunction,Conductor*
%ADD25C,0.500000*%
G04 #@! TD*
G04 #@! TA.AperFunction,Conductor*
%ADD26C,0.508000*%
G04 #@! TD*
G04 #@! TA.AperFunction,Conductor*
%ADD27C,0.250000*%
G04 #@! TD*
G04 #@! TA.AperFunction,Conductor*
%ADD28C,0.203200*%
G04 #@! TD*
G04 APERTURE END LIST*
G04 #@! TA.AperFunction,SMDPad,CuDef*
G36*
G01*
G75*
G02*
G01*
G75*
G02*
G01*
G75*
G02*
G01*
G75*
G02*
G01*
G04 #@! TD.AperFunction*
G04 #@! TA.AperFunction,SMDPad,CuDef*
G01*
G75*
G02*
G01*
G75*
G02*
G01*
G75*
G02*
G01*
G75*
G02*
G01*
G04 #@! TD.AperFunction*
D10*
D11*
D10*
D11*
D10*
D12*
D13*
D12*
D13*
G04 #@! TA.AperFunction,ComponentPad*
G01*
G75*
G02*
G01*
G75*
G02*
G01*
G75*
G02*
G01*
G75*
G02*
G01*
G04 #@! TD.AperFunction*
D14*
G04 #@! TA.AperFunction,SMDPad,CuDef*
G01*
G75*
G02*
G01*
G75*
G02*
G01*
G75*
G02*
G01*
G75*
G02*
G01*
G04 #@! TD.AperFunction*
G04 #@! TA.AperFunction,SMDPad,CuDef*
G01*
G75*
G02*
G01*
G75*
G02*
G01*
G75*
G02*
G01*
G75*
G02*
G01*
G04 #@! TD.AperFunction*
G04 #@! TA.AperFunction,SMDPad,CuDef*
G01*
G75*
G02*
G01*
G75*
G02*
G01*
G75*
G02*
G01*
G75*
G02*
G01*
G36*
X143095000Y-85260000D02*
X142725000Y-85260000D01*
X142590000Y-85125000I0J135000D01*
X142590000Y-84855000D01*
X142725000Y-84720000I135000J0D01*
X143095000Y-84720000D01*
X143230000Y-84855000I0J-135000D01*
X143230000Y-85125000D01*
X143095000Y-85260000I-135000J0D01*
G37*
G04 #@! TD.AperFunction*
G04 #@! TA.AperFunction,SMDPad,CuDef*
G01*
G75*
G02*
G01*
G75*
G02*
G01*
G75*
G02*
G01*
G75*
G02*
G01*
G36*
X143095000Y-84240000D02*
X142725000Y-84240000D01*
X142590000Y-84105000I0J135000D01*
X142590000Y-83835000D01*
X142725000Y-83700000I135000J0D01*
X143095000Y-83700000D01*
X143230000Y-83835000I0J-135000D01*
X143230000Y-84105000D01*
X143095000Y-84240000I-135000J0D01*
G37*
G04 #@! TD.AperFunction*
G04 #@! TA.AperFunction,SMDPad,CuDef*
G01*
G75*
G02*
G01*
G75*
G02*
G01*
G75*
G02*
G01*
G75*
G02*
G01*
G36*
X143775000Y-85760000D02*
X143775000Y-85420000D01*
X143915000Y-85280000I140000J0D01*
X144195000Y-85280000D01*
X144335000Y-85420000I0J-140000D01*
X144335000Y-85760000D01*
X144195000Y-85900000I-140000J0D01*
X143915000Y-85900000D01*
X143775000Y-85760000I0J140000D01*
G37*
G04 #@! TD.AperFunction*
G04 #@! TA.AperFunction,SMDPad,CuDef*
G01*
G75*
G02*
G01*
G75*
G02*
G01*
G75*
G02*
G01*
G75*
G02*
G01*
G36*
X144735000Y-85760000D02*
X144735000Y-85420000D01*
X144875000Y-85280000I140000J0D01*
X145155000Y-85280000D01*
X145295000Y-85420000I0J-140000D01*
X145295000Y-85760000D01*
X145155000Y-85900000I-140000J0D01*
X144875000Y-85900000D01*
X144735000Y-85760000I0J140000D01*
G37*
G04 #@! TD.AperFunction*
G04 #@! TA.AperFunction,SMDPad,CuDef*
G01*
G75*
G02*
G01*
G75*
G02*
G01*
G75*
G02*
G01*
G75*
G02*
G01*
G04 #@! TD.AperFunction*
G04 #@! TA.AperFunction,SMDPad,CuDef*
G01*
G75*
G02*
G01*
G75*
G02*
G01*
G75*
G02*
G01*
G75*
G02*
G01*
G04 #@! TD.AperFunction*
G04 #@! TA.AperFunction,SMDPad,CuDef*
G01*
G75*
G02*
G01*
G75*
G02*
G01*
G75*
G02*
G01*
G75*
G02*
G01*
G04 #@! TD.AperFunction*
G04 #@! TA.AperFunction,SMDPad,CuDef*
G01*
G75*
G02*
G01*
G75*
G02*
G01*
G75*
G02*
G01*
G75*
G02*
G01*
G04 #@! TD.AperFunction*
G04 #@! TA.AperFunction,SMDPad,CuDef*
G01*
G75*
G02*
G01*
G75*
G02*
G01*
G75*
G02*
G01*
G75*
G02*
G01*
G04 #@! TD.AperFunction*
G04 #@! TA.AperFunction,SMDPad,CuDef*
G01*
G75*
G02*
G01*
G75*
G02*
G01*
G75*
G02*
G01*
G75*
G02*
G01*
G04 #@! TD.AperFunction*
G04 #@! TA.AperFunction,SMDPad,CuDef*
G01*
G75*
G02*
G01*
G75*
G02*
G01*
G75*
G02*
G01*
G75*
G02*
G01*
G04 #@! TD.AperFunction*
G04 #@! TA.AperFunction,SMDPad,CuDef*
G01*
G04 #@! TD.AperFunction*
G04 #@! TA.AperFunction,SMDPad,CuDef*
G01*
G04 #@! TD.AperFunction*
G04 #@! TA.AperFunction,SMDPad,CuDef*
G01*
G75*
G02*
G01*
G75*
G02*
G01*
G75*
G02*
G01*
G75*
G02*
G01*
G04 #@! TD.AperFunction*
G04 #@! TA.AperFunction,SMDPad,CuDef*
G01*
G75*
G02*
G01*
G75*
G02*
G01*
G75*
G02*
G01*
G75*
G02*
G01*
G04 #@! TD.AperFunction*
G04 #@! TA.AperFunction,SMDPad,CuDef*
G01*
G75*
G02*
G01*
G75*
G02*
G01*
G75*
G02*
G01*
G75*
G02*
G01*
G04 #@! TD.AperFunction*
G04 #@! TA.AperFunction,SMDPad,CuDef*
G01*
G75*
G02*
G01*
G75*
G02*
G01*
G75*
G02*
G01*
G75*
G02*
G01*
G04 #@! TD.AperFunction*
G04 #@! TA.AperFunction,SMDPad,CuDef*
G01*
G75*
G02*
G01*
G75*
G02*
G01*
G75*
G02*
G01*
G75*
G02*
G01*
G04 #@! TD.AperFunction*
G04 #@! TA.AperFunction,SMDPad,CuDef*
G01*
G75*
G02*
G01*
G75*
G02*
G01*
G75*
G02*
G01*
G75*
G02*
G01*
G04 #@! TD.AperFunction*
G04 #@! TA.AperFunction,SMDPad,CuDef*
G01*
G75*
G02*
G01*
G75*
G02*
G01*
G75*
G02*
G01*
G75*
G02*
G01*
G04 #@! TD.AperFunction*
G04 #@! TA.AperFunction,SMDPad,CuDef*
G01*
G75*
G02*
G01*
G75*
G02*
G01*
G75*
G02*
G01*
G75*
G02*
G01*
G04 #@! TD.AperFunction*
D15*
X137700000Y-85000000D03*
D16*
X137700000Y-89250000D03*
X137700000Y-80750000D03*
G04 #@! TA.AperFunction,SMDPad,CuDef*
G01*
G75*
G02*
G01*
G75*
G02*
G01*
G75*
G02*
G01*
G75*
G02*
G01*
G04 #@! TD.AperFunction*
G04 #@! TA.AperFunction,SMDPad,CuDef*
G01*
G75*
G02*
G01*
G75*
G02*
G01*
G75*
G02*
G01*
G75*
G02*
G01*
G04 #@! TD.AperFunction*
G04 #@! TA.AperFunction,SMDPad,CuDef*
G01*
G75*
G02*
G01*
G75*
G02*
G01*
G75*
G02*
G01*
G75*
G02*
G01*
G04 #@! TD.AperFunction*
G04 #@! TA.AperFunction,SMDPad,CuDef*
G01*
G75*
G02*
G01*
G75*
G02*
G01*
G75*
G02*
G01*
G75*
G02*
G01*
G04 #@! TD.AperFunction*
G04 #@! TA.AperFunction,SMDPad,CuDef*
G01*
G75*
G02*
G01*
G75*
G02*
G01*
G75*
G02*
G01*
G75*
G02*
G01*
G04 #@! TD.AperFunction*
G04 #@! TA.AperFunction,SMDPad,CuDef*
G01*
G75*
G02*
G01*
G75*
G02*
G01*
G75*
G02*
G01*
G75*
G02*
G01*
G04 #@! TD.AperFunction*
G04 #@! TA.AperFunction,SMDPad,CuDef*
G01*
G75*
G02*
G01*
G75*
G02*
G01*
G75*
G02*
G01*
G75*
G02*
G01*
G04 #@! TD.AperFunction*
G04 #@! TA.AperFunction,SMDPad,CuDef*
G01*
G75*
G02*
G01*
G75*
G02*
G01*
G75*
G02*
G01*
G75*
G02*
G01*
G04 #@! TD.AperFunction*
G04 #@! TA.AperFunction,SMDPad,CuDef*
G01*
G75*
G02*
G01*
G75*
G02*
G01*
G75*
G02*
G01*
G75*
G02*
G01*
G04 #@! TD.AperFunction*
G04 #@! TA.AperFunction,SMDPad,CuDef*
G01*
G75*
G02*
G01*
G75*
G02*
G01*
G75*
G02*
G01*
G75*
G02*
G01*
G04 #@! TD.AperFunction*
G04 #@! TA.AperFunction,SMDPad,CuDef*
G01*
G75*
G02*
G01*
G75*
G02*
G01*
G75*
G02*
G01*
G75*
G02*
G01*
G36*
X141995000Y-85270000D02*
X141625000Y-85270000D01*
X141490000Y-85135000I0J135000D01*
X141490000Y-84865000D01*
X141625000Y-84730000I135000J0D01*
X141995000Y-84730000D01*
X142130000Y-84865000I0J-135000D01*
X142130000Y-85135000D01*
X141995000Y-85270000I-135000J0D01*
G37*
G04 #@! TD.AperFunction*
G04 #@! TA.AperFunction,SMDPad,CuDef*
G01*
G75*
G02*
G01*
G75*
G02*
G01*
G75*
G02*
G01*
G75*
G02*
G01*
G36*
X141995000Y-84250000D02*
X141625000Y-84250000D01*
X141490000Y-84115000I0J135000D01*
X141490000Y-83845000D01*
X141625000Y-83710000I135000J0D01*
X141995000Y-83710000D01*
X142130000Y-83845000I0J-135000D01*
X142130000Y-84115000D01*
X141995000Y-84250000I-135000J0D01*
G37*
G04 #@! TD.AperFunction*
G04 #@! TA.AperFunction,SMDPad,CuDef*
G01*
G75*
G02*
G01*
G75*
G02*
G01*
G75*
G02*
G01*
G75*
G02*
G01*
G04 #@! TD.AperFunction*
G04 #@! TA.AperFunction,SMDPad,CuDef*
G01*
G75*
G02*
G01*
G75*
G02*
G01*
G75*
G02*
G01*
G75*
G02*
G01*
G04 #@! TD.AperFunction*
G04 #@! TA.AperFunction,SMDPad,CuDef*
G01*
G75*
G02*
G01*
G75*
G02*
G01*
G75*
G02*
G01*
G75*
G02*
G01*
G04 #@! TD.AperFunction*
G04 #@! TA.AperFunction,SMDPad,CuDef*
G01*
G75*
G02*
G01*
G75*
G02*
G01*
G75*
G02*
G01*
G75*
G02*
G01*
G04 #@! TD.AperFunction*
G04 #@! TA.AperFunction,SMDPad,CuDef*
G01*
G75*
G02*
G01*
G75*
G02*
G01*
G75*
G02*
G01*
G75*
G02*
G01*
G04 #@! TD.AperFunction*
G04 #@! TA.AperFunction,SMDPad,CuDef*
G01*
G75*
G02*
G01*
G75*
G02*
G01*
G75*
G02*
G01*
G75*
G02*
G01*
G04 #@! TD.AperFunction*
G04 #@! TA.AperFunction,SMDPad,CuDef*
G01*
G75*
G02*
G01*
G75*
G02*
G01*
G75*
G02*
G01*
G75*
G02*
G01*
G36*
X146940000Y-87770000D02*
X146940000Y-87430000D01*
X147080000Y-87290000I140000J0D01*
X147360000Y-87290000D01*
X147500000Y-87430000I0J-140000D01*
X147500000Y-87770000D01*
X147360000Y-87910000I-140000J0D01*
X147080000Y-87910000D01*
X146940000Y-87770000I0J140000D01*
G37*
G04 #@! TD.AperFunction*
G04 #@! TA.AperFunction,SMDPad,CuDef*
G01*
G75*
G02*
G01*
G75*
G02*
G01*
G75*
G02*
G01*
G75*
G02*
G01*
G36*
X147900000Y-87770000D02*
X147900000Y-87430000D01*
X148040000Y-87290000I140000J0D01*
X148320000Y-87290000D01*
X148460000Y-87430000I0J-140000D01*
X148460000Y-87770000D01*
X148320000Y-87910000I-140000J0D01*
X148040000Y-87910000D01*
X147900000Y-87770000I0J140000D01*
G37*
G04 #@! TD.AperFunction*
G04 #@! TA.AperFunction,SMDPad,CuDef*
G01*
G75*
G02*
G01*
G75*
G02*
G01*
G75*
G02*
G01*
G75*
G02*
G01*
G04 #@! TD.AperFunction*
G04 #@! TA.AperFunction,SMDPad,CuDef*
G01*
G75*
G02*
G01*
G75*
G02*
G01*
G75*
G02*
G01*
G75*
G02*
G01*
G04 #@! TD.AperFunction*
G04 #@! TA.AperFunction,SMDPad,CuDef*
G01*
G75*
G02*
G01*
G75*
G02*
G01*
G75*
G02*
G01*
G75*
G02*
G01*
G04 #@! TD.AperFunction*
G04 #@! TA.AperFunction,SMDPad,CuDef*
G01*
G75*
G02*
G01*
G75*
G02*
G01*
G75*
G02*
G01*
G75*
G02*
G01*
G04 #@! TD.AperFunction*
G04 #@! TA.AperFunction,SMDPad,CuDef*
G01*
G75*
G02*
G01*
G75*
G02*
G01*
G75*
G02*
G01*
G75*
G02*
G01*
G36*
X146797500Y-85842500D02*
X146672500Y-85842500D01*
X146610000Y-85780000I0J62500D01*
X146610000Y-85030000D01*
X146672500Y-84967500I62500J0D01*
X146797500Y-84967500D01*
X146860000Y-85030000I0J-62500D01*
X146860000Y-85780000D01*
X146797500Y-85842500I-62500J0D01*
G37*
G04 #@! TD.AperFunction*
G04 #@! TA.AperFunction,SMDPad,CuDef*
G01*
G75*
G02*
G01*
G75*
G02*
G01*
G75*
G02*
G01*
G75*
G02*
G01*
G36*
X147297500Y-85842500D02*
X147172500Y-85842500D01*
X147110000Y-85780000I0J62500D01*
X147110000Y-85030000D01*
X147172500Y-84967500I62500J0D01*
X147297500Y-84967500D01*
X147360000Y-85030000I0J-62500D01*
X147360000Y-85780000D01*
X147297500Y-85842500I-62500J0D01*
G37*
G04 #@! TD.AperFunction*
G04 #@! TA.AperFunction,SMDPad,CuDef*
G01*
G75*
G02*
G01*
G75*
G02*
G01*
G75*
G02*
G01*
G75*
G02*
G01*
G36*
X147797500Y-85842500D02*
X147672500Y-85842500D01*
X147610000Y-85780000I0J62500D01*
X147610000Y-85030000D01*
X147672500Y-84967500I62500J0D01*
X147797500Y-84967500D01*
X147860000Y-85030000I0J-62500D01*
X147860000Y-85780000D01*
X147797500Y-85842500I-62500J0D01*
G37*
G04 #@! TD.AperFunction*
G04 #@! TA.AperFunction,SMDPad,CuDef*
G01*
G75*
G02*
G01*
G75*
G02*
G01*
G75*
G02*
G01*
G75*
G02*
G01*
G36*
X148297500Y-85842500D02*
X148172500Y-85842500D01*
X148110000Y-85780000I0J62500D01*
X148110000Y-85030000D01*
X148172500Y-84967500I62500J0D01*
X148297500Y-84967500D01*
X148360000Y-85030000I0J-62500D01*
X148360000Y-85780000D01*
X148297500Y-85842500I-62500J0D01*
G37*
G04 #@! TD.AperFunction*
G04 #@! TA.AperFunction,SMDPad,CuDef*
G01*
G75*
G02*
G01*
G75*
G02*
G01*
G75*
G02*
G01*
G75*
G02*
G01*
G36*
X148297500Y-83997500D02*
X148172500Y-83997500D01*
X148110000Y-83935000I0J62500D01*
X148110000Y-83185000D01*
X148172500Y-83122500I62500J0D01*
X148297500Y-83122500D01*
X148360000Y-83185000I0J-62500D01*
X148360000Y-83935000D01*
X148297500Y-83997500I-62500J0D01*
G37*
G04 #@! TD.AperFunction*
G04 #@! TA.AperFunction,SMDPad,CuDef*
G01*
G75*
G02*
G01*
G75*
G02*
G01*
G75*
G02*
G01*
G75*
G02*
G01*
G36*
X147797500Y-83967500D02*
X147672500Y-83967500D01*
X147610000Y-83905000I0J62500D01*
X147610000Y-83155000D01*
X147672500Y-83092500I62500J0D01*
X147797500Y-83092500D01*
X147860000Y-83155000I0J-62500D01*
X147860000Y-83905000D01*
X147797500Y-83967500I-62500J0D01*
G37*
G04 #@! TD.AperFunction*
G04 #@! TA.AperFunction,SMDPad,CuDef*
G01*
G75*
G02*
G01*
G75*
G02*
G01*
G75*
G02*
G01*
G75*
G02*
G01*
G36*
X147297500Y-83945000D02*
X147172500Y-83945000D01*
X147110000Y-83882500I0J62500D01*
X147110000Y-83132500D01*
X147172500Y-83070000I62500J0D01*
X147297500Y-83070000D01*
X147360000Y-83132500I0J-62500D01*
X147360000Y-83882500D01*
X147297500Y-83945000I-62500J0D01*
G37*
G04 #@! TD.AperFunction*
G04 #@! TA.AperFunction,SMDPad,CuDef*
G01*
G75*
G02*
G01*
G75*
G02*
G01*
G75*
G02*
G01*
G75*
G02*
G01*
G36*
X146797500Y-83927500D02*
X146672500Y-83927500D01*
X146610000Y-83865000I0J62500D01*
X146610000Y-83115000D01*
X146672500Y-83052500I62500J0D01*
X146797500Y-83052500D01*
X146860000Y-83115000I0J-62500D01*
X146860000Y-83865000D01*
X146797500Y-83927500I-62500J0D01*
G37*
G04 #@! TD.AperFunction*
D17*
X147485000Y-84467500D03*
G04 #@! TA.AperFunction,SMDPad,CuDef*
G01*
G75*
G02*
G01*
G75*
G02*
G01*
G75*
G02*
G01*
G75*
G02*
G01*
G36*
X145650000Y-82000000D02*
X145650000Y-81800000D01*
X145750000Y-81700000I100000J0D01*
X146010000Y-81700000D01*
X146110000Y-81800000I0J-100000D01*
X146110000Y-82000000D01*
X146010000Y-82100000I-100000J0D01*
X145750000Y-82100000D01*
X145650000Y-82000000I0J100000D01*
G37*
G04 #@! TD.AperFunction*
G04 #@! TA.AperFunction,SMDPad,CuDef*
G01*
G75*
G02*
G01*
G75*
G02*
G01*
G75*
G02*
G01*
G75*
G02*
G01*
G36*
X146290000Y-82000000D02*
X146290000Y-81800000D01*
X146390000Y-81700000I100000J0D01*
X146650000Y-81700000D01*
X146750000Y-81800000I0J-100000D01*
X146750000Y-82000000D01*
X146650000Y-82100000I-100000J0D01*
X146390000Y-82100000D01*
X146290000Y-82000000I0J100000D01*
G37*
G04 #@! TD.AperFunction*
G04 #@! TA.AperFunction,SMDPad,CuDef*
G01*
G75*
G02*
G01*
G75*
G02*
G01*
G75*
G02*
G01*
G75*
G02*
G01*
G04 #@! TD.AperFunction*
G04 #@! TA.AperFunction,SMDPad,CuDef*
G01*
G75*
G02*
G01*
G75*
G02*
G01*
G75*
G02*
G01*
G75*
G02*
G01*
G04 #@! TD.AperFunction*
D18*
D19*
G04 #@! TA.AperFunction,SMDPad,CuDef*
G01*
G75*
G02*
G01*
G75*
G02*
G01*
G75*
G02*
G01*
G75*
G02*
G01*
G04 #@! TD.AperFunction*
G04 #@! TA.AperFunction,SMDPad,CuDef*
G01*
G75*
G02*
G01*
G75*
G02*
G01*
G75*
G02*
G01*
G75*
G02*
G01*
G04 #@! TD.AperFunction*
G04 #@! TA.AperFunction,SMDPad,CuDef*
G01*
G75*
G02*
G01*
G75*
G02*
G01*
G75*
G02*
G01*
G75*
G02*
G01*
G04 #@! TD.AperFunction*
G04 #@! TA.AperFunction,SMDPad,CuDef*
G01*
G75*
G02*
G01*
G75*
G02*
G01*
G75*
G02*
G01*
G75*
G02*
G01*
G36*
X150285000Y-85780000D02*
X149915000Y-85780000D01*
X149780000Y-85645000I0J135000D01*
X149780000Y-85375000D01*
X149915000Y-85240000I135000J0D01*
X150285000Y-85240000D01*
X150420000Y-85375000I0J-135000D01*
X150420000Y-85645000D01*
X150285000Y-85780000I-135000J0D01*
G37*
G04 #@! TD.AperFunction*
G04 #@! TA.AperFunction,SMDPad,CuDef*
G01*
G75*
G02*
G01*
G75*
G02*
G01*
G75*
G02*
G01*
G75*
G02*
G01*
G36*
X150285000Y-84760000D02*
X149915000Y-84760000D01*
X149780000Y-84625000I0J135000D01*
X149780000Y-84355000D01*
X149915000Y-84220000I135000J0D01*
X150285000Y-84220000D01*
X150420000Y-84355000I0J-135000D01*
X150420000Y-84625000D01*
X150285000Y-84760000I-135000J0D01*
G37*
G04 #@! TD.AperFunction*
G04 #@! TA.AperFunction,SMDPad,CuDef*
G01*
G75*
G02*
G01*
G75*
G02*
G01*
G75*
G02*
G01*
G75*
G02*
G01*
G04 #@! TD.AperFunction*
G04 #@! TA.AperFunction,SMDPad,CuDef*
G01*
G75*
G02*
G01*
G75*
G02*
G01*
G75*
G02*
G01*
G75*
G02*
G01*
G04 #@! TD.AperFunction*
G04 #@! TA.AperFunction,SMDPad,CuDef*
G01*
G75*
G02*
G01*
G75*
G02*
G01*
G75*
G02*
G01*
G75*
G02*
G01*
G04 #@! TD.AperFunction*
G04 #@! TA.AperFunction,SMDPad,CuDef*
G01*
G75*
G02*
G01*
G75*
G02*
G01*
G75*
G02*
G01*
G75*
G02*
G01*
G04 #@! TD.AperFunction*
G04 #@! TA.AperFunction,SMDPad,CuDef*
G01*
G75*
G02*
G01*
G75*
G02*
G01*
G75*
G02*
G01*
G75*
G02*
G01*
G04 #@! TD.AperFunction*
G04 #@! TA.AperFunction,SMDPad,CuDef*
G01*
G75*
G02*
G01*
G75*
G02*
G01*
G75*
G02*
G01*
G75*
G02*
G01*
G04 #@! TD.AperFunction*
G04 #@! TA.AperFunction,SMDPad,CuDef*
G01*
G75*
G02*
G01*
G75*
G02*
G01*
G75*
G02*
G01*
G75*
G02*
G01*
G04 #@! TD.AperFunction*
G04 #@! TA.AperFunction,SMDPad,CuDef*
G01*
G75*
G02*
G01*
G75*
G02*
G01*
G75*
G02*
G01*
G75*
G02*
G01*
G04 #@! TD.AperFunction*
G04 #@! TA.AperFunction,SMDPad,CuDef*
G01*
G75*
G02*
G01*
G75*
G02*
G01*
G75*
G02*
G01*
G75*
G02*
G01*
G04 #@! TD.AperFunction*
G04 #@! TA.AperFunction,SMDPad,CuDef*
G01*
G75*
G02*
G01*
G75*
G02*
G01*
G75*
G02*
G01*
G75*
G02*
G01*
G04 #@! TD.AperFunction*
G04 #@! TA.AperFunction,SMDPad,CuDef*
G01*
G75*
G02*
G01*
G75*
G02*
G01*
G75*
G02*
G01*
G75*
G02*
G01*
G04 #@! TD.AperFunction*
G04 #@! TA.AperFunction,SMDPad,CuDef*
G01*
G75*
G02*
G01*
G75*
G02*
G01*
G75*
G02*
G01*
G75*
G02*
G01*
G04 #@! TD.AperFunction*
G04 #@! TA.AperFunction,SMDPad,CuDef*
G01*
G75*
G02*
G01*
G75*
G02*
G01*
G75*
G02*
G01*
G75*
G02*
G01*
G04 #@! TD.AperFunction*
G04 #@! TA.AperFunction,SMDPad,CuDef*
G01*
G75*
G02*
G01*
G75*
G02*
G01*
G75*
G02*
G01*
G75*
G02*
G01*
G04 #@! TD.AperFunction*
G04 #@! TA.AperFunction,SMDPad,CuDef*
G01*
G75*
G02*
G01*
G75*
G02*
G01*
G75*
G02*
G01*
G75*
G02*
G01*
G04 #@! TD.AperFunction*
G04 #@! TA.AperFunction,SMDPad,CuDef*
G01*
G75*
G02*
G01*
G75*
G02*
G01*
G75*
G02*
G01*
G75*
G02*
G01*
G04 #@! TD.AperFunction*
D20*
D21*
D20*
D22*
G04 #@! TA.AperFunction,SMDPad,CuDef*
G01*
G75*
G02*
G01*
G75*
G02*
G01*
G75*
G02*
G01*
G75*
G02*
G01*
G04 #@! TD.AperFunction*
G04 #@! TA.AperFunction,SMDPad,CuDef*
G01*
G75*
G02*
G01*
G75*
G02*
G01*
G75*
G02*
G01*
G75*
G02*
G01*
G04 #@! TD.AperFunction*
G04 #@! TA.AperFunction,SMDPad,CuDef*
G01*
G75*
G02*
G01*
G75*
G02*
G01*
G75*
G02*
G01*
G75*
G02*
G01*
G04 #@! TD.AperFunction*
G04 #@! TA.AperFunction,SMDPad,CuDef*
G01*
G75*
G02*
G01*
G75*
G02*
G01*
G75*
G02*
G01*
G75*
G02*
G01*
G04 #@! TD.AperFunction*
G04 #@! TA.AperFunction,SMDPad,CuDef*
G01*
G75*
G02*
G01*
G75*
G02*
G01*
G75*
G02*
G01*
G75*
G02*
G01*
G04 #@! TD.AperFunction*
G04 #@! TA.AperFunction,SMDPad,CuDef*
G01*
G75*
G02*
G01*
G75*
G02*
G01*
G75*
G02*
G01*
G75*
G02*
G01*
G04 #@! TD.AperFunction*
G04 #@! TA.AperFunction,SMDPad,CuDef*
G01*
G75*
G02*
G01*
G75*
G02*
G01*
G75*
G02*
G01*
G75*
G02*
G01*
G04 #@! TD.AperFunction*
G04 #@! TA.AperFunction,SMDPad,CuDef*
G01*
G75*
G02*
G01*
G75*
G02*
G01*
G75*
G02*
G01*
G75*
G02*
G01*
G04 #@! TD.AperFunction*
D23*
G04 #@! TA.AperFunction,SMDPad,CuDef*
G01*
G75*
G02*
G01*
G75*
G02*
G01*
G75*
G02*
G01*
G75*
G02*
G01*
G04 #@! TD.AperFunction*
G04 #@! TA.AperFunction,SMDPad,CuDef*
G01*
G75*
G02*
G01*
G75*
G02*
G01*
G75*
G02*
G01*
G75*
G02*
G01*
G04 #@! TD.AperFunction*
G04 #@! TA.AperFunction,SMDPad,CuDef*
G01*
G75*
G02*
G01*
G75*
G02*
G01*
G75*
G02*
G01*
G75*
G02*
G01*
G04 #@! TD.AperFunction*
G04 #@! TA.AperFunction,SMDPad,CuDef*
G01*
G75*
G02*
G01*
G75*
G02*
G01*
G75*
G02*
G01*
G75*
G02*
G01*
G04 #@! TD.AperFunction*
G04 #@! TA.AperFunction,SMDPad,CuDef*
G01*
G75*
G02*
G01*
G75*
G02*
G01*
G75*
G02*
G01*
G75*
G02*
G01*
G04 #@! TD.AperFunction*
G04 #@! TA.AperFunction,SMDPad,CuDef*
G01*
G75*
G02*
G01*
G75*
G02*
G01*
G75*
G02*
G01*
G75*
G02*
G01*
G04 #@! TD.AperFunction*
G04 #@! TA.AperFunction,SMDPad,CuDef*
G01*
G75*
G02*
G01*
G75*
G02*
G01*
G75*
G02*
G01*
G75*
G02*
G01*
G04 #@! TD.AperFunction*
G04 #@! TA.AperFunction,SMDPad,CuDef*
G01*
G75*
G02*
G01*
G75*
G02*
G01*
G75*
G02*
G01*
G75*
G02*
G01*
G04 #@! TD.AperFunction*
G04 #@! TA.AperFunction,SMDPad,CuDef*
G01*
G75*
G02*
G01*
G75*
G02*
G01*
G75*
G02*
G01*
G75*
G02*
G01*
G04 #@! TD.AperFunction*
G04 #@! TA.AperFunction,SMDPad,CuDef*
G01*
G75*
G02*
G01*
G75*
G02*
G01*
G75*
G02*
G01*
G75*
G02*
G01*
G04 #@! TD.AperFunction*
G04 #@! TA.AperFunction,SMDPad,CuDef*
G01*
G75*
G02*
G01*
G75*
G02*
G01*
G75*
G02*
G01*
G75*
G02*
G01*
G04 #@! TD.AperFunction*
G04 #@! TA.AperFunction,SMDPad,CuDef*
G01*
G75*
G02*
G01*
G75*
G02*
G01*
G75*
G02*
G01*
G75*
G02*
G01*
G04 #@! TD.AperFunction*
G04 #@! TA.AperFunction,SMDPad,CuDef*
G01*
G75*
G02*
G01*
G75*
G02*
G01*
G75*
G02*
G01*
G75*
G02*
G01*
G04 #@! TD.AperFunction*
G04 #@! TA.AperFunction,SMDPad,CuDef*
G01*
G75*
G02*
G01*
G75*
G02*
G01*
G75*
G02*
G01*
G75*
G02*
G01*
G04 #@! TD.AperFunction*
G04 #@! TA.AperFunction,SMDPad,CuDef*
G01*
G75*
G02*
G01*
G75*
G02*
G01*
G75*
G02*
G01*
G75*
G02*
G01*
G04 #@! TD.AperFunction*
G04 #@! TA.AperFunction,SMDPad,CuDef*
G01*
G75*
G02*
G01*
G75*
G02*
G01*
G75*
G02*
G01*
G75*
G02*
G01*
G04 #@! TD.AperFunction*
G04 #@! TA.AperFunction,SMDPad,CuDef*
G01*
G75*
G02*
G01*
G75*
G02*
G01*
G75*
G02*
G01*
G75*
G02*
G01*
G04 #@! TD.AperFunction*
G04 #@! TA.AperFunction,SMDPad,CuDef*
G01*
G75*
G02*
G01*
G75*
G02*
G01*
G75*
G02*
G01*
G75*
G02*
G01*
G04 #@! TD.AperFunction*
G04 #@! TA.AperFunction,SMDPad,CuDef*
G01*
G75*
G02*
G01*
G75*
G02*
G01*
G75*
G02*
G01*
G75*
G02*
G01*
G04 #@! TD.AperFunction*
G04 #@! TA.AperFunction,SMDPad,CuDef*
G01*
G75*
G02*
G01*
G75*
G02*
G01*
G75*
G02*
G01*
G75*
G02*
G01*
G04 #@! TD.AperFunction*
G04 #@! TA.AperFunction,SMDPad,CuDef*
G01*
G75*
G02*
G01*
G75*
G02*
G01*
G75*
G02*
G01*
G75*
G02*
G01*
G04 #@! TD.AperFunction*
G04 #@! TA.AperFunction,SMDPad,CuDef*
G01*
G75*
G02*
G01*
G75*
G02*
G01*
G75*
G02*
G01*
G75*
G02*
G01*
G04 #@! TD.AperFunction*
G04 #@! TA.AperFunction,SMDPad,CuDef*
G01*
G75*
G02*
G01*
G75*
G02*
G01*
G75*
G02*
G01*
G75*
G02*
G01*
G04 #@! TD.AperFunction*
G04 #@! TA.AperFunction,SMDPad,CuDef*
G01*
G75*
G02*
G01*
G75*
G02*
G01*
G75*
G02*
G01*
G75*
G02*
G01*
G04 #@! TD.AperFunction*
G04 #@! TA.AperFunction,SMDPad,CuDef*
G01*
G75*
G02*
G01*
G75*
G02*
G01*
G75*
G02*
G01*
G75*
G02*
G01*
G04 #@! TD.AperFunction*
G04 #@! TA.AperFunction,SMDPad,CuDef*
G01*
G75*
G02*
G01*
G75*
G02*
G01*
G75*
G02*
G01*
G75*
G02*
G01*
G04 #@! TD.AperFunction*
G04 #@! TA.AperFunction,SMDPad,CuDef*
G01*
G75*
G02*
G01*
G75*
G02*
G01*
G75*
G02*
G01*
G75*
G02*
G01*
G04 #@! TD.AperFunction*
G04 #@! TA.AperFunction,SMDPad,CuDef*
G01*
G75*
G02*
G01*
G75*
G02*
G01*
G75*
G02*
G01*
G75*
G02*
G01*
G04 #@! TD.AperFunction*
G04 #@! TA.AperFunction,SMDPad,CuDef*
G01*
G75*
G02*
G01*
G75*
G02*
G01*
G75*
G02*
G01*
G75*
G02*
G01*
G04 #@! TD.AperFunction*
G04 #@! TA.AperFunction,SMDPad,CuDef*
G01*
G75*
G02*
G01*
G75*
G02*
G01*
G75*
G02*
G01*
G75*
G02*
G01*
G04 #@! TD.AperFunction*
G04 #@! TA.AperFunction,SMDPad,CuDef*
G01*
G75*
G02*
G01*
G75*
G02*
G01*
G75*
G02*
G01*
G75*
G02*
G01*
G04 #@! TD.AperFunction*
G04 #@! TA.AperFunction,SMDPad,CuDef*
G01*
G75*
G02*
G01*
G75*
G02*
G01*
G75*
G02*
G01*
G75*
G02*
G01*
G04 #@! TD.AperFunction*
G04 #@! TA.AperFunction,SMDPad,CuDef*
G01*
G75*
G02*
G01*
G75*
G02*
G01*
G75*
G02*
G01*
G75*
G02*
G01*
G04 #@! TD.AperFunction*
G04 #@! TA.AperFunction,SMDPad,CuDef*
G01*
G75*
G02*
G01*
G75*
G02*
G01*
G75*
G02*
G01*
G75*
G02*
G01*
G04 #@! TD.AperFunction*
G04 #@! TA.AperFunction,SMDPad,CuDef*
G01*
G75*
G02*
G01*
G75*
G02*
G01*
G75*
G02*
G01*
G75*
G02*
G01*
G04 #@! TD.AperFunction*
G04 #@! TA.AperFunction,SMDPad,CuDef*
G01*
G75*
G02*
G01*
G75*
G02*
G01*
G75*
G02*
G01*
G75*
G02*
G01*
G04 #@! TD.AperFunction*
G04 #@! TA.AperFunction,SMDPad,CuDef*
G01*
G75*
G02*
G01*
G75*
G02*
G01*
G75*
G02*
G01*
G75*
G02*
G01*
G04 #@! TD.AperFunction*
G04 #@! TA.AperFunction,SMDPad,CuDef*
G01*
G75*
G02*
G01*
G75*
G02*
G01*
G75*
G02*
G01*
G75*
G02*
G01*
G04 #@! TD.AperFunction*
G04 #@! TA.AperFunction,SMDPad,CuDef*
G01*
G75*
G02*
G01*
G75*
G02*
G01*
G75*
G02*
G01*
G75*
G02*
G01*
G04 #@! TD.AperFunction*
G04 #@! TA.AperFunction,SMDPad,CuDef*
G01*
G75*
G02*
G01*
G75*
G02*
G01*
G75*
G02*
G01*
G75*
G02*
G01*
G04 #@! TD.AperFunction*
G04 #@! TA.AperFunction,SMDPad,CuDef*
G01*
G75*
G02*
G01*
G75*
G02*
G01*
G75*
G02*
G01*
G75*
G02*
G01*
G04 #@! TD.AperFunction*
G04 #@! TA.AperFunction,SMDPad,CuDef*
G01*
G75*
G02*
G01*
G75*
G02*
G01*
G75*
G02*
G01*
G75*
G02*
G01*
G04 #@! TD.AperFunction*
G04 #@! TA.AperFunction,SMDPad,CuDef*
G01*
G75*
G02*
G01*
G75*
G02*
G01*
G75*
G02*
G01*
G75*
G02*
G01*
G04 #@! TD.AperFunction*
G04 #@! TA.AperFunction,SMDPad,CuDef*
G01*
G75*
G02*
G01*
G75*
G02*
G01*
G75*
G02*
G01*
G75*
G02*
G01*
G04 #@! TD.AperFunction*
G04 #@! TA.AperFunction,SMDPad,CuDef*
G01*
G75*
G02*
G01*
G75*
G02*
G01*
G75*
G02*
G01*
G75*
G02*
G01*
G04 #@! TD.AperFunction*
G04 #@! TA.AperFunction,SMDPad,CuDef*
G01*
G75*
G02*
G01*
G75*
G02*
G01*
G75*
G02*
G01*
G75*
G02*
G01*
G04 #@! TD.AperFunction*
G04 #@! TA.AperFunction,SMDPad,CuDef*
G01*
G75*
G02*
G01*
G75*
G02*
G01*
G75*
G02*
G01*
G75*
G02*
G01*
G04 #@! TD.AperFunction*
G04 #@! TA.AperFunction,SMDPad,CuDef*
G01*
G75*
G02*
G01*
G75*
G02*
G01*
G75*
G02*
G01*
G75*
G02*
G01*
G04 #@! TD.AperFunction*
G04 #@! TA.AperFunction,SMDPad,CuDef*
G01*
G75*
G02*
G01*
G75*
G02*
G01*
G75*
G02*
G01*
G75*
G02*
G01*
G04 #@! TD.AperFunction*
G04 #@! TA.AperFunction,SMDPad,CuDef*
G01*
G75*
G02*
G01*
G75*
G02*
G01*
G75*
G02*
G01*
G75*
G02*
G01*
G04 #@! TD.AperFunction*
G04 #@! TA.AperFunction,SMDPad,CuDef*
G01*
G75*
G02*
G01*
G75*
G02*
G01*
G75*
G02*
G01*
G75*
G02*
G01*
G04 #@! TD.AperFunction*
G04 #@! TA.AperFunction,SMDPad,CuDef*
G01*
G75*
G02*
G01*
G75*
G02*
G01*
G75*
G02*
G01*
G75*
G02*
G01*
G04 #@! TD.AperFunction*
G04 #@! TA.AperFunction,SMDPad,CuDef*
G01*
G75*
G02*
G01*
G75*
G02*
G01*
G75*
G02*
G01*
G75*
G02*
G01*
G04 #@! TD.AperFunction*
G04 #@! TA.AperFunction,SMDPad,CuDef*
G01*
G75*
G02*
G01*
G75*
G02*
G01*
G75*
G02*
G01*
G75*
G02*
G01*
G04 #@! TD.AperFunction*
G04 #@! TA.AperFunction,SMDPad,CuDef*
G01*
G75*
G02*
G01*
G75*
G02*
G01*
G75*
G02*
G01*
G75*
G02*
G01*
G04 #@! TD.AperFunction*
G04 #@! TA.AperFunction,SMDPad,CuDef*
G01*
G75*
G02*
G01*
G75*
G02*
G01*
G75*
G02*
G01*
G75*
G02*
G01*
G04 #@! TD.AperFunction*
G04 #@! TA.AperFunction,SMDPad,CuDef*
G01*
G75*
G02*
G01*
G75*
G02*
G01*
G75*
G02*
G01*
G75*
G02*
G01*
G04 #@! TD.AperFunction*
G04 #@! TA.AperFunction,SMDPad,CuDef*
G01*
G75*
G02*
G01*
G75*
G02*
G01*
G75*
G02*
G01*
G75*
G02*
G01*
G04 #@! TD.AperFunction*
G04 #@! TA.AperFunction,SMDPad,CuDef*
G01*
G75*
G02*
G01*
G75*
G02*
G01*
G75*
G02*
G01*
G75*
G02*
G01*
G04 #@! TD.AperFunction*
G04 #@! TA.AperFunction,SMDPad,CuDef*
G01*
G75*
G02*
G01*
G75*
G02*
G01*
G75*
G02*
G01*
G75*
G02*
G01*
G04 #@! TD.AperFunction*
G04 #@! TA.AperFunction,SMDPad,CuDef*
G01*
G75*
G02*
G01*
G75*
G02*
G01*
G75*
G02*
G01*
G75*
G02*
G01*
G04 #@! TD.AperFunction*
G04 #@! TA.AperFunction,SMDPad,CuDef*
G01*
G75*
G02*
G01*
G75*
G02*
G01*
G75*
G02*
G01*
G75*
G02*
G01*
G04 #@! TD.AperFunction*
G04 #@! TA.AperFunction,SMDPad,CuDef*
G01*
G75*
G02*
G01*
G75*
G02*
G01*
G75*
G02*
G01*
G75*
G02*
G01*
G04 #@! TD.AperFunction*
G04 #@! TA.AperFunction,SMDPad,CuDef*
G01*
G75*
G02*
G01*
G75*
G02*
G01*
G75*
G02*
G01*
G75*
G02*
G01*
G04 #@! TD.AperFunction*
G04 #@! TA.AperFunction,SMDPad,CuDef*
G01*
G75*
G02*
G01*
G75*
G02*
G01*
G75*
G02*
G01*
G75*
G02*
G01*
G04 #@! TD.AperFunction*
G04 #@! TA.AperFunction,SMDPad,CuDef*
G01*
G75*
G02*
G01*
G75*
G02*
G01*
G75*
G02*
G01*
G75*
G02*
G01*
G04 #@! TD.AperFunction*
G04 #@! TA.AperFunction,SMDPad,CuDef*
G01*
G75*
G02*
G01*
G75*
G02*
G01*
G75*
G02*
G01*
G75*
G02*
G01*
G04 #@! TD.AperFunction*
G04 #@! TA.AperFunction,SMDPad,CuDef*
G01*
G75*
G02*
G01*
G75*
G02*
G01*
G75*
G02*
G01*
G75*
G02*
G01*
G04 #@! TD.AperFunction*
G04 #@! TA.AperFunction,SMDPad,CuDef*
G01*
G75*
G02*
G01*
G75*
G02*
G01*
G75*
G02*
G01*
G75*
G02*
G01*
G04 #@! TD.AperFunction*
G04 #@! TA.AperFunction,SMDPad,CuDef*
G01*
G75*
G02*
G01*
G75*
G02*
G01*
G75*
G02*
G01*
G75*
G02*
G01*
G04 #@! TD.AperFunction*
G04 #@! TA.AperFunction,SMDPad,CuDef*
G01*
G75*
G02*
G01*
G75*
G02*
G01*
G75*
G02*
G01*
G75*
G02*
G01*
G04 #@! TD.AperFunction*
G04 #@! TA.AperFunction,SMDPad,CuDef*
G01*
G75*
G02*
G01*
G75*
G02*
G01*
G75*
G02*
G01*
G75*
G02*
G01*
G04 #@! TD.AperFunction*
G04 #@! TA.AperFunction,SMDPad,CuDef*
G01*
G75*
G02*
G01*
G75*
G02*
G01*
G75*
G02*
G01*
G75*
G02*
G01*
G36*
X149820000Y-83675000D02*
X149820000Y-83305000D01*
X149955000Y-83170000I135000J0D01*
X150225000Y-83170000D01*
X150360000Y-83305000I0J-135000D01*
X150360000Y-83675000D01*
X150225000Y-83810000I-135000J0D01*
X149955000Y-83810000D01*
X149820000Y-83675000I0J135000D01*
G37*
G04 #@! TD.AperFunction*
G04 #@! TA.AperFunction,SMDPad,CuDef*
G01*
G75*
G02*
G01*
G75*
G02*
G01*
G75*
G02*
G01*
G75*
G02*
G01*
G04 #@! TD.AperFunction*
G04 #@! TA.AperFunction,SMDPad,CuDef*
G01*
G75*
G02*
G01*
G75*
G02*
G01*
G75*
G02*
G01*
G75*
G02*
G01*
G04 #@! TD.AperFunction*
G04 #@! TA.AperFunction,SMDPad,CuDef*
G01*
G75*
G02*
G01*
G75*
G02*
G01*
G75*
G02*
G01*
G75*
G02*
G01*
G04 #@! TD.AperFunction*
G04 #@! TA.AperFunction,SMDPad,CuDef*
G01*
G75*
G02*
G01*
G75*
G02*
G01*
G75*
G02*
G01*
G75*
G02*
G01*
G04 #@! TD.AperFunction*
G04 #@! TA.AperFunction,SMDPad,CuDef*
G01*
G75*
G02*
G01*
G75*
G02*
G01*
G75*
G02*
G01*
G75*
G02*
G01*
G04 #@! TD.AperFunction*
G04 #@! TA.AperFunction,SMDPad,CuDef*
G01*
G75*
G02*
G01*
G75*
G02*
G01*
G75*
G02*
G01*
G75*
G02*
G01*
G04 #@! TD.AperFunction*
G04 #@! TA.AperFunction,SMDPad,CuDef*
G01*
G75*
G02*
G01*
G75*
G02*
G01*
G75*
G02*
G01*
G75*
G02*
G01*
G04 #@! TD.AperFunction*
G04 #@! TA.AperFunction,SMDPad,CuDef*
G01*
G75*
G02*
G01*
G75*
G02*
G01*
G75*
G02*
G01*
G75*
G02*
G01*
G04 #@! TD.AperFunction*
G04 #@! TA.AperFunction,SMDPad,CuDef*
G01*
G75*
G02*
G01*
G75*
G02*
G01*
G75*
G02*
G01*
G75*
G02*
G01*
G04 #@! TD.AperFunction*
G04 #@! TA.AperFunction,SMDPad,CuDef*
G01*
G75*
G02*
G01*
G75*
G02*
G01*
G75*
G02*
G01*
G75*
G02*
G01*
G04 #@! TD.AperFunction*
G04 #@! TA.AperFunction,SMDPad,CuDef*
G01*
G75*
G02*
G01*
G75*
G02*
G01*
G75*
G02*
G01*
G75*
G02*
G01*
G04 #@! TD.AperFunction*
G04 #@! TA.AperFunction,SMDPad,CuDef*
G01*
G75*
G02*
G01*
G75*
G02*
G01*
G75*
G02*
G01*
G75*
G02*
G01*
G04 #@! TD.AperFunction*
G04 #@! TA.AperFunction,SMDPad,CuDef*
G01*
G75*
G02*
G01*
G75*
G02*
G01*
G75*
G02*
G01*
G75*
G02*
G01*
G04 #@! TD.AperFunction*
G04 #@! TA.AperFunction,SMDPad,CuDef*
G01*
G75*
G02*
G01*
G75*
G02*
G01*
G75*
G02*
G01*
G75*
G02*
G01*
G04 #@! TD.AperFunction*
G04 #@! TA.AperFunction,SMDPad,CuDef*
G01*
G75*
G02*
G01*
G75*
G02*
G01*
G75*
G02*
G01*
G75*
G02*
G01*
G04 #@! TD.AperFunction*
G04 #@! TA.AperFunction,SMDPad,CuDef*
G01*
G75*
G02*
G01*
G75*
G02*
G01*
G75*
G02*
G01*
G75*
G02*
G01*
G04 #@! TD.AperFunction*
G04 #@! TA.AperFunction,SMDPad,CuDef*
G01*
G75*
G02*
G01*
G75*
G02*
G01*
G75*
G02*
G01*
G75*
G02*
G01*
G04 #@! TD.AperFunction*
G04 #@! TA.AperFunction,SMDPad,CuDef*
G01*
G75*
G02*
G01*
G75*
G02*
G01*
G75*
G02*
G01*
G75*
G02*
G01*
G04 #@! TD.AperFunction*
G04 #@! TA.AperFunction,SMDPad,CuDef*
G01*
G75*
G02*
G01*
G75*
G02*
G01*
G75*
G02*
G01*
G75*
G02*
G01*
G04 #@! TD.AperFunction*
G04 #@! TA.AperFunction,SMDPad,CuDef*
G01*
G75*
G02*
G01*
G75*
G02*
G01*
G75*
G02*
G01*
G75*
G02*
G01*
G04 #@! TD.AperFunction*
G04 #@! TA.AperFunction,SMDPad,CuDef*
G01*
G75*
G02*
G01*
G75*
G02*
G01*
G75*
G02*
G01*
G75*
G02*
G01*
G36*
X148560000Y-80730000D02*
X148560000Y-81070000D01*
X148420000Y-81210000I-140000J0D01*
X148140000Y-81210000D01*
X148000000Y-81070000I0J140000D01*
X148000000Y-80730000D01*
X148140000Y-80590000I140000J0D01*
X148420000Y-80590000D01*
X148560000Y-80730000I0J-140000D01*
G37*
G04 #@! TD.AperFunction*
G04 #@! TA.AperFunction,SMDPad,CuDef*
G01*
G75*
G02*
G01*
G75*
G02*
G01*
G75*
G02*
G01*
G75*
G02*
G01*
G36*
X147600000Y-80730000D02*
X147600000Y-81070000D01*
X147460000Y-81210000I-140000J0D01*
X147180000Y-81210000D01*
X147040000Y-81070000I0J140000D01*
X147040000Y-80730000D01*
X147180000Y-80590000I140000J0D01*
X147460000Y-80590000D01*
X147600000Y-80730000I0J-140000D01*
G37*
G04 #@! TD.AperFunction*
G04 #@! TA.AperFunction,SMDPad,CuDef*
G01*
G75*
G02*
G01*
G75*
G02*
G01*
G75*
G02*
G01*
G75*
G02*
G01*
G04 #@! TD.AperFunction*
G04 #@! TA.AperFunction,SMDPad,CuDef*
G01*
G75*
G02*
G01*
G75*
G02*
G01*
G75*
G02*
G01*
G75*
G02*
G01*
G04 #@! TD.AperFunction*
G04 #@! TA.AperFunction,SMDPad,CuDef*
G01*
G75*
G02*
G01*
G75*
G02*
G01*
G75*
G02*
G01*
G75*
G02*
G01*
G36*
X148250000Y-81800000D02*
X148250000Y-82000000D01*
X148150000Y-82100000I-100000J0D01*
X147890000Y-82100000D01*
X147790000Y-82000000I0J100000D01*
X147790000Y-81800000D01*
X147890000Y-81700000I100000J0D01*
X148150000Y-81700000D01*
X148250000Y-81800000I0J-100000D01*
G37*
G04 #@! TD.AperFunction*
G04 #@! TA.AperFunction,SMDPad,CuDef*
G01*
G75*
G02*
G01*
G75*
G02*
G01*
G75*
G02*
G01*
G75*
G02*
G01*
G36*
X147610000Y-81800000D02*
X147610000Y-82000000D01*
X147510000Y-82100000I-100000J0D01*
X147250000Y-82100000D01*
X147150000Y-82000000I0J100000D01*
X147150000Y-81800000D01*
X147250000Y-81700000I100000J0D01*
X147510000Y-81700000D01*
X147610000Y-81800000I0J-100000D01*
G37*
G04 #@! TD.AperFunction*
G04 #@! TA.AperFunction,SMDPad,CuDef*
G01*
G75*
G02*
G01*
G75*
G02*
G01*
G75*
G02*
G01*
G75*
G02*
G01*
G36*
X149415000Y-80620000D02*
X149785000Y-80620000D01*
X149920000Y-80755000I0J-135000D01*
X149920000Y-81025000D01*
X149785000Y-81160000I-135000J0D01*
X149415000Y-81160000D01*
X149280000Y-81025000I0J135000D01*
X149280000Y-80755000D01*
X149415000Y-80620000I135000J0D01*
G37*
G04 #@! TD.AperFunction*
G04 #@! TA.AperFunction,SMDPad,CuDef*
G01*
G75*
G02*
G01*
G75*
G02*
G01*
G75*
G02*
G01*
G75*
G02*
G01*
G36*
X149415000Y-81640000D02*
X149785000Y-81640000D01*
X149920000Y-81775000I0J-135000D01*
X149920000Y-82045000D01*
X149785000Y-82180000I-135000J0D01*
X149415000Y-82180000D01*
X149280000Y-82045000I0J135000D01*
X149280000Y-81775000D01*
X149415000Y-81640000I135000J0D01*
G37*
G04 #@! TD.AperFunction*
G04 #@! TA.AperFunction,SMDPad,CuDef*
G01*
G75*
G02*
G01*
G75*
G02*
G01*
G75*
G02*
G01*
G75*
G02*
G01*
G04 #@! TD.AperFunction*
G04 #@! TA.AperFunction,SMDPad,CuDef*
G01*
G75*
G02*
G01*
G75*
G02*
G01*
G75*
G02*
G01*
G75*
G02*
G01*
G04 #@! TD.AperFunction*
G04 #@! TA.AperFunction,SMDPad,CuDef*
G01*
G75*
G02*
G01*
G75*
G02*
G01*
G75*
G02*
G01*
G75*
G02*
G01*
G36*
X143795000Y-83660000D02*
X143795000Y-83320000D01*
X143935000Y-83180000I140000J0D01*
X144215000Y-83180000D01*
X144355000Y-83320000I0J-140000D01*
X144355000Y-83660000D01*
X144215000Y-83800000I-140000J0D01*
X143935000Y-83800000D01*
X143795000Y-83660000I0J140000D01*
G37*
G04 #@! TD.AperFunction*
G04 #@! TA.AperFunction,SMDPad,CuDef*
G01*
G75*
G02*
G01*
G75*
G02*
G01*
G75*
G02*
G01*
G75*
G02*
G01*
G36*
X144755000Y-83660000D02*
X144755000Y-83320000D01*
X144895000Y-83180000I140000J0D01*
X145175000Y-83180000D01*
X145315000Y-83320000I0J-140000D01*
X145315000Y-83660000D01*
X145175000Y-83800000I-140000J0D01*
X144895000Y-83800000D01*
X144755000Y-83660000I0J140000D01*
G37*
G04 #@! TD.AperFunction*
G04 #@! TA.AperFunction,SMDPad,CuDef*
G01*
G75*
G02*
G01*
G75*
G02*
G01*
G75*
G02*
G01*
G75*
G02*
G01*
G04 #@! TD.AperFunction*
G04 #@! TA.AperFunction,SMDPad,CuDef*
G01*
G75*
G02*
G01*
G75*
G02*
G01*
G75*
G02*
G01*
G75*
G02*
G01*
G04 #@! TD.AperFunction*
G04 #@! TA.AperFunction,SMDPad,CuDef*
G01*
G75*
G02*
G01*
G75*
G02*
G01*
G75*
G02*
G01*
G75*
G02*
G01*
G04 #@! TD.AperFunction*
G04 #@! TA.AperFunction,SMDPad,CuDef*
G01*
G75*
G02*
G01*
G75*
G02*
G01*
G75*
G02*
G01*
G75*
G02*
G01*
G04 #@! TD.AperFunction*
G04 #@! TA.AperFunction,SMDPad,CuDef*
G01*
G75*
G02*
G01*
G75*
G02*
G01*
G75*
G02*
G01*
G75*
G02*
G01*
G04 #@! TD.AperFunction*
G04 #@! TA.AperFunction,SMDPad,CuDef*
G01*
G75*
G02*
G01*
G75*
G02*
G01*
G75*
G02*
G01*
G75*
G02*
G01*
G04 #@! TD.AperFunction*
G04 #@! TA.AperFunction,SMDPad,CuDef*
G01*
G75*
G02*
G01*
G75*
G02*
G01*
G75*
G02*
G01*
G75*
G02*
G01*
G04 #@! TD.AperFunction*
G04 #@! TA.AperFunction,SMDPad,CuDef*
G01*
G75*
G02*
G01*
G75*
G02*
G01*
G75*
G02*
G01*
G75*
G02*
G01*
G04 #@! TD.AperFunction*
G04 #@! TA.AperFunction,SMDPad,CuDef*
G01*
G75*
G02*
G01*
G75*
G02*
G01*
G75*
G02*
G01*
G75*
G02*
G01*
G04 #@! TD.AperFunction*
G04 #@! TA.AperFunction,SMDPad,CuDef*
G01*
G75*
G02*
G01*
G75*
G02*
G01*
G75*
G02*
G01*
G75*
G02*
G01*
G04 #@! TD.AperFunction*
G04 #@! TA.AperFunction,SMDPad,CuDef*
G01*
G75*
G02*
G01*
G75*
G02*
G01*
G75*
G02*
G01*
G75*
G02*
G01*
G04 #@! TD.AperFunction*
G04 #@! TA.AperFunction,SMDPad,CuDef*
G01*
G75*
G02*
G01*
G75*
G02*
G01*
G75*
G02*
G01*
G75*
G02*
G01*
G04 #@! TD.AperFunction*
G04 #@! TA.AperFunction,SMDPad,CuDef*
G01*
G75*
G02*
G01*
G75*
G02*
G01*
G75*
G02*
G01*
G75*
G02*
G01*
G04 #@! TD.AperFunction*
G04 #@! TA.AperFunction,SMDPad,CuDef*
G01*
G75*
G02*
G01*
G75*
G02*
G01*
G75*
G02*
G01*
G75*
G02*
G01*
G04 #@! TD.AperFunction*
G04 #@! TA.AperFunction,SMDPad,CuDef*
G01*
G75*
G02*
G01*
G75*
G02*
G01*
G75*
G02*
G01*
G75*
G02*
G01*
G04 #@! TD.AperFunction*
G04 #@! TA.AperFunction,SMDPad,CuDef*
G01*
G75*
G02*
G01*
G75*
G02*
G01*
G75*
G02*
G01*
G75*
G02*
G01*
G04 #@! TD.AperFunction*
G04 #@! TA.AperFunction,SMDPad,CuDef*
G01*
G75*
G02*
G01*
G75*
G02*
G01*
G75*
G02*
G01*
G75*
G02*
G01*
G04 #@! TD.AperFunction*
G04 #@! TA.AperFunction,SMDPad,CuDef*
G01*
G75*
G02*
G01*
G75*
G02*
G01*
G75*
G02*
G01*
G75*
G02*
G01*
G04 #@! TD.AperFunction*
D24*
X136400000Y-79800000D03*
X137500000Y-79800000D03*
X148700000Y-81500000D03*
X137700000Y-80750000D03*
X139500000Y-79800000D03*
X147200000Y-86600000D03*
X138500000Y-79800000D03*
X144900000Y-81900000D03*
X140500000Y-79800000D03*
X135300000Y-79800000D03*
D25*
X141050000Y-80750000D02*
X137700000Y-80750000D01*
D26*
X148020000Y-81900000D02*
X148020000Y-81500000D01*
D25*
X141810000Y-83980000D02*
X141810000Y-81510000D01*
D27*
X141820000Y-83970000D02*
X141810000Y-83980000D01*
D26*
X148020000Y-81500000D02*
X148020000Y-81160000D01*
X148900000Y-81000000D02*
X149010000Y-80890000D01*
X148020000Y-81160000D02*
X148280000Y-80900000D01*
D27*
X142910000Y-83970000D02*
X141820000Y-83970000D01*
D26*
X147220000Y-87600000D02*
X147220000Y-86620000D01*
D25*
X145880000Y-81900000D02*
X144900000Y-81900000D01*
D26*
X148700000Y-81500000D02*
X148900000Y-81300000D01*
X147235000Y-86565000D02*
X147200000Y-86600000D01*
D27*
X142930000Y-83990000D02*
X143430000Y-83490000D01*
X139160000Y-80750000D02*
X137700000Y-80750000D01*
D26*
X147220000Y-86620000D02*
X147200000Y-86600000D01*
D28*
X147235000Y-85405000D02*
X147235000Y-86565000D01*
D26*
X148020000Y-81500000D02*
X148700000Y-81500000D01*
D27*
X142930000Y-83990000D02*
X142910000Y-83970000D01*
X143430000Y-83490000D02*
X144075000Y-83490000D01*
D26*
X148900000Y-81300000D02*
X148900000Y-81000000D01*
D25*
X141810000Y-81510000D02*
X141050000Y-80750000D01*
D26*
X149010000Y-80890000D02*
X149600000Y-80890000D01*
D27*
X141810000Y-85000000D02*
X142900000Y-85000000D01*
X143510000Y-85590000D02*
X142910000Y-84990000D01*
X141810000Y-85000000D02*
X137700000Y-85000000D01*
X142900000Y-85000000D02*
X142910000Y-84990000D01*
D28*
X137700000Y-85000000D02*
X138100000Y-85000000D01*
D27*
X144055000Y-85590000D02*
X143510000Y-85590000D01*
X145015000Y-85590000D02*
X146550000Y-85590000D01*
X146550000Y-85590000D02*
X146735000Y-85405000D01*
D28*
X147235000Y-83507500D02*
X147235000Y-82045000D01*
D26*
X147380000Y-81900000D02*
X147380000Y-80960000D01*
X147380000Y-80960000D02*
X147320000Y-80900000D01*
X147235000Y-82045000D02*
X147380000Y-81900000D01*
D27*
X146520000Y-81900000D02*
X146520000Y-79040000D01*
D28*
X147735000Y-85405000D02*
X147735000Y-86535000D01*
X148180000Y-87600000D02*
X148180000Y-87020000D01*
X147735000Y-86535000D02*
X148200000Y-87000000D01*
X148180000Y-87020000D02*
X148200000Y-87000000D01*
X150100000Y-85510000D02*
X148340000Y-85510000D01*
X148340000Y-85510000D02*
X148235000Y-85405000D01*
X150100000Y-84490000D02*
X150100000Y-83500000D01*
X150090000Y-83490000D02*
X148305000Y-83490000D01*
X148305000Y-83490000D02*
X148235000Y-83560000D01*
X150100000Y-83500000D02*
X150090000Y-83490000D01*
X149600000Y-82100000D02*
X149200000Y-82500000D01*
X147735000Y-83165000D02*
X147735000Y-83530000D01*
X148400000Y-82500000D02*
X147735000Y-83165000D01*
X149600000Y-81910000D02*
X149600000Y-82100000D01*
X149200000Y-82500000D02*
X148400000Y-82500000D01*
D27*
X145035000Y-83490000D02*
X146735000Y-83490000D01*
G04 #@! TA.AperFunction,Conductor*
G01*
G36*
X140490000Y-85125000D02*
X140490000Y-84875000D01*
X140240000Y-84750000D01*
X137699000Y-85000000D01*
X140240000Y-85250000D01*
X140490000Y-85125000D01*
G37*
G04 #@! TD.AperFunction*
M02*
