%TF.GenerationSoftware,KiCad,Pcbnew,9.0.9*%
%TF.CreationDate,2026-08-02T20:54:00+02:00*%
%TF.ProjectId,ad8317_powermeter,61643833-3137-45f7-906f-7765726d6574,A*%
%TF.SameCoordinates,Original*%
%TF.FileFunction,Soldermask,Top*%
%TF.FilePolarity,Negative*%
%FSLAX46Y46*%
G04 Gerber Fmt 4.6, Leading zero omitted, Abs format (unit mm)*
G04 Created by KiCad (PCBNEW 9.0.9) date 2026-08-02 20:54:00*
%MOMM*%
%LPD*%
G01*
G04 APERTURE LIST*
G04 Aperture macros list*
%AMRoundRect*
0 Rectangle with rounded corners*
0 $1 Rounding radius*
0 $2 $3 $4 $5 $6 $7 $8 $9 X,Y pos of 4 corners*
0 Add a 4 corners polygon primitive as box body*
4,1,4,$2,$3,$4,$5,$6,$7,$8,$9,$2,$3,0*
0 Add four circle primitives for the rounded corners*
1,1,$1+$1,$2,$3*
1,1,$1+$1,$4,$5*
1,1,$1+$1,$6,$7*
1,1,$1+$1,$8,$9*
0 Add four rect primitives between the rounded corners*
20,1,$1+$1,$2,$3,$4,$5,0*
20,1,$1+$1,$4,$5,$6,$7,0*
20,1,$1+$1,$6,$7,$8,$9,0*
20,1,$1+$1,$8,$9,$2,$3,0*%
%AMFreePoly0*
4,1,23,0.500000,-0.750000,0.000000,-0.750000,0.000000,-0.745722,-0.065263,-0.745722,-0.191342,-0.711940,-0.304381,-0.646677,-0.396677,-0.554381,-0.461940,-0.441342,-0.495722,-0.315263,-0.495722,-0.250000,-0.500000,-0.250000,-0.500000,0.250000,-0.495722,0.250000,-0.495722,0.315263,-0.461940,0.441342,-0.396677,0.554381,-0.304381,0.646677,-0.191342,0.711940,-0.065263,0.745722,0.000000,0.745722,
0.000000,0.750000,0.500000,0.750000,0.500000,-0.750000,0.500000,-0.750000,$1*%
%AMFreePoly1*
4,1,23,0.000000,0.745722,0.065263,0.745722,0.191342,0.711940,0.304381,0.646677,0.396677,0.554381,0.461940,0.441342,0.495722,0.315263,0.495722,0.250000,0.500000,0.250000,0.500000,-0.250000,0.495722,-0.250000,0.495722,-0.315263,0.461940,-0.441342,0.396677,-0.554381,0.304381,-0.646677,0.191342,-0.711940,0.065263,-0.745722,0.000000,-0.745722,0.000000,-0.750000,-0.500000,-0.750000,
-0.500000,0.750000,0.000000,0.750000,0.000000,0.745722,0.000000,0.745722,$1*%
G04 Aperture macros list end*
%ADD10RoundRect,0.135000X-0.185000X0.135000X-0.185000X-0.135000X0.185000X-0.135000X0.185000X0.135000X0*%
%ADD11C,0.650000*%
%ADD12R,1.240000X0.600000*%
%ADD13R,1.240000X0.300000*%
%ADD14O,2.100000X1.000000*%
%ADD15O,1.800000X1.000000*%
%ADD16C,1.200000*%
%ADD17RoundRect,0.250000X0.750000X-0.600000X0.750000X0.600000X-0.750000X0.600000X-0.750000X-0.600000X0*%
%ADD18O,2.000000X1.700000*%
%ADD19RoundRect,0.100000X0.100000X-0.130000X0.100000X0.130000X-0.100000X0.130000X-0.100000X-0.130000X0*%
%ADD20RoundRect,0.135000X0.185000X-0.135000X0.185000X0.135000X-0.185000X0.135000X-0.185000X-0.135000X0*%
%ADD21RoundRect,0.140000X-0.140000X-0.170000X0.140000X-0.170000X0.140000X0.170000X-0.140000X0.170000X0*%
%ADD22RoundRect,0.150000X0.512500X0.150000X-0.512500X0.150000X-0.512500X-0.150000X0.512500X-0.150000X0*%
%ADD23RoundRect,0.140000X0.170000X-0.140000X0.170000X0.140000X-0.170000X0.140000X-0.170000X-0.140000X0*%
%ADD24FreePoly0,180.000000*%
%ADD25FreePoly1,180.000000*%
%ADD26RoundRect,0.100000X0.130000X0.100000X-0.130000X0.100000X-0.130000X-0.100000X0.130000X-0.100000X0*%
%ADD27RoundRect,0.140000X-0.170000X0.140000X-0.170000X-0.140000X0.170000X-0.140000X0.170000X0.140000X0*%
%ADD28R,5.080000X1.500000*%
%ADD29RoundRect,0.015000X-0.275000X0.135000X-0.275000X-0.135000X0.275000X-0.135000X0.275000X0.135000X0*%
%ADD30RoundRect,0.135000X0.135000X0.185000X-0.135000X0.185000X-0.135000X-0.185000X0.135000X-0.185000X0*%
%ADD31RoundRect,0.062500X0.062500X-0.375000X0.062500X0.375000X-0.062500X0.375000X-0.062500X-0.375000X0*%
%ADD32R,2.340000X0.500000*%
%ADD33RoundRect,0.100000X-0.130000X-0.100000X0.130000X-0.100000X0.130000X0.100000X-0.130000X0.100000X0*%
%ADD34R,1.700000X1.700000*%
%ADD35C,1.700000*%
%ADD36RoundRect,0.150000X0.587500X0.150000X-0.587500X0.150000X-0.587500X-0.150000X0.587500X-0.150000X0*%
%ADD37RoundRect,0.160000X0.160000X-0.197500X0.160000X0.197500X-0.160000X0.197500X-0.160000X-0.197500X0*%
%ADD38RoundRect,0.075000X0.075000X-0.650000X0.075000X0.650000X-0.075000X0.650000X-0.075000X-0.650000X0*%
%ADD39R,1.890000X1.830000*%
%ADD40R,2.400000X0.740000*%
%ADD41R,1.600000X1.400000*%
%ADD42RoundRect,0.100000X-0.100000X0.130000X-0.100000X-0.130000X0.100000X-0.130000X0.100000X0.130000X0*%
%ADD43RoundRect,0.147500X0.172500X-0.147500X0.172500X0.147500X-0.172500X0.147500X-0.172500X-0.147500X0*%
%ADD44RoundRect,0.075000X-0.700000X-0.075000X0.700000X-0.075000X0.700000X0.075000X-0.700000X0.075000X0*%
%ADD45RoundRect,0.075000X-0.075000X-0.700000X0.075000X-0.700000X0.075000X0.700000X-0.075000X0.700000X0*%
%ADD46RoundRect,0.135000X-0.135000X-0.185000X0.135000X-0.185000X0.135000X0.185000X-0.135000X0.185000X0*%
%ADD47RoundRect,0.150000X-0.825000X-0.150000X0.825000X-0.150000X0.825000X0.150000X-0.825000X0.150000X0*%
%ADD48RoundRect,0.250000X0.400000X1.450000X-0.400000X1.450000X-0.400000X-1.450000X0.400000X-1.450000X0*%
G04 APERTURE END LIST*
%TO.C,JP1*%
G36*
X141200000Y-101350000D02*
G01*
X140900000Y-101350000D01*
X140900000Y-99850000D01*
X141200000Y-99850000D01*
X141200000Y-101350000D01*
G37*
%TD*%
D10*
%TO.C,R6*%
X179700000Y-81780000D03*
X179700000Y-82800000D03*
%TD*%
D11*
%TO.C,J2*%
X214430000Y-87790000D03*
X214430000Y-82010000D03*
D12*
X213310000Y-88100000D03*
X213310000Y-87300000D03*
D13*
X213310000Y-86150000D03*
X213310000Y-85150000D03*
X213310000Y-84650000D03*
X213310000Y-83650000D03*
D12*
X213310000Y-82500000D03*
X213310000Y-81700000D03*
X213310000Y-81700000D03*
X213310000Y-82500000D03*
D13*
X213310000Y-83150000D03*
X213310000Y-84150000D03*
X213310000Y-85650000D03*
X213310000Y-86650000D03*
D12*
X213310000Y-87300000D03*
X213310000Y-88100000D03*
D14*
X213910000Y-89220000D03*
D15*
X218110000Y-89220000D03*
D14*
X213910000Y-80580000D03*
D15*
X218110000Y-80580000D03*
%TD*%
D16*
%TO.C,J4*%
X217575000Y-76450000D03*
D17*
X215575000Y-74850000D03*
D18*
X215575000Y-72350000D03*
%TD*%
D19*
%TO.C,C8*%
X155600000Y-92940000D03*
X155600000Y-92300000D03*
%TD*%
D20*
%TO.C,R2*%
X142910000Y-84990000D03*
X142910000Y-83970000D03*
%TD*%
D21*
%TO.C,C1*%
X144055000Y-85590000D03*
X145015000Y-85590000D03*
%TD*%
D22*
%TO.C,U6*%
X196700000Y-72100000D03*
X196700000Y-71150000D03*
X196700000Y-70200000D03*
X194425000Y-70200000D03*
X194425000Y-72100000D03*
%TD*%
D23*
%TO.C,C28*%
X209100000Y-63720000D03*
X209100000Y-62760000D03*
%TD*%
D24*
%TO.C,JP1*%
X141700000Y-100600000D03*
D25*
X140400000Y-100600000D03*
%TD*%
D19*
%TO.C,C32*%
X193000000Y-72820000D03*
X193000000Y-72180000D03*
%TD*%
D26*
%TO.C,C23*%
X208385000Y-99800000D03*
X207745000Y-99800000D03*
%TD*%
D27*
%TO.C,C27*%
X207500000Y-77420000D03*
X207500000Y-78380000D03*
%TD*%
D20*
%TO.C,R11*%
X204700000Y-66310000D03*
X204700000Y-65290000D03*
%TD*%
D28*
%TO.C,J1*%
X137700000Y-85000000D03*
X137700000Y-89250000D03*
X137700000Y-80750000D03*
%TD*%
D23*
%TO.C,C3*%
X151200000Y-85460000D03*
X151200000Y-84500000D03*
%TD*%
D29*
%TO.C,FL1*%
X210265000Y-84605000D03*
X208955000Y-84605000D03*
X208955000Y-85155000D03*
X210265000Y-85155000D03*
%TD*%
D10*
%TO.C,R22*%
X146400000Y-77900000D03*
X146400000Y-78920000D03*
%TD*%
%TO.C,R17*%
X198500000Y-70190000D03*
X198500000Y-71210000D03*
%TD*%
D20*
%TO.C,R1*%
X141810000Y-85000000D03*
X141810000Y-83980000D03*
%TD*%
D30*
%TO.C,R19*%
X204120000Y-70700000D03*
X203100000Y-70700000D03*
%TD*%
D20*
%TO.C,R14*%
X206000000Y-61220000D03*
X206000000Y-60200000D03*
%TD*%
D27*
%TO.C,C18*%
X174400000Y-69540000D03*
X174400000Y-70500000D03*
%TD*%
D23*
%TO.C,C6*%
X154500000Y-80080000D03*
X154500000Y-79120000D03*
%TD*%
%TO.C,C17*%
X164100000Y-75180000D03*
X164100000Y-74220000D03*
%TD*%
D26*
%TO.C,C24*%
X208475000Y-94300000D03*
X207835000Y-94300000D03*
%TD*%
D31*
%TO.C,U1*%
X146735000Y-85405000D03*
X147235000Y-85405000D03*
X147735000Y-85405000D03*
X148235000Y-85405000D03*
X148235000Y-83560000D03*
X147735000Y-83530000D03*
X147235000Y-83507500D03*
X146735000Y-83490000D03*
D32*
X147485000Y-84467500D03*
%TD*%
D33*
%TO.C,R21*%
X145880000Y-81900000D03*
X146520000Y-81900000D03*
%TD*%
D19*
%TO.C,R16*%
X188000000Y-63770000D03*
X188000000Y-63130000D03*
%TD*%
D34*
%TO.C,J3*%
X184800000Y-71925000D03*
D35*
X182260000Y-71925000D03*
X179720000Y-71925000D03*
X177180000Y-71925000D03*
%TD*%
D36*
%TO.C,U3*%
X158037500Y-95150000D03*
X158037500Y-93250000D03*
X156162500Y-94200000D03*
%TD*%
D20*
%TO.C,R4*%
X150100000Y-85510000D03*
X150100000Y-84490000D03*
%TD*%
D21*
%TO.C,C10*%
X203130000Y-69700000D03*
X204090000Y-69700000D03*
%TD*%
D20*
%TO.C,R13*%
X208500000Y-66500000D03*
X208500000Y-65480000D03*
%TD*%
D37*
%TO.C,R9*%
X225300000Y-87997500D03*
X225300000Y-86802500D03*
%TD*%
D38*
%TO.C,U5*%
X208255000Y-75335000D03*
X208755000Y-75335000D03*
X209255000Y-75335000D03*
X209755000Y-75335000D03*
X210255000Y-75335000D03*
X210255000Y-71035000D03*
X209755000Y-71035000D03*
X209255000Y-71035000D03*
X208755000Y-71035000D03*
X208255000Y-71035000D03*
D39*
X209255000Y-73185000D03*
%TD*%
D40*
%TO.C,J5*%
X145900000Y-94900000D03*
X149800000Y-94900000D03*
X145900000Y-96170000D03*
X149800000Y-96170000D03*
X145900000Y-97440000D03*
X149800000Y-97440000D03*
X145900000Y-98710000D03*
X149800000Y-98710000D03*
X145900000Y-99980000D03*
X149800000Y-99980000D03*
%TD*%
D23*
%TO.C,C9*%
X188300000Y-97000000D03*
X188300000Y-96040000D03*
%TD*%
D19*
%TO.C,C16*%
X165700000Y-76475000D03*
X165700000Y-75835000D03*
%TD*%
D21*
%TO.C,C7*%
X158600000Y-83400000D03*
X159560000Y-83400000D03*
%TD*%
D20*
%TO.C,R12*%
X210800000Y-66800000D03*
X210800000Y-65780000D03*
%TD*%
D41*
%TO.C,SW1*%
X196500000Y-98850000D03*
X188500000Y-98850000D03*
X196500000Y-94350000D03*
X188500000Y-94350000D03*
%TD*%
D42*
%TO.C,C11*%
X156500000Y-91335000D03*
X156500000Y-91975000D03*
%TD*%
D43*
%TO.C,D2*%
X203700000Y-63470000D03*
X203700000Y-62500000D03*
%TD*%
D19*
%TO.C,C12*%
X199000000Y-98165000D03*
X199000000Y-97525000D03*
%TD*%
D23*
%TO.C,C26*%
X176900000Y-66360000D03*
X176900000Y-65400000D03*
%TD*%
D44*
%TO.C,U2*%
X162925000Y-80450000D03*
X162925000Y-80950000D03*
X162925000Y-81450000D03*
X162925000Y-81950000D03*
X162925000Y-82450000D03*
X162925000Y-82950000D03*
X162925000Y-83450000D03*
X162925000Y-83950000D03*
X162925000Y-84450000D03*
X162925000Y-84950000D03*
X162925000Y-85450000D03*
X162925000Y-85950000D03*
X162925000Y-86450000D03*
X162925000Y-86950000D03*
X162925000Y-87450000D03*
X162925000Y-87950000D03*
D45*
X164850000Y-89875000D03*
X165350000Y-89875000D03*
X165850000Y-89875000D03*
X166350000Y-89875000D03*
X166850000Y-89875000D03*
X167350000Y-89875000D03*
X167850000Y-89875000D03*
X168350000Y-89875000D03*
X168850000Y-89875000D03*
X169350000Y-89875000D03*
X169850000Y-89875000D03*
X170350000Y-89875000D03*
X170850000Y-89875000D03*
X171350000Y-89875000D03*
X171850000Y-89875000D03*
X172350000Y-89875000D03*
D44*
X174275000Y-87950000D03*
X174275000Y-87450000D03*
X174275000Y-86950000D03*
X174275000Y-86450000D03*
X174275000Y-85950000D03*
X174275000Y-85450000D03*
X174275000Y-84950000D03*
X174275000Y-84450000D03*
X174275000Y-83950000D03*
X174275000Y-83450000D03*
X174275000Y-82950000D03*
X174275000Y-82450000D03*
X174275000Y-81950000D03*
X174275000Y-81450000D03*
X174275000Y-80950000D03*
X174275000Y-80450000D03*
D45*
X172350000Y-78525000D03*
X171850000Y-78525000D03*
X171350000Y-78525000D03*
X170850000Y-78525000D03*
X170350000Y-78525000D03*
X169850000Y-78525000D03*
X169350000Y-78525000D03*
X168850000Y-78525000D03*
X168350000Y-78525000D03*
X167850000Y-78525000D03*
X167350000Y-78525000D03*
X166850000Y-78525000D03*
X166350000Y-78525000D03*
X165850000Y-78525000D03*
X165350000Y-78525000D03*
X164850000Y-78525000D03*
%TD*%
D41*
%TO.C,SW2*%
X184500000Y-98850000D03*
X176500000Y-98850000D03*
X184500000Y-94350000D03*
X176500000Y-94350000D03*
%TD*%
D46*
%TO.C,R3*%
X150090000Y-83490000D03*
X151110000Y-83490000D03*
%TD*%
D47*
%TO.C,U7*%
X167425000Y-69595000D03*
X167425000Y-70865000D03*
X167425000Y-72135000D03*
X167425000Y-73405000D03*
X172375000Y-73405000D03*
X172375000Y-72135000D03*
X172375000Y-70865000D03*
X172375000Y-69595000D03*
%TD*%
D22*
%TO.C,U4*%
X203547500Y-97450000D03*
X203547500Y-96500000D03*
X203547500Y-95550000D03*
X201272500Y-95550000D03*
X201272500Y-97450000D03*
%TD*%
D23*
%TO.C,C13*%
X200300000Y-100800000D03*
X200300000Y-99840000D03*
%TD*%
D10*
%TO.C,R20*%
X178100000Y-81790000D03*
X178100000Y-82810000D03*
%TD*%
D43*
%TO.C,D1*%
X205900000Y-63470000D03*
X205900000Y-62500000D03*
%TD*%
D23*
%TO.C,C4*%
X149400000Y-78800000D03*
X149400000Y-77840000D03*
%TD*%
D19*
%TO.C,C31*%
X192700000Y-70765000D03*
X192700000Y-70125000D03*
%TD*%
%TO.C,C5*%
X149100000Y-80420000D03*
X149100000Y-79780000D03*
%TD*%
D20*
%TO.C,R5*%
X152700000Y-80210000D03*
X152700000Y-79190000D03*
%TD*%
D23*
%TO.C,C29*%
X213900000Y-64400000D03*
X213900000Y-63440000D03*
%TD*%
D21*
%TO.C,C2*%
X144075000Y-83490000D03*
X145035000Y-83490000D03*
%TD*%
D19*
%TO.C,C14*%
X160700000Y-96140000D03*
X160700000Y-95500000D03*
%TD*%
D23*
%TO.C,C25*%
X206400000Y-78400000D03*
X206400000Y-77440000D03*
%TD*%
D30*
%TO.C,R18*%
X206220000Y-70700000D03*
X205200000Y-70700000D03*
%TD*%
D20*
%TO.C,R15*%
X201600000Y-63730000D03*
X201600000Y-62710000D03*
%TD*%
D30*
%TO.C,R8*%
X208010000Y-96700000D03*
X206990000Y-96700000D03*
%TD*%
D23*
%TO.C,C30*%
X176400000Y-97000000D03*
X176400000Y-96040000D03*
%TD*%
D37*
%TO.C,R10*%
X225100000Y-83597500D03*
X225100000Y-82402500D03*
%TD*%
D48*
%TO.C,F1*%
X210225000Y-81400000D03*
X205775000Y-81400000D03*
%TD*%
D19*
%TO.C,C15*%
X160300000Y-75520000D03*
X160300000Y-74880000D03*
%TD*%
M02*
