%TF.GenerationSoftware,KiCad,Pcbnew,9.0.9*%
%TF.CreationDate,2026-08-02T20:54:00+02:00*%
%TF.ProjectId,ad8317_powermeter,61643833-3137-45f7-906f-7765726d6574,A*%
%TF.SameCoordinates,Original*%
%TF.FileFunction,Legend,Top*%
%TF.FilePolarity,Positive*%
%FSLAX46Y46*%
G04 Gerber Fmt 4.6, Leading zero omitted, Abs format (unit mm)*
G04 Created by KiCad (PCBNEW 9.0.9) date 2026-08-02 20:54:00*
%MOMM*%
%LPD*%
G01*
G04 APERTURE LIST*
G04 Aperture macros list*
%AMRoundRect*
0 Rectangle with rounded corners*
0 $1 Rounding radius*
0 $2 $3 $4 $5 $6 $7 $8 $9 X,Y pos of 4 corners*
0 Add a 4 corners polygon primitive as box body*
4,1,4,$2,$3,$4,$5,$6,$7,$8,$9,$2,$3,0*
0 Add four circle primitives for the rounded corners*
1,1,$1+$1,$2,$3*
1,1,$1+$1,$4,$5*
1,1,$1+$1,$6,$7*
1,1,$1+$1,$8,$9*
0 Add four rect primitives between the rounded corners*
20,1,$1+$1,$2,$3,$4,$5,0*
20,1,$1+$1,$4,$5,$6,$7,0*
20,1,$1+$1,$6,$7,$8,$9,0*
20,1,$1+$1,$8,$9,$2,$3,0*%
%AMFreePoly0*
4,1,23,0.500000,-0.750000,0.000000,-0.750000,0.000000,-0.745722,-0.065263,-0.745722,-0.191342,-0.711940,-0.304381,-0.646677,-0.396677,-0.554381,-0.461940,-0.441342,-0.495722,-0.315263,-0.495722,-0.250000,-0.500000,-0.250000,-0.500000,0.250000,-0.495722,0.250000,-0.495722,0.315263,-0.461940,0.441342,-0.396677,0.554381,-0.304381,0.646677,-0.191342,0.711940,-0.065263,0.745722,0.000000,0.745722,
0.000000,0.750000,0.500000,0.750000,0.500000,-0.750000,0.500000,-0.750000,$1*%
%AMFreePoly1*
4,1,23,0.000000,0.745722,0.065263,0.745722,0.191342,0.711940,0.304381,0.646677,0.396677,0.554381,0.461940,0.441342,0.495722,0.315263,0.495722,0.250000,0.500000,0.250000,0.500000,-0.250000,0.495722,-0.250000,0.495722,-0.315263,0.461940,-0.441342,0.396677,-0.554381,0.304381,-0.646677,0.191342,-0.711940,0.065263,-0.745722,0.000000,-0.745722,0.000000,-0.750000,-0.500000,-0.750000,
-0.500000,0.750000,0.000000,0.750000,0.000000,0.745722,0.000000,0.745722,$1*%
G04 Aperture macros list end*
%ADD10C,0.150000*%
%ADD11C,0.101600*%
%ADD12C,0.120000*%
%ADD13C,0.100000*%
%ADD14RoundRect,0.135000X-0.185000X0.135000X-0.185000X-0.135000X0.185000X-0.135000X0.185000X0.135000X0*%
%ADD15C,0.650000*%
%ADD16R,1.240000X0.600000*%
%ADD17R,1.240000X0.300000*%
%ADD18O,2.100000X1.000000*%
%ADD19O,1.800000X1.000000*%
%ADD20C,1.200000*%
%ADD21RoundRect,0.250000X0.750000X-0.600000X0.750000X0.600000X-0.750000X0.600000X-0.750000X-0.600000X0*%
%ADD22O,2.000000X1.700000*%
%ADD23RoundRect,0.100000X0.100000X-0.130000X0.100000X0.130000X-0.100000X0.130000X-0.100000X-0.130000X0*%
%ADD24RoundRect,0.135000X0.185000X-0.135000X0.185000X0.135000X-0.185000X0.135000X-0.185000X-0.135000X0*%
%ADD25RoundRect,0.140000X-0.140000X-0.170000X0.140000X-0.170000X0.140000X0.170000X-0.140000X0.170000X0*%
%ADD26RoundRect,0.150000X0.512500X0.150000X-0.512500X0.150000X-0.512500X-0.150000X0.512500X-0.150000X0*%
%ADD27RoundRect,0.140000X0.170000X-0.140000X0.170000X0.140000X-0.170000X0.140000X-0.170000X-0.140000X0*%
%ADD28FreePoly0,180.000000*%
%ADD29FreePoly1,180.000000*%
%ADD30RoundRect,0.100000X0.130000X0.100000X-0.130000X0.100000X-0.130000X-0.100000X0.130000X-0.100000X0*%
%ADD31RoundRect,0.140000X-0.170000X0.140000X-0.170000X-0.140000X0.170000X-0.140000X0.170000X0.140000X0*%
%ADD32R,5.080000X1.500000*%
%ADD33RoundRect,0.015000X-0.275000X0.135000X-0.275000X-0.135000X0.275000X-0.135000X0.275000X0.135000X0*%
%ADD34RoundRect,0.135000X0.135000X0.185000X-0.135000X0.185000X-0.135000X-0.185000X0.135000X-0.185000X0*%
%ADD35RoundRect,0.062500X0.062500X-0.375000X0.062500X0.375000X-0.062500X0.375000X-0.062500X-0.375000X0*%
%ADD36R,2.340000X0.500000*%
%ADD37RoundRect,0.100000X-0.130000X-0.100000X0.130000X-0.100000X0.130000X0.100000X-0.130000X0.100000X0*%
%ADD38R,1.700000X1.700000*%
%ADD39C,1.700000*%
%ADD40RoundRect,0.150000X0.587500X0.150000X-0.587500X0.150000X-0.587500X-0.150000X0.587500X-0.150000X0*%
%ADD41RoundRect,0.160000X0.160000X-0.197500X0.160000X0.197500X-0.160000X0.197500X-0.160000X-0.197500X0*%
%ADD42RoundRect,0.075000X0.075000X-0.650000X0.075000X0.650000X-0.075000X0.650000X-0.075000X-0.650000X0*%
%ADD43R,1.890000X1.830000*%
%ADD44R,2.400000X0.740000*%
%ADD45R,1.600000X1.400000*%
%ADD46RoundRect,0.100000X-0.100000X0.130000X-0.100000X-0.130000X0.100000X-0.130000X0.100000X0.130000X0*%
%ADD47RoundRect,0.147500X0.172500X-0.147500X0.172500X0.147500X-0.172500X0.147500X-0.172500X-0.147500X0*%
%ADD48RoundRect,0.075000X-0.700000X-0.075000X0.700000X-0.075000X0.700000X0.075000X-0.700000X0.075000X0*%
%ADD49RoundRect,0.075000X-0.075000X-0.700000X0.075000X-0.700000X0.075000X0.700000X-0.075000X0.700000X0*%
%ADD50RoundRect,0.135000X-0.135000X-0.185000X0.135000X-0.185000X0.135000X0.185000X-0.135000X0.185000X0*%
%ADD51RoundRect,0.150000X-0.825000X-0.150000X0.825000X-0.150000X0.825000X0.150000X-0.825000X0.150000X0*%
%ADD52RoundRect,0.250000X0.400000X1.450000X-0.400000X1.450000X-0.400000X-1.450000X0.400000X-1.450000X0*%
G04 APERTURE END LIST*
D10*
X144600000Y-93200000D02*
X144900000Y-93900000D01*
X144900000Y-93900000D02*
X145200000Y-93200000D01*
X145200000Y-93200000D02*
X144600000Y-93200000D01*
D11*
X181158479Y-82395833D02*
X180856098Y-82607500D01*
X181158479Y-82758690D02*
X180523479Y-82758690D01*
X180523479Y-82758690D02*
X180523479Y-82516785D01*
X180523479Y-82516785D02*
X180553717Y-82456309D01*
X180553717Y-82456309D02*
X180583955Y-82426071D01*
X180583955Y-82426071D02*
X180644431Y-82395833D01*
X180644431Y-82395833D02*
X180735145Y-82395833D01*
X180735145Y-82395833D02*
X180795621Y-82426071D01*
X180795621Y-82426071D02*
X180825860Y-82456309D01*
X180825860Y-82456309D02*
X180856098Y-82516785D01*
X180856098Y-82516785D02*
X180856098Y-82758690D01*
X180523479Y-81851547D02*
X180523479Y-81972500D01*
X180523479Y-81972500D02*
X180553717Y-82032976D01*
X180553717Y-82032976D02*
X180583955Y-82063214D01*
X180583955Y-82063214D02*
X180674669Y-82123690D01*
X180674669Y-82123690D02*
X180795621Y-82153928D01*
X180795621Y-82153928D02*
X181037526Y-82153928D01*
X181037526Y-82153928D02*
X181098002Y-82123690D01*
X181098002Y-82123690D02*
X181128241Y-82093452D01*
X181128241Y-82093452D02*
X181158479Y-82032976D01*
X181158479Y-82032976D02*
X181158479Y-81912023D01*
X181158479Y-81912023D02*
X181128241Y-81851547D01*
X181128241Y-81851547D02*
X181098002Y-81821309D01*
X181098002Y-81821309D02*
X181037526Y-81791071D01*
X181037526Y-81791071D02*
X180886336Y-81791071D01*
X180886336Y-81791071D02*
X180825860Y-81821309D01*
X180825860Y-81821309D02*
X180795621Y-81851547D01*
X180795621Y-81851547D02*
X180765383Y-81912023D01*
X180765383Y-81912023D02*
X180765383Y-82032976D01*
X180765383Y-82032976D02*
X180795621Y-82093452D01*
X180795621Y-82093452D02*
X180825860Y-82123690D01*
X180825860Y-82123690D02*
X180886336Y-82153928D01*
X211188479Y-85111666D02*
X211642050Y-85111666D01*
X211642050Y-85111666D02*
X211732764Y-85141905D01*
X211732764Y-85141905D02*
X211793241Y-85202381D01*
X211793241Y-85202381D02*
X211823479Y-85293095D01*
X211823479Y-85293095D02*
X211823479Y-85353571D01*
X211248955Y-84839523D02*
X211218717Y-84809285D01*
X211218717Y-84809285D02*
X211188479Y-84748809D01*
X211188479Y-84748809D02*
X211188479Y-84597618D01*
X211188479Y-84597618D02*
X211218717Y-84537142D01*
X211218717Y-84537142D02*
X211248955Y-84506904D01*
X211248955Y-84506904D02*
X211309431Y-84476666D01*
X211309431Y-84476666D02*
X211369907Y-84476666D01*
X211369907Y-84476666D02*
X211460621Y-84506904D01*
X211460621Y-84506904D02*
X211823479Y-84869761D01*
X211823479Y-84869761D02*
X211823479Y-84476666D01*
X211678479Y-73811666D02*
X212132050Y-73811666D01*
X212132050Y-73811666D02*
X212222764Y-73841905D01*
X212222764Y-73841905D02*
X212283241Y-73902381D01*
X212283241Y-73902381D02*
X212313479Y-73993095D01*
X212313479Y-73993095D02*
X212313479Y-74053571D01*
X211890145Y-73237142D02*
X212313479Y-73237142D01*
X211648241Y-73388333D02*
X212101812Y-73539523D01*
X212101812Y-73539523D02*
X212101812Y-73146428D01*
X154778002Y-92725833D02*
X154808241Y-92756071D01*
X154808241Y-92756071D02*
X154838479Y-92846785D01*
X154838479Y-92846785D02*
X154838479Y-92907261D01*
X154838479Y-92907261D02*
X154808241Y-92997976D01*
X154808241Y-92997976D02*
X154747764Y-93058452D01*
X154747764Y-93058452D02*
X154687288Y-93088690D01*
X154687288Y-93088690D02*
X154566336Y-93118928D01*
X154566336Y-93118928D02*
X154475621Y-93118928D01*
X154475621Y-93118928D02*
X154354669Y-93088690D01*
X154354669Y-93088690D02*
X154294193Y-93058452D01*
X154294193Y-93058452D02*
X154233717Y-92997976D01*
X154233717Y-92997976D02*
X154203479Y-92907261D01*
X154203479Y-92907261D02*
X154203479Y-92846785D01*
X154203479Y-92846785D02*
X154233717Y-92756071D01*
X154233717Y-92756071D02*
X154263955Y-92725833D01*
X154475621Y-92362976D02*
X154445383Y-92423452D01*
X154445383Y-92423452D02*
X154415145Y-92453690D01*
X154415145Y-92453690D02*
X154354669Y-92483928D01*
X154354669Y-92483928D02*
X154324431Y-92483928D01*
X154324431Y-92483928D02*
X154263955Y-92453690D01*
X154263955Y-92453690D02*
X154233717Y-92423452D01*
X154233717Y-92423452D02*
X154203479Y-92362976D01*
X154203479Y-92362976D02*
X154203479Y-92242023D01*
X154203479Y-92242023D02*
X154233717Y-92181547D01*
X154233717Y-92181547D02*
X154263955Y-92151309D01*
X154263955Y-92151309D02*
X154324431Y-92121071D01*
X154324431Y-92121071D02*
X154354669Y-92121071D01*
X154354669Y-92121071D02*
X154415145Y-92151309D01*
X154415145Y-92151309D02*
X154445383Y-92181547D01*
X154445383Y-92181547D02*
X154475621Y-92242023D01*
X154475621Y-92242023D02*
X154475621Y-92362976D01*
X154475621Y-92362976D02*
X154505860Y-92423452D01*
X154505860Y-92423452D02*
X154536098Y-92453690D01*
X154536098Y-92453690D02*
X154596574Y-92483928D01*
X154596574Y-92483928D02*
X154717526Y-92483928D01*
X154717526Y-92483928D02*
X154778002Y-92453690D01*
X154778002Y-92453690D02*
X154808241Y-92423452D01*
X154808241Y-92423452D02*
X154838479Y-92362976D01*
X154838479Y-92362976D02*
X154838479Y-92242023D01*
X154838479Y-92242023D02*
X154808241Y-92181547D01*
X154808241Y-92181547D02*
X154778002Y-92151309D01*
X154778002Y-92151309D02*
X154717526Y-92121071D01*
X154717526Y-92121071D02*
X154596574Y-92121071D01*
X154596574Y-92121071D02*
X154536098Y-92151309D01*
X154536098Y-92151309D02*
X154505860Y-92181547D01*
X154505860Y-92181547D02*
X154475621Y-92242023D01*
X142028479Y-84585833D02*
X141726098Y-84797500D01*
X142028479Y-84948690D02*
X141393479Y-84948690D01*
X141393479Y-84948690D02*
X141393479Y-84706785D01*
X141393479Y-84706785D02*
X141423717Y-84646309D01*
X141423717Y-84646309D02*
X141453955Y-84616071D01*
X141453955Y-84616071D02*
X141514431Y-84585833D01*
X141514431Y-84585833D02*
X141605145Y-84585833D01*
X141605145Y-84585833D02*
X141665621Y-84616071D01*
X141665621Y-84616071D02*
X141695860Y-84646309D01*
X141695860Y-84646309D02*
X141726098Y-84706785D01*
X141726098Y-84706785D02*
X141726098Y-84948690D01*
X141453955Y-84343928D02*
X141423717Y-84313690D01*
X141423717Y-84313690D02*
X141393479Y-84253214D01*
X141393479Y-84253214D02*
X141393479Y-84102023D01*
X141393479Y-84102023D02*
X141423717Y-84041547D01*
X141423717Y-84041547D02*
X141453955Y-84011309D01*
X141453955Y-84011309D02*
X141514431Y-83981071D01*
X141514431Y-83981071D02*
X141574907Y-83981071D01*
X141574907Y-83981071D02*
X141665621Y-84011309D01*
X141665621Y-84011309D02*
X142028479Y-84374166D01*
X142028479Y-84374166D02*
X142028479Y-83981071D01*
X144429166Y-84658002D02*
X144398928Y-84688241D01*
X144398928Y-84688241D02*
X144308214Y-84718479D01*
X144308214Y-84718479D02*
X144247738Y-84718479D01*
X144247738Y-84718479D02*
X144157023Y-84688241D01*
X144157023Y-84688241D02*
X144096547Y-84627764D01*
X144096547Y-84627764D02*
X144066309Y-84567288D01*
X144066309Y-84567288D02*
X144036071Y-84446336D01*
X144036071Y-84446336D02*
X144036071Y-84355621D01*
X144036071Y-84355621D02*
X144066309Y-84234669D01*
X144066309Y-84234669D02*
X144096547Y-84174193D01*
X144096547Y-84174193D02*
X144157023Y-84113717D01*
X144157023Y-84113717D02*
X144247738Y-84083479D01*
X144247738Y-84083479D02*
X144308214Y-84083479D01*
X144308214Y-84083479D02*
X144398928Y-84113717D01*
X144398928Y-84113717D02*
X144429166Y-84143955D01*
X145033928Y-84718479D02*
X144671071Y-84718479D01*
X144852499Y-84718479D02*
X144852499Y-84083479D01*
X144852499Y-84083479D02*
X144792023Y-84174193D01*
X144792023Y-84174193D02*
X144731547Y-84234669D01*
X144731547Y-84234669D02*
X144671071Y-84264907D01*
X195078690Y-73203479D02*
X195078690Y-73717526D01*
X195078690Y-73717526D02*
X195108928Y-73778002D01*
X195108928Y-73778002D02*
X195139166Y-73808241D01*
X195139166Y-73808241D02*
X195199642Y-73838479D01*
X195199642Y-73838479D02*
X195320595Y-73838479D01*
X195320595Y-73838479D02*
X195381071Y-73808241D01*
X195381071Y-73808241D02*
X195411309Y-73778002D01*
X195411309Y-73778002D02*
X195441547Y-73717526D01*
X195441547Y-73717526D02*
X195441547Y-73203479D01*
X196016071Y-73203479D02*
X195895118Y-73203479D01*
X195895118Y-73203479D02*
X195834642Y-73233717D01*
X195834642Y-73233717D02*
X195804404Y-73263955D01*
X195804404Y-73263955D02*
X195743928Y-73354669D01*
X195743928Y-73354669D02*
X195713690Y-73475621D01*
X195713690Y-73475621D02*
X195713690Y-73717526D01*
X195713690Y-73717526D02*
X195743928Y-73778002D01*
X195743928Y-73778002D02*
X195774166Y-73808241D01*
X195774166Y-73808241D02*
X195834642Y-73838479D01*
X195834642Y-73838479D02*
X195955595Y-73838479D01*
X195955595Y-73838479D02*
X196016071Y-73808241D01*
X196016071Y-73808241D02*
X196046309Y-73778002D01*
X196046309Y-73778002D02*
X196076547Y-73717526D01*
X196076547Y-73717526D02*
X196076547Y-73566336D01*
X196076547Y-73566336D02*
X196046309Y-73505860D01*
X196046309Y-73505860D02*
X196016071Y-73475621D01*
X196016071Y-73475621D02*
X195955595Y-73445383D01*
X195955595Y-73445383D02*
X195834642Y-73445383D01*
X195834642Y-73445383D02*
X195774166Y-73475621D01*
X195774166Y-73475621D02*
X195743928Y-73505860D01*
X195743928Y-73505860D02*
X195713690Y-73566336D01*
X208168002Y-63648214D02*
X208198241Y-63678452D01*
X208198241Y-63678452D02*
X208228479Y-63769166D01*
X208228479Y-63769166D02*
X208228479Y-63829642D01*
X208228479Y-63829642D02*
X208198241Y-63920357D01*
X208198241Y-63920357D02*
X208137764Y-63980833D01*
X208137764Y-63980833D02*
X208077288Y-64011071D01*
X208077288Y-64011071D02*
X207956336Y-64041309D01*
X207956336Y-64041309D02*
X207865621Y-64041309D01*
X207865621Y-64041309D02*
X207744669Y-64011071D01*
X207744669Y-64011071D02*
X207684193Y-63980833D01*
X207684193Y-63980833D02*
X207623717Y-63920357D01*
X207623717Y-63920357D02*
X207593479Y-63829642D01*
X207593479Y-63829642D02*
X207593479Y-63769166D01*
X207593479Y-63769166D02*
X207623717Y-63678452D01*
X207623717Y-63678452D02*
X207653955Y-63648214D01*
X207653955Y-63406309D02*
X207623717Y-63376071D01*
X207623717Y-63376071D02*
X207593479Y-63315595D01*
X207593479Y-63315595D02*
X207593479Y-63164404D01*
X207593479Y-63164404D02*
X207623717Y-63103928D01*
X207623717Y-63103928D02*
X207653955Y-63073690D01*
X207653955Y-63073690D02*
X207714431Y-63043452D01*
X207714431Y-63043452D02*
X207774907Y-63043452D01*
X207774907Y-63043452D02*
X207865621Y-63073690D01*
X207865621Y-63073690D02*
X208228479Y-63436547D01*
X208228479Y-63436547D02*
X208228479Y-63043452D01*
X207865621Y-62680595D02*
X207835383Y-62741071D01*
X207835383Y-62741071D02*
X207805145Y-62771309D01*
X207805145Y-62771309D02*
X207744669Y-62801547D01*
X207744669Y-62801547D02*
X207714431Y-62801547D01*
X207714431Y-62801547D02*
X207653955Y-62771309D01*
X207653955Y-62771309D02*
X207623717Y-62741071D01*
X207623717Y-62741071D02*
X207593479Y-62680595D01*
X207593479Y-62680595D02*
X207593479Y-62559642D01*
X207593479Y-62559642D02*
X207623717Y-62499166D01*
X207623717Y-62499166D02*
X207653955Y-62468928D01*
X207653955Y-62468928D02*
X207714431Y-62438690D01*
X207714431Y-62438690D02*
X207744669Y-62438690D01*
X207744669Y-62438690D02*
X207805145Y-62468928D01*
X207805145Y-62468928D02*
X207835383Y-62499166D01*
X207835383Y-62499166D02*
X207865621Y-62559642D01*
X207865621Y-62559642D02*
X207865621Y-62680595D01*
X207865621Y-62680595D02*
X207895860Y-62741071D01*
X207895860Y-62741071D02*
X207926098Y-62771309D01*
X207926098Y-62771309D02*
X207986574Y-62801547D01*
X207986574Y-62801547D02*
X208107526Y-62801547D01*
X208107526Y-62801547D02*
X208168002Y-62771309D01*
X208168002Y-62771309D02*
X208198241Y-62741071D01*
X208198241Y-62741071D02*
X208228479Y-62680595D01*
X208228479Y-62680595D02*
X208228479Y-62559642D01*
X208228479Y-62559642D02*
X208198241Y-62499166D01*
X208198241Y-62499166D02*
X208168002Y-62468928D01*
X208168002Y-62468928D02*
X208107526Y-62438690D01*
X208107526Y-62438690D02*
X207986574Y-62438690D01*
X207986574Y-62438690D02*
X207926098Y-62468928D01*
X207926098Y-62468928D02*
X207895860Y-62499166D01*
X207895860Y-62499166D02*
X207865621Y-62559642D01*
X140520833Y-98453479D02*
X140520833Y-98907050D01*
X140520833Y-98907050D02*
X140490594Y-98997764D01*
X140490594Y-98997764D02*
X140430118Y-99058241D01*
X140430118Y-99058241D02*
X140339404Y-99088479D01*
X140339404Y-99088479D02*
X140278928Y-99088479D01*
X140823214Y-99088479D02*
X140823214Y-98453479D01*
X140823214Y-98453479D02*
X141065119Y-98453479D01*
X141065119Y-98453479D02*
X141125595Y-98483717D01*
X141125595Y-98483717D02*
X141155833Y-98513955D01*
X141155833Y-98513955D02*
X141186071Y-98574431D01*
X141186071Y-98574431D02*
X141186071Y-98665145D01*
X141186071Y-98665145D02*
X141155833Y-98725621D01*
X141155833Y-98725621D02*
X141125595Y-98755860D01*
X141125595Y-98755860D02*
X141065119Y-98786098D01*
X141065119Y-98786098D02*
X140823214Y-98786098D01*
X141790833Y-99088479D02*
X141427976Y-99088479D01*
X141609404Y-99088479D02*
X141609404Y-98453479D01*
X141609404Y-98453479D02*
X141548928Y-98544193D01*
X141548928Y-98544193D02*
X141488452Y-98604669D01*
X141488452Y-98604669D02*
X141427976Y-98634907D01*
X192178002Y-72908214D02*
X192208241Y-72938452D01*
X192208241Y-72938452D02*
X192238479Y-73029166D01*
X192238479Y-73029166D02*
X192238479Y-73089642D01*
X192238479Y-73089642D02*
X192208241Y-73180357D01*
X192208241Y-73180357D02*
X192147764Y-73240833D01*
X192147764Y-73240833D02*
X192087288Y-73271071D01*
X192087288Y-73271071D02*
X191966336Y-73301309D01*
X191966336Y-73301309D02*
X191875621Y-73301309D01*
X191875621Y-73301309D02*
X191754669Y-73271071D01*
X191754669Y-73271071D02*
X191694193Y-73240833D01*
X191694193Y-73240833D02*
X191633717Y-73180357D01*
X191633717Y-73180357D02*
X191603479Y-73089642D01*
X191603479Y-73089642D02*
X191603479Y-73029166D01*
X191603479Y-73029166D02*
X191633717Y-72938452D01*
X191633717Y-72938452D02*
X191663955Y-72908214D01*
X191603479Y-72696547D02*
X191603479Y-72303452D01*
X191603479Y-72303452D02*
X191845383Y-72515119D01*
X191845383Y-72515119D02*
X191845383Y-72424404D01*
X191845383Y-72424404D02*
X191875621Y-72363928D01*
X191875621Y-72363928D02*
X191905860Y-72333690D01*
X191905860Y-72333690D02*
X191966336Y-72303452D01*
X191966336Y-72303452D02*
X192117526Y-72303452D01*
X192117526Y-72303452D02*
X192178002Y-72333690D01*
X192178002Y-72333690D02*
X192208241Y-72363928D01*
X192208241Y-72363928D02*
X192238479Y-72424404D01*
X192238479Y-72424404D02*
X192238479Y-72605833D01*
X192238479Y-72605833D02*
X192208241Y-72666309D01*
X192208241Y-72666309D02*
X192178002Y-72696547D01*
X191663955Y-72061547D02*
X191633717Y-72031309D01*
X191633717Y-72031309D02*
X191603479Y-71970833D01*
X191603479Y-71970833D02*
X191603479Y-71819642D01*
X191603479Y-71819642D02*
X191633717Y-71759166D01*
X191633717Y-71759166D02*
X191663955Y-71728928D01*
X191663955Y-71728928D02*
X191724431Y-71698690D01*
X191724431Y-71698690D02*
X191784907Y-71698690D01*
X191784907Y-71698690D02*
X191875621Y-71728928D01*
X191875621Y-71728928D02*
X192238479Y-72091785D01*
X192238479Y-72091785D02*
X192238479Y-71698690D01*
X207656785Y-101078002D02*
X207626547Y-101108241D01*
X207626547Y-101108241D02*
X207535833Y-101138479D01*
X207535833Y-101138479D02*
X207475357Y-101138479D01*
X207475357Y-101138479D02*
X207384642Y-101108241D01*
X207384642Y-101108241D02*
X207324166Y-101047764D01*
X207324166Y-101047764D02*
X207293928Y-100987288D01*
X207293928Y-100987288D02*
X207263690Y-100866336D01*
X207263690Y-100866336D02*
X207263690Y-100775621D01*
X207263690Y-100775621D02*
X207293928Y-100654669D01*
X207293928Y-100654669D02*
X207324166Y-100594193D01*
X207324166Y-100594193D02*
X207384642Y-100533717D01*
X207384642Y-100533717D02*
X207475357Y-100503479D01*
X207475357Y-100503479D02*
X207535833Y-100503479D01*
X207535833Y-100503479D02*
X207626547Y-100533717D01*
X207626547Y-100533717D02*
X207656785Y-100563955D01*
X207898690Y-100563955D02*
X207928928Y-100533717D01*
X207928928Y-100533717D02*
X207989404Y-100503479D01*
X207989404Y-100503479D02*
X208140595Y-100503479D01*
X208140595Y-100503479D02*
X208201071Y-100533717D01*
X208201071Y-100533717D02*
X208231309Y-100563955D01*
X208231309Y-100563955D02*
X208261547Y-100624431D01*
X208261547Y-100624431D02*
X208261547Y-100684907D01*
X208261547Y-100684907D02*
X208231309Y-100775621D01*
X208231309Y-100775621D02*
X207868452Y-101138479D01*
X207868452Y-101138479D02*
X208261547Y-101138479D01*
X208473214Y-100503479D02*
X208866309Y-100503479D01*
X208866309Y-100503479D02*
X208654642Y-100745383D01*
X208654642Y-100745383D02*
X208745357Y-100745383D01*
X208745357Y-100745383D02*
X208805833Y-100775621D01*
X208805833Y-100775621D02*
X208836071Y-100805860D01*
X208836071Y-100805860D02*
X208866309Y-100866336D01*
X208866309Y-100866336D02*
X208866309Y-101017526D01*
X208866309Y-101017526D02*
X208836071Y-101078002D01*
X208836071Y-101078002D02*
X208805833Y-101108241D01*
X208805833Y-101108241D02*
X208745357Y-101138479D01*
X208745357Y-101138479D02*
X208563928Y-101138479D01*
X208563928Y-101138479D02*
X208503452Y-101108241D01*
X208503452Y-101108241D02*
X208473214Y-101078002D01*
X208888002Y-78308214D02*
X208918241Y-78338452D01*
X208918241Y-78338452D02*
X208948479Y-78429166D01*
X208948479Y-78429166D02*
X208948479Y-78489642D01*
X208948479Y-78489642D02*
X208918241Y-78580357D01*
X208918241Y-78580357D02*
X208857764Y-78640833D01*
X208857764Y-78640833D02*
X208797288Y-78671071D01*
X208797288Y-78671071D02*
X208676336Y-78701309D01*
X208676336Y-78701309D02*
X208585621Y-78701309D01*
X208585621Y-78701309D02*
X208464669Y-78671071D01*
X208464669Y-78671071D02*
X208404193Y-78640833D01*
X208404193Y-78640833D02*
X208343717Y-78580357D01*
X208343717Y-78580357D02*
X208313479Y-78489642D01*
X208313479Y-78489642D02*
X208313479Y-78429166D01*
X208313479Y-78429166D02*
X208343717Y-78338452D01*
X208343717Y-78338452D02*
X208373955Y-78308214D01*
X208373955Y-78066309D02*
X208343717Y-78036071D01*
X208343717Y-78036071D02*
X208313479Y-77975595D01*
X208313479Y-77975595D02*
X208313479Y-77824404D01*
X208313479Y-77824404D02*
X208343717Y-77763928D01*
X208343717Y-77763928D02*
X208373955Y-77733690D01*
X208373955Y-77733690D02*
X208434431Y-77703452D01*
X208434431Y-77703452D02*
X208494907Y-77703452D01*
X208494907Y-77703452D02*
X208585621Y-77733690D01*
X208585621Y-77733690D02*
X208948479Y-78096547D01*
X208948479Y-78096547D02*
X208948479Y-77703452D01*
X208313479Y-77491785D02*
X208313479Y-77068452D01*
X208313479Y-77068452D02*
X208948479Y-77340595D01*
X203818479Y-66208214D02*
X203516098Y-66419881D01*
X203818479Y-66571071D02*
X203183479Y-66571071D01*
X203183479Y-66571071D02*
X203183479Y-66329166D01*
X203183479Y-66329166D02*
X203213717Y-66268690D01*
X203213717Y-66268690D02*
X203243955Y-66238452D01*
X203243955Y-66238452D02*
X203304431Y-66208214D01*
X203304431Y-66208214D02*
X203395145Y-66208214D01*
X203395145Y-66208214D02*
X203455621Y-66238452D01*
X203455621Y-66238452D02*
X203485860Y-66268690D01*
X203485860Y-66268690D02*
X203516098Y-66329166D01*
X203516098Y-66329166D02*
X203516098Y-66571071D01*
X203818479Y-65603452D02*
X203818479Y-65966309D01*
X203818479Y-65784881D02*
X203183479Y-65784881D01*
X203183479Y-65784881D02*
X203274193Y-65845357D01*
X203274193Y-65845357D02*
X203334669Y-65905833D01*
X203334669Y-65905833D02*
X203364907Y-65966309D01*
X203818479Y-64998690D02*
X203818479Y-65361547D01*
X203818479Y-65180119D02*
X203183479Y-65180119D01*
X203183479Y-65180119D02*
X203274193Y-65240595D01*
X203274193Y-65240595D02*
X203334669Y-65301071D01*
X203334669Y-65301071D02*
X203364907Y-65361547D01*
X141313479Y-88211666D02*
X141767050Y-88211666D01*
X141767050Y-88211666D02*
X141857764Y-88241905D01*
X141857764Y-88241905D02*
X141918241Y-88302381D01*
X141918241Y-88302381D02*
X141948479Y-88393095D01*
X141948479Y-88393095D02*
X141948479Y-88453571D01*
X141948479Y-87576666D02*
X141948479Y-87939523D01*
X141948479Y-87758095D02*
X141313479Y-87758095D01*
X141313479Y-87758095D02*
X141404193Y-87818571D01*
X141404193Y-87818571D02*
X141464669Y-87879047D01*
X141464669Y-87879047D02*
X141494907Y-87939523D01*
X150268002Y-85085833D02*
X150298241Y-85116071D01*
X150298241Y-85116071D02*
X150328479Y-85206785D01*
X150328479Y-85206785D02*
X150328479Y-85267261D01*
X150328479Y-85267261D02*
X150298241Y-85357976D01*
X150298241Y-85357976D02*
X150237764Y-85418452D01*
X150237764Y-85418452D02*
X150177288Y-85448690D01*
X150177288Y-85448690D02*
X150056336Y-85478928D01*
X150056336Y-85478928D02*
X149965621Y-85478928D01*
X149965621Y-85478928D02*
X149844669Y-85448690D01*
X149844669Y-85448690D02*
X149784193Y-85418452D01*
X149784193Y-85418452D02*
X149723717Y-85357976D01*
X149723717Y-85357976D02*
X149693479Y-85267261D01*
X149693479Y-85267261D02*
X149693479Y-85206785D01*
X149693479Y-85206785D02*
X149723717Y-85116071D01*
X149723717Y-85116071D02*
X149753955Y-85085833D01*
X149693479Y-84874166D02*
X149693479Y-84481071D01*
X149693479Y-84481071D02*
X149935383Y-84692738D01*
X149935383Y-84692738D02*
X149935383Y-84602023D01*
X149935383Y-84602023D02*
X149965621Y-84541547D01*
X149965621Y-84541547D02*
X149995860Y-84511309D01*
X149995860Y-84511309D02*
X150056336Y-84481071D01*
X150056336Y-84481071D02*
X150207526Y-84481071D01*
X150207526Y-84481071D02*
X150268002Y-84511309D01*
X150268002Y-84511309D02*
X150298241Y-84541547D01*
X150298241Y-84541547D02*
X150328479Y-84602023D01*
X150328479Y-84602023D02*
X150328479Y-84783452D01*
X150328479Y-84783452D02*
X150298241Y-84843928D01*
X150298241Y-84843928D02*
X150268002Y-84874166D01*
X207865860Y-85348690D02*
X207865860Y-85560357D01*
X208198479Y-85560357D02*
X207563479Y-85560357D01*
X207563479Y-85560357D02*
X207563479Y-85257976D01*
X208198479Y-84713690D02*
X208198479Y-85016071D01*
X208198479Y-85016071D02*
X207563479Y-85016071D01*
X208198479Y-84169404D02*
X208198479Y-84532261D01*
X208198479Y-84350833D02*
X207563479Y-84350833D01*
X207563479Y-84350833D02*
X207654193Y-84411309D01*
X207654193Y-84411309D02*
X207714669Y-84471785D01*
X207714669Y-84471785D02*
X207744907Y-84532261D01*
X147858479Y-78818214D02*
X147556098Y-79029881D01*
X147858479Y-79181071D02*
X147223479Y-79181071D01*
X147223479Y-79181071D02*
X147223479Y-78939166D01*
X147223479Y-78939166D02*
X147253717Y-78878690D01*
X147253717Y-78878690D02*
X147283955Y-78848452D01*
X147283955Y-78848452D02*
X147344431Y-78818214D01*
X147344431Y-78818214D02*
X147435145Y-78818214D01*
X147435145Y-78818214D02*
X147495621Y-78848452D01*
X147495621Y-78848452D02*
X147525860Y-78878690D01*
X147525860Y-78878690D02*
X147556098Y-78939166D01*
X147556098Y-78939166D02*
X147556098Y-79181071D01*
X147283955Y-78576309D02*
X147253717Y-78546071D01*
X147253717Y-78546071D02*
X147223479Y-78485595D01*
X147223479Y-78485595D02*
X147223479Y-78334404D01*
X147223479Y-78334404D02*
X147253717Y-78273928D01*
X147253717Y-78273928D02*
X147283955Y-78243690D01*
X147283955Y-78243690D02*
X147344431Y-78213452D01*
X147344431Y-78213452D02*
X147404907Y-78213452D01*
X147404907Y-78213452D02*
X147495621Y-78243690D01*
X147495621Y-78243690D02*
X147858479Y-78606547D01*
X147858479Y-78606547D02*
X147858479Y-78213452D01*
X147283955Y-77971547D02*
X147253717Y-77941309D01*
X147253717Y-77941309D02*
X147223479Y-77880833D01*
X147223479Y-77880833D02*
X147223479Y-77729642D01*
X147223479Y-77729642D02*
X147253717Y-77669166D01*
X147253717Y-77669166D02*
X147283955Y-77638928D01*
X147283955Y-77638928D02*
X147344431Y-77608690D01*
X147344431Y-77608690D02*
X147404907Y-77608690D01*
X147404907Y-77608690D02*
X147495621Y-77638928D01*
X147495621Y-77638928D02*
X147858479Y-78001785D01*
X147858479Y-78001785D02*
X147858479Y-77608690D01*
X199958479Y-71108214D02*
X199656098Y-71319881D01*
X199958479Y-71471071D02*
X199323479Y-71471071D01*
X199323479Y-71471071D02*
X199323479Y-71229166D01*
X199323479Y-71229166D02*
X199353717Y-71168690D01*
X199353717Y-71168690D02*
X199383955Y-71138452D01*
X199383955Y-71138452D02*
X199444431Y-71108214D01*
X199444431Y-71108214D02*
X199535145Y-71108214D01*
X199535145Y-71108214D02*
X199595621Y-71138452D01*
X199595621Y-71138452D02*
X199625860Y-71168690D01*
X199625860Y-71168690D02*
X199656098Y-71229166D01*
X199656098Y-71229166D02*
X199656098Y-71471071D01*
X199958479Y-70503452D02*
X199958479Y-70866309D01*
X199958479Y-70684881D02*
X199323479Y-70684881D01*
X199323479Y-70684881D02*
X199414193Y-70745357D01*
X199414193Y-70745357D02*
X199474669Y-70805833D01*
X199474669Y-70805833D02*
X199504907Y-70866309D01*
X199323479Y-70291785D02*
X199323479Y-69868452D01*
X199323479Y-69868452D02*
X199958479Y-70140595D01*
X140928479Y-84595833D02*
X140626098Y-84807500D01*
X140928479Y-84958690D02*
X140293479Y-84958690D01*
X140293479Y-84958690D02*
X140293479Y-84716785D01*
X140293479Y-84716785D02*
X140323717Y-84656309D01*
X140323717Y-84656309D02*
X140353955Y-84626071D01*
X140353955Y-84626071D02*
X140414431Y-84595833D01*
X140414431Y-84595833D02*
X140505145Y-84595833D01*
X140505145Y-84595833D02*
X140565621Y-84626071D01*
X140565621Y-84626071D02*
X140595860Y-84656309D01*
X140595860Y-84656309D02*
X140626098Y-84716785D01*
X140626098Y-84716785D02*
X140626098Y-84958690D01*
X140928479Y-83991071D02*
X140928479Y-84353928D01*
X140928479Y-84172500D02*
X140293479Y-84172500D01*
X140293479Y-84172500D02*
X140384193Y-84232976D01*
X140384193Y-84232976D02*
X140444669Y-84293452D01*
X140444669Y-84293452D02*
X140474907Y-84353928D01*
X203201785Y-72158479D02*
X202990118Y-71856098D01*
X202838928Y-72158479D02*
X202838928Y-71523479D01*
X202838928Y-71523479D02*
X203080833Y-71523479D01*
X203080833Y-71523479D02*
X203141309Y-71553717D01*
X203141309Y-71553717D02*
X203171547Y-71583955D01*
X203171547Y-71583955D02*
X203201785Y-71644431D01*
X203201785Y-71644431D02*
X203201785Y-71735145D01*
X203201785Y-71735145D02*
X203171547Y-71795621D01*
X203171547Y-71795621D02*
X203141309Y-71825860D01*
X203141309Y-71825860D02*
X203080833Y-71856098D01*
X203080833Y-71856098D02*
X202838928Y-71856098D01*
X203806547Y-72158479D02*
X203443690Y-72158479D01*
X203625118Y-72158479D02*
X203625118Y-71523479D01*
X203625118Y-71523479D02*
X203564642Y-71614193D01*
X203564642Y-71614193D02*
X203504166Y-71674669D01*
X203504166Y-71674669D02*
X203443690Y-71704907D01*
X204108928Y-72158479D02*
X204229880Y-72158479D01*
X204229880Y-72158479D02*
X204290357Y-72128241D01*
X204290357Y-72128241D02*
X204320595Y-72098002D01*
X204320595Y-72098002D02*
X204381071Y-72007288D01*
X204381071Y-72007288D02*
X204411309Y-71886336D01*
X204411309Y-71886336D02*
X204411309Y-71644431D01*
X204411309Y-71644431D02*
X204381071Y-71583955D01*
X204381071Y-71583955D02*
X204350833Y-71553717D01*
X204350833Y-71553717D02*
X204290357Y-71523479D01*
X204290357Y-71523479D02*
X204169404Y-71523479D01*
X204169404Y-71523479D02*
X204108928Y-71553717D01*
X204108928Y-71553717D02*
X204078690Y-71583955D01*
X204078690Y-71583955D02*
X204048452Y-71644431D01*
X204048452Y-71644431D02*
X204048452Y-71795621D01*
X204048452Y-71795621D02*
X204078690Y-71856098D01*
X204078690Y-71856098D02*
X204108928Y-71886336D01*
X204108928Y-71886336D02*
X204169404Y-71916574D01*
X204169404Y-71916574D02*
X204290357Y-71916574D01*
X204290357Y-71916574D02*
X204350833Y-71886336D01*
X204350833Y-71886336D02*
X204381071Y-71856098D01*
X204381071Y-71856098D02*
X204411309Y-71795621D01*
X205118479Y-61118214D02*
X204816098Y-61329881D01*
X205118479Y-61481071D02*
X204483479Y-61481071D01*
X204483479Y-61481071D02*
X204483479Y-61239166D01*
X204483479Y-61239166D02*
X204513717Y-61178690D01*
X204513717Y-61178690D02*
X204543955Y-61148452D01*
X204543955Y-61148452D02*
X204604431Y-61118214D01*
X204604431Y-61118214D02*
X204695145Y-61118214D01*
X204695145Y-61118214D02*
X204755621Y-61148452D01*
X204755621Y-61148452D02*
X204785860Y-61178690D01*
X204785860Y-61178690D02*
X204816098Y-61239166D01*
X204816098Y-61239166D02*
X204816098Y-61481071D01*
X205118479Y-60513452D02*
X205118479Y-60876309D01*
X205118479Y-60694881D02*
X204483479Y-60694881D01*
X204483479Y-60694881D02*
X204574193Y-60755357D01*
X204574193Y-60755357D02*
X204634669Y-60815833D01*
X204634669Y-60815833D02*
X204664907Y-60876309D01*
X204695145Y-59969166D02*
X205118479Y-59969166D01*
X204453241Y-60120357D02*
X204906812Y-60271547D01*
X204906812Y-60271547D02*
X204906812Y-59878452D01*
X175788002Y-70428214D02*
X175818241Y-70458452D01*
X175818241Y-70458452D02*
X175848479Y-70549166D01*
X175848479Y-70549166D02*
X175848479Y-70609642D01*
X175848479Y-70609642D02*
X175818241Y-70700357D01*
X175818241Y-70700357D02*
X175757764Y-70760833D01*
X175757764Y-70760833D02*
X175697288Y-70791071D01*
X175697288Y-70791071D02*
X175576336Y-70821309D01*
X175576336Y-70821309D02*
X175485621Y-70821309D01*
X175485621Y-70821309D02*
X175364669Y-70791071D01*
X175364669Y-70791071D02*
X175304193Y-70760833D01*
X175304193Y-70760833D02*
X175243717Y-70700357D01*
X175243717Y-70700357D02*
X175213479Y-70609642D01*
X175213479Y-70609642D02*
X175213479Y-70549166D01*
X175213479Y-70549166D02*
X175243717Y-70458452D01*
X175243717Y-70458452D02*
X175273955Y-70428214D01*
X175848479Y-69823452D02*
X175848479Y-70186309D01*
X175848479Y-70004881D02*
X175213479Y-70004881D01*
X175213479Y-70004881D02*
X175304193Y-70065357D01*
X175304193Y-70065357D02*
X175364669Y-70125833D01*
X175364669Y-70125833D02*
X175394907Y-70186309D01*
X175485621Y-69460595D02*
X175455383Y-69521071D01*
X175455383Y-69521071D02*
X175425145Y-69551309D01*
X175425145Y-69551309D02*
X175364669Y-69581547D01*
X175364669Y-69581547D02*
X175334431Y-69581547D01*
X175334431Y-69581547D02*
X175273955Y-69551309D01*
X175273955Y-69551309D02*
X175243717Y-69521071D01*
X175243717Y-69521071D02*
X175213479Y-69460595D01*
X175213479Y-69460595D02*
X175213479Y-69339642D01*
X175213479Y-69339642D02*
X175243717Y-69279166D01*
X175243717Y-69279166D02*
X175273955Y-69248928D01*
X175273955Y-69248928D02*
X175334431Y-69218690D01*
X175334431Y-69218690D02*
X175364669Y-69218690D01*
X175364669Y-69218690D02*
X175425145Y-69248928D01*
X175425145Y-69248928D02*
X175455383Y-69279166D01*
X175455383Y-69279166D02*
X175485621Y-69339642D01*
X175485621Y-69339642D02*
X175485621Y-69460595D01*
X175485621Y-69460595D02*
X175515860Y-69521071D01*
X175515860Y-69521071D02*
X175546098Y-69551309D01*
X175546098Y-69551309D02*
X175606574Y-69581547D01*
X175606574Y-69581547D02*
X175727526Y-69581547D01*
X175727526Y-69581547D02*
X175788002Y-69551309D01*
X175788002Y-69551309D02*
X175818241Y-69521071D01*
X175818241Y-69521071D02*
X175848479Y-69460595D01*
X175848479Y-69460595D02*
X175848479Y-69339642D01*
X175848479Y-69339642D02*
X175818241Y-69279166D01*
X175818241Y-69279166D02*
X175788002Y-69248928D01*
X175788002Y-69248928D02*
X175727526Y-69218690D01*
X175727526Y-69218690D02*
X175606574Y-69218690D01*
X175606574Y-69218690D02*
X175546098Y-69248928D01*
X175546098Y-69248928D02*
X175515860Y-69279166D01*
X175515860Y-69279166D02*
X175485621Y-69339642D01*
X153568002Y-79705833D02*
X153598241Y-79736071D01*
X153598241Y-79736071D02*
X153628479Y-79826785D01*
X153628479Y-79826785D02*
X153628479Y-79887261D01*
X153628479Y-79887261D02*
X153598241Y-79977976D01*
X153598241Y-79977976D02*
X153537764Y-80038452D01*
X153537764Y-80038452D02*
X153477288Y-80068690D01*
X153477288Y-80068690D02*
X153356336Y-80098928D01*
X153356336Y-80098928D02*
X153265621Y-80098928D01*
X153265621Y-80098928D02*
X153144669Y-80068690D01*
X153144669Y-80068690D02*
X153084193Y-80038452D01*
X153084193Y-80038452D02*
X153023717Y-79977976D01*
X153023717Y-79977976D02*
X152993479Y-79887261D01*
X152993479Y-79887261D02*
X152993479Y-79826785D01*
X152993479Y-79826785D02*
X153023717Y-79736071D01*
X153023717Y-79736071D02*
X153053955Y-79705833D01*
X152993479Y-79161547D02*
X152993479Y-79282500D01*
X152993479Y-79282500D02*
X153023717Y-79342976D01*
X153023717Y-79342976D02*
X153053955Y-79373214D01*
X153053955Y-79373214D02*
X153144669Y-79433690D01*
X153144669Y-79433690D02*
X153265621Y-79463928D01*
X153265621Y-79463928D02*
X153507526Y-79463928D01*
X153507526Y-79463928D02*
X153568002Y-79433690D01*
X153568002Y-79433690D02*
X153598241Y-79403452D01*
X153598241Y-79403452D02*
X153628479Y-79342976D01*
X153628479Y-79342976D02*
X153628479Y-79222023D01*
X153628479Y-79222023D02*
X153598241Y-79161547D01*
X153598241Y-79161547D02*
X153568002Y-79131309D01*
X153568002Y-79131309D02*
X153507526Y-79101071D01*
X153507526Y-79101071D02*
X153356336Y-79101071D01*
X153356336Y-79101071D02*
X153295860Y-79131309D01*
X153295860Y-79131309D02*
X153265621Y-79161547D01*
X153265621Y-79161547D02*
X153235383Y-79222023D01*
X153235383Y-79222023D02*
X153235383Y-79342976D01*
X153235383Y-79342976D02*
X153265621Y-79403452D01*
X153265621Y-79403452D02*
X153295860Y-79433690D01*
X153295860Y-79433690D02*
X153356336Y-79463928D01*
X163168002Y-75108214D02*
X163198241Y-75138452D01*
X163198241Y-75138452D02*
X163228479Y-75229166D01*
X163228479Y-75229166D02*
X163228479Y-75289642D01*
X163228479Y-75289642D02*
X163198241Y-75380357D01*
X163198241Y-75380357D02*
X163137764Y-75440833D01*
X163137764Y-75440833D02*
X163077288Y-75471071D01*
X163077288Y-75471071D02*
X162956336Y-75501309D01*
X162956336Y-75501309D02*
X162865621Y-75501309D01*
X162865621Y-75501309D02*
X162744669Y-75471071D01*
X162744669Y-75471071D02*
X162684193Y-75440833D01*
X162684193Y-75440833D02*
X162623717Y-75380357D01*
X162623717Y-75380357D02*
X162593479Y-75289642D01*
X162593479Y-75289642D02*
X162593479Y-75229166D01*
X162593479Y-75229166D02*
X162623717Y-75138452D01*
X162623717Y-75138452D02*
X162653955Y-75108214D01*
X163228479Y-74503452D02*
X163228479Y-74866309D01*
X163228479Y-74684881D02*
X162593479Y-74684881D01*
X162593479Y-74684881D02*
X162684193Y-74745357D01*
X162684193Y-74745357D02*
X162744669Y-74805833D01*
X162744669Y-74805833D02*
X162774907Y-74866309D01*
X162593479Y-74291785D02*
X162593479Y-73868452D01*
X162593479Y-73868452D02*
X163228479Y-74140595D01*
X207746785Y-95578002D02*
X207716547Y-95608241D01*
X207716547Y-95608241D02*
X207625833Y-95638479D01*
X207625833Y-95638479D02*
X207565357Y-95638479D01*
X207565357Y-95638479D02*
X207474642Y-95608241D01*
X207474642Y-95608241D02*
X207414166Y-95547764D01*
X207414166Y-95547764D02*
X207383928Y-95487288D01*
X207383928Y-95487288D02*
X207353690Y-95366336D01*
X207353690Y-95366336D02*
X207353690Y-95275621D01*
X207353690Y-95275621D02*
X207383928Y-95154669D01*
X207383928Y-95154669D02*
X207414166Y-95094193D01*
X207414166Y-95094193D02*
X207474642Y-95033717D01*
X207474642Y-95033717D02*
X207565357Y-95003479D01*
X207565357Y-95003479D02*
X207625833Y-95003479D01*
X207625833Y-95003479D02*
X207716547Y-95033717D01*
X207716547Y-95033717D02*
X207746785Y-95063955D01*
X207988690Y-95063955D02*
X208018928Y-95033717D01*
X208018928Y-95033717D02*
X208079404Y-95003479D01*
X208079404Y-95003479D02*
X208230595Y-95003479D01*
X208230595Y-95003479D02*
X208291071Y-95033717D01*
X208291071Y-95033717D02*
X208321309Y-95063955D01*
X208321309Y-95063955D02*
X208351547Y-95124431D01*
X208351547Y-95124431D02*
X208351547Y-95184907D01*
X208351547Y-95184907D02*
X208321309Y-95275621D01*
X208321309Y-95275621D02*
X207958452Y-95638479D01*
X207958452Y-95638479D02*
X208351547Y-95638479D01*
X208895833Y-95215145D02*
X208895833Y-95638479D01*
X208744642Y-94973241D02*
X208593452Y-95426812D01*
X208593452Y-95426812D02*
X208986547Y-95426812D01*
X144688479Y-84451309D02*
X145202526Y-84451309D01*
X145202526Y-84451309D02*
X145263002Y-84421071D01*
X145263002Y-84421071D02*
X145293241Y-84390833D01*
X145293241Y-84390833D02*
X145323479Y-84330357D01*
X145323479Y-84330357D02*
X145323479Y-84209404D01*
X145323479Y-84209404D02*
X145293241Y-84148928D01*
X145293241Y-84148928D02*
X145263002Y-84118690D01*
X145263002Y-84118690D02*
X145202526Y-84088452D01*
X145202526Y-84088452D02*
X144688479Y-84088452D01*
X145323479Y-83453452D02*
X145323479Y-83816309D01*
X145323479Y-83634881D02*
X144688479Y-83634881D01*
X144688479Y-83634881D02*
X144779193Y-83695357D01*
X144779193Y-83695357D02*
X144839669Y-83755833D01*
X144839669Y-83755833D02*
X144869907Y-83816309D01*
X145791785Y-81138479D02*
X145580118Y-80836098D01*
X145428928Y-81138479D02*
X145428928Y-80503479D01*
X145428928Y-80503479D02*
X145670833Y-80503479D01*
X145670833Y-80503479D02*
X145731309Y-80533717D01*
X145731309Y-80533717D02*
X145761547Y-80563955D01*
X145761547Y-80563955D02*
X145791785Y-80624431D01*
X145791785Y-80624431D02*
X145791785Y-80715145D01*
X145791785Y-80715145D02*
X145761547Y-80775621D01*
X145761547Y-80775621D02*
X145731309Y-80805860D01*
X145731309Y-80805860D02*
X145670833Y-80836098D01*
X145670833Y-80836098D02*
X145428928Y-80836098D01*
X146033690Y-80563955D02*
X146063928Y-80533717D01*
X146063928Y-80533717D02*
X146124404Y-80503479D01*
X146124404Y-80503479D02*
X146275595Y-80503479D01*
X146275595Y-80503479D02*
X146336071Y-80533717D01*
X146336071Y-80533717D02*
X146366309Y-80563955D01*
X146366309Y-80563955D02*
X146396547Y-80624431D01*
X146396547Y-80624431D02*
X146396547Y-80684907D01*
X146396547Y-80684907D02*
X146366309Y-80775621D01*
X146366309Y-80775621D02*
X146003452Y-81138479D01*
X146003452Y-81138479D02*
X146396547Y-81138479D01*
X147001309Y-81138479D02*
X146638452Y-81138479D01*
X146819880Y-81138479D02*
X146819880Y-80503479D01*
X146819880Y-80503479D02*
X146759404Y-80594193D01*
X146759404Y-80594193D02*
X146698928Y-80654669D01*
X146698928Y-80654669D02*
X146638452Y-80684907D01*
X187238479Y-63858214D02*
X186936098Y-64069881D01*
X187238479Y-64221071D02*
X186603479Y-64221071D01*
X186603479Y-64221071D02*
X186603479Y-63979166D01*
X186603479Y-63979166D02*
X186633717Y-63918690D01*
X186633717Y-63918690D02*
X186663955Y-63888452D01*
X186663955Y-63888452D02*
X186724431Y-63858214D01*
X186724431Y-63858214D02*
X186815145Y-63858214D01*
X186815145Y-63858214D02*
X186875621Y-63888452D01*
X186875621Y-63888452D02*
X186905860Y-63918690D01*
X186905860Y-63918690D02*
X186936098Y-63979166D01*
X186936098Y-63979166D02*
X186936098Y-64221071D01*
X187238479Y-63253452D02*
X187238479Y-63616309D01*
X187238479Y-63434881D02*
X186603479Y-63434881D01*
X186603479Y-63434881D02*
X186694193Y-63495357D01*
X186694193Y-63495357D02*
X186754669Y-63555833D01*
X186754669Y-63555833D02*
X186784907Y-63616309D01*
X186603479Y-62709166D02*
X186603479Y-62830119D01*
X186603479Y-62830119D02*
X186633717Y-62890595D01*
X186633717Y-62890595D02*
X186663955Y-62920833D01*
X186663955Y-62920833D02*
X186754669Y-62981309D01*
X186754669Y-62981309D02*
X186875621Y-63011547D01*
X186875621Y-63011547D02*
X187117526Y-63011547D01*
X187117526Y-63011547D02*
X187178002Y-62981309D01*
X187178002Y-62981309D02*
X187208241Y-62951071D01*
X187208241Y-62951071D02*
X187238479Y-62890595D01*
X187238479Y-62890595D02*
X187238479Y-62769642D01*
X187238479Y-62769642D02*
X187208241Y-62709166D01*
X187208241Y-62709166D02*
X187178002Y-62678928D01*
X187178002Y-62678928D02*
X187117526Y-62648690D01*
X187117526Y-62648690D02*
X186966336Y-62648690D01*
X186966336Y-62648690D02*
X186905860Y-62678928D01*
X186905860Y-62678928D02*
X186875621Y-62709166D01*
X186875621Y-62709166D02*
X186845383Y-62769642D01*
X186845383Y-62769642D02*
X186845383Y-62890595D01*
X186845383Y-62890595D02*
X186875621Y-62951071D01*
X186875621Y-62951071D02*
X186905860Y-62981309D01*
X186905860Y-62981309D02*
X186966336Y-63011547D01*
X187223479Y-72136666D02*
X187677050Y-72136666D01*
X187677050Y-72136666D02*
X187767764Y-72166905D01*
X187767764Y-72166905D02*
X187828241Y-72227381D01*
X187828241Y-72227381D02*
X187858479Y-72318095D01*
X187858479Y-72318095D02*
X187858479Y-72378571D01*
X187223479Y-71894761D02*
X187223479Y-71501666D01*
X187223479Y-71501666D02*
X187465383Y-71713333D01*
X187465383Y-71713333D02*
X187465383Y-71622618D01*
X187465383Y-71622618D02*
X187495621Y-71562142D01*
X187495621Y-71562142D02*
X187525860Y-71531904D01*
X187525860Y-71531904D02*
X187586336Y-71501666D01*
X187586336Y-71501666D02*
X187737526Y-71501666D01*
X187737526Y-71501666D02*
X187798002Y-71531904D01*
X187798002Y-71531904D02*
X187828241Y-71562142D01*
X187828241Y-71562142D02*
X187858479Y-71622618D01*
X187858479Y-71622618D02*
X187858479Y-71804047D01*
X187858479Y-71804047D02*
X187828241Y-71864523D01*
X187828241Y-71864523D02*
X187798002Y-71894761D01*
X156616190Y-96253479D02*
X156616190Y-96767526D01*
X156616190Y-96767526D02*
X156646428Y-96828002D01*
X156646428Y-96828002D02*
X156676666Y-96858241D01*
X156676666Y-96858241D02*
X156737142Y-96888479D01*
X156737142Y-96888479D02*
X156858095Y-96888479D01*
X156858095Y-96888479D02*
X156918571Y-96858241D01*
X156918571Y-96858241D02*
X156948809Y-96828002D01*
X156948809Y-96828002D02*
X156979047Y-96767526D01*
X156979047Y-96767526D02*
X156979047Y-96253479D01*
X157220952Y-96253479D02*
X157614047Y-96253479D01*
X157614047Y-96253479D02*
X157402380Y-96495383D01*
X157402380Y-96495383D02*
X157493095Y-96495383D01*
X157493095Y-96495383D02*
X157553571Y-96525621D01*
X157553571Y-96525621D02*
X157583809Y-96555860D01*
X157583809Y-96555860D02*
X157614047Y-96616336D01*
X157614047Y-96616336D02*
X157614047Y-96767526D01*
X157614047Y-96767526D02*
X157583809Y-96828002D01*
X157583809Y-96828002D02*
X157553571Y-96858241D01*
X157553571Y-96858241D02*
X157493095Y-96888479D01*
X157493095Y-96888479D02*
X157311666Y-96888479D01*
X157311666Y-96888479D02*
X157251190Y-96858241D01*
X157251190Y-96858241D02*
X157220952Y-96828002D01*
X149218479Y-85105833D02*
X148916098Y-85317500D01*
X149218479Y-85468690D02*
X148583479Y-85468690D01*
X148583479Y-85468690D02*
X148583479Y-85226785D01*
X148583479Y-85226785D02*
X148613717Y-85166309D01*
X148613717Y-85166309D02*
X148643955Y-85136071D01*
X148643955Y-85136071D02*
X148704431Y-85105833D01*
X148704431Y-85105833D02*
X148795145Y-85105833D01*
X148795145Y-85105833D02*
X148855621Y-85136071D01*
X148855621Y-85136071D02*
X148885860Y-85166309D01*
X148885860Y-85166309D02*
X148916098Y-85226785D01*
X148916098Y-85226785D02*
X148916098Y-85468690D01*
X148795145Y-84561547D02*
X149218479Y-84561547D01*
X148553241Y-84712738D02*
X149006812Y-84863928D01*
X149006812Y-84863928D02*
X149006812Y-84470833D01*
X203201785Y-68768002D02*
X203171547Y-68798241D01*
X203171547Y-68798241D02*
X203080833Y-68828479D01*
X203080833Y-68828479D02*
X203020357Y-68828479D01*
X203020357Y-68828479D02*
X202929642Y-68798241D01*
X202929642Y-68798241D02*
X202869166Y-68737764D01*
X202869166Y-68737764D02*
X202838928Y-68677288D01*
X202838928Y-68677288D02*
X202808690Y-68556336D01*
X202808690Y-68556336D02*
X202808690Y-68465621D01*
X202808690Y-68465621D02*
X202838928Y-68344669D01*
X202838928Y-68344669D02*
X202869166Y-68284193D01*
X202869166Y-68284193D02*
X202929642Y-68223717D01*
X202929642Y-68223717D02*
X203020357Y-68193479D01*
X203020357Y-68193479D02*
X203080833Y-68193479D01*
X203080833Y-68193479D02*
X203171547Y-68223717D01*
X203171547Y-68223717D02*
X203201785Y-68253955D01*
X203806547Y-68828479D02*
X203443690Y-68828479D01*
X203625118Y-68828479D02*
X203625118Y-68193479D01*
X203625118Y-68193479D02*
X203564642Y-68284193D01*
X203564642Y-68284193D02*
X203504166Y-68344669D01*
X203504166Y-68344669D02*
X203443690Y-68374907D01*
X204199642Y-68193479D02*
X204260119Y-68193479D01*
X204260119Y-68193479D02*
X204320595Y-68223717D01*
X204320595Y-68223717D02*
X204350833Y-68253955D01*
X204350833Y-68253955D02*
X204381071Y-68314431D01*
X204381071Y-68314431D02*
X204411309Y-68435383D01*
X204411309Y-68435383D02*
X204411309Y-68586574D01*
X204411309Y-68586574D02*
X204381071Y-68707526D01*
X204381071Y-68707526D02*
X204350833Y-68768002D01*
X204350833Y-68768002D02*
X204320595Y-68798241D01*
X204320595Y-68798241D02*
X204260119Y-68828479D01*
X204260119Y-68828479D02*
X204199642Y-68828479D01*
X204199642Y-68828479D02*
X204139166Y-68798241D01*
X204139166Y-68798241D02*
X204108928Y-68768002D01*
X204108928Y-68768002D02*
X204078690Y-68707526D01*
X204078690Y-68707526D02*
X204048452Y-68586574D01*
X204048452Y-68586574D02*
X204048452Y-68435383D01*
X204048452Y-68435383D02*
X204078690Y-68314431D01*
X204078690Y-68314431D02*
X204108928Y-68253955D01*
X204108928Y-68253955D02*
X204139166Y-68223717D01*
X204139166Y-68223717D02*
X204199642Y-68193479D01*
X207618479Y-66398214D02*
X207316098Y-66609881D01*
X207618479Y-66761071D02*
X206983479Y-66761071D01*
X206983479Y-66761071D02*
X206983479Y-66519166D01*
X206983479Y-66519166D02*
X207013717Y-66458690D01*
X207013717Y-66458690D02*
X207043955Y-66428452D01*
X207043955Y-66428452D02*
X207104431Y-66398214D01*
X207104431Y-66398214D02*
X207195145Y-66398214D01*
X207195145Y-66398214D02*
X207255621Y-66428452D01*
X207255621Y-66428452D02*
X207285860Y-66458690D01*
X207285860Y-66458690D02*
X207316098Y-66519166D01*
X207316098Y-66519166D02*
X207316098Y-66761071D01*
X207618479Y-65793452D02*
X207618479Y-66156309D01*
X207618479Y-65974881D02*
X206983479Y-65974881D01*
X206983479Y-65974881D02*
X207074193Y-66035357D01*
X207074193Y-66035357D02*
X207134669Y-66095833D01*
X207134669Y-66095833D02*
X207164907Y-66156309D01*
X206983479Y-65581785D02*
X206983479Y-65188690D01*
X206983479Y-65188690D02*
X207225383Y-65400357D01*
X207225383Y-65400357D02*
X207225383Y-65309642D01*
X207225383Y-65309642D02*
X207255621Y-65249166D01*
X207255621Y-65249166D02*
X207285860Y-65218928D01*
X207285860Y-65218928D02*
X207346336Y-65188690D01*
X207346336Y-65188690D02*
X207497526Y-65188690D01*
X207497526Y-65188690D02*
X207558002Y-65218928D01*
X207558002Y-65218928D02*
X207588241Y-65249166D01*
X207588241Y-65249166D02*
X207618479Y-65309642D01*
X207618479Y-65309642D02*
X207618479Y-65491071D01*
X207618479Y-65491071D02*
X207588241Y-65551547D01*
X207588241Y-65551547D02*
X207558002Y-65581785D01*
X224418479Y-87505833D02*
X224116098Y-87717500D01*
X224418479Y-87868690D02*
X223783479Y-87868690D01*
X223783479Y-87868690D02*
X223783479Y-87626785D01*
X223783479Y-87626785D02*
X223813717Y-87566309D01*
X223813717Y-87566309D02*
X223843955Y-87536071D01*
X223843955Y-87536071D02*
X223904431Y-87505833D01*
X223904431Y-87505833D02*
X223995145Y-87505833D01*
X223995145Y-87505833D02*
X224055621Y-87536071D01*
X224055621Y-87536071D02*
X224085860Y-87566309D01*
X224085860Y-87566309D02*
X224116098Y-87626785D01*
X224116098Y-87626785D02*
X224116098Y-87868690D01*
X224418479Y-87203452D02*
X224418479Y-87082500D01*
X224418479Y-87082500D02*
X224388241Y-87022023D01*
X224388241Y-87022023D02*
X224358002Y-86991785D01*
X224358002Y-86991785D02*
X224267288Y-86931309D01*
X224267288Y-86931309D02*
X224146336Y-86901071D01*
X224146336Y-86901071D02*
X223904431Y-86901071D01*
X223904431Y-86901071D02*
X223843955Y-86931309D01*
X223843955Y-86931309D02*
X223813717Y-86961547D01*
X223813717Y-86961547D02*
X223783479Y-87022023D01*
X223783479Y-87022023D02*
X223783479Y-87142976D01*
X223783479Y-87142976D02*
X223813717Y-87203452D01*
X223813717Y-87203452D02*
X223843955Y-87233690D01*
X223843955Y-87233690D02*
X223904431Y-87263928D01*
X223904431Y-87263928D02*
X224055621Y-87263928D01*
X224055621Y-87263928D02*
X224116098Y-87233690D01*
X224116098Y-87233690D02*
X224146336Y-87203452D01*
X224146336Y-87203452D02*
X224176574Y-87142976D01*
X224176574Y-87142976D02*
X224176574Y-87022023D01*
X224176574Y-87022023D02*
X224146336Y-86961547D01*
X224146336Y-86961547D02*
X224116098Y-86931309D01*
X224116098Y-86931309D02*
X224055621Y-86901071D01*
X206458479Y-73668809D02*
X206972526Y-73668809D01*
X206972526Y-73668809D02*
X207033002Y-73638571D01*
X207033002Y-73638571D02*
X207063241Y-73608333D01*
X207063241Y-73608333D02*
X207093479Y-73547857D01*
X207093479Y-73547857D02*
X207093479Y-73426904D01*
X207093479Y-73426904D02*
X207063241Y-73366428D01*
X207063241Y-73366428D02*
X207033002Y-73336190D01*
X207033002Y-73336190D02*
X206972526Y-73305952D01*
X206972526Y-73305952D02*
X206458479Y-73305952D01*
X206458479Y-72701190D02*
X206458479Y-73003571D01*
X206458479Y-73003571D02*
X206760860Y-73033809D01*
X206760860Y-73033809D02*
X206730621Y-73003571D01*
X206730621Y-73003571D02*
X206700383Y-72943095D01*
X206700383Y-72943095D02*
X206700383Y-72791904D01*
X206700383Y-72791904D02*
X206730621Y-72731428D01*
X206730621Y-72731428D02*
X206760860Y-72701190D01*
X206760860Y-72701190D02*
X206821336Y-72670952D01*
X206821336Y-72670952D02*
X206972526Y-72670952D01*
X206972526Y-72670952D02*
X207033002Y-72701190D01*
X207033002Y-72701190D02*
X207063241Y-72731428D01*
X207063241Y-72731428D02*
X207093479Y-72791904D01*
X207093479Y-72791904D02*
X207093479Y-72943095D01*
X207093479Y-72943095D02*
X207063241Y-73003571D01*
X207063241Y-73003571D02*
X207033002Y-73033809D01*
X147638333Y-92808479D02*
X147638333Y-93262050D01*
X147638333Y-93262050D02*
X147608094Y-93352764D01*
X147608094Y-93352764D02*
X147547618Y-93413241D01*
X147547618Y-93413241D02*
X147456904Y-93443479D01*
X147456904Y-93443479D02*
X147396428Y-93443479D01*
X148243095Y-92808479D02*
X147940714Y-92808479D01*
X147940714Y-92808479D02*
X147910476Y-93110860D01*
X147910476Y-93110860D02*
X147940714Y-93080621D01*
X147940714Y-93080621D02*
X148001190Y-93050383D01*
X148001190Y-93050383D02*
X148152381Y-93050383D01*
X148152381Y-93050383D02*
X148212857Y-93080621D01*
X148212857Y-93080621D02*
X148243095Y-93110860D01*
X148243095Y-93110860D02*
X148273333Y-93171336D01*
X148273333Y-93171336D02*
X148273333Y-93322526D01*
X148273333Y-93322526D02*
X148243095Y-93383002D01*
X148243095Y-93383002D02*
X148212857Y-93413241D01*
X148212857Y-93413241D02*
X148152381Y-93443479D01*
X148152381Y-93443479D02*
X148001190Y-93443479D01*
X148001190Y-93443479D02*
X147940714Y-93413241D01*
X147940714Y-93413241D02*
X147910476Y-93383002D01*
X187368002Y-96625833D02*
X187398241Y-96656071D01*
X187398241Y-96656071D02*
X187428479Y-96746785D01*
X187428479Y-96746785D02*
X187428479Y-96807261D01*
X187428479Y-96807261D02*
X187398241Y-96897976D01*
X187398241Y-96897976D02*
X187337764Y-96958452D01*
X187337764Y-96958452D02*
X187277288Y-96988690D01*
X187277288Y-96988690D02*
X187156336Y-97018928D01*
X187156336Y-97018928D02*
X187065621Y-97018928D01*
X187065621Y-97018928D02*
X186944669Y-96988690D01*
X186944669Y-96988690D02*
X186884193Y-96958452D01*
X186884193Y-96958452D02*
X186823717Y-96897976D01*
X186823717Y-96897976D02*
X186793479Y-96807261D01*
X186793479Y-96807261D02*
X186793479Y-96746785D01*
X186793479Y-96746785D02*
X186823717Y-96656071D01*
X186823717Y-96656071D02*
X186853955Y-96625833D01*
X187428479Y-96323452D02*
X187428479Y-96202500D01*
X187428479Y-96202500D02*
X187398241Y-96142023D01*
X187398241Y-96142023D02*
X187368002Y-96111785D01*
X187368002Y-96111785D02*
X187277288Y-96051309D01*
X187277288Y-96051309D02*
X187156336Y-96021071D01*
X187156336Y-96021071D02*
X186914431Y-96021071D01*
X186914431Y-96021071D02*
X186853955Y-96051309D01*
X186853955Y-96051309D02*
X186823717Y-96081547D01*
X186823717Y-96081547D02*
X186793479Y-96142023D01*
X186793479Y-96142023D02*
X186793479Y-96262976D01*
X186793479Y-96262976D02*
X186823717Y-96323452D01*
X186823717Y-96323452D02*
X186853955Y-96353690D01*
X186853955Y-96353690D02*
X186914431Y-96383928D01*
X186914431Y-96383928D02*
X187065621Y-96383928D01*
X187065621Y-96383928D02*
X187126098Y-96353690D01*
X187126098Y-96353690D02*
X187156336Y-96323452D01*
X187156336Y-96323452D02*
X187186574Y-96262976D01*
X187186574Y-96262976D02*
X187186574Y-96142023D01*
X187186574Y-96142023D02*
X187156336Y-96081547D01*
X187156336Y-96081547D02*
X187126098Y-96051309D01*
X187126098Y-96051309D02*
X187065621Y-96021071D01*
X164878002Y-76563214D02*
X164908241Y-76593452D01*
X164908241Y-76593452D02*
X164938479Y-76684166D01*
X164938479Y-76684166D02*
X164938479Y-76744642D01*
X164938479Y-76744642D02*
X164908241Y-76835357D01*
X164908241Y-76835357D02*
X164847764Y-76895833D01*
X164847764Y-76895833D02*
X164787288Y-76926071D01*
X164787288Y-76926071D02*
X164666336Y-76956309D01*
X164666336Y-76956309D02*
X164575621Y-76956309D01*
X164575621Y-76956309D02*
X164454669Y-76926071D01*
X164454669Y-76926071D02*
X164394193Y-76895833D01*
X164394193Y-76895833D02*
X164333717Y-76835357D01*
X164333717Y-76835357D02*
X164303479Y-76744642D01*
X164303479Y-76744642D02*
X164303479Y-76684166D01*
X164303479Y-76684166D02*
X164333717Y-76593452D01*
X164333717Y-76593452D02*
X164363955Y-76563214D01*
X164938479Y-75958452D02*
X164938479Y-76321309D01*
X164938479Y-76139881D02*
X164303479Y-76139881D01*
X164303479Y-76139881D02*
X164394193Y-76200357D01*
X164394193Y-76200357D02*
X164454669Y-76260833D01*
X164454669Y-76260833D02*
X164484907Y-76321309D01*
X164303479Y-75414166D02*
X164303479Y-75535119D01*
X164303479Y-75535119D02*
X164333717Y-75595595D01*
X164333717Y-75595595D02*
X164363955Y-75625833D01*
X164363955Y-75625833D02*
X164454669Y-75686309D01*
X164454669Y-75686309D02*
X164575621Y-75716547D01*
X164575621Y-75716547D02*
X164817526Y-75716547D01*
X164817526Y-75716547D02*
X164878002Y-75686309D01*
X164878002Y-75686309D02*
X164908241Y-75656071D01*
X164908241Y-75656071D02*
X164938479Y-75595595D01*
X164938479Y-75595595D02*
X164938479Y-75474642D01*
X164938479Y-75474642D02*
X164908241Y-75414166D01*
X164908241Y-75414166D02*
X164878002Y-75383928D01*
X164878002Y-75383928D02*
X164817526Y-75353690D01*
X164817526Y-75353690D02*
X164666336Y-75353690D01*
X164666336Y-75353690D02*
X164605860Y-75383928D01*
X164605860Y-75383928D02*
X164575621Y-75414166D01*
X164575621Y-75414166D02*
X164545383Y-75474642D01*
X164545383Y-75474642D02*
X164545383Y-75595595D01*
X164545383Y-75595595D02*
X164575621Y-75656071D01*
X164575621Y-75656071D02*
X164605860Y-75686309D01*
X164605860Y-75686309D02*
X164666336Y-75716547D01*
X158974166Y-82468002D02*
X158943928Y-82498241D01*
X158943928Y-82498241D02*
X158853214Y-82528479D01*
X158853214Y-82528479D02*
X158792738Y-82528479D01*
X158792738Y-82528479D02*
X158702023Y-82498241D01*
X158702023Y-82498241D02*
X158641547Y-82437764D01*
X158641547Y-82437764D02*
X158611309Y-82377288D01*
X158611309Y-82377288D02*
X158581071Y-82256336D01*
X158581071Y-82256336D02*
X158581071Y-82165621D01*
X158581071Y-82165621D02*
X158611309Y-82044669D01*
X158611309Y-82044669D02*
X158641547Y-81984193D01*
X158641547Y-81984193D02*
X158702023Y-81923717D01*
X158702023Y-81923717D02*
X158792738Y-81893479D01*
X158792738Y-81893479D02*
X158853214Y-81893479D01*
X158853214Y-81893479D02*
X158943928Y-81923717D01*
X158943928Y-81923717D02*
X158974166Y-81953955D01*
X159185833Y-81893479D02*
X159609166Y-81893479D01*
X159609166Y-81893479D02*
X159337023Y-82528479D01*
X209918479Y-66698214D02*
X209616098Y-66909881D01*
X209918479Y-67061071D02*
X209283479Y-67061071D01*
X209283479Y-67061071D02*
X209283479Y-66819166D01*
X209283479Y-66819166D02*
X209313717Y-66758690D01*
X209313717Y-66758690D02*
X209343955Y-66728452D01*
X209343955Y-66728452D02*
X209404431Y-66698214D01*
X209404431Y-66698214D02*
X209495145Y-66698214D01*
X209495145Y-66698214D02*
X209555621Y-66728452D01*
X209555621Y-66728452D02*
X209585860Y-66758690D01*
X209585860Y-66758690D02*
X209616098Y-66819166D01*
X209616098Y-66819166D02*
X209616098Y-67061071D01*
X209918479Y-66093452D02*
X209918479Y-66456309D01*
X209918479Y-66274881D02*
X209283479Y-66274881D01*
X209283479Y-66274881D02*
X209374193Y-66335357D01*
X209374193Y-66335357D02*
X209434669Y-66395833D01*
X209434669Y-66395833D02*
X209464907Y-66456309D01*
X209343955Y-65851547D02*
X209313717Y-65821309D01*
X209313717Y-65821309D02*
X209283479Y-65760833D01*
X209283479Y-65760833D02*
X209283479Y-65609642D01*
X209283479Y-65609642D02*
X209313717Y-65549166D01*
X209313717Y-65549166D02*
X209343955Y-65518928D01*
X209343955Y-65518928D02*
X209404431Y-65488690D01*
X209404431Y-65488690D02*
X209464907Y-65488690D01*
X209464907Y-65488690D02*
X209555621Y-65518928D01*
X209555621Y-65518928D02*
X209918479Y-65881785D01*
X209918479Y-65881785D02*
X209918479Y-65488690D01*
X191653333Y-101158241D02*
X191744047Y-101188479D01*
X191744047Y-101188479D02*
X191895238Y-101188479D01*
X191895238Y-101188479D02*
X191955714Y-101158241D01*
X191955714Y-101158241D02*
X191985952Y-101128002D01*
X191985952Y-101128002D02*
X192016190Y-101067526D01*
X192016190Y-101067526D02*
X192016190Y-101007050D01*
X192016190Y-101007050D02*
X191985952Y-100946574D01*
X191985952Y-100946574D02*
X191955714Y-100916336D01*
X191955714Y-100916336D02*
X191895238Y-100886098D01*
X191895238Y-100886098D02*
X191774285Y-100855860D01*
X191774285Y-100855860D02*
X191713809Y-100825621D01*
X191713809Y-100825621D02*
X191683571Y-100795383D01*
X191683571Y-100795383D02*
X191653333Y-100734907D01*
X191653333Y-100734907D02*
X191653333Y-100674431D01*
X191653333Y-100674431D02*
X191683571Y-100613955D01*
X191683571Y-100613955D02*
X191713809Y-100583717D01*
X191713809Y-100583717D02*
X191774285Y-100553479D01*
X191774285Y-100553479D02*
X191925476Y-100553479D01*
X191925476Y-100553479D02*
X192016190Y-100583717D01*
X192227857Y-100553479D02*
X192379047Y-101188479D01*
X192379047Y-101188479D02*
X192500000Y-100734907D01*
X192500000Y-100734907D02*
X192620952Y-101188479D01*
X192620952Y-101188479D02*
X192772143Y-100553479D01*
X193346666Y-101188479D02*
X192983809Y-101188479D01*
X193165237Y-101188479D02*
X193165237Y-100553479D01*
X193165237Y-100553479D02*
X193104761Y-100644193D01*
X193104761Y-100644193D02*
X193044285Y-100704669D01*
X193044285Y-100704669D02*
X192983809Y-100734907D01*
X157778002Y-92063214D02*
X157808241Y-92093452D01*
X157808241Y-92093452D02*
X157838479Y-92184166D01*
X157838479Y-92184166D02*
X157838479Y-92244642D01*
X157838479Y-92244642D02*
X157808241Y-92335357D01*
X157808241Y-92335357D02*
X157747764Y-92395833D01*
X157747764Y-92395833D02*
X157687288Y-92426071D01*
X157687288Y-92426071D02*
X157566336Y-92456309D01*
X157566336Y-92456309D02*
X157475621Y-92456309D01*
X157475621Y-92456309D02*
X157354669Y-92426071D01*
X157354669Y-92426071D02*
X157294193Y-92395833D01*
X157294193Y-92395833D02*
X157233717Y-92335357D01*
X157233717Y-92335357D02*
X157203479Y-92244642D01*
X157203479Y-92244642D02*
X157203479Y-92184166D01*
X157203479Y-92184166D02*
X157233717Y-92093452D01*
X157233717Y-92093452D02*
X157263955Y-92063214D01*
X157838479Y-91458452D02*
X157838479Y-91821309D01*
X157838479Y-91639881D02*
X157203479Y-91639881D01*
X157203479Y-91639881D02*
X157294193Y-91700357D01*
X157294193Y-91700357D02*
X157354669Y-91760833D01*
X157354669Y-91760833D02*
X157384907Y-91821309D01*
X157838479Y-90853690D02*
X157838479Y-91216547D01*
X157838479Y-91035119D02*
X157203479Y-91035119D01*
X157203479Y-91035119D02*
X157294193Y-91095595D01*
X157294193Y-91095595D02*
X157354669Y-91156071D01*
X157354669Y-91156071D02*
X157384907Y-91216547D01*
X202818479Y-63453690D02*
X202183479Y-63453690D01*
X202183479Y-63453690D02*
X202183479Y-63302500D01*
X202183479Y-63302500D02*
X202213717Y-63211785D01*
X202213717Y-63211785D02*
X202274193Y-63151309D01*
X202274193Y-63151309D02*
X202334669Y-63121071D01*
X202334669Y-63121071D02*
X202455621Y-63090833D01*
X202455621Y-63090833D02*
X202546336Y-63090833D01*
X202546336Y-63090833D02*
X202667288Y-63121071D01*
X202667288Y-63121071D02*
X202727764Y-63151309D01*
X202727764Y-63151309D02*
X202788241Y-63211785D01*
X202788241Y-63211785D02*
X202818479Y-63302500D01*
X202818479Y-63302500D02*
X202818479Y-63453690D01*
X202243955Y-62848928D02*
X202213717Y-62818690D01*
X202213717Y-62818690D02*
X202183479Y-62758214D01*
X202183479Y-62758214D02*
X202183479Y-62607023D01*
X202183479Y-62607023D02*
X202213717Y-62546547D01*
X202213717Y-62546547D02*
X202243955Y-62516309D01*
X202243955Y-62516309D02*
X202304431Y-62486071D01*
X202304431Y-62486071D02*
X202364907Y-62486071D01*
X202364907Y-62486071D02*
X202455621Y-62516309D01*
X202455621Y-62516309D02*
X202818479Y-62879166D01*
X202818479Y-62879166D02*
X202818479Y-62486071D01*
X198178002Y-98253214D02*
X198208241Y-98283452D01*
X198208241Y-98283452D02*
X198238479Y-98374166D01*
X198238479Y-98374166D02*
X198238479Y-98434642D01*
X198238479Y-98434642D02*
X198208241Y-98525357D01*
X198208241Y-98525357D02*
X198147764Y-98585833D01*
X198147764Y-98585833D02*
X198087288Y-98616071D01*
X198087288Y-98616071D02*
X197966336Y-98646309D01*
X197966336Y-98646309D02*
X197875621Y-98646309D01*
X197875621Y-98646309D02*
X197754669Y-98616071D01*
X197754669Y-98616071D02*
X197694193Y-98585833D01*
X197694193Y-98585833D02*
X197633717Y-98525357D01*
X197633717Y-98525357D02*
X197603479Y-98434642D01*
X197603479Y-98434642D02*
X197603479Y-98374166D01*
X197603479Y-98374166D02*
X197633717Y-98283452D01*
X197633717Y-98283452D02*
X197663955Y-98253214D01*
X198238479Y-97648452D02*
X198238479Y-98011309D01*
X198238479Y-97829881D02*
X197603479Y-97829881D01*
X197603479Y-97829881D02*
X197694193Y-97890357D01*
X197694193Y-97890357D02*
X197754669Y-97950833D01*
X197754669Y-97950833D02*
X197784907Y-98011309D01*
X197663955Y-97406547D02*
X197633717Y-97376309D01*
X197633717Y-97376309D02*
X197603479Y-97315833D01*
X197603479Y-97315833D02*
X197603479Y-97164642D01*
X197603479Y-97164642D02*
X197633717Y-97104166D01*
X197633717Y-97104166D02*
X197663955Y-97073928D01*
X197663955Y-97073928D02*
X197724431Y-97043690D01*
X197724431Y-97043690D02*
X197784907Y-97043690D01*
X197784907Y-97043690D02*
X197875621Y-97073928D01*
X197875621Y-97073928D02*
X198238479Y-97436785D01*
X198238479Y-97436785D02*
X198238479Y-97043690D01*
X175968002Y-66288214D02*
X175998241Y-66318452D01*
X175998241Y-66318452D02*
X176028479Y-66409166D01*
X176028479Y-66409166D02*
X176028479Y-66469642D01*
X176028479Y-66469642D02*
X175998241Y-66560357D01*
X175998241Y-66560357D02*
X175937764Y-66620833D01*
X175937764Y-66620833D02*
X175877288Y-66651071D01*
X175877288Y-66651071D02*
X175756336Y-66681309D01*
X175756336Y-66681309D02*
X175665621Y-66681309D01*
X175665621Y-66681309D02*
X175544669Y-66651071D01*
X175544669Y-66651071D02*
X175484193Y-66620833D01*
X175484193Y-66620833D02*
X175423717Y-66560357D01*
X175423717Y-66560357D02*
X175393479Y-66469642D01*
X175393479Y-66469642D02*
X175393479Y-66409166D01*
X175393479Y-66409166D02*
X175423717Y-66318452D01*
X175423717Y-66318452D02*
X175453955Y-66288214D01*
X175453955Y-66046309D02*
X175423717Y-66016071D01*
X175423717Y-66016071D02*
X175393479Y-65955595D01*
X175393479Y-65955595D02*
X175393479Y-65804404D01*
X175393479Y-65804404D02*
X175423717Y-65743928D01*
X175423717Y-65743928D02*
X175453955Y-65713690D01*
X175453955Y-65713690D02*
X175514431Y-65683452D01*
X175514431Y-65683452D02*
X175574907Y-65683452D01*
X175574907Y-65683452D02*
X175665621Y-65713690D01*
X175665621Y-65713690D02*
X176028479Y-66076547D01*
X176028479Y-66076547D02*
X176028479Y-65683452D01*
X175393479Y-65139166D02*
X175393479Y-65260119D01*
X175393479Y-65260119D02*
X175423717Y-65320595D01*
X175423717Y-65320595D02*
X175453955Y-65350833D01*
X175453955Y-65350833D02*
X175544669Y-65411309D01*
X175544669Y-65411309D02*
X175665621Y-65441547D01*
X175665621Y-65441547D02*
X175907526Y-65441547D01*
X175907526Y-65441547D02*
X175968002Y-65411309D01*
X175968002Y-65411309D02*
X175998241Y-65381071D01*
X175998241Y-65381071D02*
X176028479Y-65320595D01*
X176028479Y-65320595D02*
X176028479Y-65199642D01*
X176028479Y-65199642D02*
X175998241Y-65139166D01*
X175998241Y-65139166D02*
X175968002Y-65108928D01*
X175968002Y-65108928D02*
X175907526Y-65078690D01*
X175907526Y-65078690D02*
X175756336Y-65078690D01*
X175756336Y-65078690D02*
X175695860Y-65108928D01*
X175695860Y-65108928D02*
X175665621Y-65139166D01*
X175665621Y-65139166D02*
X175635383Y-65199642D01*
X175635383Y-65199642D02*
X175635383Y-65320595D01*
X175635383Y-65320595D02*
X175665621Y-65381071D01*
X175665621Y-65381071D02*
X175695860Y-65411309D01*
X175695860Y-65411309D02*
X175756336Y-65441547D01*
X168116190Y-76453479D02*
X168116190Y-76967526D01*
X168116190Y-76967526D02*
X168146428Y-77028002D01*
X168146428Y-77028002D02*
X168176666Y-77058241D01*
X168176666Y-77058241D02*
X168237142Y-77088479D01*
X168237142Y-77088479D02*
X168358095Y-77088479D01*
X168358095Y-77088479D02*
X168418571Y-77058241D01*
X168418571Y-77058241D02*
X168448809Y-77028002D01*
X168448809Y-77028002D02*
X168479047Y-76967526D01*
X168479047Y-76967526D02*
X168479047Y-76453479D01*
X168751190Y-76513955D02*
X168781428Y-76483717D01*
X168781428Y-76483717D02*
X168841904Y-76453479D01*
X168841904Y-76453479D02*
X168993095Y-76453479D01*
X168993095Y-76453479D02*
X169053571Y-76483717D01*
X169053571Y-76483717D02*
X169083809Y-76513955D01*
X169083809Y-76513955D02*
X169114047Y-76574431D01*
X169114047Y-76574431D02*
X169114047Y-76634907D01*
X169114047Y-76634907D02*
X169083809Y-76725621D01*
X169083809Y-76725621D02*
X168720952Y-77088479D01*
X168720952Y-77088479D02*
X169114047Y-77088479D01*
X179653333Y-101158241D02*
X179744047Y-101188479D01*
X179744047Y-101188479D02*
X179895238Y-101188479D01*
X179895238Y-101188479D02*
X179955714Y-101158241D01*
X179955714Y-101158241D02*
X179985952Y-101128002D01*
X179985952Y-101128002D02*
X180016190Y-101067526D01*
X180016190Y-101067526D02*
X180016190Y-101007050D01*
X180016190Y-101007050D02*
X179985952Y-100946574D01*
X179985952Y-100946574D02*
X179955714Y-100916336D01*
X179955714Y-100916336D02*
X179895238Y-100886098D01*
X179895238Y-100886098D02*
X179774285Y-100855860D01*
X179774285Y-100855860D02*
X179713809Y-100825621D01*
X179713809Y-100825621D02*
X179683571Y-100795383D01*
X179683571Y-100795383D02*
X179653333Y-100734907D01*
X179653333Y-100734907D02*
X179653333Y-100674431D01*
X179653333Y-100674431D02*
X179683571Y-100613955D01*
X179683571Y-100613955D02*
X179713809Y-100583717D01*
X179713809Y-100583717D02*
X179774285Y-100553479D01*
X179774285Y-100553479D02*
X179925476Y-100553479D01*
X179925476Y-100553479D02*
X180016190Y-100583717D01*
X180227857Y-100553479D02*
X180379047Y-101188479D01*
X180379047Y-101188479D02*
X180500000Y-100734907D01*
X180500000Y-100734907D02*
X180620952Y-101188479D01*
X180620952Y-101188479D02*
X180772143Y-100553479D01*
X180983809Y-100613955D02*
X181014047Y-100583717D01*
X181014047Y-100583717D02*
X181074523Y-100553479D01*
X181074523Y-100553479D02*
X181225714Y-100553479D01*
X181225714Y-100553479D02*
X181286190Y-100583717D01*
X181286190Y-100583717D02*
X181316428Y-100613955D01*
X181316428Y-100613955D02*
X181346666Y-100674431D01*
X181346666Y-100674431D02*
X181346666Y-100734907D01*
X181346666Y-100734907D02*
X181316428Y-100825621D01*
X181316428Y-100825621D02*
X180953571Y-101188479D01*
X180953571Y-101188479D02*
X181346666Y-101188479D01*
X150494166Y-82608479D02*
X150282499Y-82306098D01*
X150131309Y-82608479D02*
X150131309Y-81973479D01*
X150131309Y-81973479D02*
X150373214Y-81973479D01*
X150373214Y-81973479D02*
X150433690Y-82003717D01*
X150433690Y-82003717D02*
X150463928Y-82033955D01*
X150463928Y-82033955D02*
X150494166Y-82094431D01*
X150494166Y-82094431D02*
X150494166Y-82185145D01*
X150494166Y-82185145D02*
X150463928Y-82245621D01*
X150463928Y-82245621D02*
X150433690Y-82275860D01*
X150433690Y-82275860D02*
X150373214Y-82306098D01*
X150373214Y-82306098D02*
X150131309Y-82306098D01*
X150705833Y-81973479D02*
X151098928Y-81973479D01*
X151098928Y-81973479D02*
X150887261Y-82215383D01*
X150887261Y-82215383D02*
X150977976Y-82215383D01*
X150977976Y-82215383D02*
X151038452Y-82245621D01*
X151038452Y-82245621D02*
X151068690Y-82275860D01*
X151068690Y-82275860D02*
X151098928Y-82336336D01*
X151098928Y-82336336D02*
X151098928Y-82487526D01*
X151098928Y-82487526D02*
X151068690Y-82548002D01*
X151068690Y-82548002D02*
X151038452Y-82578241D01*
X151038452Y-82578241D02*
X150977976Y-82608479D01*
X150977976Y-82608479D02*
X150796547Y-82608479D01*
X150796547Y-82608479D02*
X150736071Y-82578241D01*
X150736071Y-82578241D02*
X150705833Y-82548002D01*
X169416190Y-67753479D02*
X169416190Y-68267526D01*
X169416190Y-68267526D02*
X169446428Y-68328002D01*
X169446428Y-68328002D02*
X169476666Y-68358241D01*
X169476666Y-68358241D02*
X169537142Y-68388479D01*
X169537142Y-68388479D02*
X169658095Y-68388479D01*
X169658095Y-68388479D02*
X169718571Y-68358241D01*
X169718571Y-68358241D02*
X169748809Y-68328002D01*
X169748809Y-68328002D02*
X169779047Y-68267526D01*
X169779047Y-68267526D02*
X169779047Y-67753479D01*
X170020952Y-67753479D02*
X170444285Y-67753479D01*
X170444285Y-67753479D02*
X170172142Y-68388479D01*
X201926190Y-98553479D02*
X201926190Y-99067526D01*
X201926190Y-99067526D02*
X201956428Y-99128002D01*
X201956428Y-99128002D02*
X201986666Y-99158241D01*
X201986666Y-99158241D02*
X202047142Y-99188479D01*
X202047142Y-99188479D02*
X202168095Y-99188479D01*
X202168095Y-99188479D02*
X202228571Y-99158241D01*
X202228571Y-99158241D02*
X202258809Y-99128002D01*
X202258809Y-99128002D02*
X202289047Y-99067526D01*
X202289047Y-99067526D02*
X202289047Y-98553479D01*
X202863571Y-98765145D02*
X202863571Y-99188479D01*
X202712380Y-98523241D02*
X202561190Y-98976812D01*
X202561190Y-98976812D02*
X202954285Y-98976812D01*
X199368002Y-100728214D02*
X199398241Y-100758452D01*
X199398241Y-100758452D02*
X199428479Y-100849166D01*
X199428479Y-100849166D02*
X199428479Y-100909642D01*
X199428479Y-100909642D02*
X199398241Y-101000357D01*
X199398241Y-101000357D02*
X199337764Y-101060833D01*
X199337764Y-101060833D02*
X199277288Y-101091071D01*
X199277288Y-101091071D02*
X199156336Y-101121309D01*
X199156336Y-101121309D02*
X199065621Y-101121309D01*
X199065621Y-101121309D02*
X198944669Y-101091071D01*
X198944669Y-101091071D02*
X198884193Y-101060833D01*
X198884193Y-101060833D02*
X198823717Y-101000357D01*
X198823717Y-101000357D02*
X198793479Y-100909642D01*
X198793479Y-100909642D02*
X198793479Y-100849166D01*
X198793479Y-100849166D02*
X198823717Y-100758452D01*
X198823717Y-100758452D02*
X198853955Y-100728214D01*
X199428479Y-100123452D02*
X199428479Y-100486309D01*
X199428479Y-100304881D02*
X198793479Y-100304881D01*
X198793479Y-100304881D02*
X198884193Y-100365357D01*
X198884193Y-100365357D02*
X198944669Y-100425833D01*
X198944669Y-100425833D02*
X198974907Y-100486309D01*
X198793479Y-99911785D02*
X198793479Y-99518690D01*
X198793479Y-99518690D02*
X199035383Y-99730357D01*
X199035383Y-99730357D02*
X199035383Y-99639642D01*
X199035383Y-99639642D02*
X199065621Y-99579166D01*
X199065621Y-99579166D02*
X199095860Y-99548928D01*
X199095860Y-99548928D02*
X199156336Y-99518690D01*
X199156336Y-99518690D02*
X199307526Y-99518690D01*
X199307526Y-99518690D02*
X199368002Y-99548928D01*
X199368002Y-99548928D02*
X199398241Y-99579166D01*
X199398241Y-99579166D02*
X199428479Y-99639642D01*
X199428479Y-99639642D02*
X199428479Y-99821071D01*
X199428479Y-99821071D02*
X199398241Y-99881547D01*
X199398241Y-99881547D02*
X199368002Y-99911785D01*
X179558479Y-82708214D02*
X179256098Y-82919881D01*
X179558479Y-83071071D02*
X178923479Y-83071071D01*
X178923479Y-83071071D02*
X178923479Y-82829166D01*
X178923479Y-82829166D02*
X178953717Y-82768690D01*
X178953717Y-82768690D02*
X178983955Y-82738452D01*
X178983955Y-82738452D02*
X179044431Y-82708214D01*
X179044431Y-82708214D02*
X179135145Y-82708214D01*
X179135145Y-82708214D02*
X179195621Y-82738452D01*
X179195621Y-82738452D02*
X179225860Y-82768690D01*
X179225860Y-82768690D02*
X179256098Y-82829166D01*
X179256098Y-82829166D02*
X179256098Y-83071071D01*
X178983955Y-82466309D02*
X178953717Y-82436071D01*
X178953717Y-82436071D02*
X178923479Y-82375595D01*
X178923479Y-82375595D02*
X178923479Y-82224404D01*
X178923479Y-82224404D02*
X178953717Y-82163928D01*
X178953717Y-82163928D02*
X178983955Y-82133690D01*
X178983955Y-82133690D02*
X179044431Y-82103452D01*
X179044431Y-82103452D02*
X179104907Y-82103452D01*
X179104907Y-82103452D02*
X179195621Y-82133690D01*
X179195621Y-82133690D02*
X179558479Y-82496547D01*
X179558479Y-82496547D02*
X179558479Y-82103452D01*
X178923479Y-81710357D02*
X178923479Y-81649880D01*
X178923479Y-81649880D02*
X178953717Y-81589404D01*
X178953717Y-81589404D02*
X178983955Y-81559166D01*
X178983955Y-81559166D02*
X179044431Y-81528928D01*
X179044431Y-81528928D02*
X179165383Y-81498690D01*
X179165383Y-81498690D02*
X179316574Y-81498690D01*
X179316574Y-81498690D02*
X179437526Y-81528928D01*
X179437526Y-81528928D02*
X179498002Y-81559166D01*
X179498002Y-81559166D02*
X179528241Y-81589404D01*
X179528241Y-81589404D02*
X179558479Y-81649880D01*
X179558479Y-81649880D02*
X179558479Y-81710357D01*
X179558479Y-81710357D02*
X179528241Y-81770833D01*
X179528241Y-81770833D02*
X179498002Y-81801071D01*
X179498002Y-81801071D02*
X179437526Y-81831309D01*
X179437526Y-81831309D02*
X179316574Y-81861547D01*
X179316574Y-81861547D02*
X179165383Y-81861547D01*
X179165383Y-81861547D02*
X179044431Y-81831309D01*
X179044431Y-81831309D02*
X178983955Y-81801071D01*
X178983955Y-81801071D02*
X178953717Y-81770833D01*
X178953717Y-81770833D02*
X178923479Y-81710357D01*
X205018479Y-63453690D02*
X204383479Y-63453690D01*
X204383479Y-63453690D02*
X204383479Y-63302500D01*
X204383479Y-63302500D02*
X204413717Y-63211785D01*
X204413717Y-63211785D02*
X204474193Y-63151309D01*
X204474193Y-63151309D02*
X204534669Y-63121071D01*
X204534669Y-63121071D02*
X204655621Y-63090833D01*
X204655621Y-63090833D02*
X204746336Y-63090833D01*
X204746336Y-63090833D02*
X204867288Y-63121071D01*
X204867288Y-63121071D02*
X204927764Y-63151309D01*
X204927764Y-63151309D02*
X204988241Y-63211785D01*
X204988241Y-63211785D02*
X205018479Y-63302500D01*
X205018479Y-63302500D02*
X205018479Y-63453690D01*
X205018479Y-62486071D02*
X205018479Y-62848928D01*
X205018479Y-62667500D02*
X204383479Y-62667500D01*
X204383479Y-62667500D02*
X204474193Y-62727976D01*
X204474193Y-62727976D02*
X204534669Y-62788452D01*
X204534669Y-62788452D02*
X204564907Y-62848928D01*
X148468002Y-78425833D02*
X148498241Y-78456071D01*
X148498241Y-78456071D02*
X148528479Y-78546785D01*
X148528479Y-78546785D02*
X148528479Y-78607261D01*
X148528479Y-78607261D02*
X148498241Y-78697976D01*
X148498241Y-78697976D02*
X148437764Y-78758452D01*
X148437764Y-78758452D02*
X148377288Y-78788690D01*
X148377288Y-78788690D02*
X148256336Y-78818928D01*
X148256336Y-78818928D02*
X148165621Y-78818928D01*
X148165621Y-78818928D02*
X148044669Y-78788690D01*
X148044669Y-78788690D02*
X147984193Y-78758452D01*
X147984193Y-78758452D02*
X147923717Y-78697976D01*
X147923717Y-78697976D02*
X147893479Y-78607261D01*
X147893479Y-78607261D02*
X147893479Y-78546785D01*
X147893479Y-78546785D02*
X147923717Y-78456071D01*
X147923717Y-78456071D02*
X147953955Y-78425833D01*
X148105145Y-77881547D02*
X148528479Y-77881547D01*
X147863241Y-78032738D02*
X148316812Y-78183928D01*
X148316812Y-78183928D02*
X148316812Y-77790833D01*
X191878002Y-70853214D02*
X191908241Y-70883452D01*
X191908241Y-70883452D02*
X191938479Y-70974166D01*
X191938479Y-70974166D02*
X191938479Y-71034642D01*
X191938479Y-71034642D02*
X191908241Y-71125357D01*
X191908241Y-71125357D02*
X191847764Y-71185833D01*
X191847764Y-71185833D02*
X191787288Y-71216071D01*
X191787288Y-71216071D02*
X191666336Y-71246309D01*
X191666336Y-71246309D02*
X191575621Y-71246309D01*
X191575621Y-71246309D02*
X191454669Y-71216071D01*
X191454669Y-71216071D02*
X191394193Y-71185833D01*
X191394193Y-71185833D02*
X191333717Y-71125357D01*
X191333717Y-71125357D02*
X191303479Y-71034642D01*
X191303479Y-71034642D02*
X191303479Y-70974166D01*
X191303479Y-70974166D02*
X191333717Y-70883452D01*
X191333717Y-70883452D02*
X191363955Y-70853214D01*
X191303479Y-70641547D02*
X191303479Y-70248452D01*
X191303479Y-70248452D02*
X191545383Y-70460119D01*
X191545383Y-70460119D02*
X191545383Y-70369404D01*
X191545383Y-70369404D02*
X191575621Y-70308928D01*
X191575621Y-70308928D02*
X191605860Y-70278690D01*
X191605860Y-70278690D02*
X191666336Y-70248452D01*
X191666336Y-70248452D02*
X191817526Y-70248452D01*
X191817526Y-70248452D02*
X191878002Y-70278690D01*
X191878002Y-70278690D02*
X191908241Y-70308928D01*
X191908241Y-70308928D02*
X191938479Y-70369404D01*
X191938479Y-70369404D02*
X191938479Y-70550833D01*
X191938479Y-70550833D02*
X191908241Y-70611309D01*
X191908241Y-70611309D02*
X191878002Y-70641547D01*
X191938479Y-69643690D02*
X191938479Y-70006547D01*
X191938479Y-69825119D02*
X191303479Y-69825119D01*
X191303479Y-69825119D02*
X191394193Y-69885595D01*
X191394193Y-69885595D02*
X191454669Y-69946071D01*
X191454669Y-69946071D02*
X191484907Y-70006547D01*
X148278002Y-80205833D02*
X148308241Y-80236071D01*
X148308241Y-80236071D02*
X148338479Y-80326785D01*
X148338479Y-80326785D02*
X148338479Y-80387261D01*
X148338479Y-80387261D02*
X148308241Y-80477976D01*
X148308241Y-80477976D02*
X148247764Y-80538452D01*
X148247764Y-80538452D02*
X148187288Y-80568690D01*
X148187288Y-80568690D02*
X148066336Y-80598928D01*
X148066336Y-80598928D02*
X147975621Y-80598928D01*
X147975621Y-80598928D02*
X147854669Y-80568690D01*
X147854669Y-80568690D02*
X147794193Y-80538452D01*
X147794193Y-80538452D02*
X147733717Y-80477976D01*
X147733717Y-80477976D02*
X147703479Y-80387261D01*
X147703479Y-80387261D02*
X147703479Y-80326785D01*
X147703479Y-80326785D02*
X147733717Y-80236071D01*
X147733717Y-80236071D02*
X147763955Y-80205833D01*
X147703479Y-79631309D02*
X147703479Y-79933690D01*
X147703479Y-79933690D02*
X148005860Y-79963928D01*
X148005860Y-79963928D02*
X147975621Y-79933690D01*
X147975621Y-79933690D02*
X147945383Y-79873214D01*
X147945383Y-79873214D02*
X147945383Y-79722023D01*
X147945383Y-79722023D02*
X147975621Y-79661547D01*
X147975621Y-79661547D02*
X148005860Y-79631309D01*
X148005860Y-79631309D02*
X148066336Y-79601071D01*
X148066336Y-79601071D02*
X148217526Y-79601071D01*
X148217526Y-79601071D02*
X148278002Y-79631309D01*
X148278002Y-79631309D02*
X148308241Y-79661547D01*
X148308241Y-79661547D02*
X148338479Y-79722023D01*
X148338479Y-79722023D02*
X148338479Y-79873214D01*
X148338479Y-79873214D02*
X148308241Y-79933690D01*
X148308241Y-79933690D02*
X148278002Y-79963928D01*
X151818479Y-79805833D02*
X151516098Y-80017500D01*
X151818479Y-80168690D02*
X151183479Y-80168690D01*
X151183479Y-80168690D02*
X151183479Y-79926785D01*
X151183479Y-79926785D02*
X151213717Y-79866309D01*
X151213717Y-79866309D02*
X151243955Y-79836071D01*
X151243955Y-79836071D02*
X151304431Y-79805833D01*
X151304431Y-79805833D02*
X151395145Y-79805833D01*
X151395145Y-79805833D02*
X151455621Y-79836071D01*
X151455621Y-79836071D02*
X151485860Y-79866309D01*
X151485860Y-79866309D02*
X151516098Y-79926785D01*
X151516098Y-79926785D02*
X151516098Y-80168690D01*
X151183479Y-79231309D02*
X151183479Y-79533690D01*
X151183479Y-79533690D02*
X151485860Y-79563928D01*
X151485860Y-79563928D02*
X151455621Y-79533690D01*
X151455621Y-79533690D02*
X151425383Y-79473214D01*
X151425383Y-79473214D02*
X151425383Y-79322023D01*
X151425383Y-79322023D02*
X151455621Y-79261547D01*
X151455621Y-79261547D02*
X151485860Y-79231309D01*
X151485860Y-79231309D02*
X151546336Y-79201071D01*
X151546336Y-79201071D02*
X151697526Y-79201071D01*
X151697526Y-79201071D02*
X151758002Y-79231309D01*
X151758002Y-79231309D02*
X151788241Y-79261547D01*
X151788241Y-79261547D02*
X151818479Y-79322023D01*
X151818479Y-79322023D02*
X151818479Y-79473214D01*
X151818479Y-79473214D02*
X151788241Y-79533690D01*
X151788241Y-79533690D02*
X151758002Y-79563928D01*
X212968002Y-64328214D02*
X212998241Y-64358452D01*
X212998241Y-64358452D02*
X213028479Y-64449166D01*
X213028479Y-64449166D02*
X213028479Y-64509642D01*
X213028479Y-64509642D02*
X212998241Y-64600357D01*
X212998241Y-64600357D02*
X212937764Y-64660833D01*
X212937764Y-64660833D02*
X212877288Y-64691071D01*
X212877288Y-64691071D02*
X212756336Y-64721309D01*
X212756336Y-64721309D02*
X212665621Y-64721309D01*
X212665621Y-64721309D02*
X212544669Y-64691071D01*
X212544669Y-64691071D02*
X212484193Y-64660833D01*
X212484193Y-64660833D02*
X212423717Y-64600357D01*
X212423717Y-64600357D02*
X212393479Y-64509642D01*
X212393479Y-64509642D02*
X212393479Y-64449166D01*
X212393479Y-64449166D02*
X212423717Y-64358452D01*
X212423717Y-64358452D02*
X212453955Y-64328214D01*
X212453955Y-64086309D02*
X212423717Y-64056071D01*
X212423717Y-64056071D02*
X212393479Y-63995595D01*
X212393479Y-63995595D02*
X212393479Y-63844404D01*
X212393479Y-63844404D02*
X212423717Y-63783928D01*
X212423717Y-63783928D02*
X212453955Y-63753690D01*
X212453955Y-63753690D02*
X212514431Y-63723452D01*
X212514431Y-63723452D02*
X212574907Y-63723452D01*
X212574907Y-63723452D02*
X212665621Y-63753690D01*
X212665621Y-63753690D02*
X213028479Y-64116547D01*
X213028479Y-64116547D02*
X213028479Y-63723452D01*
X213028479Y-63421071D02*
X213028479Y-63300119D01*
X213028479Y-63300119D02*
X212998241Y-63239642D01*
X212998241Y-63239642D02*
X212968002Y-63209404D01*
X212968002Y-63209404D02*
X212877288Y-63148928D01*
X212877288Y-63148928D02*
X212756336Y-63118690D01*
X212756336Y-63118690D02*
X212514431Y-63118690D01*
X212514431Y-63118690D02*
X212453955Y-63148928D01*
X212453955Y-63148928D02*
X212423717Y-63179166D01*
X212423717Y-63179166D02*
X212393479Y-63239642D01*
X212393479Y-63239642D02*
X212393479Y-63360595D01*
X212393479Y-63360595D02*
X212423717Y-63421071D01*
X212423717Y-63421071D02*
X212453955Y-63451309D01*
X212453955Y-63451309D02*
X212514431Y-63481547D01*
X212514431Y-63481547D02*
X212665621Y-63481547D01*
X212665621Y-63481547D02*
X212726098Y-63451309D01*
X212726098Y-63451309D02*
X212756336Y-63421071D01*
X212756336Y-63421071D02*
X212786574Y-63360595D01*
X212786574Y-63360595D02*
X212786574Y-63239642D01*
X212786574Y-63239642D02*
X212756336Y-63179166D01*
X212756336Y-63179166D02*
X212726098Y-63148928D01*
X212726098Y-63148928D02*
X212665621Y-63118690D01*
X144449166Y-82558002D02*
X144418928Y-82588241D01*
X144418928Y-82588241D02*
X144328214Y-82618479D01*
X144328214Y-82618479D02*
X144267738Y-82618479D01*
X144267738Y-82618479D02*
X144177023Y-82588241D01*
X144177023Y-82588241D02*
X144116547Y-82527764D01*
X144116547Y-82527764D02*
X144086309Y-82467288D01*
X144086309Y-82467288D02*
X144056071Y-82346336D01*
X144056071Y-82346336D02*
X144056071Y-82255621D01*
X144056071Y-82255621D02*
X144086309Y-82134669D01*
X144086309Y-82134669D02*
X144116547Y-82074193D01*
X144116547Y-82074193D02*
X144177023Y-82013717D01*
X144177023Y-82013717D02*
X144267738Y-81983479D01*
X144267738Y-81983479D02*
X144328214Y-81983479D01*
X144328214Y-81983479D02*
X144418928Y-82013717D01*
X144418928Y-82013717D02*
X144449166Y-82043955D01*
X144691071Y-82043955D02*
X144721309Y-82013717D01*
X144721309Y-82013717D02*
X144781785Y-81983479D01*
X144781785Y-81983479D02*
X144932976Y-81983479D01*
X144932976Y-81983479D02*
X144993452Y-82013717D01*
X144993452Y-82013717D02*
X145023690Y-82043955D01*
X145023690Y-82043955D02*
X145053928Y-82104431D01*
X145053928Y-82104431D02*
X145053928Y-82164907D01*
X145053928Y-82164907D02*
X145023690Y-82255621D01*
X145023690Y-82255621D02*
X144660833Y-82618479D01*
X144660833Y-82618479D02*
X145053928Y-82618479D01*
X159878002Y-96228214D02*
X159908241Y-96258452D01*
X159908241Y-96258452D02*
X159938479Y-96349166D01*
X159938479Y-96349166D02*
X159938479Y-96409642D01*
X159938479Y-96409642D02*
X159908241Y-96500357D01*
X159908241Y-96500357D02*
X159847764Y-96560833D01*
X159847764Y-96560833D02*
X159787288Y-96591071D01*
X159787288Y-96591071D02*
X159666336Y-96621309D01*
X159666336Y-96621309D02*
X159575621Y-96621309D01*
X159575621Y-96621309D02*
X159454669Y-96591071D01*
X159454669Y-96591071D02*
X159394193Y-96560833D01*
X159394193Y-96560833D02*
X159333717Y-96500357D01*
X159333717Y-96500357D02*
X159303479Y-96409642D01*
X159303479Y-96409642D02*
X159303479Y-96349166D01*
X159303479Y-96349166D02*
X159333717Y-96258452D01*
X159333717Y-96258452D02*
X159363955Y-96228214D01*
X159938479Y-95623452D02*
X159938479Y-95986309D01*
X159938479Y-95804881D02*
X159303479Y-95804881D01*
X159303479Y-95804881D02*
X159394193Y-95865357D01*
X159394193Y-95865357D02*
X159454669Y-95925833D01*
X159454669Y-95925833D02*
X159484907Y-95986309D01*
X159515145Y-95079166D02*
X159938479Y-95079166D01*
X159273241Y-95230357D02*
X159726812Y-95381547D01*
X159726812Y-95381547D02*
X159726812Y-94988452D01*
X205468002Y-78328214D02*
X205498241Y-78358452D01*
X205498241Y-78358452D02*
X205528479Y-78449166D01*
X205528479Y-78449166D02*
X205528479Y-78509642D01*
X205528479Y-78509642D02*
X205498241Y-78600357D01*
X205498241Y-78600357D02*
X205437764Y-78660833D01*
X205437764Y-78660833D02*
X205377288Y-78691071D01*
X205377288Y-78691071D02*
X205256336Y-78721309D01*
X205256336Y-78721309D02*
X205165621Y-78721309D01*
X205165621Y-78721309D02*
X205044669Y-78691071D01*
X205044669Y-78691071D02*
X204984193Y-78660833D01*
X204984193Y-78660833D02*
X204923717Y-78600357D01*
X204923717Y-78600357D02*
X204893479Y-78509642D01*
X204893479Y-78509642D02*
X204893479Y-78449166D01*
X204893479Y-78449166D02*
X204923717Y-78358452D01*
X204923717Y-78358452D02*
X204953955Y-78328214D01*
X204953955Y-78086309D02*
X204923717Y-78056071D01*
X204923717Y-78056071D02*
X204893479Y-77995595D01*
X204893479Y-77995595D02*
X204893479Y-77844404D01*
X204893479Y-77844404D02*
X204923717Y-77783928D01*
X204923717Y-77783928D02*
X204953955Y-77753690D01*
X204953955Y-77753690D02*
X205014431Y-77723452D01*
X205014431Y-77723452D02*
X205074907Y-77723452D01*
X205074907Y-77723452D02*
X205165621Y-77753690D01*
X205165621Y-77753690D02*
X205528479Y-78116547D01*
X205528479Y-78116547D02*
X205528479Y-77723452D01*
X204893479Y-77148928D02*
X204893479Y-77451309D01*
X204893479Y-77451309D02*
X205195860Y-77481547D01*
X205195860Y-77481547D02*
X205165621Y-77451309D01*
X205165621Y-77451309D02*
X205135383Y-77390833D01*
X205135383Y-77390833D02*
X205135383Y-77239642D01*
X205135383Y-77239642D02*
X205165621Y-77179166D01*
X205165621Y-77179166D02*
X205195860Y-77148928D01*
X205195860Y-77148928D02*
X205256336Y-77118690D01*
X205256336Y-77118690D02*
X205407526Y-77118690D01*
X205407526Y-77118690D02*
X205468002Y-77148928D01*
X205468002Y-77148928D02*
X205498241Y-77179166D01*
X205498241Y-77179166D02*
X205528479Y-77239642D01*
X205528479Y-77239642D02*
X205528479Y-77390833D01*
X205528479Y-77390833D02*
X205498241Y-77451309D01*
X205498241Y-77451309D02*
X205468002Y-77481547D01*
X157388479Y-85946667D02*
X157086098Y-86158334D01*
X157388479Y-86309524D02*
X156753479Y-86309524D01*
X156753479Y-86309524D02*
X156753479Y-86067619D01*
X156753479Y-86067619D02*
X156783717Y-86007143D01*
X156783717Y-86007143D02*
X156813955Y-85976905D01*
X156813955Y-85976905D02*
X156874431Y-85946667D01*
X156874431Y-85946667D02*
X156965145Y-85946667D01*
X156965145Y-85946667D02*
X157025621Y-85976905D01*
X157025621Y-85976905D02*
X157055860Y-86007143D01*
X157055860Y-86007143D02*
X157086098Y-86067619D01*
X157086098Y-86067619D02*
X157086098Y-86309524D01*
X157055860Y-85674524D02*
X157055860Y-85462857D01*
X157388479Y-85372143D02*
X157388479Y-85674524D01*
X157388479Y-85674524D02*
X156753479Y-85674524D01*
X156753479Y-85674524D02*
X156753479Y-85372143D01*
X157055860Y-84888333D02*
X157055860Y-85100000D01*
X157388479Y-85100000D02*
X156753479Y-85100000D01*
X156753479Y-85100000D02*
X156753479Y-84797619D01*
X156753479Y-84465000D02*
X156904669Y-84465000D01*
X156844193Y-84616190D02*
X156904669Y-84465000D01*
X156904669Y-84465000D02*
X156844193Y-84313809D01*
X157025621Y-84555714D02*
X156904669Y-84465000D01*
X156904669Y-84465000D02*
X157025621Y-84374285D01*
X156753479Y-83981190D02*
X156904669Y-83981190D01*
X156844193Y-84132380D02*
X156904669Y-83981190D01*
X156904669Y-83981190D02*
X156844193Y-83829999D01*
X157025621Y-84071904D02*
X156904669Y-83981190D01*
X156904669Y-83981190D02*
X157025621Y-83890475D01*
X197388479Y-90920834D02*
X196753479Y-90920834D01*
X197055860Y-90920834D02*
X197055860Y-90557977D01*
X197388479Y-90557977D02*
X196753479Y-90557977D01*
X197388479Y-89983453D02*
X197055860Y-89983453D01*
X197055860Y-89983453D02*
X196995383Y-90013691D01*
X196995383Y-90013691D02*
X196965145Y-90074167D01*
X196965145Y-90074167D02*
X196965145Y-90195120D01*
X196965145Y-90195120D02*
X196995383Y-90255596D01*
X197358241Y-89983453D02*
X197388479Y-90043929D01*
X197388479Y-90043929D02*
X197388479Y-90195120D01*
X197388479Y-90195120D02*
X197358241Y-90255596D01*
X197358241Y-90255596D02*
X197297764Y-90285834D01*
X197297764Y-90285834D02*
X197237288Y-90285834D01*
X197237288Y-90285834D02*
X197176812Y-90255596D01*
X197176812Y-90255596D02*
X197146574Y-90195120D01*
X197146574Y-90195120D02*
X197146574Y-90043929D01*
X197146574Y-90043929D02*
X197116336Y-89983453D01*
X197388479Y-89681072D02*
X196965145Y-89681072D01*
X197025621Y-89681072D02*
X196995383Y-89650834D01*
X196995383Y-89650834D02*
X196965145Y-89590358D01*
X196965145Y-89590358D02*
X196965145Y-89499643D01*
X196965145Y-89499643D02*
X196995383Y-89439167D01*
X196995383Y-89439167D02*
X197055860Y-89408929D01*
X197055860Y-89408929D02*
X197388479Y-89408929D01*
X197055860Y-89408929D02*
X196995383Y-89378691D01*
X196995383Y-89378691D02*
X196965145Y-89318215D01*
X196965145Y-89318215D02*
X196965145Y-89227501D01*
X196965145Y-89227501D02*
X196995383Y-89167024D01*
X196995383Y-89167024D02*
X197055860Y-89136786D01*
X197055860Y-89136786D02*
X197388479Y-89136786D01*
X197388479Y-88834405D02*
X196965145Y-88834405D01*
X197025621Y-88834405D02*
X196995383Y-88804167D01*
X196995383Y-88804167D02*
X196965145Y-88743691D01*
X196965145Y-88743691D02*
X196965145Y-88652976D01*
X196965145Y-88652976D02*
X196995383Y-88592500D01*
X196995383Y-88592500D02*
X197055860Y-88562262D01*
X197055860Y-88562262D02*
X197388479Y-88562262D01*
X197055860Y-88562262D02*
X196995383Y-88532024D01*
X196995383Y-88532024D02*
X196965145Y-88471548D01*
X196965145Y-88471548D02*
X196965145Y-88380834D01*
X196965145Y-88380834D02*
X196995383Y-88320357D01*
X196995383Y-88320357D02*
X197055860Y-88290119D01*
X197055860Y-88290119D02*
X197388479Y-88290119D01*
X197388479Y-87897024D02*
X197358241Y-87957500D01*
X197358241Y-87957500D02*
X197328002Y-87987738D01*
X197328002Y-87987738D02*
X197267526Y-88017976D01*
X197267526Y-88017976D02*
X197086098Y-88017976D01*
X197086098Y-88017976D02*
X197025621Y-87987738D01*
X197025621Y-87987738D02*
X196995383Y-87957500D01*
X196995383Y-87957500D02*
X196965145Y-87897024D01*
X196965145Y-87897024D02*
X196965145Y-87806309D01*
X196965145Y-87806309D02*
X196995383Y-87745833D01*
X196995383Y-87745833D02*
X197025621Y-87715595D01*
X197025621Y-87715595D02*
X197086098Y-87685357D01*
X197086098Y-87685357D02*
X197267526Y-87685357D01*
X197267526Y-87685357D02*
X197328002Y-87715595D01*
X197328002Y-87715595D02*
X197358241Y-87745833D01*
X197358241Y-87745833D02*
X197388479Y-87806309D01*
X197388479Y-87806309D02*
X197388479Y-87897024D01*
X196965145Y-87413214D02*
X197388479Y-87413214D01*
X197025621Y-87413214D02*
X196995383Y-87382976D01*
X196995383Y-87382976D02*
X196965145Y-87322500D01*
X196965145Y-87322500D02*
X196965145Y-87231785D01*
X196965145Y-87231785D02*
X196995383Y-87171309D01*
X196995383Y-87171309D02*
X197055860Y-87141071D01*
X197055860Y-87141071D02*
X197388479Y-87141071D01*
X197388479Y-86566547D02*
X196753479Y-86566547D01*
X197358241Y-86566547D02*
X197388479Y-86627023D01*
X197388479Y-86627023D02*
X197388479Y-86747976D01*
X197388479Y-86747976D02*
X197358241Y-86808452D01*
X197358241Y-86808452D02*
X197328002Y-86838690D01*
X197328002Y-86838690D02*
X197267526Y-86868928D01*
X197267526Y-86868928D02*
X197086098Y-86868928D01*
X197086098Y-86868928D02*
X197025621Y-86838690D01*
X197025621Y-86838690D02*
X196995383Y-86808452D01*
X196995383Y-86808452D02*
X196965145Y-86747976D01*
X196965145Y-86747976D02*
X196965145Y-86627023D01*
X196965145Y-86627023D02*
X196995383Y-86566547D01*
X197448955Y-86415357D02*
X197448955Y-85931547D01*
X197388479Y-85447737D02*
X197388479Y-85810594D01*
X197388479Y-85629166D02*
X196753479Y-85629166D01*
X196753479Y-85629166D02*
X196844193Y-85689642D01*
X196844193Y-85689642D02*
X196904669Y-85750118D01*
X196904669Y-85750118D02*
X196934907Y-85810594D01*
X196753479Y-84873213D02*
X196753479Y-85175594D01*
X196753479Y-85175594D02*
X197055860Y-85205832D01*
X197055860Y-85205832D02*
X197025621Y-85175594D01*
X197025621Y-85175594D02*
X196995383Y-85115118D01*
X196995383Y-85115118D02*
X196995383Y-84963927D01*
X196995383Y-84963927D02*
X197025621Y-84903451D01*
X197025621Y-84903451D02*
X197055860Y-84873213D01*
X197055860Y-84873213D02*
X197116336Y-84842975D01*
X197116336Y-84842975D02*
X197267526Y-84842975D01*
X197267526Y-84842975D02*
X197328002Y-84873213D01*
X197328002Y-84873213D02*
X197358241Y-84903451D01*
X197358241Y-84903451D02*
X197388479Y-84963927D01*
X197388479Y-84963927D02*
X197388479Y-85115118D01*
X197388479Y-85115118D02*
X197358241Y-85175594D01*
X197358241Y-85175594D02*
X197328002Y-85205832D01*
X197388479Y-84540594D02*
X197388479Y-84419642D01*
X197388479Y-84419642D02*
X197358241Y-84359165D01*
X197358241Y-84359165D02*
X197328002Y-84328927D01*
X197328002Y-84328927D02*
X197237288Y-84268451D01*
X197237288Y-84268451D02*
X197116336Y-84238213D01*
X197116336Y-84238213D02*
X196874431Y-84238213D01*
X196874431Y-84238213D02*
X196813955Y-84268451D01*
X196813955Y-84268451D02*
X196783717Y-84298689D01*
X196783717Y-84298689D02*
X196753479Y-84359165D01*
X196753479Y-84359165D02*
X196753479Y-84480118D01*
X196753479Y-84480118D02*
X196783717Y-84540594D01*
X196783717Y-84540594D02*
X196813955Y-84570832D01*
X196813955Y-84570832D02*
X196874431Y-84601070D01*
X196874431Y-84601070D02*
X197025621Y-84601070D01*
X197025621Y-84601070D02*
X197086098Y-84570832D01*
X197086098Y-84570832D02*
X197116336Y-84540594D01*
X197116336Y-84540594D02*
X197146574Y-84480118D01*
X197146574Y-84480118D02*
X197146574Y-84359165D01*
X197146574Y-84359165D02*
X197116336Y-84298689D01*
X197116336Y-84298689D02*
X197086098Y-84268451D01*
X197086098Y-84268451D02*
X197025621Y-84238213D01*
X196753479Y-83845118D02*
X196753479Y-83784641D01*
X196753479Y-83784641D02*
X196783717Y-83724165D01*
X196783717Y-83724165D02*
X196813955Y-83693927D01*
X196813955Y-83693927D02*
X196874431Y-83663689D01*
X196874431Y-83663689D02*
X196995383Y-83633451D01*
X196995383Y-83633451D02*
X197146574Y-83633451D01*
X197146574Y-83633451D02*
X197267526Y-83663689D01*
X197267526Y-83663689D02*
X197328002Y-83693927D01*
X197328002Y-83693927D02*
X197358241Y-83724165D01*
X197358241Y-83724165D02*
X197388479Y-83784641D01*
X197388479Y-83784641D02*
X197388479Y-83845118D01*
X197388479Y-83845118D02*
X197358241Y-83905594D01*
X197358241Y-83905594D02*
X197328002Y-83935832D01*
X197328002Y-83935832D02*
X197267526Y-83966070D01*
X197267526Y-83966070D02*
X197146574Y-83996308D01*
X197146574Y-83996308D02*
X196995383Y-83996308D01*
X196995383Y-83996308D02*
X196874431Y-83966070D01*
X196874431Y-83966070D02*
X196813955Y-83935832D01*
X196813955Y-83935832D02*
X196783717Y-83905594D01*
X196783717Y-83905594D02*
X196753479Y-83845118D01*
X197207050Y-83391546D02*
X197207050Y-83089165D01*
X197388479Y-83452022D02*
X196753479Y-83240356D01*
X196753479Y-83240356D02*
X197388479Y-83028689D01*
X197448955Y-82968213D02*
X197448955Y-82484403D01*
X196753479Y-82212260D02*
X196753479Y-82091307D01*
X196753479Y-82091307D02*
X196783717Y-82030831D01*
X196783717Y-82030831D02*
X196844193Y-81970355D01*
X196844193Y-81970355D02*
X196965145Y-81940117D01*
X196965145Y-81940117D02*
X197176812Y-81940117D01*
X197176812Y-81940117D02*
X197297764Y-81970355D01*
X197297764Y-81970355D02*
X197358241Y-82030831D01*
X197358241Y-82030831D02*
X197388479Y-82091307D01*
X197388479Y-82091307D02*
X197388479Y-82212260D01*
X197388479Y-82212260D02*
X197358241Y-82272736D01*
X197358241Y-82272736D02*
X197297764Y-82333212D01*
X197297764Y-82333212D02*
X197176812Y-82363450D01*
X197176812Y-82363450D02*
X196965145Y-82363450D01*
X196965145Y-82363450D02*
X196844193Y-82333212D01*
X196844193Y-82333212D02*
X196783717Y-82272736D01*
X196783717Y-82272736D02*
X196753479Y-82212260D01*
X196965145Y-81395831D02*
X197388479Y-81395831D01*
X196965145Y-81667974D02*
X197297764Y-81667974D01*
X197297764Y-81667974D02*
X197358241Y-81637736D01*
X197358241Y-81637736D02*
X197388479Y-81577260D01*
X197388479Y-81577260D02*
X197388479Y-81486545D01*
X197388479Y-81486545D02*
X197358241Y-81426069D01*
X197358241Y-81426069D02*
X197328002Y-81395831D01*
X196965145Y-81184164D02*
X196965145Y-80942260D01*
X196753479Y-81093450D02*
X197297764Y-81093450D01*
X197297764Y-81093450D02*
X197358241Y-81063212D01*
X197358241Y-81063212D02*
X197388479Y-81002736D01*
X197388479Y-81002736D02*
X197388479Y-80942260D01*
X197388479Y-80639879D02*
X197358241Y-80700355D01*
X197358241Y-80700355D02*
X197297764Y-80730593D01*
X197297764Y-80730593D02*
X196753479Y-80730593D01*
X197388479Y-80397974D02*
X196965145Y-80397974D01*
X196753479Y-80397974D02*
X196783717Y-80428212D01*
X196783717Y-80428212D02*
X196813955Y-80397974D01*
X196813955Y-80397974D02*
X196783717Y-80367736D01*
X196783717Y-80367736D02*
X196753479Y-80397974D01*
X196753479Y-80397974D02*
X196813955Y-80397974D01*
X196965145Y-80095593D02*
X197388479Y-80095593D01*
X197025621Y-80095593D02*
X196995383Y-80065355D01*
X196995383Y-80065355D02*
X196965145Y-80004879D01*
X196965145Y-80004879D02*
X196965145Y-79914164D01*
X196965145Y-79914164D02*
X196995383Y-79853688D01*
X196995383Y-79853688D02*
X197055860Y-79823450D01*
X197055860Y-79823450D02*
X197388479Y-79823450D01*
X197358241Y-79279164D02*
X197388479Y-79339640D01*
X197388479Y-79339640D02*
X197388479Y-79460593D01*
X197388479Y-79460593D02*
X197358241Y-79521069D01*
X197358241Y-79521069D02*
X197297764Y-79551307D01*
X197297764Y-79551307D02*
X197055860Y-79551307D01*
X197055860Y-79551307D02*
X196995383Y-79521069D01*
X196995383Y-79521069D02*
X196965145Y-79460593D01*
X196965145Y-79460593D02*
X196965145Y-79339640D01*
X196965145Y-79339640D02*
X196995383Y-79279164D01*
X196995383Y-79279164D02*
X197055860Y-79248926D01*
X197055860Y-79248926D02*
X197116336Y-79248926D01*
X197116336Y-79248926D02*
X197176812Y-79551307D01*
X205301785Y-72158479D02*
X205090118Y-71856098D01*
X204938928Y-72158479D02*
X204938928Y-71523479D01*
X204938928Y-71523479D02*
X205180833Y-71523479D01*
X205180833Y-71523479D02*
X205241309Y-71553717D01*
X205241309Y-71553717D02*
X205271547Y-71583955D01*
X205271547Y-71583955D02*
X205301785Y-71644431D01*
X205301785Y-71644431D02*
X205301785Y-71735145D01*
X205301785Y-71735145D02*
X205271547Y-71795621D01*
X205271547Y-71795621D02*
X205241309Y-71825860D01*
X205241309Y-71825860D02*
X205180833Y-71856098D01*
X205180833Y-71856098D02*
X204938928Y-71856098D01*
X205906547Y-72158479D02*
X205543690Y-72158479D01*
X205725118Y-72158479D02*
X205725118Y-71523479D01*
X205725118Y-71523479D02*
X205664642Y-71614193D01*
X205664642Y-71614193D02*
X205604166Y-71674669D01*
X205604166Y-71674669D02*
X205543690Y-71704907D01*
X206269404Y-71795621D02*
X206208928Y-71765383D01*
X206208928Y-71765383D02*
X206178690Y-71735145D01*
X206178690Y-71735145D02*
X206148452Y-71674669D01*
X206148452Y-71674669D02*
X206148452Y-71644431D01*
X206148452Y-71644431D02*
X206178690Y-71583955D01*
X206178690Y-71583955D02*
X206208928Y-71553717D01*
X206208928Y-71553717D02*
X206269404Y-71523479D01*
X206269404Y-71523479D02*
X206390357Y-71523479D01*
X206390357Y-71523479D02*
X206450833Y-71553717D01*
X206450833Y-71553717D02*
X206481071Y-71583955D01*
X206481071Y-71583955D02*
X206511309Y-71644431D01*
X206511309Y-71644431D02*
X206511309Y-71674669D01*
X206511309Y-71674669D02*
X206481071Y-71735145D01*
X206481071Y-71735145D02*
X206450833Y-71765383D01*
X206450833Y-71765383D02*
X206390357Y-71795621D01*
X206390357Y-71795621D02*
X206269404Y-71795621D01*
X206269404Y-71795621D02*
X206208928Y-71825860D01*
X206208928Y-71825860D02*
X206178690Y-71856098D01*
X206178690Y-71856098D02*
X206148452Y-71916574D01*
X206148452Y-71916574D02*
X206148452Y-72037526D01*
X206148452Y-72037526D02*
X206178690Y-72098002D01*
X206178690Y-72098002D02*
X206208928Y-72128241D01*
X206208928Y-72128241D02*
X206269404Y-72158479D01*
X206269404Y-72158479D02*
X206390357Y-72158479D01*
X206390357Y-72158479D02*
X206450833Y-72128241D01*
X206450833Y-72128241D02*
X206481071Y-72098002D01*
X206481071Y-72098002D02*
X206511309Y-72037526D01*
X206511309Y-72037526D02*
X206511309Y-71916574D01*
X206511309Y-71916574D02*
X206481071Y-71856098D01*
X206481071Y-71856098D02*
X206450833Y-71825860D01*
X206450833Y-71825860D02*
X206390357Y-71795621D01*
X200718479Y-63628214D02*
X200416098Y-63839881D01*
X200718479Y-63991071D02*
X200083479Y-63991071D01*
X200083479Y-63991071D02*
X200083479Y-63749166D01*
X200083479Y-63749166D02*
X200113717Y-63688690D01*
X200113717Y-63688690D02*
X200143955Y-63658452D01*
X200143955Y-63658452D02*
X200204431Y-63628214D01*
X200204431Y-63628214D02*
X200295145Y-63628214D01*
X200295145Y-63628214D02*
X200355621Y-63658452D01*
X200355621Y-63658452D02*
X200385860Y-63688690D01*
X200385860Y-63688690D02*
X200416098Y-63749166D01*
X200416098Y-63749166D02*
X200416098Y-63991071D01*
X200718479Y-63023452D02*
X200718479Y-63386309D01*
X200718479Y-63204881D02*
X200083479Y-63204881D01*
X200083479Y-63204881D02*
X200174193Y-63265357D01*
X200174193Y-63265357D02*
X200234669Y-63325833D01*
X200234669Y-63325833D02*
X200264907Y-63386309D01*
X200083479Y-62448928D02*
X200083479Y-62751309D01*
X200083479Y-62751309D02*
X200385860Y-62781547D01*
X200385860Y-62781547D02*
X200355621Y-62751309D01*
X200355621Y-62751309D02*
X200325383Y-62690833D01*
X200325383Y-62690833D02*
X200325383Y-62539642D01*
X200325383Y-62539642D02*
X200355621Y-62479166D01*
X200355621Y-62479166D02*
X200385860Y-62448928D01*
X200385860Y-62448928D02*
X200446336Y-62418690D01*
X200446336Y-62418690D02*
X200597526Y-62418690D01*
X200597526Y-62418690D02*
X200658002Y-62448928D01*
X200658002Y-62448928D02*
X200688241Y-62479166D01*
X200688241Y-62479166D02*
X200718479Y-62539642D01*
X200718479Y-62539642D02*
X200718479Y-62690833D01*
X200718479Y-62690833D02*
X200688241Y-62751309D01*
X200688241Y-62751309D02*
X200658002Y-62781547D01*
X207394166Y-98158479D02*
X207182499Y-97856098D01*
X207031309Y-98158479D02*
X207031309Y-97523479D01*
X207031309Y-97523479D02*
X207273214Y-97523479D01*
X207273214Y-97523479D02*
X207333690Y-97553717D01*
X207333690Y-97553717D02*
X207363928Y-97583955D01*
X207363928Y-97583955D02*
X207394166Y-97644431D01*
X207394166Y-97644431D02*
X207394166Y-97735145D01*
X207394166Y-97735145D02*
X207363928Y-97795621D01*
X207363928Y-97795621D02*
X207333690Y-97825860D01*
X207333690Y-97825860D02*
X207273214Y-97856098D01*
X207273214Y-97856098D02*
X207031309Y-97856098D01*
X207757023Y-97795621D02*
X207696547Y-97765383D01*
X207696547Y-97765383D02*
X207666309Y-97735145D01*
X207666309Y-97735145D02*
X207636071Y-97674669D01*
X207636071Y-97674669D02*
X207636071Y-97644431D01*
X207636071Y-97644431D02*
X207666309Y-97583955D01*
X207666309Y-97583955D02*
X207696547Y-97553717D01*
X207696547Y-97553717D02*
X207757023Y-97523479D01*
X207757023Y-97523479D02*
X207877976Y-97523479D01*
X207877976Y-97523479D02*
X207938452Y-97553717D01*
X207938452Y-97553717D02*
X207968690Y-97583955D01*
X207968690Y-97583955D02*
X207998928Y-97644431D01*
X207998928Y-97644431D02*
X207998928Y-97674669D01*
X207998928Y-97674669D02*
X207968690Y-97735145D01*
X207968690Y-97735145D02*
X207938452Y-97765383D01*
X207938452Y-97765383D02*
X207877976Y-97795621D01*
X207877976Y-97795621D02*
X207757023Y-97795621D01*
X207757023Y-97795621D02*
X207696547Y-97825860D01*
X207696547Y-97825860D02*
X207666309Y-97856098D01*
X207666309Y-97856098D02*
X207636071Y-97916574D01*
X207636071Y-97916574D02*
X207636071Y-98037526D01*
X207636071Y-98037526D02*
X207666309Y-98098002D01*
X207666309Y-98098002D02*
X207696547Y-98128241D01*
X207696547Y-98128241D02*
X207757023Y-98158479D01*
X207757023Y-98158479D02*
X207877976Y-98158479D01*
X207877976Y-98158479D02*
X207938452Y-98128241D01*
X207938452Y-98128241D02*
X207968690Y-98098002D01*
X207968690Y-98098002D02*
X207998928Y-98037526D01*
X207998928Y-98037526D02*
X207998928Y-97916574D01*
X207998928Y-97916574D02*
X207968690Y-97856098D01*
X207968690Y-97856098D02*
X207938452Y-97825860D01*
X207938452Y-97825860D02*
X207877976Y-97795621D01*
X175468002Y-96928214D02*
X175498241Y-96958452D01*
X175498241Y-96958452D02*
X175528479Y-97049166D01*
X175528479Y-97049166D02*
X175528479Y-97109642D01*
X175528479Y-97109642D02*
X175498241Y-97200357D01*
X175498241Y-97200357D02*
X175437764Y-97260833D01*
X175437764Y-97260833D02*
X175377288Y-97291071D01*
X175377288Y-97291071D02*
X175256336Y-97321309D01*
X175256336Y-97321309D02*
X175165621Y-97321309D01*
X175165621Y-97321309D02*
X175044669Y-97291071D01*
X175044669Y-97291071D02*
X174984193Y-97260833D01*
X174984193Y-97260833D02*
X174923717Y-97200357D01*
X174923717Y-97200357D02*
X174893479Y-97109642D01*
X174893479Y-97109642D02*
X174893479Y-97049166D01*
X174893479Y-97049166D02*
X174923717Y-96958452D01*
X174923717Y-96958452D02*
X174953955Y-96928214D01*
X174893479Y-96716547D02*
X174893479Y-96323452D01*
X174893479Y-96323452D02*
X175135383Y-96535119D01*
X175135383Y-96535119D02*
X175135383Y-96444404D01*
X175135383Y-96444404D02*
X175165621Y-96383928D01*
X175165621Y-96383928D02*
X175195860Y-96353690D01*
X175195860Y-96353690D02*
X175256336Y-96323452D01*
X175256336Y-96323452D02*
X175407526Y-96323452D01*
X175407526Y-96323452D02*
X175468002Y-96353690D01*
X175468002Y-96353690D02*
X175498241Y-96383928D01*
X175498241Y-96383928D02*
X175528479Y-96444404D01*
X175528479Y-96444404D02*
X175528479Y-96625833D01*
X175528479Y-96625833D02*
X175498241Y-96686309D01*
X175498241Y-96686309D02*
X175468002Y-96716547D01*
X174893479Y-95930357D02*
X174893479Y-95869880D01*
X174893479Y-95869880D02*
X174923717Y-95809404D01*
X174923717Y-95809404D02*
X174953955Y-95779166D01*
X174953955Y-95779166D02*
X175014431Y-95748928D01*
X175014431Y-95748928D02*
X175135383Y-95718690D01*
X175135383Y-95718690D02*
X175286574Y-95718690D01*
X175286574Y-95718690D02*
X175407526Y-95748928D01*
X175407526Y-95748928D02*
X175468002Y-95779166D01*
X175468002Y-95779166D02*
X175498241Y-95809404D01*
X175498241Y-95809404D02*
X175528479Y-95869880D01*
X175528479Y-95869880D02*
X175528479Y-95930357D01*
X175528479Y-95930357D02*
X175498241Y-95990833D01*
X175498241Y-95990833D02*
X175468002Y-96021071D01*
X175468002Y-96021071D02*
X175407526Y-96051309D01*
X175407526Y-96051309D02*
X175286574Y-96081547D01*
X175286574Y-96081547D02*
X175135383Y-96081547D01*
X175135383Y-96081547D02*
X175014431Y-96051309D01*
X175014431Y-96051309D02*
X174953955Y-96021071D01*
X174953955Y-96021071D02*
X174923717Y-95990833D01*
X174923717Y-95990833D02*
X174893479Y-95930357D01*
X224218479Y-83408214D02*
X223916098Y-83619881D01*
X224218479Y-83771071D02*
X223583479Y-83771071D01*
X223583479Y-83771071D02*
X223583479Y-83529166D01*
X223583479Y-83529166D02*
X223613717Y-83468690D01*
X223613717Y-83468690D02*
X223643955Y-83438452D01*
X223643955Y-83438452D02*
X223704431Y-83408214D01*
X223704431Y-83408214D02*
X223795145Y-83408214D01*
X223795145Y-83408214D02*
X223855621Y-83438452D01*
X223855621Y-83438452D02*
X223885860Y-83468690D01*
X223885860Y-83468690D02*
X223916098Y-83529166D01*
X223916098Y-83529166D02*
X223916098Y-83771071D01*
X224218479Y-82803452D02*
X224218479Y-83166309D01*
X224218479Y-82984881D02*
X223583479Y-82984881D01*
X223583479Y-82984881D02*
X223674193Y-83045357D01*
X223674193Y-83045357D02*
X223734669Y-83105833D01*
X223734669Y-83105833D02*
X223764907Y-83166309D01*
X223583479Y-82410357D02*
X223583479Y-82349880D01*
X223583479Y-82349880D02*
X223613717Y-82289404D01*
X223613717Y-82289404D02*
X223643955Y-82259166D01*
X223643955Y-82259166D02*
X223704431Y-82228928D01*
X223704431Y-82228928D02*
X223825383Y-82198690D01*
X223825383Y-82198690D02*
X223976574Y-82198690D01*
X223976574Y-82198690D02*
X224097526Y-82228928D01*
X224097526Y-82228928D02*
X224158002Y-82259166D01*
X224158002Y-82259166D02*
X224188241Y-82289404D01*
X224188241Y-82289404D02*
X224218479Y-82349880D01*
X224218479Y-82349880D02*
X224218479Y-82410357D01*
X224218479Y-82410357D02*
X224188241Y-82470833D01*
X224188241Y-82470833D02*
X224158002Y-82501071D01*
X224158002Y-82501071D02*
X224097526Y-82531309D01*
X224097526Y-82531309D02*
X223976574Y-82561547D01*
X223976574Y-82561547D02*
X223825383Y-82561547D01*
X223825383Y-82561547D02*
X223704431Y-82531309D01*
X223704431Y-82531309D02*
X223643955Y-82501071D01*
X223643955Y-82501071D02*
X223613717Y-82470833D01*
X223613717Y-82470833D02*
X223583479Y-82410357D01*
X207788333Y-84005860D02*
X207576666Y-84005860D01*
X207576666Y-84338479D02*
X207576666Y-83703479D01*
X207576666Y-83703479D02*
X207879047Y-83703479D01*
X208453571Y-84338479D02*
X208090714Y-84338479D01*
X208272142Y-84338479D02*
X208272142Y-83703479D01*
X208272142Y-83703479D02*
X208211666Y-83794193D01*
X208211666Y-83794193D02*
X208151190Y-83854669D01*
X208151190Y-83854669D02*
X208090714Y-83884907D01*
X159478002Y-75608214D02*
X159508241Y-75638452D01*
X159508241Y-75638452D02*
X159538479Y-75729166D01*
X159538479Y-75729166D02*
X159538479Y-75789642D01*
X159538479Y-75789642D02*
X159508241Y-75880357D01*
X159508241Y-75880357D02*
X159447764Y-75940833D01*
X159447764Y-75940833D02*
X159387288Y-75971071D01*
X159387288Y-75971071D02*
X159266336Y-76001309D01*
X159266336Y-76001309D02*
X159175621Y-76001309D01*
X159175621Y-76001309D02*
X159054669Y-75971071D01*
X159054669Y-75971071D02*
X158994193Y-75940833D01*
X158994193Y-75940833D02*
X158933717Y-75880357D01*
X158933717Y-75880357D02*
X158903479Y-75789642D01*
X158903479Y-75789642D02*
X158903479Y-75729166D01*
X158903479Y-75729166D02*
X158933717Y-75638452D01*
X158933717Y-75638452D02*
X158963955Y-75608214D01*
X159538479Y-75003452D02*
X159538479Y-75366309D01*
X159538479Y-75184881D02*
X158903479Y-75184881D01*
X158903479Y-75184881D02*
X158994193Y-75245357D01*
X158994193Y-75245357D02*
X159054669Y-75305833D01*
X159054669Y-75305833D02*
X159084907Y-75366309D01*
X158903479Y-74428928D02*
X158903479Y-74731309D01*
X158903479Y-74731309D02*
X159205860Y-74761547D01*
X159205860Y-74761547D02*
X159175621Y-74731309D01*
X159175621Y-74731309D02*
X159145383Y-74670833D01*
X159145383Y-74670833D02*
X159145383Y-74519642D01*
X159145383Y-74519642D02*
X159175621Y-74459166D01*
X159175621Y-74459166D02*
X159205860Y-74428928D01*
X159205860Y-74428928D02*
X159266336Y-74398690D01*
X159266336Y-74398690D02*
X159417526Y-74398690D01*
X159417526Y-74398690D02*
X159478002Y-74428928D01*
X159478002Y-74428928D02*
X159508241Y-74459166D01*
X159508241Y-74459166D02*
X159538479Y-74519642D01*
X159538479Y-74519642D02*
X159538479Y-74670833D01*
X159538479Y-74670833D02*
X159508241Y-74731309D01*
X159508241Y-74731309D02*
X159478002Y-74761547D01*
D12*
%TO.C,R6*%
X179320000Y-82136359D02*
X179320000Y-82443641D01*
X180080000Y-82136359D02*
X180080000Y-82443641D01*
%TO.C,J2*%
X215185000Y-89480000D02*
X217105000Y-89480000D01*
X217105000Y-80320000D02*
X215185000Y-80320000D01*
X219115000Y-80320000D02*
X220820000Y-80320000D01*
X220820000Y-80320000D02*
X220820000Y-89480000D01*
X220820000Y-89480000D02*
X219115000Y-89480000D01*
%TO.C,J4*%
X212825000Y-76450000D02*
X212825000Y-77700000D01*
X212825000Y-77700000D02*
X214075000Y-77700000D01*
X215375000Y-69800000D02*
X215375000Y-70550000D01*
X215375000Y-70550000D02*
X218325000Y-70550000D01*
X215375000Y-76650000D02*
X216715000Y-76650000D01*
X215375000Y-77400000D02*
X215375000Y-76650000D01*
X218325000Y-70550000D02*
X218325000Y-73600000D01*
X218325000Y-73600000D02*
X218325000Y-75590000D01*
X213115000Y-77410000D02*
X219085000Y-77410000D01*
X219085000Y-69790000D01*
X213115000Y-69790000D01*
X213115000Y-77410000D01*
X213125000Y-71600000D02*
X213875000Y-71600000D01*
X213875000Y-69800000D01*
X213125000Y-69800000D01*
X213125000Y-71600000D01*
X213125000Y-74100000D02*
X213875000Y-74100000D01*
X213875000Y-73100000D01*
X213125000Y-73100000D01*
X213125000Y-74100000D01*
X213125000Y-77400000D02*
X213875000Y-77400000D01*
X213875000Y-75600000D01*
X213125000Y-75600000D01*
X213125000Y-77400000D01*
%TO.C,R2*%
X142530000Y-84633641D02*
X142530000Y-84326359D01*
X143290000Y-84633641D02*
X143290000Y-84326359D01*
%TO.C,C1*%
X144427164Y-85230000D02*
X144642836Y-85230000D01*
X144427164Y-85950000D02*
X144642836Y-85950000D01*
%TO.C,U6*%
X194652500Y-69590000D02*
X196472500Y-69590000D01*
X194652500Y-69640000D02*
X194652500Y-69590000D01*
X194652500Y-71540000D02*
X194652500Y-70760000D01*
X194652500Y-72710000D02*
X194652500Y-72660000D01*
X196472500Y-69590000D02*
X196472500Y-69640000D01*
X196472500Y-72660000D02*
X196472500Y-72710000D01*
X196472500Y-72710000D02*
X194652500Y-72710000D01*
X197252500Y-72990000D02*
X196772500Y-72990000D01*
X197012500Y-72660000D01*
X197252500Y-72990000D01*
G36*
X197252500Y-72990000D02*
G01*
X196772500Y-72990000D01*
X197012500Y-72660000D01*
X197252500Y-72990000D01*
G37*
%TO.C,C28*%
X208740000Y-63347836D02*
X208740000Y-63132164D01*
X209460000Y-63347836D02*
X209460000Y-63132164D01*
%TO.C,JP1*%
X139650000Y-100900000D02*
X139650000Y-100300000D01*
X140350000Y-99600000D02*
X141750000Y-99600000D01*
X141750000Y-101600000D02*
X140350000Y-101600000D01*
X142450000Y-100300000D02*
X142450000Y-100900000D01*
X139650000Y-100300000D02*
G75*
G02*
X140350000Y-99600000I700000J0D01*
G01*
X140350000Y-101600000D02*
G75*
G02*
X139650000Y-100900000I0J700000D01*
G01*
X141750000Y-99600000D02*
G75*
G02*
X142450000Y-100300000I1J-699999D01*
G01*
X142450000Y-100900000D02*
G75*
G02*
X141750000Y-101600000I-699999J-1D01*
G01*
%TO.C,C27*%
X207140000Y-77792164D02*
X207140000Y-78007836D01*
X207860000Y-77792164D02*
X207860000Y-78007836D01*
%TO.C,R11*%
X204320000Y-65953641D02*
X204320000Y-65646359D01*
X205080000Y-65953641D02*
X205080000Y-65646359D01*
%TO.C,J1*%
X140910000Y-85000000D02*
X141410000Y-85250000D01*
X141410000Y-84750000D02*
X140910000Y-85000000D01*
X141410000Y-85250000D02*
X141410000Y-84750000D01*
%TO.C,C3*%
X150840000Y-85087836D02*
X150840000Y-84872164D01*
X151560000Y-85087836D02*
X151560000Y-84872164D01*
D13*
%TO.C,FL1*%
X208810000Y-85510000D02*
X210410000Y-85510000D01*
X210710000Y-84250000D02*
X208810000Y-84250000D01*
D12*
%TO.C,R22*%
X146020000Y-78256359D02*
X146020000Y-78563641D01*
X146780000Y-78256359D02*
X146780000Y-78563641D01*
%TO.C,R17*%
X198120000Y-70546359D02*
X198120000Y-70853641D01*
X198880000Y-70546359D02*
X198880000Y-70853641D01*
%TO.C,R1*%
X141430000Y-84643641D02*
X141430000Y-84336359D01*
X142190000Y-84643641D02*
X142190000Y-84336359D01*
%TO.C,R19*%
X203763641Y-70320000D02*
X203456359Y-70320000D01*
X203763641Y-71080000D02*
X203456359Y-71080000D01*
%TO.C,R14*%
X205620000Y-60863641D02*
X205620000Y-60556359D01*
X206380000Y-60863641D02*
X206380000Y-60556359D01*
%TO.C,C18*%
X174040000Y-69912164D02*
X174040000Y-70127836D01*
X174760000Y-69912164D02*
X174760000Y-70127836D01*
%TO.C,C6*%
X154140000Y-79707836D02*
X154140000Y-79492164D01*
X154860000Y-79707836D02*
X154860000Y-79492164D01*
%TO.C,C17*%
X163740000Y-74807836D02*
X163740000Y-74592164D01*
X164460000Y-74807836D02*
X164460000Y-74592164D01*
%TO.C,U1*%
X145875000Y-83367500D02*
X146350000Y-83367500D01*
X145875000Y-85577500D02*
X145875000Y-83367500D01*
X146350000Y-85577500D02*
X145875000Y-85577500D01*
X148620000Y-83357500D02*
X149095000Y-83357500D01*
D13*
X148965000Y-85457500D02*
X148965000Y-83457500D01*
D12*
X149095000Y-83357500D02*
X149095000Y-85577500D01*
X149095000Y-85577500D02*
X148620000Y-85577500D01*
X146975000Y-86437500D02*
X146495000Y-86437500D01*
X146735000Y-86107500D01*
X146975000Y-86437500D01*
G36*
X146975000Y-86437500D02*
G01*
X146495000Y-86437500D01*
X146735000Y-86107500D01*
X146975000Y-86437500D01*
G37*
%TO.C,J3*%
X175850000Y-70595000D02*
X175850000Y-73255000D01*
X183530000Y-70595000D02*
X175850000Y-70595000D01*
X183530000Y-70595000D02*
X183530000Y-73255000D01*
X183530000Y-73255000D02*
X175850000Y-73255000D01*
X186130000Y-71925000D02*
X186130000Y-73255000D01*
X186130000Y-73255000D02*
X184800000Y-73255000D01*
%TO.C,U3*%
X156340000Y-92640000D02*
X157860000Y-92640000D01*
X156340000Y-93640000D02*
X156340000Y-92640000D01*
X156340000Y-95760000D02*
X156340000Y-94760000D01*
X157860000Y-92640000D02*
X157860000Y-92690000D01*
X157860000Y-93810000D02*
X157860000Y-94590000D01*
X157860000Y-95710000D02*
X157860000Y-95760000D01*
X157860000Y-95760000D02*
X156340000Y-95760000D01*
X158400000Y-94580000D02*
X158160000Y-94250000D01*
X158640000Y-94250000D01*
X158400000Y-94580000D01*
G36*
X158400000Y-94580000D02*
G01*
X158160000Y-94250000D01*
X158640000Y-94250000D01*
X158400000Y-94580000D01*
G37*
%TO.C,R4*%
X149720000Y-85153641D02*
X149720000Y-84846359D01*
X150480000Y-85153641D02*
X150480000Y-84846359D01*
%TO.C,C10*%
X203502164Y-69340000D02*
X203717836Y-69340000D01*
X203502164Y-70060000D02*
X203717836Y-70060000D01*
%TO.C,R13*%
X208120000Y-66143641D02*
X208120000Y-65836359D01*
X208880000Y-66143641D02*
X208880000Y-65836359D01*
%TO.C,R9*%
X224920000Y-87567621D02*
X224920000Y-87232379D01*
X225680000Y-87567621D02*
X225680000Y-87232379D01*
%TO.C,U5*%
X207645000Y-71575000D02*
X207845000Y-71575000D01*
X207645000Y-74795000D02*
X207645000Y-71575000D01*
X207845000Y-74795000D02*
X207645000Y-74795000D01*
X210665000Y-71575000D02*
X210865000Y-71575000D01*
X210865000Y-71575000D02*
X210865000Y-74795000D01*
X210865000Y-74795000D02*
X210665000Y-74795000D01*
X207845000Y-75345000D02*
X207515000Y-75585000D01*
X207515000Y-75105000D01*
X207845000Y-75345000D01*
G36*
X207845000Y-75345000D02*
G01*
X207515000Y-75585000D01*
X207515000Y-75105000D01*
X207845000Y-75345000D01*
G37*
%TO.C,J5*%
X144760000Y-94220000D02*
X146035000Y-94220000D01*
X146035000Y-94155000D02*
X146035000Y-94220000D01*
X146035000Y-94155000D02*
X149665000Y-94155000D01*
X146035000Y-100660000D02*
X146035000Y-100725000D01*
X146035000Y-100725000D02*
X149665000Y-100725000D01*
X149665000Y-94155000D02*
X149665000Y-94220000D01*
X149665000Y-100660000D02*
X149665000Y-100725000D01*
%TO.C,C9*%
X187940000Y-96627836D02*
X187940000Y-96412164D01*
X188660000Y-96627836D02*
X188660000Y-96412164D01*
%TO.C,C7*%
X158972164Y-83040000D02*
X159187836Y-83040000D01*
X158972164Y-83760000D02*
X159187836Y-83760000D01*
%TO.C,R12*%
X210420000Y-66443641D02*
X210420000Y-66136359D01*
X211180000Y-66443641D02*
X211180000Y-66136359D01*
%TO.C,SW1*%
X189400000Y-97900000D02*
X189400000Y-95300000D01*
X189500000Y-93350000D02*
X195500000Y-93350000D01*
X189600000Y-99850000D02*
X195400000Y-99850000D01*
X195600000Y-97900000D02*
X195600000Y-95300000D01*
X197600000Y-98900000D02*
X197600000Y-99900000D01*
X197600000Y-99900000D02*
X196600000Y-99900000D01*
D13*
%TO.C,D2*%
X203750000Y-64075000D02*
G75*
G02*
X203650000Y-64075000I-50000J0D01*
G01*
X203650000Y-64075000D02*
G75*
G02*
X203750000Y-64075000I50000J0D01*
G01*
D12*
%TO.C,C26*%
X176540000Y-65987836D02*
X176540000Y-65772164D01*
X177260000Y-65987836D02*
X177260000Y-65772164D01*
%TO.C,U2*%
X163490000Y-79090000D02*
X164440000Y-79090000D01*
X163490000Y-80040000D02*
X163490000Y-79090000D01*
X163490000Y-89310000D02*
X163490000Y-88360000D01*
X164440000Y-89310000D02*
X163490000Y-89310000D01*
X172760000Y-79090000D02*
X173710000Y-79090000D01*
X173710000Y-79090000D02*
X173710000Y-80040000D01*
X173710000Y-88360000D02*
X173710000Y-89310000D01*
X173710000Y-89310000D02*
X172760000Y-89310000D01*
X162850000Y-80040000D02*
X162510000Y-79570000D01*
X163190000Y-79570000D01*
X162850000Y-80040000D01*
G36*
X162850000Y-80040000D02*
G01*
X162510000Y-79570000D01*
X163190000Y-79570000D01*
X162850000Y-80040000D01*
G37*
%TO.C,SW2*%
X177400000Y-97900000D02*
X177400000Y-95300000D01*
X177500000Y-93350000D02*
X183500000Y-93350000D01*
X177600000Y-99850000D02*
X183400000Y-99850000D01*
X183600000Y-97900000D02*
X183600000Y-95300000D01*
X185600000Y-98900000D02*
X185600000Y-99900000D01*
X185600000Y-99900000D02*
X184600000Y-99900000D01*
%TO.C,R3*%
X150446359Y-83110000D02*
X150753641Y-83110000D01*
X150446359Y-83870000D02*
X150753641Y-83870000D01*
%TO.C,U7*%
X167840000Y-68940000D02*
X171960000Y-68940000D01*
X167840000Y-69035000D02*
X167840000Y-68940000D01*
X167840000Y-74060000D02*
X167840000Y-73965000D01*
X171960000Y-68940000D02*
X171960000Y-69035000D01*
X171960000Y-73965000D02*
X171960000Y-74060000D01*
X171960000Y-74060000D02*
X167840000Y-74060000D01*
X167300000Y-69030000D02*
X167060000Y-68700000D01*
X167540000Y-68700000D01*
X167300000Y-69030000D01*
G36*
X167300000Y-69030000D02*
G01*
X167060000Y-68700000D01*
X167540000Y-68700000D01*
X167300000Y-69030000D01*
G37*
%TO.C,U4*%
X201500000Y-94940000D02*
X203320000Y-94940000D01*
X201500000Y-94990000D02*
X201500000Y-94940000D01*
X201500000Y-96890000D02*
X201500000Y-96110000D01*
X201500000Y-98060000D02*
X201500000Y-98010000D01*
X203320000Y-94940000D02*
X203320000Y-94990000D01*
X203320000Y-98010000D02*
X203320000Y-98060000D01*
X203320000Y-98060000D02*
X201500000Y-98060000D01*
X204100000Y-98340000D02*
X203620000Y-98340000D01*
X203860000Y-98010000D01*
X204100000Y-98340000D01*
G36*
X204100000Y-98340000D02*
G01*
X203620000Y-98340000D01*
X203860000Y-98010000D01*
X204100000Y-98340000D01*
G37*
%TO.C,C13*%
X199940000Y-100427836D02*
X199940000Y-100212164D01*
X200660000Y-100427836D02*
X200660000Y-100212164D01*
%TO.C,R20*%
X177720000Y-82146359D02*
X177720000Y-82453641D01*
X178480000Y-82146359D02*
X178480000Y-82453641D01*
D13*
%TO.C,D1*%
X205950000Y-64075000D02*
G75*
G02*
X205850000Y-64075000I-50000J0D01*
G01*
X205850000Y-64075000D02*
G75*
G02*
X205950000Y-64075000I50000J0D01*
G01*
D12*
%TO.C,C4*%
X149040000Y-78427836D02*
X149040000Y-78212164D01*
X149760000Y-78427836D02*
X149760000Y-78212164D01*
%TO.C,R5*%
X152320000Y-79853641D02*
X152320000Y-79546359D01*
X153080000Y-79853641D02*
X153080000Y-79546359D01*
%TO.C,C29*%
X213540000Y-64027836D02*
X213540000Y-63812164D01*
X214260000Y-64027836D02*
X214260000Y-63812164D01*
%TO.C,C2*%
X144447164Y-83130000D02*
X144662836Y-83130000D01*
X144447164Y-83850000D02*
X144662836Y-83850000D01*
%TO.C,C25*%
X206040000Y-78027836D02*
X206040000Y-77812164D01*
X206760000Y-78027836D02*
X206760000Y-77812164D01*
%TO.C,R18*%
X205863641Y-70320000D02*
X205556359Y-70320000D01*
X205863641Y-71080000D02*
X205556359Y-71080000D01*
%TO.C,R15*%
X201220000Y-63373641D02*
X201220000Y-63066359D01*
X201980000Y-63373641D02*
X201980000Y-63066359D01*
%TO.C,R8*%
X207653641Y-96320000D02*
X207346359Y-96320000D01*
X207653641Y-97080000D02*
X207346359Y-97080000D01*
%TO.C,C30*%
X176040000Y-96627836D02*
X176040000Y-96412164D01*
X176760000Y-96627836D02*
X176760000Y-96412164D01*
%TO.C,R10*%
X224720000Y-83167621D02*
X224720000Y-82832379D01*
X225480000Y-83167621D02*
X225480000Y-82832379D01*
%TO.C,F1*%
X209386252Y-79690000D02*
X206613748Y-79690000D01*
X209386252Y-83110000D02*
X206613748Y-83110000D01*
%TD*%
%LPC*%
%TO.C,JP1*%
G36*
X141200000Y-101350000D02*
G01*
X140900000Y-101350000D01*
X140900000Y-99850000D01*
X141200000Y-99850000D01*
X141200000Y-101350000D01*
G37*
%TD*%
D14*
%TO.C,R6*%
X179700000Y-81780000D03*
X179700000Y-82800000D03*
%TD*%
D15*
%TO.C,J2*%
X214430000Y-87790000D03*
X214430000Y-82010000D03*
D16*
X213310000Y-88100000D03*
X213310000Y-87300000D03*
D17*
X213310000Y-86150000D03*
X213310000Y-85150000D03*
X213310000Y-84650000D03*
X213310000Y-83650000D03*
D16*
X213310000Y-82500000D03*
X213310000Y-81700000D03*
X213310000Y-81700000D03*
X213310000Y-82500000D03*
D17*
X213310000Y-83150000D03*
X213310000Y-84150000D03*
X213310000Y-85650000D03*
X213310000Y-86650000D03*
D16*
X213310000Y-87300000D03*
X213310000Y-88100000D03*
D18*
X213910000Y-89220000D03*
D19*
X218110000Y-89220000D03*
D18*
X213910000Y-80580000D03*
D19*
X218110000Y-80580000D03*
%TD*%
D20*
%TO.C,J4*%
X217575000Y-76450000D03*
D21*
X215575000Y-74850000D03*
D22*
X215575000Y-72350000D03*
%TD*%
D23*
%TO.C,C8*%
X155600000Y-92940000D03*
X155600000Y-92300000D03*
%TD*%
D24*
%TO.C,R2*%
X142910000Y-84990000D03*
X142910000Y-83970000D03*
%TD*%
D25*
%TO.C,C1*%
X144055000Y-85590000D03*
X145015000Y-85590000D03*
%TD*%
D26*
%TO.C,U6*%
X196700000Y-72100000D03*
X196700000Y-71150000D03*
X196700000Y-70200000D03*
X194425000Y-70200000D03*
X194425000Y-72100000D03*
%TD*%
D27*
%TO.C,C28*%
X209100000Y-63720000D03*
X209100000Y-62760000D03*
%TD*%
D28*
%TO.C,JP1*%
X141700000Y-100600000D03*
D29*
X140400000Y-100600000D03*
%TD*%
D23*
%TO.C,C32*%
X193000000Y-72820000D03*
X193000000Y-72180000D03*
%TD*%
D30*
%TO.C,C23*%
X208385000Y-99800000D03*
X207745000Y-99800000D03*
%TD*%
D31*
%TO.C,C27*%
X207500000Y-77420000D03*
X207500000Y-78380000D03*
%TD*%
D24*
%TO.C,R11*%
X204700000Y-66310000D03*
X204700000Y-65290000D03*
%TD*%
D32*
%TO.C,J1*%
X137700000Y-85000000D03*
X137700000Y-89250000D03*
X137700000Y-80750000D03*
%TD*%
D27*
%TO.C,C3*%
X151200000Y-85460000D03*
X151200000Y-84500000D03*
%TD*%
D33*
%TO.C,FL1*%
X210265000Y-84605000D03*
X208955000Y-84605000D03*
X208955000Y-85155000D03*
X210265000Y-85155000D03*
%TD*%
D14*
%TO.C,R22*%
X146400000Y-77900000D03*
X146400000Y-78920000D03*
%TD*%
%TO.C,R17*%
X198500000Y-70190000D03*
X198500000Y-71210000D03*
%TD*%
D24*
%TO.C,R1*%
X141810000Y-85000000D03*
X141810000Y-83980000D03*
%TD*%
D34*
%TO.C,R19*%
X204120000Y-70700000D03*
X203100000Y-70700000D03*
%TD*%
D24*
%TO.C,R14*%
X206000000Y-61220000D03*
X206000000Y-60200000D03*
%TD*%
D31*
%TO.C,C18*%
X174400000Y-69540000D03*
X174400000Y-70500000D03*
%TD*%
D27*
%TO.C,C6*%
X154500000Y-80080000D03*
X154500000Y-79120000D03*
%TD*%
%TO.C,C17*%
X164100000Y-75180000D03*
X164100000Y-74220000D03*
%TD*%
D30*
%TO.C,C24*%
X208475000Y-94300000D03*
X207835000Y-94300000D03*
%TD*%
D35*
%TO.C,U1*%
X146735000Y-85405000D03*
X147235000Y-85405000D03*
X147735000Y-85405000D03*
X148235000Y-85405000D03*
X148235000Y-83560000D03*
X147735000Y-83530000D03*
X147235000Y-83507500D03*
X146735000Y-83490000D03*
D36*
X147485000Y-84467500D03*
%TD*%
D37*
%TO.C,R21*%
X145880000Y-81900000D03*
X146520000Y-81900000D03*
%TD*%
D23*
%TO.C,R16*%
X188000000Y-63770000D03*
X188000000Y-63130000D03*
%TD*%
D38*
%TO.C,J3*%
X184800000Y-71925000D03*
D39*
X182260000Y-71925000D03*
X179720000Y-71925000D03*
X177180000Y-71925000D03*
%TD*%
D40*
%TO.C,U3*%
X158037500Y-95150000D03*
X158037500Y-93250000D03*
X156162500Y-94200000D03*
%TD*%
D24*
%TO.C,R4*%
X150100000Y-85510000D03*
X150100000Y-84490000D03*
%TD*%
D25*
%TO.C,C10*%
X203130000Y-69700000D03*
X204090000Y-69700000D03*
%TD*%
D24*
%TO.C,R13*%
X208500000Y-66500000D03*
X208500000Y-65480000D03*
%TD*%
D41*
%TO.C,R9*%
X225300000Y-87997500D03*
X225300000Y-86802500D03*
%TD*%
D42*
%TO.C,U5*%
X208255000Y-75335000D03*
X208755000Y-75335000D03*
X209255000Y-75335000D03*
X209755000Y-75335000D03*
X210255000Y-75335000D03*
X210255000Y-71035000D03*
X209755000Y-71035000D03*
X209255000Y-71035000D03*
X208755000Y-71035000D03*
X208255000Y-71035000D03*
D43*
X209255000Y-73185000D03*
%TD*%
D44*
%TO.C,J5*%
X145900000Y-94900000D03*
X149800000Y-94900000D03*
X145900000Y-96170000D03*
X149800000Y-96170000D03*
X145900000Y-97440000D03*
X149800000Y-97440000D03*
X145900000Y-98710000D03*
X149800000Y-98710000D03*
X145900000Y-99980000D03*
X149800000Y-99980000D03*
%TD*%
D27*
%TO.C,C9*%
X188300000Y-97000000D03*
X188300000Y-96040000D03*
%TD*%
D23*
%TO.C,C16*%
X165700000Y-76475000D03*
X165700000Y-75835000D03*
%TD*%
D25*
%TO.C,C7*%
X158600000Y-83400000D03*
X159560000Y-83400000D03*
%TD*%
D24*
%TO.C,R12*%
X210800000Y-66800000D03*
X210800000Y-65780000D03*
%TD*%
D45*
%TO.C,SW1*%
X196500000Y-98850000D03*
X188500000Y-98850000D03*
X196500000Y-94350000D03*
X188500000Y-94350000D03*
%TD*%
D46*
%TO.C,C11*%
X156500000Y-91335000D03*
X156500000Y-91975000D03*
%TD*%
D47*
%TO.C,D2*%
X203700000Y-63470000D03*
X203700000Y-62500000D03*
%TD*%
D23*
%TO.C,C12*%
X199000000Y-98165000D03*
X199000000Y-97525000D03*
%TD*%
D27*
%TO.C,C26*%
X176900000Y-66360000D03*
X176900000Y-65400000D03*
%TD*%
D48*
%TO.C,U2*%
X162925000Y-80450000D03*
X162925000Y-80950000D03*
X162925000Y-81450000D03*
X162925000Y-81950000D03*
X162925000Y-82450000D03*
X162925000Y-82950000D03*
X162925000Y-83450000D03*
X162925000Y-83950000D03*
X162925000Y-84450000D03*
X162925000Y-84950000D03*
X162925000Y-85450000D03*
X162925000Y-85950000D03*
X162925000Y-86450000D03*
X162925000Y-86950000D03*
X162925000Y-87450000D03*
X162925000Y-87950000D03*
D49*
X164850000Y-89875000D03*
X165350000Y-89875000D03*
X165850000Y-89875000D03*
X166350000Y-89875000D03*
X166850000Y-89875000D03*
X167350000Y-89875000D03*
X167850000Y-89875000D03*
X168350000Y-89875000D03*
X168850000Y-89875000D03*
X169350000Y-89875000D03*
X169850000Y-89875000D03*
X170350000Y-89875000D03*
X170850000Y-89875000D03*
X171350000Y-89875000D03*
X171850000Y-89875000D03*
X172350000Y-89875000D03*
D48*
X174275000Y-87950000D03*
X174275000Y-87450000D03*
X174275000Y-86950000D03*
X174275000Y-86450000D03*
X174275000Y-85950000D03*
X174275000Y-85450000D03*
X174275000Y-84950000D03*
X174275000Y-84450000D03*
X174275000Y-83950000D03*
X174275000Y-83450000D03*
X174275000Y-82950000D03*
X174275000Y-82450000D03*
X174275000Y-81950000D03*
X174275000Y-81450000D03*
X174275000Y-80950000D03*
X174275000Y-80450000D03*
D49*
X172350000Y-78525000D03*
X171850000Y-78525000D03*
X171350000Y-78525000D03*
X170850000Y-78525000D03*
X170350000Y-78525000D03*
X169850000Y-78525000D03*
X169350000Y-78525000D03*
X168850000Y-78525000D03*
X168350000Y-78525000D03*
X167850000Y-78525000D03*
X167350000Y-78525000D03*
X166850000Y-78525000D03*
X166350000Y-78525000D03*
X165850000Y-78525000D03*
X165350000Y-78525000D03*
X164850000Y-78525000D03*
%TD*%
D45*
%TO.C,SW2*%
X184500000Y-98850000D03*
X176500000Y-98850000D03*
X184500000Y-94350000D03*
X176500000Y-94350000D03*
%TD*%
D50*
%TO.C,R3*%
X150090000Y-83490000D03*
X151110000Y-83490000D03*
%TD*%
D51*
%TO.C,U7*%
X167425000Y-69595000D03*
X167425000Y-70865000D03*
X167425000Y-72135000D03*
X167425000Y-73405000D03*
X172375000Y-73405000D03*
X172375000Y-72135000D03*
X172375000Y-70865000D03*
X172375000Y-69595000D03*
%TD*%
D26*
%TO.C,U4*%
X203547500Y-97450000D03*
X203547500Y-96500000D03*
X203547500Y-95550000D03*
X201272500Y-95550000D03*
X201272500Y-97450000D03*
%TD*%
D27*
%TO.C,C13*%
X200300000Y-100800000D03*
X200300000Y-99840000D03*
%TD*%
D14*
%TO.C,R20*%
X178100000Y-81790000D03*
X178100000Y-82810000D03*
%TD*%
D47*
%TO.C,D1*%
X205900000Y-63470000D03*
X205900000Y-62500000D03*
%TD*%
D27*
%TO.C,C4*%
X149400000Y-78800000D03*
X149400000Y-77840000D03*
%TD*%
D23*
%TO.C,C31*%
X192700000Y-70765000D03*
X192700000Y-70125000D03*
%TD*%
%TO.C,C5*%
X149100000Y-80420000D03*
X149100000Y-79780000D03*
%TD*%
D24*
%TO.C,R5*%
X152700000Y-80210000D03*
X152700000Y-79190000D03*
%TD*%
D27*
%TO.C,C29*%
X213900000Y-64400000D03*
X213900000Y-63440000D03*
%TD*%
D25*
%TO.C,C2*%
X144075000Y-83490000D03*
X145035000Y-83490000D03*
%TD*%
D23*
%TO.C,C14*%
X160700000Y-96140000D03*
X160700000Y-95500000D03*
%TD*%
D27*
%TO.C,C25*%
X206400000Y-78400000D03*
X206400000Y-77440000D03*
%TD*%
D34*
%TO.C,R18*%
X206220000Y-70700000D03*
X205200000Y-70700000D03*
%TD*%
D24*
%TO.C,R15*%
X201600000Y-63730000D03*
X201600000Y-62710000D03*
%TD*%
D34*
%TO.C,R8*%
X208010000Y-96700000D03*
X206990000Y-96700000D03*
%TD*%
D27*
%TO.C,C30*%
X176400000Y-97000000D03*
X176400000Y-96040000D03*
%TD*%
D41*
%TO.C,R10*%
X225100000Y-83597500D03*
X225100000Y-82402500D03*
%TD*%
D52*
%TO.C,F1*%
X210225000Y-81400000D03*
X205775000Y-81400000D03*
%TD*%
D23*
%TO.C,C15*%
X160300000Y-75520000D03*
X160300000Y-74880000D03*
%TD*%
%LPD*%
M02*
