%TF.GenerationSoftware,KiCad,Pcbnew,9.0.9*%
%TF.CreationDate,2026-08-02T20:54:00+02:00*%
%TF.ProjectId,ad8317_powermeter,61643833-3137-45f7-906f-7765726d6574,A*%
%TF.SameCoordinates,Original*%
%TF.FileFunction,Copper,L1,Top*%
%TF.FilePolarity,Positive*%
%FSLAX46Y46*%
G04 Gerber Fmt 4.6, Leading zero omitted, Abs format (unit mm)*
G04 Created by KiCad (PCBNEW 9.0.9) date 2026-08-02 20:54:00*
%MOMM*%
%LPD*%
G01*
G04 APERTURE LIST*
G04 Aperture macros list*
%AMRoundRect*
0 Rectangle with rounded corners*
0 $1 Rounding radius*
0 $2 $3 $4 $5 $6 $7 $8 $9 X,Y pos of 4 corners*
0 Add a 4 corners polygon primitive as box body*
4,1,4,$2,$3,$4,$5,$6,$7,$8,$9,$2,$3,0*
0 Add four circle primitives for the rounded corners*
1,1,$1+$1,$2,$3*
1,1,$1+$1,$4,$5*
1,1,$1+$1,$6,$7*
1,1,$1+$1,$8,$9*
0 Add four rect primitives between the rounded corners*
20,1,$1+$1,$2,$3,$4,$5,0*
20,1,$1+$1,$4,$5,$6,$7,0*
20,1,$1+$1,$6,$7,$8,$9,0*
20,1,$1+$1,$8,$9,$2,$3,0*%
%AMFreePoly0*
4,1,23,0.500000,-0.750000,0.000000,-0.750000,0.000000,-0.745722,-0.065263,-0.745722,-0.191342,-0.711940,-0.304381,-0.646677,-0.396677,-0.554381,-0.461940,-0.441342,-0.495722,-0.315263,-0.495722,-0.250000,-0.500000,-0.250000,-0.500000,0.250000,-0.495722,0.250000,-0.495722,0.315263,-0.461940,0.441342,-0.396677,0.554381,-0.304381,0.646677,-0.191342,0.711940,-0.065263,0.745722,0.000000,0.745722,
0.000000,0.750000,0.500000,0.750000,0.500000,-0.750000,0.500000,-0.750000,$1*%
%AMFreePoly1*
4,1,23,0.000000,0.745722,0.065263,0.745722,0.191342,0.711940,0.304381,0.646677,0.396677,0.554381,0.461940,0.441342,0.495722,0.315263,0.495722,0.250000,0.500000,0.250000,0.500000,-0.250000,0.495722,-0.250000,0.495722,-0.315263,0.461940,-0.441342,0.396677,-0.554381,0.304381,-0.646677,0.191342,-0.711940,0.065263,-0.745722,0.000000,-0.745722,0.000000,-0.750000,-0.500000,-0.750000,
-0.500000,0.750000,0.000000,0.750000,0.000000,0.745722,0.000000,0.745722,$1*%
G04 Aperture macros list end*
%TA.AperFunction,SMDPad,CuDef*%
%ADD10RoundRect,0.135000X-0.185000X0.135000X-0.185000X-0.135000X0.185000X-0.135000X0.185000X0.135000X0*%
%TD*%
%TA.AperFunction,SMDPad,CuDef*%
%ADD11R,1.240000X0.600000*%
%TD*%
%TA.AperFunction,SMDPad,CuDef*%
%ADD12R,1.240000X0.300000*%
%TD*%
%TA.AperFunction,HeatsinkPad*%
%ADD13O,2.100000X1.000000*%
%TD*%
%TA.AperFunction,HeatsinkPad*%
%ADD14O,1.800000X1.000000*%
%TD*%
%TA.AperFunction,ComponentPad*%
%ADD15RoundRect,0.250000X0.750000X-0.600000X0.750000X0.600000X-0.750000X0.600000X-0.750000X-0.600000X0*%
%TD*%
%TA.AperFunction,ComponentPad*%
%ADD16O,2.000000X1.700000*%
%TD*%
%TA.AperFunction,SMDPad,CuDef*%
%ADD17RoundRect,0.100000X0.100000X-0.130000X0.100000X0.130000X-0.100000X0.130000X-0.100000X-0.130000X0*%
%TD*%
%TA.AperFunction,SMDPad,CuDef*%
%ADD18RoundRect,0.135000X0.185000X-0.135000X0.185000X0.135000X-0.185000X0.135000X-0.185000X-0.135000X0*%
%TD*%
%TA.AperFunction,SMDPad,CuDef*%
%ADD19RoundRect,0.140000X-0.140000X-0.170000X0.140000X-0.170000X0.140000X0.170000X-0.140000X0.170000X0*%
%TD*%
%TA.AperFunction,SMDPad,CuDef*%
%ADD20RoundRect,0.150000X0.512500X0.150000X-0.512500X0.150000X-0.512500X-0.150000X0.512500X-0.150000X0*%
%TD*%
%TA.AperFunction,SMDPad,CuDef*%
%ADD21RoundRect,0.140000X0.170000X-0.140000X0.170000X0.140000X-0.170000X0.140000X-0.170000X-0.140000X0*%
%TD*%
%TA.AperFunction,SMDPad,CuDef*%
%ADD22FreePoly0,180.000000*%
%TD*%
%TA.AperFunction,SMDPad,CuDef*%
%ADD23FreePoly1,180.000000*%
%TD*%
%TA.AperFunction,SMDPad,CuDef*%
%ADD24RoundRect,0.100000X0.130000X0.100000X-0.130000X0.100000X-0.130000X-0.100000X0.130000X-0.100000X0*%
%TD*%
%TA.AperFunction,SMDPad,CuDef*%
%ADD25RoundRect,0.140000X-0.170000X0.140000X-0.170000X-0.140000X0.170000X-0.140000X0.170000X0.140000X0*%
%TD*%
%TA.AperFunction,SMDPad,CuDef*%
%ADD26R,5.080000X1.500000*%
%TD*%
%TA.AperFunction,SMDPad,CuDef*%
%ADD27RoundRect,0.015000X-0.275000X0.135000X-0.275000X-0.135000X0.275000X-0.135000X0.275000X0.135000X0*%
%TD*%
%TA.AperFunction,SMDPad,CuDef*%
%ADD28RoundRect,0.135000X0.135000X0.185000X-0.135000X0.185000X-0.135000X-0.185000X0.135000X-0.185000X0*%
%TD*%
%TA.AperFunction,SMDPad,CuDef*%
%ADD29RoundRect,0.062500X0.062500X-0.375000X0.062500X0.375000X-0.062500X0.375000X-0.062500X-0.375000X0*%
%TD*%
%TA.AperFunction,HeatsinkPad*%
%ADD30R,2.340000X0.500000*%
%TD*%
%TA.AperFunction,SMDPad,CuDef*%
%ADD31RoundRect,0.100000X-0.130000X-0.100000X0.130000X-0.100000X0.130000X0.100000X-0.130000X0.100000X0*%
%TD*%
%TA.AperFunction,ComponentPad*%
%ADD32R,1.700000X1.700000*%
%TD*%
%TA.AperFunction,ComponentPad*%
%ADD33C,1.700000*%
%TD*%
%TA.AperFunction,SMDPad,CuDef*%
%ADD34RoundRect,0.150000X0.587500X0.150000X-0.587500X0.150000X-0.587500X-0.150000X0.587500X-0.150000X0*%
%TD*%
%TA.AperFunction,SMDPad,CuDef*%
%ADD35RoundRect,0.160000X0.160000X-0.197500X0.160000X0.197500X-0.160000X0.197500X-0.160000X-0.197500X0*%
%TD*%
%TA.AperFunction,SMDPad,CuDef*%
%ADD36RoundRect,0.075000X0.075000X-0.650000X0.075000X0.650000X-0.075000X0.650000X-0.075000X-0.650000X0*%
%TD*%
%TA.AperFunction,HeatsinkPad*%
%ADD37C,0.600000*%
%TD*%
%TA.AperFunction,HeatsinkPad*%
%ADD38R,1.890000X1.830000*%
%TD*%
%TA.AperFunction,SMDPad,CuDef*%
%ADD39R,2.400000X0.740000*%
%TD*%
%TA.AperFunction,SMDPad,CuDef*%
%ADD40R,1.600000X1.400000*%
%TD*%
%TA.AperFunction,SMDPad,CuDef*%
%ADD41RoundRect,0.100000X-0.100000X0.130000X-0.100000X-0.130000X0.100000X-0.130000X0.100000X0.130000X0*%
%TD*%
%TA.AperFunction,SMDPad,CuDef*%
%ADD42RoundRect,0.147500X0.172500X-0.147500X0.172500X0.147500X-0.172500X0.147500X-0.172500X-0.147500X0*%
%TD*%
%TA.AperFunction,SMDPad,CuDef*%
%ADD43RoundRect,0.075000X-0.700000X-0.075000X0.700000X-0.075000X0.700000X0.075000X-0.700000X0.075000X0*%
%TD*%
%TA.AperFunction,SMDPad,CuDef*%
%ADD44RoundRect,0.075000X-0.075000X-0.700000X0.075000X-0.700000X0.075000X0.700000X-0.075000X0.700000X0*%
%TD*%
%TA.AperFunction,SMDPad,CuDef*%
%ADD45RoundRect,0.135000X-0.135000X-0.185000X0.135000X-0.185000X0.135000X0.185000X-0.135000X0.185000X0*%
%TD*%
%TA.AperFunction,SMDPad,CuDef*%
%ADD46RoundRect,0.150000X-0.825000X-0.150000X0.825000X-0.150000X0.825000X0.150000X-0.825000X0.150000X0*%
%TD*%
%TA.AperFunction,SMDPad,CuDef*%
%ADD47RoundRect,0.250000X0.400000X1.450000X-0.400000X1.450000X-0.400000X-1.450000X0.400000X-1.450000X0*%
%TD*%
%TA.AperFunction,Conductor*%
%ADD48C,0.250000*%
%TD*%
%TA.AperFunction,Conductor*%
%ADD49C,0.500000*%
%TD*%
G04 APERTURE END LIST*
D10*
%TO.P,R6,1*%
%TO.N,/MCU/+3V3*%
X179700000Y-81780000D03*
%TO.P,R6,2*%
%TO.N,/MCU/I2C_SCL*%
X179700000Y-82800000D03*
%TD*%
D11*
%TO.P,J2,A1,GND*%
%TO.N,GND*%
X213310000Y-88100000D03*
%TO.P,J2,A4,VBUS*%
%TO.N,Net-(F1-Pad1)*%
X213310000Y-87300000D03*
D12*
%TO.P,J2,A5,CC1*%
%TO.N,Net-(J2-CC1)*%
X213310000Y-86150000D03*
%TO.P,J2,A6,D+*%
%TO.N,Net-(FL1-Pad4)*%
X213310000Y-85150000D03*
%TO.P,J2,A7,D-*%
%TO.N,Net-(FL1-Pad1)*%
X213310000Y-84650000D03*
%TO.P,J2,A8,SBU1*%
%TO.N,unconnected-(J2-SBU1-PadA8)*%
X213310000Y-83650000D03*
D11*
%TO.P,J2,A9,VBUS*%
%TO.N,Net-(F1-Pad1)*%
X213310000Y-82500000D03*
%TO.P,J2,A12,GND*%
%TO.N,GND*%
X213310000Y-81700000D03*
%TO.P,J2,B1,GND*%
X213310000Y-81700000D03*
%TO.P,J2,B4,VBUS*%
%TO.N,Net-(F1-Pad1)*%
X213310000Y-82500000D03*
D12*
%TO.P,J2,B5,CC2*%
%TO.N,Net-(J2-CC2)*%
X213310000Y-83150000D03*
%TO.P,J2,B6,D+*%
%TO.N,Net-(FL1-Pad4)*%
X213310000Y-84150000D03*
%TO.P,J2,B7,D-*%
%TO.N,Net-(FL1-Pad1)*%
X213310000Y-85650000D03*
%TO.P,J2,B8,SBU2*%
%TO.N,unconnected-(J2-SBU2-PadB8)*%
X213310000Y-86650000D03*
D11*
%TO.P,J2,B9,VBUS*%
%TO.N,Net-(F1-Pad1)*%
X213310000Y-87300000D03*
%TO.P,J2,B12,GND*%
%TO.N,GND*%
X213310000Y-88100000D03*
D13*
%TO.P,J2,S1,SHIELD*%
X213910000Y-89220000D03*
D14*
X218110000Y-89220000D03*
D13*
X213910000Y-80580000D03*
D14*
X218110000Y-80580000D03*
%TD*%
D15*
%TO.P,J4,1,Pin_1*%
%TO.N,GND*%
X215575000Y-74850000D03*
D16*
%TO.P,J4,2,Pin_2*%
%TO.N,/MCU/VBAT*%
X215575000Y-72350000D03*
%TD*%
D17*
%TO.P,C8,1*%
%TO.N,GND*%
X155600000Y-92940000D03*
%TO.P,C8,2*%
%TO.N,/MCU/VREF*%
X155600000Y-92300000D03*
%TD*%
D18*
%TO.P,R2,1*%
%TO.N,Net-(J1-In)*%
X142910000Y-84990000D03*
%TO.P,R2,2*%
%TO.N,GND*%
X142910000Y-83970000D03*
%TD*%
D19*
%TO.P,C1,1*%
%TO.N,Net-(J1-In)*%
X144055000Y-85590000D03*
%TO.P,C1,2*%
%TO.N,Net-(U1-INHI)*%
X145015000Y-85590000D03*
%TD*%
D20*
%TO.P,U6,1,VIN*%
%TO.N,/MCU/VBAT*%
X196700000Y-72100000D03*
%TO.P,U6,2,GND*%
%TO.N,GND*%
X196700000Y-71150000D03*
%TO.P,U6,3,EN*%
%TO.N,Net-(U6-EN)*%
X196700000Y-70200000D03*
%TO.P,U6,4,NC*%
%TO.N,unconnected-(U6-NC-Pad4)*%
X194425000Y-70200000D03*
%TO.P,U6,5,VOUT*%
%TO.N,/MCU/+3V3*%
X194425000Y-72100000D03*
%TD*%
D21*
%TO.P,C28,1*%
%TO.N,+5V*%
X209100000Y-63720000D03*
%TO.P,C28,2*%
%TO.N,GND*%
X209100000Y-62760000D03*
%TD*%
D22*
%TO.P,JP1,1,A*%
%TO.N,Net-(J5-VTarget)*%
X141700000Y-100600000D03*
D23*
%TO.P,JP1,2,B*%
%TO.N,/MCU/+3V3*%
X140400000Y-100600000D03*
%TD*%
D17*
%TO.P,C32,1*%
%TO.N,GND*%
X193000000Y-72820000D03*
%TO.P,C32,2*%
%TO.N,/MCU/+3V3*%
X193000000Y-72180000D03*
%TD*%
D24*
%TO.P,C23,1*%
%TO.N,GND*%
X208385000Y-99800000D03*
%TO.P,C23,2*%
%TO.N,/MCU/VBAT*%
X207745000Y-99800000D03*
%TD*%
D25*
%TO.P,C27,1*%
%TO.N,+5V*%
X207500000Y-77420000D03*
%TO.P,C27,2*%
%TO.N,GND*%
X207500000Y-78380000D03*
%TD*%
D18*
%TO.P,R11,1*%
%TO.N,Net-(U5-ISET)*%
X204700000Y-66310000D03*
%TO.P,R11,2*%
%TO.N,GND*%
X204700000Y-65290000D03*
%TD*%
D26*
%TO.P,J1,1,In*%
%TO.N,Net-(J1-In)*%
X137700000Y-85000000D03*
%TO.P,J1,2,Ext*%
%TO.N,GND*%
X137700000Y-89250000D03*
X137700000Y-80750000D03*
%TD*%
D21*
%TO.P,C3,1*%
%TO.N,GND*%
X151200000Y-85460000D03*
%TO.P,C3,2*%
%TO.N,/MCU/VDET*%
X151200000Y-84500000D03*
%TD*%
D27*
%TO.P,FL1,1,1*%
%TO.N,Net-(FL1-Pad1)*%
X210265000Y-84605000D03*
%TO.P,FL1,2,2*%
%TO.N,/MCU/USB_DM*%
X208955000Y-84605000D03*
%TO.P,FL1,3,3*%
%TO.N,/MCU/USB_DP*%
X208955000Y-85155000D03*
%TO.P,FL1,4,4*%
%TO.N,Net-(FL1-Pad4)*%
X210265000Y-85155000D03*
%TD*%
D10*
%TO.P,R22,1*%
%TO.N,/MCU/+3V3_A*%
X146400000Y-77900000D03*
%TO.P,R22,2*%
%TO.N,Net-(U2-PB2)*%
X146400000Y-78920000D03*
%TD*%
%TO.P,R17,1*%
%TO.N,Net-(U6-EN)*%
X198500000Y-70190000D03*
%TO.P,R17,2*%
%TO.N,GND*%
X198500000Y-71210000D03*
%TD*%
D18*
%TO.P,R1,1*%
%TO.N,Net-(J1-In)*%
X141810000Y-85000000D03*
%TO.P,R1,2*%
%TO.N,GND*%
X141810000Y-83980000D03*
%TD*%
D28*
%TO.P,R19,1*%
%TO.N,Net-(U2-PB1)*%
X204120000Y-70700000D03*
%TO.P,R19,2*%
%TO.N,GND*%
X203100000Y-70700000D03*
%TD*%
D18*
%TO.P,R14,1*%
%TO.N,Net-(D1-A)*%
X206000000Y-61220000D03*
%TO.P,R14,2*%
%TO.N,/MCU/VBAT*%
X206000000Y-60200000D03*
%TD*%
D25*
%TO.P,C18,1*%
%TO.N,/MCU/+3V3*%
X174400000Y-69540000D03*
%TO.P,C18,2*%
%TO.N,GND*%
X174400000Y-70500000D03*
%TD*%
D21*
%TO.P,C6,1*%
%TO.N,GND*%
X154500000Y-80080000D03*
%TO.P,C6,2*%
%TO.N,Net-(U1-CLPF)*%
X154500000Y-79120000D03*
%TD*%
%TO.P,C17,1*%
%TO.N,GND*%
X164100000Y-75180000D03*
%TO.P,C17,2*%
%TO.N,/MCU/+3V3*%
X164100000Y-74220000D03*
%TD*%
D24*
%TO.P,C24,1*%
%TO.N,GND*%
X208475000Y-94300000D03*
%TO.P,C24,2*%
%TO.N,/MCU/+3V3_A*%
X207835000Y-94300000D03*
%TD*%
D29*
%TO.P,U1,1,INHI*%
%TO.N,Net-(U1-INHI)*%
X146735000Y-85405000D03*
%TO.P,U1,2,COMM*%
%TO.N,GND*%
X147235000Y-85405000D03*
%TO.P,U1,3,CLPF*%
%TO.N,Net-(U1-CLPF)*%
X147735000Y-85405000D03*
%TO.P,U1,4,VSET*%
%TO.N,Net-(U1-VSET)*%
X148235000Y-85405000D03*
%TO.P,U1,5,VOUT*%
%TO.N,Net-(U1-VOUT)*%
X148235000Y-83560000D03*
%TO.P,U1,6,TADJ*%
%TO.N,Net-(U1-TADJ)*%
X147735000Y-83530000D03*
%TO.P,U1,7,VPOS*%
%TO.N,/MCU/+3V3_A*%
X147235000Y-83507500D03*
%TO.P,U1,8,INLO*%
%TO.N,Net-(U1-INLO)*%
X146735000Y-83490000D03*
D30*
%TO.P,U1,9*%
%TO.N,N/C*%
X147485000Y-84467500D03*
%TD*%
D31*
%TO.P,R21,1*%
%TO.N,GND*%
X145880000Y-81900000D03*
%TO.P,R21,2*%
%TO.N,Net-(U2-PB2)*%
X146520000Y-81900000D03*
%TD*%
D17*
%TO.P,R16,1*%
%TO.N,GND*%
X188000000Y-63770000D03*
%TO.P,R16,2*%
%TO.N,Net-(U5-TS)*%
X188000000Y-63130000D03*
%TD*%
D32*
%TO.P,J3,1,Pin_1*%
%TO.N,/MCU/I2C_SDA*%
X184800000Y-71925000D03*
D33*
%TO.P,J3,2,Pin_2*%
%TO.N,/MCU/I2C_SCL*%
X182260000Y-71925000D03*
%TO.P,J3,3,Pin_3*%
%TO.N,GND*%
X179720000Y-71925000D03*
%TO.P,J3,4,Pin_4*%
%TO.N,/MCU/+3V3*%
X177180000Y-71925000D03*
%TD*%
D34*
%TO.P,U3,1,IN*%
%TO.N,/MCU/+3V3_A*%
X158037500Y-95150000D03*
%TO.P,U3,2,OUT*%
%TO.N,/MCU/VREF*%
X158037500Y-93250000D03*
%TO.P,U3,3,GND*%
%TO.N,GND*%
X156162500Y-94200000D03*
%TD*%
D18*
%TO.P,R4,1*%
%TO.N,Net-(U1-VSET)*%
X150100000Y-85510000D03*
%TO.P,R4,2*%
%TO.N,Net-(U1-VOUT)*%
X150100000Y-84490000D03*
%TD*%
D19*
%TO.P,C10,1*%
%TO.N,GND*%
X203130000Y-69700000D03*
%TO.P,C10,2*%
%TO.N,Net-(U2-PB1)*%
X204090000Y-69700000D03*
%TD*%
D18*
%TO.P,R13,1*%
%TO.N,+5V*%
X208500000Y-66500000D03*
%TO.P,R13,2*%
%TO.N,Net-(U5-ISET2)*%
X208500000Y-65480000D03*
%TD*%
D35*
%TO.P,R9,1*%
%TO.N,Net-(J2-CC1)*%
X225300000Y-87997500D03*
%TO.P,R9,2*%
%TO.N,GND*%
X225300000Y-86802500D03*
%TD*%
D36*
%TO.P,U5,1,IN*%
%TO.N,+5V*%
X208255000Y-75335000D03*
%TO.P,U5,2,ISET*%
%TO.N,Net-(U5-ISET)*%
X208755000Y-75335000D03*
%TO.P,U5,3,VSS*%
%TO.N,GND*%
X209255000Y-75335000D03*
%TO.P,U5,4,PRETERM*%
%TO.N,Net-(U5-PRETERM)*%
X209755000Y-75335000D03*
%TO.P,U5,5,~{PG}*%
%TO.N,Net-(D1-K)*%
X210255000Y-75335000D03*
%TO.P,U5,6,NC*%
%TO.N,unconnected-(U5-NC-Pad6)*%
X210255000Y-71035000D03*
%TO.P,U5,7,ISET2*%
%TO.N,Net-(U5-ISET2)*%
X209755000Y-71035000D03*
%TO.P,U5,8,~{CHG}*%
%TO.N,/Power_Management/CHG_STAT*%
X209255000Y-71035000D03*
%TO.P,U5,9,TS*%
%TO.N,Net-(U5-TS)*%
X208755000Y-71035000D03*
%TO.P,U5,10,OUT*%
%TO.N,/MCU/VBAT*%
X208255000Y-71035000D03*
D37*
%TO.P,U5,11,VSS*%
%TO.N,GND*%
X208610000Y-73800000D03*
X209900000Y-73800000D03*
D38*
X209255000Y-73185000D03*
D37*
X208610000Y-72570000D03*
X209900000Y-72570000D03*
%TD*%
D39*
%TO.P,J5,1,VTref*%
%TO.N,/MCU/+3V3*%
X145900000Y-94900000D03*
%TO.P,J5,2,SWDIO/TMS*%
%TO.N,/MCU/JTAG_TMS*%
X149800000Y-94900000D03*
%TO.P,J5,3,GND*%
%TO.N,GND*%
X145900000Y-96170000D03*
%TO.P,J5,4,SWCLK/TCK*%
%TO.N,/MCU/JTAG_TCK*%
X149800000Y-96170000D03*
%TO.P,J5,5,VCOM_TX*%
%TO.N,/MCU/UART_TX*%
X145900000Y-97440000D03*
%TO.P,J5,6,SWO/TDO*%
%TO.N,/MCU/JTAG_TDO*%
X149800000Y-97440000D03*
%TO.P,J5,7,VCOM_RX*%
%TO.N,/MCU/UART_RX*%
X145900000Y-98710000D03*
%TO.P,J5,8,NC/TDI*%
%TO.N,/MCU/JTAG_TDI*%
X149800000Y-98710000D03*
%TO.P,J5,9,VTarget*%
%TO.N,Net-(J5-VTarget)*%
X145900000Y-99980000D03*
%TO.P,J5,10,~{RESET}*%
%TO.N,/MCU/NRST*%
X149800000Y-99980000D03*
%TD*%
D21*
%TO.P,C9,1*%
%TO.N,GND*%
X188300000Y-97000000D03*
%TO.P,C9,2*%
%TO.N,Net-(U2-PC8)*%
X188300000Y-96040000D03*
%TD*%
D17*
%TO.P,C16,1*%
%TO.N,GND*%
X165700000Y-76475000D03*
%TO.P,C16,2*%
%TO.N,/MCU/+3V3*%
X165700000Y-75835000D03*
%TD*%
D19*
%TO.P,C7,1*%
%TO.N,GND*%
X158600000Y-83400000D03*
%TO.P,C7,2*%
%TO.N,/MCU/NRST*%
X159560000Y-83400000D03*
%TD*%
D18*
%TO.P,R12,1*%
%TO.N,GND*%
X210800000Y-66800000D03*
%TO.P,R12,2*%
%TO.N,Net-(U5-PRETERM)*%
X210800000Y-65780000D03*
%TD*%
D40*
%TO.P,SW1,1,1*%
%TO.N,GND*%
X196500000Y-98850000D03*
X188500000Y-98850000D03*
%TO.P,SW1,2,2*%
%TO.N,Net-(U2-PC8)*%
X196500000Y-94350000D03*
X188500000Y-94350000D03*
%TD*%
D41*
%TO.P,C11,1*%
%TO.N,GND*%
X156500000Y-91335000D03*
%TO.P,C11,2*%
%TO.N,/MCU/VREF*%
X156500000Y-91975000D03*
%TD*%
D42*
%TO.P,D2,1,K*%
%TO.N,/Power_Management/CHG_STAT*%
X203700000Y-63470000D03*
%TO.P,D2,2,A*%
%TO.N,Net-(D2-A)*%
X203700000Y-62500000D03*
%TD*%
D17*
%TO.P,C12,1*%
%TO.N,GND*%
X199000000Y-98165000D03*
%TO.P,C12,2*%
%TO.N,/MCU/+3V3_A*%
X199000000Y-97525000D03*
%TD*%
D21*
%TO.P,C26,1*%
%TO.N,GND*%
X176900000Y-66360000D03*
%TO.P,C26,2*%
%TO.N,/MCU/+3V3*%
X176900000Y-65400000D03*
%TD*%
D43*
%TO.P,U2,1,VBAT*%
%TO.N,/MCU/+3V3*%
X162925000Y-80450000D03*
%TO.P,U2,2,PC13*%
%TO.N,unconnected-(U2-PC13-Pad2)*%
X162925000Y-80950000D03*
%TO.P,U2,3,PC14*%
%TO.N,unconnected-(U2-PC14-Pad3)*%
X162925000Y-81450000D03*
%TO.P,U2,4,PC15*%
%TO.N,unconnected-(U2-PC15-Pad4)*%
X162925000Y-81950000D03*
%TO.P,U2,5,PF0*%
%TO.N,unconnected-(U2-PF0-Pad5)*%
X162925000Y-82450000D03*
%TO.P,U2,6,PF1*%
%TO.N,unconnected-(U2-PF1-Pad6)*%
X162925000Y-82950000D03*
%TO.P,U2,7,NRST*%
%TO.N,/MCU/NRST*%
X162925000Y-83450000D03*
%TO.P,U2,8,PC0*%
%TO.N,/MCU/ANALOG_PWR*%
X162925000Y-83950000D03*
%TO.P,U2,9,PC1*%
%TO.N,/MCU/CHG_STAT*%
X162925000Y-84450000D03*
%TO.P,U2,10,PC2*%
%TO.N,unconnected-(U2-PC2-Pad10)*%
X162925000Y-84950000D03*
%TO.P,U2,11,PC3*%
%TO.N,unconnected-(U2-PC3-Pad11)*%
X162925000Y-85450000D03*
%TO.P,U2,12,VSSA*%
%TO.N,GND*%
X162925000Y-85950000D03*
%TO.P,U2,13,VDDA*%
%TO.N,/MCU/+3V3_A*%
X162925000Y-86450000D03*
%TO.P,U2,14,PA0*%
%TO.N,unconnected-(U2-PA0-Pad14)*%
X162925000Y-86950000D03*
%TO.P,U2,15,PA1*%
%TO.N,unconnected-(U2-PA1-Pad15)*%
X162925000Y-87450000D03*
%TO.P,U2,16,PA2*%
%TO.N,unconnected-(U2-PA2-Pad16)*%
X162925000Y-87950000D03*
D44*
%TO.P,U2,17,VREF+*%
%TO.N,/MCU/VREF*%
X164850000Y-89875000D03*
%TO.P,U2,18,PA3*%
%TO.N,/MCU/JTAG_TDO*%
X165350000Y-89875000D03*
%TO.P,U2,19,VDD*%
%TO.N,/MCU/+3V3*%
X165850000Y-89875000D03*
%TO.P,U2,20,PA4*%
%TO.N,unconnected-(U2-PA4-Pad20)*%
X166350000Y-89875000D03*
%TO.P,U2,21,PA5*%
%TO.N,unconnected-(U2-PA5-Pad21)*%
X166850000Y-89875000D03*
%TO.P,U2,22,PA6*%
%TO.N,unconnected-(U2-PA6-Pad22)*%
X167350000Y-89875000D03*
%TO.P,U2,23,PA7*%
%TO.N,unconnected-(U2-PA7-Pad23)*%
X167850000Y-89875000D03*
%TO.P,U2,24,PC4*%
%TO.N,/MCU/UART_RX*%
X168350000Y-89875000D03*
%TO.P,U2,25,PC5*%
%TO.N,/MCU/UART_TX*%
X168850000Y-89875000D03*
%TO.P,U2,26,PB0*%
%TO.N,/MCU/VDET*%
X169350000Y-89875000D03*
%TO.P,U2,27,PB1*%
%TO.N,Net-(U2-PB1)*%
X169850000Y-89875000D03*
%TO.P,U2,28,PB2*%
%TO.N,Net-(U2-PB2)*%
X170350000Y-89875000D03*
%TO.P,U2,29,PE8*%
%TO.N,unconnected-(U2-PE8-Pad29)*%
X170850000Y-89875000D03*
%TO.P,U2,30,PE9*%
%TO.N,unconnected-(U2-PE9-Pad30)*%
X171350000Y-89875000D03*
%TO.P,U2,31,VSSSD*%
%TO.N,GND*%
X171850000Y-89875000D03*
%TO.P,U2,32,VDDSD*%
%TO.N,/MCU/+3V3*%
X172350000Y-89875000D03*
D43*
%TO.P,U2,33,VREFSD+*%
%TO.N,/MCU/VREF*%
X174275000Y-87950000D03*
%TO.P,U2,34,PB14*%
%TO.N,unconnected-(U2-PB14-Pad34)*%
X174275000Y-87450000D03*
%TO.P,U2,35,PB15*%
%TO.N,unconnected-(U2-PB15-Pad35)*%
X174275000Y-86950000D03*
%TO.P,U2,36,PD8*%
%TO.N,unconnected-(U2-PD8-Pad36)*%
X174275000Y-86450000D03*
%TO.P,U2,37,PC6*%
%TO.N,unconnected-(U2-PC6-Pad37)*%
X174275000Y-85950000D03*
%TO.P,U2,38,PC7*%
%TO.N,unconnected-(U2-PC7-Pad38)*%
X174275000Y-85450000D03*
%TO.P,U2,39,PC8*%
%TO.N,Net-(U2-PC8)*%
X174275000Y-84950000D03*
%TO.P,U2,40,PC9*%
%TO.N,Net-(U2-PC9)*%
X174275000Y-84450000D03*
%TO.P,U2,41,PA8*%
%TO.N,unconnected-(U2-PA8-Pad41)*%
X174275000Y-83950000D03*
%TO.P,U2,42,PA9*%
%TO.N,/MCU/I2C_SCL*%
X174275000Y-83450000D03*
%TO.P,U2,43,PA10*%
%TO.N,/MCU/I2C_SDA*%
X174275000Y-82950000D03*
%TO.P,U2,44,PA11*%
%TO.N,/MCU/USB_DM*%
X174275000Y-82450000D03*
%TO.P,U2,45,PA12*%
%TO.N,/MCU/USB_DP*%
X174275000Y-81950000D03*
%TO.P,U2,46,PA13*%
%TO.N,/MCU/JTAG_TMS*%
X174275000Y-81450000D03*
%TO.P,U2,47,PF6*%
%TO.N,unconnected-(U2-PF6-Pad47)*%
X174275000Y-80950000D03*
%TO.P,U2,48,PF7*%
%TO.N,unconnected-(U2-PF7-Pad48)*%
X174275000Y-80450000D03*
D44*
%TO.P,U2,49,PA14*%
%TO.N,/MCU/JTAG_TCK*%
X172350000Y-78525000D03*
%TO.P,U2,50,PA15*%
%TO.N,/MCU/JTAG_TDI*%
X171850000Y-78525000D03*
%TO.P,U2,51,PC10*%
%TO.N,unconnected-(U2-PC10-Pad51)*%
X171350000Y-78525000D03*
%TO.P,U2,52,PC11*%
%TO.N,unconnected-(U2-PC11-Pad52)*%
X170850000Y-78525000D03*
%TO.P,U2,53,PC12*%
%TO.N,unconnected-(U2-PC12-Pad53)*%
X170350000Y-78525000D03*
%TO.P,U2,54,PD2*%
%TO.N,unconnected-(U2-PD2-Pad54)*%
X169850000Y-78525000D03*
%TO.P,U2,55,PB3*%
%TO.N,unconnected-(U2-PB3-Pad55)*%
X169350000Y-78525000D03*
%TO.P,U2,56,PB4*%
%TO.N,unconnected-(U2-PB4-Pad56)*%
X168850000Y-78525000D03*
%TO.P,U2,57,PB5*%
%TO.N,unconnected-(U2-PB5-Pad57)*%
X168350000Y-78525000D03*
%TO.P,U2,58,PB6*%
%TO.N,unconnected-(U2-PB6-Pad58)*%
X167850000Y-78525000D03*
%TO.P,U2,59,PB7*%
%TO.N,unconnected-(U2-PB7-Pad59)*%
X167350000Y-78525000D03*
%TO.P,U2,60,BOOT0*%
%TO.N,unconnected-(U2-BOOT0-Pad60)*%
X166850000Y-78525000D03*
%TO.P,U2,61,PB8*%
%TO.N,unconnected-(U2-PB8-Pad61)*%
X166350000Y-78525000D03*
%TO.P,U2,62,PB9*%
%TO.N,unconnected-(U2-PB9-Pad62)*%
X165850000Y-78525000D03*
%TO.P,U2,63,VSS*%
%TO.N,GND*%
X165350000Y-78525000D03*
%TO.P,U2,64,VDD*%
%TO.N,/MCU/+3V3*%
X164850000Y-78525000D03*
%TD*%
D40*
%TO.P,SW2,1,1*%
%TO.N,GND*%
X184500000Y-98850000D03*
X176500000Y-98850000D03*
%TO.P,SW2,2,2*%
%TO.N,Net-(U2-PC9)*%
X184500000Y-94350000D03*
X176500000Y-94350000D03*
%TD*%
D45*
%TO.P,R3,1*%
%TO.N,Net-(U1-VOUT)*%
X150090000Y-83490000D03*
%TO.P,R3,2*%
%TO.N,/MCU/VDET*%
X151110000Y-83490000D03*
%TD*%
D46*
%TO.P,U7,1,E0*%
%TO.N,GND*%
X167425000Y-69595000D03*
%TO.P,U7,2,E1*%
X167425000Y-70865000D03*
%TO.P,U7,3,E2*%
X167425000Y-72135000D03*
%TO.P,U7,4,VSS*%
X167425000Y-73405000D03*
%TO.P,U7,5,SDA*%
%TO.N,/MCU/I2C_SDA*%
X172375000Y-73405000D03*
%TO.P,U7,6,SCL*%
%TO.N,/MCU/I2C_SCL*%
X172375000Y-72135000D03*
%TO.P,U7,7,~{WC}*%
%TO.N,GND*%
X172375000Y-70865000D03*
%TO.P,U7,8,VCC*%
%TO.N,/MCU/+3V3*%
X172375000Y-69595000D03*
%TD*%
D20*
%TO.P,U4,1,IN*%
%TO.N,/MCU/VBAT*%
X203547500Y-97450000D03*
%TO.P,U4,2,GND*%
%TO.N,GND*%
X203547500Y-96500000D03*
%TO.P,U4,3,EN*%
%TO.N,/MCU/ANALOG_PWR*%
X203547500Y-95550000D03*
%TO.P,U4,4,NC*%
%TO.N,unconnected-(U4-NC-Pad4)*%
X201272500Y-95550000D03*
%TO.P,U4,5,OUT*%
%TO.N,/MCU/+3V3_A*%
X201272500Y-97450000D03*
%TD*%
D21*
%TO.P,C13,1*%
%TO.N,GND*%
X200300000Y-100800000D03*
%TO.P,C13,2*%
%TO.N,/MCU/+3V3_A*%
X200300000Y-99840000D03*
%TD*%
D10*
%TO.P,R20,1*%
%TO.N,/MCU/+3V3*%
X178100000Y-81790000D03*
%TO.P,R20,2*%
%TO.N,/MCU/I2C_SDA*%
X178100000Y-82810000D03*
%TD*%
D42*
%TO.P,D1,1,K*%
%TO.N,Net-(D1-K)*%
X205900000Y-63470000D03*
%TO.P,D1,2,A*%
%TO.N,Net-(D1-A)*%
X205900000Y-62500000D03*
%TD*%
D21*
%TO.P,C4,1*%
%TO.N,GND*%
X149400000Y-78800000D03*
%TO.P,C4,2*%
%TO.N,/MCU/+3V3_A*%
X149400000Y-77840000D03*
%TD*%
D17*
%TO.P,C31,1*%
%TO.N,GND*%
X192700000Y-70765000D03*
%TO.P,C31,2*%
%TO.N,/MCU/VBAT*%
X192700000Y-70125000D03*
%TD*%
%TO.P,C5,1*%
%TO.N,GND*%
X149100000Y-80420000D03*
%TO.P,C5,2*%
%TO.N,/MCU/+3V3_A*%
X149100000Y-79780000D03*
%TD*%
D18*
%TO.P,R5,1*%
%TO.N,GND*%
X152700000Y-80210000D03*
%TO.P,R5,2*%
%TO.N,Net-(U1-TADJ)*%
X152700000Y-79190000D03*
%TD*%
D21*
%TO.P,C29,1*%
%TO.N,/MCU/VBAT*%
X213900000Y-64400000D03*
%TO.P,C29,2*%
%TO.N,GND*%
X213900000Y-63440000D03*
%TD*%
D19*
%TO.P,C2,1*%
%TO.N,GND*%
X144075000Y-83490000D03*
%TO.P,C2,2*%
%TO.N,Net-(U1-INLO)*%
X145035000Y-83490000D03*
%TD*%
D17*
%TO.P,C14,1*%
%TO.N,GND*%
X160700000Y-96140000D03*
%TO.P,C14,2*%
%TO.N,/MCU/+3V3_A*%
X160700000Y-95500000D03*
%TD*%
D21*
%TO.P,C25,1*%
%TO.N,GND*%
X206400000Y-78400000D03*
%TO.P,C25,2*%
%TO.N,+5V*%
X206400000Y-77440000D03*
%TD*%
D28*
%TO.P,R18,1*%
%TO.N,/MCU/VBAT*%
X206220000Y-70700000D03*
%TO.P,R18,2*%
%TO.N,Net-(U2-PB1)*%
X205200000Y-70700000D03*
%TD*%
D18*
%TO.P,R15,1*%
%TO.N,Net-(D2-A)*%
X201600000Y-63730000D03*
%TO.P,R15,2*%
%TO.N,/MCU/VBAT*%
X201600000Y-62710000D03*
%TD*%
D28*
%TO.P,R8,1*%
%TO.N,/MCU/ANALOG_PWR*%
X208010000Y-96700000D03*
%TO.P,R8,2*%
%TO.N,GND*%
X206990000Y-96700000D03*
%TD*%
D21*
%TO.P,C30,1*%
%TO.N,GND*%
X176400000Y-97000000D03*
%TO.P,C30,2*%
%TO.N,Net-(U2-PC9)*%
X176400000Y-96040000D03*
%TD*%
D35*
%TO.P,R10,1*%
%TO.N,Net-(J2-CC2)*%
X225100000Y-83597500D03*
%TO.P,R10,2*%
%TO.N,GND*%
X225100000Y-82402500D03*
%TD*%
D47*
%TO.P,F1,1*%
%TO.N,Net-(F1-Pad1)*%
X210225000Y-81400000D03*
%TO.P,F1,2*%
%TO.N,+5V*%
X205775000Y-81400000D03*
%TD*%
D17*
%TO.P,C15,1*%
%TO.N,GND*%
X160300000Y-75520000D03*
%TO.P,C15,2*%
%TO.N,/MCU/+3V3*%
X160300000Y-74880000D03*
%TD*%
D48*
%TO.N,Net-(U1-INHI)*%
X145015000Y-85590000D02*
X146550000Y-85590000D01*
X146550000Y-85590000D02*
X146735000Y-85405000D01*
D49*
%TO.N,GND*%
X141050000Y-80750000D02*
X137700000Y-80750000D01*
X141810000Y-83980000D02*
X141810000Y-81510000D01*
D48*
X142930000Y-83990000D02*
X143430000Y-83490000D01*
X139160000Y-80750000D02*
X137700000Y-80750000D01*
X142930000Y-83990000D02*
X142910000Y-83970000D01*
X143430000Y-83490000D02*
X144075000Y-83490000D01*
D49*
X141810000Y-81510000D02*
X141050000Y-80750000D01*
D48*
%TO.N,Net-(U1-INLO)*%
X145035000Y-83490000D02*
X146735000Y-83490000D01*
%TO.N,Net-(J1-In)*%
X143510000Y-85590000D02*
X142910000Y-84990000D01*
X141810000Y-85000000D02*
X137700000Y-85000000D01*
X142900000Y-85000000D02*
X142910000Y-84990000D01*
X144055000Y-85590000D02*
X143510000Y-85590000D01*
%TD*%
M02*
