  0
SECTION
  2
HEADER
  9
$ANGBASE
  50
0.0
  9
$ANGDIR
  70
1
  9
$MEASUREMENT
  70
1
  9
$INSUNITS
  70
4
  0
ENDSEC
  0
SECTION
  2
TABLES
  0
TABLE
  2
LTYPE
  70
4
  0
LTYPE
  5
40F
  2
CONTINUOUS
  70
0
  3
Solid line
  72
65
  73
0
  40
0.0
  0
LTYPE
  5
410
  2
DASHDOT
 70
0
  3
Dash Dot ____ _ ____ _
 72
65
 73
4
 40
2.0
 49
1.25
 49
-0.25
 49
0.25
 49
-0.25
  0
LTYPE
  5
411
  2
DASHED
 70
0
  3
Dashed __ __ __ __ __
 72
65
 73
2
 40
0.75
 49
0.5
 49
-0.25
  0
LTYPE
  5
43B
  2
DOTTED
 70
0
  3
Dotted .  .  .  .
 72
65
 73
2
 40
0.2
 49
0.0
 49
-0.2
  0
ENDTAB
  0
TABLE
  2
STYLE
  70
4
  0
STYLE
  2
KICAD
  70
0
  40
0
  41
1
  42
1
  50
0
  71
0
  3
isocp.shx
  0
STYLE
  2
KICADB
  70
0
  40
0
  41
1
  42
1
  50
0
  71
0
  3
isocp.shx
  0
STYLE
  2
KICADI
  70
0
  40
0
  41
1
  42
1
  50
15
  71
0
  3
isocp.shx
  0
STYLE
  2
KICADBI
  70
0
  40
0
  41
1
  42
1
  50
15
  71
0
  3
isocp.shx
  0
ENDTAB
  0
TABLE
  2
LAYER
  70
1
  0
LAYER
  2
BLACK
  70
0
  62
7
  6
CONTINUOUS
  0
ENDTAB
  0
ENDSEC
  0
SECTION
  2
ENTITIES
0
LINE
8
BLACK
6
CONTINUOUS
10
153.4191339999999855
20
-78.4538060000000002
11
153.4461939999999913
21
-78.4808659999999918
0
LINE
8
BLACK
6
CONTINUOUS
10
153.4461939999999913
20
-78.4808659999999918
11
153.4499999999999886
21
-78.5
0
LINE
8
BLACK
6
CONTINUOUS
10
153.4499999999999886
20
-78.5
11
153.4499999999999886
21
-92.
0
LINE
8
BLACK
6
CONTINUOUS
10
153.4499999999999886
20
-92.
11
153.4461939999999913
21
-92.019133999999994
0
LINE
8
BLACK
6
CONTINUOUS
10
153.4461939999999913
20
-92.019133999999994
11
153.4191339999999855
21
-92.0461939999999998
0
LINE
8
BLACK
6
CONTINUOUS
10
153.4191339999999855
20
-92.0461939999999998
11
153.4000000000000057
21
-92.0499999999999972
0
LINE
8
BLACK
6
CONTINUOUS
10
153.4000000000000057
20
-92.0499999999999972
11
135.1999999999999886
21
-92.0499999999999972
0
LINE
8
BLACK
6
CONTINUOUS
10
135.1999999999999886
20
-92.0499999999999972
11
135.1808659999999804
21
-92.0461939999999998
0
LINE
8
BLACK
6
CONTINUOUS
10
135.1808659999999804
20
-92.0461939999999998
11
135.153806000000003
21
-92.019133999999994
0
LINE
8
BLACK
6
CONTINUOUS
10
135.153806000000003
20
-92.019133999999994
11
135.1500000000000057
21
-92.
0
LINE
8
BLACK
6
CONTINUOUS
10
135.1500000000000057
20
-92.
11
135.1500000000000057
21
-78.5
0
LINE
8
BLACK
6
CONTINUOUS
10
135.1500000000000057
20
-78.5
11
135.153806000000003
21
-78.4808659999999918
0
LINE
8
BLACK
6
CONTINUOUS
10
135.153806000000003
20
-78.4808659999999918
11
135.1808659999999804
21
-78.4538060000000002
0
LINE
8
BLACK
6
CONTINUOUS
10
135.1808659999999804
20
-78.4538060000000002
11
135.1999999999999886
21
-78.4500000000000028
0
LINE
8
BLACK
6
CONTINUOUS
10
135.1999999999999886
20
-78.4500000000000028
11
153.4000000000000057
21
-78.4500000000000028
0
LINE
8
BLACK
6
CONTINUOUS
10
153.4000000000000057
20
-78.4500000000000028
11
153.4191339999999855
21
-78.4538060000000002
0
LINE
8
BLACK
6
CONTINUOUS
10
135.25
20
-78.5499999999999972
11
135.25
21
-91.9500000000000028
0
LINE
8
BLACK
6
CONTINUOUS
10
135.25
20
-91.9500000000000028
11
153.3499999999999943
21
-91.9500000000000028
0
LINE
8
BLACK
6
CONTINUOUS
10
153.3499999999999943
20
-91.9500000000000028
11
153.3499999999999943
21
-78.5499999999999972
0
LINE
8
BLACK
6
CONTINUOUS
10
153.3499999999999943
20
-78.5499999999999972
11
135.25
21
-78.5499999999999972
  0
ENDSEC
  0
EOF
