  0
SECTION
  2
HEADER
  9
$ANGBASE
  50
0.0
  9
$ANGDIR
  70
1
  9
$MEASUREMENT
  70
1
  9
$INSUNITS
  70
4
  0
ENDSEC
  0
SECTION
  2
TABLES
  0
TABLE
  2
LTYPE
  70
4
  0
LTYPE
  5
40F
  2
CONTINUOUS
  70
0
  3
Solid line
  72
65
  73
0
  40
0.0
  0
LTYPE
  5
410
  2
DASHDOT
 70
0
  3
Dash Dot ____ _ ____ _
 72
65
 73
4
 40
2.0
 49
1.25
 49
-0.25
 49
0.25
 49
-0.25
  0
LTYPE
  5
411
  2
DASHED
 70
0
  3
Dashed __ __ __ __ __
 72
65
 73
2
 40
0.75
 49
0.5
 49
-0.25
  0
LTYPE
  5
43B
  2
DOTTED
 70
0
  3
Dotted .  .  .  .
 72
65
 73
2
 40
0.2
 49
0.0
 49
-0.2
  0
ENDTAB
  0
TABLE
  2
STYLE
  70
4
  0
STYLE
  2
KICAD
  70
0
  40
0
  41
1
  42
1
  50
0
  71
0
  3
isocp.shx
  0
STYLE
  2
KICADB
  70
0
  40
0
  41
1
  42
1
  50
0
  71
0
  3
isocp.shx
  0
STYLE
  2
KICADI
  70
0
  40
0
  41
1
  42
1
  50
15
  71
0
  3
isocp.shx
  0
STYLE
  2
KICADBI
  70
0
  40
0
  41
1
  42
1
  50
15
  71
0
  3
isocp.shx
  0
ENDTAB
  0
TABLE
  2
LAYER
  70
1
  0
LAYER
  2
BLACK
  70
0
  62
7
  6
CONTINUOUS
  0
ENDTAB
  0
ENDSEC
  0
SECTION
  2
ENTITIES
0
LINE
8
BLACK
6
CONTINUOUS
10
153.042539000000005
20
-78.8201849999999951
11
153.0882939999999905
21
-78.8729889999999898
0
LINE
8
BLACK
6
CONTINUOUS
10
153.0882939999999905
20
-78.8729889999999898
11
153.0995000000000061
21
-78.9244999999999948
0
LINE
8
BLACK
6
CONTINUOUS
10
153.0995000000000061
20
-78.9244999999999948
11
153.0995000000000061
21
-91.575499999999991
0
LINE
8
BLACK
6
CONTINUOUS
10
153.0995000000000061
20
-91.575499999999991
11
153.0798149999999964
21
-91.6425389999999993
0
LINE
8
BLACK
6
CONTINUOUS
10
153.0798149999999964
20
-91.6425389999999993
11
153.0270109999999875
21
-91.6882939999999991
0
LINE
8
BLACK
6
CONTINUOUS
10
153.0270109999999875
20
-91.6882939999999991
11
152.9754999999999825
21
-91.6995000000000005
0
LINE
8
BLACK
6
CONTINUOUS
10
152.9754999999999825
20
-91.6995000000000005
11
135.6244999999999834
21
-91.6995000000000005
0
LINE
8
BLACK
6
CONTINUOUS
10
135.6244999999999834
20
-91.6995000000000005
11
135.5574609999999893
21
-91.6798149999999907
0
LINE
8
BLACK
6
CONTINUOUS
10
135.5574609999999893
20
-91.6798149999999907
11
135.5117060000000038
21
-91.627010999999996
0
LINE
8
BLACK
6
CONTINUOUS
10
135.5117060000000038
20
-91.627010999999996
11
135.5004999999999882
21
-91.575499999999991
0
LINE
8
BLACK
6
CONTINUOUS
10
135.5004999999999882
20
-91.575499999999991
11
135.5004999999999882
21
-90.6239999999999952
0
LINE
8
BLACK
6
CONTINUOUS
10
135.5004999999999882
20
-90.6239999999999952
11
135.5201849999999979
21
-90.5569610000000011
0
LINE
8
BLACK
6
CONTINUOUS
10
135.5201849999999979
20
-90.5569610000000011
11
135.5729890000000069
21
-90.5112060000000014
0
LINE
8
BLACK
6
CONTINUOUS
10
135.5729890000000069
20
-90.5112060000000014
11
135.6244999999999834
21
-90.5
0
LINE
8
BLACK
6
CONTINUOUS
10
135.6244999999999834
20
-90.5
11
137.4499999999999886
21
-90.5
0
LINE
8
BLACK
6
CONTINUOUS
10
137.4499999999999886
20
-90.5
11
137.4499999999999886
21
-90.
0
LINE
8
BLACK
6
CONTINUOUS
10
137.4499999999999886
20
-90.
11
135.1599999999999966
21
-90.
0
LINE
8
BLACK
6
CONTINUOUS
10
135.1599999999999966
20
-90.
11
135.1599999999999966
21
-88.5
0
LINE
8
BLACK
6
CONTINUOUS
10
135.1599999999999966
20
-88.5
11
137.4499999999999886
21
-88.5
0
LINE
8
BLACK
6
CONTINUOUS
10
137.4499999999999886
20
-88.5
11
137.4499999999999886
21
-88.
0
LINE
8
BLACK
6
CONTINUOUS
10
137.4499999999999886
20
-88.
11
135.6244999999999834
21
-88.
0
LINE
8
BLACK
6
CONTINUOUS
10
135.6244999999999834
20
-88.
11
135.5574609999999893
21
-87.9803149999999903
0
LINE
8
BLACK
6
CONTINUOUS
10
135.5574609999999893
20
-87.9803149999999903
11
135.5117060000000038
21
-87.9275109999999955
0
LINE
8
BLACK
6
CONTINUOUS
10
135.5117060000000038
20
-87.9275109999999955
11
135.5004999999999882
21
-87.8759999999999906
0
LINE
8
BLACK
6
CONTINUOUS
10
135.5004999999999882
20
-87.8759999999999906
11
135.5004999999999882
21
-86.001499999999993
0
LINE
8
BLACK
6
CONTINUOUS
10
135.5004999999999882
20
-86.001499999999993
11
135.5201849999999979
21
-85.9344609999999989
0
LINE
8
BLACK
6
CONTINUOUS
10
135.5201849999999979
20
-85.9344609999999989
11
135.5729890000000069
21
-85.8887059999999991
0
LINE
8
BLACK
6
CONTINUOUS
10
135.5729890000000069
20
-85.8887059999999991
11
135.6244999999999834
21
-85.8774999999999977
0
LINE
8
BLACK
6
CONTINUOUS
10
135.6244999999999834
20
-85.8774999999999977
11
139.9759999999999991
21
-85.8774999999999977
0
LINE
8
BLACK
6
CONTINUOUS
10
139.9759999999999991
20
-85.8774999999999977
11
140.0430389999999932
21
-85.8971849999999932
0
LINE
8
BLACK
6
CONTINUOUS
10
140.0430389999999932
20
-85.8971849999999932
11
140.0887940000000071
21
-85.9499890000000022
0
LINE
8
BLACK
6
CONTINUOUS
10
140.0887940000000071
20
-85.9499890000000022
11
140.0999999999999943
21
-86.001499999999993
0
LINE
8
BLACK
6
CONTINUOUS
10
140.0999999999999943
20
-86.001499999999993
11
140.0999999999999943
21
-87.0999999999999943
0
LINE
8
BLACK
6
CONTINUOUS
10
140.0999999999999943
20
-87.0999999999999943
11
150.1999999999999886
21
-87.0999999999999943
0
LINE
8
BLACK
6
CONTINUOUS
10
150.1999999999999886
20
-87.0999999999999943
11
150.2178370000000029
21
-86.261618999999996
0
LINE
8
BLACK
6
CONTINUOUS
10
150.2178370000000029
20
-86.261618999999996
11
150.2389430000000061
21
-86.1950169999999929
0
LINE
8
BLACK
6
CONTINUOUS
10
150.2389430000000061
20
-86.1950169999999929
11
150.2663229999999999
21
-86.1658839999999913
0
LINE
8
BLACK
6
CONTINUOUS
10
150.2663229999999999
20
-86.1658839999999913
11
150.3636779999999931
21
-86.0911809999999917
0
LINE
8
BLACK
6
CONTINUOUS
10
150.3636779999999931
20
-86.0911809999999917
11
150.4538419999999803
21
-85.9736759999999975
0
LINE
8
BLACK
6
CONTINUOUS
10
150.4538419999999803
20
-85.9736759999999975
11
150.4693900000000042
21
-85.9361409999999921
0
LINE
8
BLACK
6
CONTINUOUS
10
150.4693900000000042
20
-85.9361409999999921
11
150.5132309999999904
21
-85.8817370000000011
0
LINE
8
BLACK
6
CONTINUOUS
10
150.5132309999999904
20
-85.8817370000000011
11
150.5182869999999866
21
-85.8784059999999982
0
LINE
8
BLACK
6
CONTINUOUS
10
150.5182869999999866
20
-85.8784059999999982
11
150.5318759999999827
21
-85.8699220000000025
0
LINE
8
BLACK
6
CONTINUOUS
10
150.5318759999999827
20
-85.8699220000000025
11
150.5366339999999923
21
-85.8689759999999893
0
LINE
8
BLACK
6
CONTINUOUS
10
150.5366339999999923
20
-85.8689759999999893
11
150.5827170000000024
21
-85.8381830000000008
0
LINE
8
BLACK
6
CONTINUOUS
10
150.5827170000000024
20
-85.8381830000000008
11
150.5843349999999816
21
-85.8371739999999903
0
LINE
8
BLACK
6
CONTINUOUS
10
150.5843349999999816
20
-85.8371739999999903
11
150.6162029999999845
21
-85.8282689999999917
0
LINE
8
BLACK
6
CONTINUOUS
10
150.6162029999999845
20
-85.8282689999999917
11
150.6477849999999989
21
-85.8183799999999906
0
LINE
8
BLACK
6
CONTINUOUS
10
150.6477849999999989
20
-85.8183799999999906
11
150.6497070000000065
21
-85.8189069999999958
0
LINE
8
BLACK
6
CONTINUOUS
10
150.6497070000000065
20
-85.8189069999999958
11
150.6516269999999906
21
-85.8183709999999991
0
LINE
8
BLACK
6
CONTINUOUS
10
150.6516269999999906
20
-85.8183709999999991
11
150.683242000000007
21
-85.8281059999999911
0
LINE
8
BLACK
6
CONTINUOUS
10
150.683242000000007
20
-85.8281059999999911
11
150.7151649999999847
21
-85.8368629999999939
0
LINE
8
BLACK
6
CONTINUOUS
10
150.7151649999999847
20
-85.8368629999999939
11
150.7183699999999931
21
-85.8389229999999941
0
LINE
8
BLACK
6
CONTINUOUS
10
150.7183699999999931
20
-85.8389229999999941
11
150.7184019999999975
21
-85.8389329999999973
0
LINE
8
BLACK
6
CONTINUOUS
10
150.7184019999999975
20
-85.8389329999999973
11
150.7184210000000064
21
-85.838955999999996
0
LINE
8
BLACK
6
CONTINUOUS
10
150.7184210000000064
20
-85.838955999999996
11
150.7188699999999812
21
-85.8392439999999937
0
LINE
8
BLACK
6
CONTINUOUS
10
150.7188699999999812
20
-85.8392439999999937
11
150.7633659999999907
21
-85.8689759999999893
0
LINE
8
BLACK
6
CONTINUOUS
10
150.7633659999999907
20
-85.8689759999999893
11
150.7633669999999881
21
-85.8689759999999893
0
LINE
8
BLACK
6
CONTINUOUS
10
150.7633669999999881
20
-85.8689759999999893
11
150.7633679999999856
21
-85.868977000000001
0
LINE
8
BLACK
6
CONTINUOUS
10
150.7633679999999856
20
-85.868977000000001
11
150.8187829999999963
21
-85.879998999999998
0
LINE
8
BLACK
6
CONTINUOUS
10
150.8187829999999963
20
-85.879998999999998
11
150.8187869999999862
21
-85.8799999999999955
0
LINE
8
BLACK
6
CONTINUOUS
10
150.8187869999999862
20
-85.8799999999999955
11
150.8187879999999836
21
-85.8799999999999955
0
LINE
8
BLACK
6
CONTINUOUS
10
150.8187879999999836
20
-85.8799999999999955
11
150.9812129999999968
21
-85.8799999999999955
0
LINE
8
BLACK
6
CONTINUOUS
10
150.9812129999999968
20
-85.8799999999999955
11
150.9812139999999943
21
-85.879998999999998
0
LINE
8
BLACK
6
CONTINUOUS
10
150.9812139999999943
20
-85.879998999999998
11
150.9998530000000017
21
-85.8762919999999923
0
LINE
8
BLACK
6
CONTINUOUS
10
150.9998530000000017
20
-85.8762919999999923
11
151.0366309999999999
21
-85.868977000000001
0
LINE
8
BLACK
6
CONTINUOUS
10
151.0366309999999999
20
-85.868977000000001
11
151.0366319999999973
21
-85.8689759999999893
0
LINE
8
BLACK
6
CONTINUOUS
10
151.0366319999999973
20
-85.8689759999999893
11
151.0366339999999923
21
-85.8689759999999893
0
LINE
8
BLACK
6
CONTINUOUS
10
151.0366339999999923
20
-85.8689759999999893
11
151.0994819999999947
21
-85.826982000000001
0
LINE
8
BLACK
6
CONTINUOUS
10
151.0994819999999947
20
-85.826982000000001
11
151.1414759999999831
21
-85.7641339999999985
0
LINE
8
BLACK
6
CONTINUOUS
10
151.1414759999999831
20
-85.7641339999999985
11
151.1525000000000034
21
-85.7087119999999913
0
LINE
8
BLACK
6
CONTINUOUS
10
151.1525000000000034
20
-85.7087119999999913
11
151.1525000000000034
21
-84.9212879999999899
0
LINE
8
BLACK
6
CONTINUOUS
10
151.1525000000000034
20
-84.9212879999999899
11
151.1488999999999976
21
-84.9031889999999976
0
LINE
8
BLACK
6
CONTINUOUS
10
151.1488999999999976
20
-84.9031889999999976
11
151.1551289999999881
21
-84.8335989999999924
0
LINE
8
BLACK
6
CONTINUOUS
10
151.1551289999999881
20
-84.8335989999999924
11
151.1979919999999993
21
-84.778421999999992
0
LINE
8
BLACK
6
CONTINUOUS
10
151.1979919999999993
20
-84.778421999999992
11
151.2638819999999953
21
-84.7551780000000008
0
LINE
8
BLACK
6
CONTINUOUS
10
151.2638819999999953
20
-84.7551780000000008
11
151.2705179999999814
21
-84.7549999999999955
0
LINE
8
BLACK
6
CONTINUOUS
10
151.2705179999999814
20
-84.7549999999999955
11
151.3325590000000034
21
-84.7549999999999955
0
LINE
8
BLACK
6
CONTINUOUS
10
151.3325590000000034
20
-84.7549999999999955
11
151.3399569999999983
21
-84.7535280000000029
0
LINE
8
BLACK
6
CONTINUOUS
10
151.3399569999999983
20
-84.7535280000000029
11
151.3697479999999871
21
-84.7476020000000005
0
LINE
8
BLACK
6
CONTINUOUS
10
151.3697479999999871
20
-84.7476020000000005
11
151.4119220000000041
21
-84.7194219999999945
0
LINE
8
BLACK
6
CONTINUOUS
10
151.4119220000000041
20
-84.7194219999999945
11
151.440101999999996
21
-84.6772479999999916
0
LINE
8
BLACK
6
CONTINUOUS
10
151.440101999999996
20
-84.6772479999999916
11
151.4474999999999909
21
-84.6400579999999962
0
LINE
8
BLACK
6
CONTINUOUS
10
151.4474999999999909
20
-84.6400579999999962
11
151.4474999999999909
21
-84.1149419999999992
0
LINE
8
BLACK
6
CONTINUOUS
10
151.4474999999999909
20
-84.1149419999999992
11
151.440101999999996
21
-84.0777519999999896
0
LINE
8
BLACK
6
CONTINUOUS
10
151.440101999999996
20
-84.0777519999999896
11
151.4401009999999985
21
-84.0777499999999947
0
LINE
8
BLACK
6
CONTINUOUS
10
151.4401009999999985
20
-84.0777499999999947
11
151.4119220000000041
21
-84.0355769999999893
0
LINE
8
BLACK
6
CONTINUOUS
10
151.4119220000000041
20
-84.0355769999999893
11
151.3697489999999846
21
-84.0073979999999949
0
LINE
8
BLACK
6
CONTINUOUS
10
151.3697489999999846
20
-84.0073979999999949
11
151.3325590000000034
21
-84.
0
LINE
8
BLACK
6
CONTINUOUS
10
151.3325590000000034
20
-84.
11
151.3325580000000059
21
-84.
0
LINE
8
BLACK
6
CONTINUOUS
10
151.3325580000000059
20
-84.
11
151.275890000000004
21
-84.
0
LINE
8
BLACK
6
CONTINUOUS
10
151.275890000000004
20
-84.
11
151.2088509999999815
21
-83.9803149999999903
0
LINE
8
BLACK
6
CONTINUOUS
10
151.2088509999999815
20
-83.9803149999999903
11
151.1630959999999959
21
-83.9275109999999955
0
LINE
8
BLACK
6
CONTINUOUS
10
151.1630959999999959
20
-83.9275109999999955
11
151.1534790000000044
21
-83.869804000000002
0
LINE
8
BLACK
6
CONTINUOUS
10
151.1534790000000044
20
-83.869804000000002
11
151.1525000000000034
21
-83.869804000000002
0
LINE
8
BLACK
6
CONTINUOUS
10
151.1525000000000034
20
-83.869804000000002
11
151.1525000000000034
21
-83.8639289999999988
0
LINE
8
BLACK
6
CONTINUOUS
10
151.1525000000000034
20
-83.8639289999999988
11
151.1524869999999794
21
-83.8638509999999968
0
LINE
8
BLACK
6
CONTINUOUS
10
151.1524869999999794
20
-83.8638509999999968
11
151.1525000000000034
21
-83.8637179999999915
0
LINE
8
BLACK
6
CONTINUOUS
10
151.1525000000000034
20
-83.8637179999999915
11
151.1525000000000034
21
-83.0762869999999936
0
LINE
8
BLACK
6
CONTINUOUS
10
151.1525000000000034
20
-83.0762869999999936
11
151.1524990000000059
21
-83.0762829999999894
0
LINE
8
BLACK
6
CONTINUOUS
10
151.1524990000000059
20
-83.0762829999999894
11
151.1414769999999805
21
-83.020867999999993
0
LINE
8
BLACK
6
CONTINUOUS
10
151.1414769999999805
20
-83.020867999999993
11
151.1414749999999856
21
-83.0208640000000031
0
LINE
8
BLACK
6
CONTINUOUS
10
151.1414749999999856
20
-83.0208640000000031
11
151.0994819999999947
21
-82.9580169999999981
0
LINE
8
BLACK
6
CONTINUOUS
10
151.0994819999999947
20
-82.9580169999999981
11
151.0366349999999898
21
-82.9160239999999931
0
LINE
8
BLACK
6
CONTINUOUS
10
151.0366349999999898
20
-82.9160239999999931
11
151.0366309999999999
21
-82.9160219999999981
0
LINE
8
BLACK
6
CONTINUOUS
10
151.0366309999999999
20
-82.9160219999999981
11
150.9812159999999892
21
-82.9050000000000011
0
LINE
8
BLACK
6
CONTINUOUS
10
150.9812159999999892
20
-82.9050000000000011
11
150.9812119999999993
21
-82.9050000000000011
0
LINE
8
BLACK
6
CONTINUOUS
10
150.9812119999999993
20
-82.9050000000000011
11
150.8187879999999836
21
-82.9050000000000011
0
LINE
8
BLACK
6
CONTINUOUS
10
150.8187879999999836
20
-82.9050000000000011
11
150.8187829999999963
21
-82.9050000000000011
0
LINE
8
BLACK
6
CONTINUOUS
10
150.8187829999999963
20
-82.9050000000000011
11
150.7633679999999856
21
-82.9160219999999981
0
LINE
8
BLACK
6
CONTINUOUS
10
150.7633679999999856
20
-82.9160219999999981
11
150.7633649999999932
21
-82.9160239999999931
0
LINE
8
BLACK
6
CONTINUOUS
10
150.7633649999999932
20
-82.9160239999999931
11
150.7413379999999847
21
-82.9307419999999951
0
LINE
8
BLACK
6
CONTINUOUS
10
150.7413379999999847
20
-82.9307419999999951
11
150.6746609999999862
21
-82.9516189999999938
0
LINE
8
BLACK
6
CONTINUOUS
10
150.6746609999999862
20
-82.9516189999999938
11
150.6072810000000004
21
-82.933132999999998
0
LINE
8
BLACK
6
CONTINUOUS
10
150.6072810000000004
20
-82.933132999999998
11
150.60355899999999
21
-82.9307419999999951
0
LINE
8
BLACK
6
CONTINUOUS
10
150.60355899999999
20
-82.9307419999999951
11
150.5650329999999997
21
-82.9050000000000011
0
LINE
8
BLACK
6
CONTINUOUS
10
150.5650329999999997
20
-82.9050000000000011
11
150.5366339999999923
21
-82.8860239999999919
0
LINE
8
BLACK
6
CONTINUOUS
10
150.5366339999999923
20
-82.8860239999999919
11
150.5366309999999999
21
-82.8860229999999945
0
LINE
8
BLACK
6
CONTINUOUS
10
150.5366309999999999
20
-82.8860229999999945
11
150.5366309999999999
21
-82.886021999999997
0
LINE
8
BLACK
6
CONTINUOUS
10
150.5366309999999999
20
-82.886021999999997
11
150.4812159999999892
21
-82.875
0
LINE
8
BLACK
6
CONTINUOUS
10
150.4812159999999892
20
-82.875
11
150.4812119999999993
21
-82.875
0
LINE
8
BLACK
6
CONTINUOUS
10
150.4812119999999993
20
-82.875
11
150.4165590000000066
21
-82.875
0
LINE
8
BLACK
6
CONTINUOUS
10
150.4165590000000066
20
-82.875
11
150.3495199999999841
21
-82.8553149999999903
0
LINE
8
BLACK
6
CONTINUOUS
10
150.3495199999999841
20
-82.8553149999999903
11
150.3037649999999985
21
-82.8025109999999955
0
LINE
8
BLACK
6
CONTINUOUS
10
150.3037649999999985
20
-82.8025109999999955
11
150.2925869999999975
21
-82.7483620000000002
0
LINE
8
BLACK
6
CONTINUOUS
10
150.2925869999999975
20
-82.7483620000000002
11
150.2999999999999829
21
-82.3999999999999915
0
LINE
8
BLACK
6
CONTINUOUS
10
150.2999999999999829
20
-82.3999999999999915
11
149.4000000000000057
21
-82.3999999999999915
0
LINE
8
BLACK
6
CONTINUOUS
10
149.4000000000000057
20
-82.3999999999999915
11
140.9867759999999919
21
-82.3999999999999915
0
LINE
8
BLACK
6
CONTINUOUS
10
140.9867759999999919
20
-82.3999999999999915
11
141.7067759999999907
21
-83.1199999999999903
0
LINE
8
BLACK
6
CONTINUOUS
10
141.7067759999999907
20
-83.1199999999999903
11
141.9849999999999852
21
-83.1199999999999903
0
LINE
8
BLACK
6
CONTINUOUS
10
141.9849999999999852
20
-83.1199999999999903
11
142.0366620000000069
21
-83.130275999999995
0
LINE
8
BLACK
6
CONTINUOUS
10
142.0366620000000069
20
-83.130275999999995
11
142.0804589999999905
21
-83.1595409999999902
0
LINE
8
BLACK
6
CONTINUOUS
10
142.0804589999999905
20
-83.1595409999999902
11
142.1097239999999999
21
-83.2033380000000022
0
LINE
8
BLACK
6
CONTINUOUS
10
142.1097239999999999
20
-83.2033380000000022
11
142.1200000000000045
21
-83.2549999999999955
0
LINE
8
BLACK
6
CONTINUOUS
10
142.1200000000000045
20
-83.2549999999999955
11
142.1200000000000045
21
-83.5249999999999915
0
LINE
8
BLACK
6
CONTINUOUS
10
142.1200000000000045
20
-83.5249999999999915
11
142.1097239999999999
21
-83.5766619999999989
0
LINE
8
BLACK
6
CONTINUOUS
10
142.1097239999999999
20
-83.5766619999999989
11
142.0804589999999905
21
-83.6204589999999968
0
LINE
8
BLACK
6
CONTINUOUS
10
142.0804589999999905
20
-83.6204589999999968
11
142.0366620000000069
21
-83.649723999999992
0
LINE
8
BLACK
6
CONTINUOUS
10
142.0366620000000069
20
-83.649723999999992
11
141.9849999999999852
21
-83.6599999999999966
0
LINE
8
BLACK
6
CONTINUOUS
10
141.9849999999999852
20
-83.6599999999999966
11
141.6149999999999807
21
-83.6599999999999966
0
LINE
8
BLACK
6
CONTINUOUS
10
141.6149999999999807
20
-83.6599999999999966
11
141.5633379999999875
21
-83.649723999999992
0
LINE
8
BLACK
6
CONTINUOUS
10
141.5633379999999875
20
-83.649723999999992
11
141.5195410000000038
21
-83.6204589999999968
0
LINE
8
BLACK
6
CONTINUOUS
10
141.5195410000000038
20
-83.6204589999999968
11
141.4902759999999944
21
-83.5766619999999989
0
LINE
8
BLACK
6
CONTINUOUS
10
141.4902759999999944
20
-83.5766619999999989
11
141.4799999999999898
21
-83.5249999999999915
0
LINE
8
BLACK
6
CONTINUOUS
10
141.4799999999999898
20
-83.5249999999999915
11
141.4799999999999898
21
-83.2549999999999955
0
LINE
8
BLACK
6
CONTINUOUS
10
141.4799999999999898
20
-83.2549999999999955
11
141.481363999999985
21
-83.2481399999999923
0
LINE
8
BLACK
6
CONTINUOUS
10
141.481363999999985
20
-83.2481399999999923
11
140.6332239999999842
21
-82.3999999999999915
0
LINE
8
BLACK
6
CONTINUOUS
10
140.6332239999999842
20
-82.3999999999999915
11
140.2999999999999829
21
-82.3999999999999915
0
LINE
8
BLACK
6
CONTINUOUS
10
140.2999999999999829
20
-82.3999999999999915
11
140.2999989999999855
21
-82.3999999999999915
0
LINE
8
BLACK
6
CONTINUOUS
10
140.2999989999999855
20
-82.3999999999999915
11
140.0999999999999943
21
-82.5999989999999968
0
LINE
8
BLACK
6
CONTINUOUS
10
140.0999999999999943
20
-82.5999989999999968
11
140.0999999999999943
21
-83.9984999999999928
0
LINE
8
BLACK
6
CONTINUOUS
10
140.0999999999999943
20
-83.9984999999999928
11
140.0803149999999846
21
-84.0655390000000011
0
LINE
8
BLACK
6
CONTINUOUS
10
140.0803149999999846
20
-84.0655390000000011
11
140.0275110000000041
21
-84.1112940000000009
0
LINE
8
BLACK
6
CONTINUOUS
10
140.0275110000000041
20
-84.1112940000000009
11
139.9759999999999991
21
-84.1225000000000023
0
LINE
8
BLACK
6
CONTINUOUS
10
139.9759999999999991
20
-84.1225000000000023
11
135.6244999999999834
21
-84.1225000000000023
0
LINE
8
BLACK
6
CONTINUOUS
10
135.6244999999999834
20
-84.1225000000000023
11
135.5574609999999893
21
-84.1028149999999926
0
LINE
8
BLACK
6
CONTINUOUS
10
135.5574609999999893
20
-84.1028149999999926
11
135.5117060000000038
21
-84.0500109999999978
0
LINE
8
BLACK
6
CONTINUOUS
10
135.5117060000000038
20
-84.0500109999999978
11
135.5004999999999882
21
-83.9984999999999928
0
LINE
8
BLACK
6
CONTINUOUS
10
135.5004999999999882
20
-83.9984999999999928
11
135.5004999999999882
21
-82.1239999999999952
0
LINE
8
BLACK
6
CONTINUOUS
10
135.5004999999999882
20
-82.1239999999999952
11
135.5201849999999979
21
-82.0569610000000011
0
LINE
8
BLACK
6
CONTINUOUS
10
135.5201849999999979
20
-82.0569610000000011
11
135.5729890000000069
21
-82.0112060000000014
0
LINE
8
BLACK
6
CONTINUOUS
10
135.5729890000000069
20
-82.0112060000000014
11
135.6244999999999834
21
-82.
0
LINE
8
BLACK
6
CONTINUOUS
10
135.6244999999999834
20
-82.
11
137.4499999999999886
21
-82.
0
LINE
8
BLACK
6
CONTINUOUS
10
137.4499999999999886
20
-82.
11
137.4499999999999886
21
-81.5
0
LINE
8
BLACK
6
CONTINUOUS
10
137.4499999999999886
20
-81.5
11
135.1599999999999966
21
-81.5
0
LINE
8
BLACK
6
CONTINUOUS
10
135.1599999999999966
20
-81.5
11
135.1599999999999966
21
-80.
0
LINE
8
BLACK
6
CONTINUOUS
10
135.1599999999999966
20
-80.
11
137.4499999999999886
21
-80.
0
LINE
8
BLACK
6
CONTINUOUS
10
137.4499999999999886
20
-80.
11
137.4499999999999886
21
-79.5
0
LINE
8
BLACK
6
CONTINUOUS
10
137.4499999999999886
20
-79.5
11
135.6244999999999834
21
-79.5
0
LINE
8
BLACK
6
CONTINUOUS
10
135.6244999999999834
20
-79.5
11
135.5574609999999893
21
-79.4803149999999903
0
LINE
8
BLACK
6
CONTINUOUS
10
135.5574609999999893
20
-79.4803149999999903
11
135.5117060000000038
21
-79.4275109999999955
0
LINE
8
BLACK
6
CONTINUOUS
10
135.5117060000000038
20
-79.4275109999999955
11
135.5004999999999882
21
-79.3759999999999906
0
LINE
8
BLACK
6
CONTINUOUS
10
135.5004999999999882
20
-79.3759999999999906
11
135.5004999999999882
21
-78.9244999999999948
0
LINE
8
BLACK
6
CONTINUOUS
10
135.5004999999999882
20
-78.9244999999999948
11
135.5201849999999979
21
-78.8574610000000007
0
LINE
8
BLACK
6
CONTINUOUS
10
135.5201849999999979
20
-78.8574610000000007
11
135.5729890000000069
21
-78.8117060000000009
0
LINE
8
BLACK
6
CONTINUOUS
10
135.5729890000000069
20
-78.8117060000000009
11
135.6244999999999834
21
-78.8004999999999995
0
LINE
8
BLACK
6
CONTINUOUS
10
135.6244999999999834
20
-78.8004999999999995
11
152.9754999999999825
21
-78.8004999999999995
0
LINE
8
BLACK
6
CONTINUOUS
10
152.9754999999999825
20
-78.8004999999999995
11
153.042539000000005
21
-78.8201849999999951
0
LINE
8
BLACK
6
CONTINUOUS
10
137.9499999999999886
20
-88.5
11
140.2399999999999807
21
-88.5
0
LINE
8
BLACK
6
CONTINUOUS
10
140.2399999999999807
20
-88.5
11
140.2399999999999807
21
-89.
0
LINE
8
BLACK
6
CONTINUOUS
10
140.2399999999999807
20
-89.
11
140.7399999999999807
21
-89.
0
LINE
8
BLACK
6
CONTINUOUS
10
140.7399999999999807
20
-89.
11
140.7399999999999807
21
-88.4521719999999902
0
LINE
8
BLACK
6
CONTINUOUS
10
140.7399999999999807
20
-88.4521719999999902
11
140.7399989999999832
21
-88.4521549999999905
0
LINE
8
BLACK
6
CONTINUOUS
10
140.7399989999999832
20
-88.4521549999999905
11
140.7335980000000006
21
-88.3926269999999903
0
LINE
8
BLACK
6
CONTINUOUS
10
140.7335980000000006
20
-88.3926269999999903
11
140.7335960000000057
21
-88.3926199999999938
0
LINE
8
BLACK
6
CONTINUOUS
10
140.7335960000000057
20
-88.3926199999999938
11
140.68335399999998
21
-88.2579130000000021
0
LINE
8
BLACK
6
CONTINUOUS
10
140.68335399999998
20
-88.2579130000000021
11
140.6833499999999901
21
-88.2579059999999913
0
LINE
8
BLACK
6
CONTINUOUS
10
140.6833499999999901
20
-88.2579059999999913
11
140.5971899999999835
21
-88.1428119999999922
0
LINE
8
BLACK
6
CONTINUOUS
10
140.5971899999999835
20
-88.1428119999999922
11
140.597186999999991
21
-88.1428089999999997
0
LINE
8
BLACK
6
CONTINUOUS
10
140.597186999999991
20
-88.1428089999999997
11
140.4820929999999919
21
-88.0566489999999931
0
LINE
8
BLACK
6
CONTINUOUS
10
140.4820929999999919
20
-88.0566489999999931
11
140.4820859999999811
21
-88.056644999999989
0
LINE
8
BLACK
6
CONTINUOUS
10
140.4820859999999811
20
-88.056644999999989
11
140.3473789999999894
21
-88.0064029999999917
0
LINE
8
BLACK
6
CONTINUOUS
10
140.3473789999999894
20
-88.0064029999999917
11
140.3473720000000071
21
-88.0064009999999968
0
LINE
8
BLACK
6
CONTINUOUS
10
140.3473720000000071
20
-88.0064009999999968
11
140.2878440000000069
21
-88.
0
LINE
8
BLACK
6
CONTINUOUS
10
140.2878440000000069
20
-88.
11
137.9499999999999886
21
-88.
0
LINE
8
BLACK
6
CONTINUOUS
10
137.9499999999999886
20
-88.
11
137.9499999999999886
21
-88.5
0
LINE
8
BLACK
6
CONTINUOUS
10
140.2399999999999807
20
-81.5
11
140.0867759999999862
21
-81.5
0
LINE
8
BLACK
6
CONTINUOUS
10
140.0867759999999862
20
-81.5
11
140.5095619999999883
21
-81.9227860000000021
0
LINE
8
BLACK
6
CONTINUOUS
10
140.5095619999999883
20
-81.9227860000000021
11
140.597186999999991
21
-81.8571900000000028
0
LINE
8
BLACK
6
CONTINUOUS
10
140.597186999999991
20
-81.8571900000000028
11
140.5971899999999835
21
-81.8571869999999961
0
LINE
8
BLACK
6
CONTINUOUS
10
140.5971899999999835
20
-81.8571869999999961
11
140.6833499999999901
21
-81.742092999999997
0
LINE
8
BLACK
6
CONTINUOUS
10
140.6833499999999901
20
-81.742092999999997
11
140.68335399999998
21
-81.7420860000000005
0
LINE
8
BLACK
6
CONTINUOUS
10
140.68335399999998
20
-81.7420860000000005
11
140.7335960000000057
21
-81.6073789999999946
0
LINE
8
BLACK
6
CONTINUOUS
10
140.7335960000000057
20
-81.6073789999999946
11
140.7335980000000006
21
-81.607371999999998
0
LINE
8
BLACK
6
CONTINUOUS
10
140.7335980000000006
20
-81.607371999999998
11
140.7399989999999832
21
-81.5478439999999978
0
LINE
8
BLACK
6
CONTINUOUS
10
140.7399989999999832
20
-81.5478439999999978
11
140.7399999999999807
21
-81.5478269999999981
0
LINE
8
BLACK
6
CONTINUOUS
10
140.7399999999999807
20
-81.5478269999999981
11
140.7399999999999807
21
-81.
0
LINE
8
BLACK
6
CONTINUOUS
10
140.7399999999999807
20
-81.
11
140.2399999999999807
21
-81.
0
LINE
8
BLACK
6
CONTINUOUS
10
140.2399999999999807
20
-81.
11
140.2399999999999807
21
-81.5
0
LINE
8
BLACK
6
CONTINUOUS
10
137.9499999999999886
20
-80.
11
140.2399999999999807
21
-80.
0
LINE
8
BLACK
6
CONTINUOUS
10
140.2399999999999807
20
-80.
11
140.2399999999999807
21
-80.5
0
LINE
8
BLACK
6
CONTINUOUS
10
140.2399999999999807
20
-80.5
11
140.7399999999999807
21
-80.5
0
LINE
8
BLACK
6
CONTINUOUS
10
140.7399999999999807
20
-80.5
11
140.7399999999999807
21
-79.9521719999999902
0
LINE
8
BLACK
6
CONTINUOUS
10
140.7399999999999807
20
-79.9521719999999902
11
140.7399989999999832
21
-79.9521549999999905
0
LINE
8
BLACK
6
CONTINUOUS
10
140.7399989999999832
20
-79.9521549999999905
11
140.7335980000000006
21
-79.8926269999999903
0
LINE
8
BLACK
6
CONTINUOUS
10
140.7335980000000006
20
-79.8926269999999903
11
140.7335960000000057
21
-79.8926199999999938
0
LINE
8
BLACK
6
CONTINUOUS
10
140.7335960000000057
20
-79.8926199999999938
11
140.68335399999998
21
-79.7579130000000021
0
LINE
8
BLACK
6
CONTINUOUS
10
140.68335399999998
20
-79.7579130000000021
11
140.6833499999999901
21
-79.7579059999999913
0
LINE
8
BLACK
6
CONTINUOUS
10
140.6833499999999901
20
-79.7579059999999913
11
140.5971899999999835
21
-79.6428119999999922
0
LINE
8
BLACK
6
CONTINUOUS
10
140.5971899999999835
20
-79.6428119999999922
11
140.597186999999991
21
-79.6428089999999997
0
LINE
8
BLACK
6
CONTINUOUS
10
140.597186999999991
20
-79.6428089999999997
11
140.4820929999999919
21
-79.5566489999999931
0
LINE
8
BLACK
6
CONTINUOUS
10
140.4820929999999919
20
-79.5566489999999931
11
140.4820859999999811
21
-79.5566450000000032
0
LINE
8
BLACK
6
CONTINUOUS
10
140.4820859999999811
20
-79.5566450000000032
11
140.3473789999999894
21
-79.5064029999999917
0
LINE
8
BLACK
6
CONTINUOUS
10
140.3473789999999894
20
-79.5064029999999917
11
140.3473720000000071
21
-79.5064009999999968
0
LINE
8
BLACK
6
CONTINUOUS
10
140.3473720000000071
20
-79.5064009999999968
11
140.2878440000000069
21
-79.5
0
LINE
8
BLACK
6
CONTINUOUS
10
140.2878440000000069
20
-79.5
11
137.9499999999999886
21
-79.5
0
LINE
8
BLACK
6
CONTINUOUS
10
137.9499999999999886
20
-79.5
11
137.9499999999999886
21
-80.
0
LINE
8
BLACK
6
CONTINUOUS
10
140.2878279999999904
20
-90.5
11
140.2878440000000069
21
-90.4999990000000025
0
LINE
8
BLACK
6
CONTINUOUS
10
140.2878440000000069
20
-90.4999990000000025
11
140.3473720000000071
21
-90.4935979999999915
0
LINE
8
BLACK
6
CONTINUOUS
10
140.3473720000000071
20
-90.4935979999999915
11
140.3473789999999894
21
-90.4935959999999966
0
LINE
8
BLACK
6
CONTINUOUS
10
140.3473789999999894
20
-90.4935959999999966
11
140.4820859999999811
21
-90.4433539999999994
0
LINE
8
BLACK
6
CONTINUOUS
10
140.4820859999999811
20
-90.4433539999999994
11
140.4820929999999919
21
-90.4433499999999952
0
LINE
8
BLACK
6
CONTINUOUS
10
140.4820929999999919
20
-90.4433499999999952
11
140.597186999999991
21
-90.3571900000000028
0
LINE
8
BLACK
6
CONTINUOUS
10
140.597186999999991
20
-90.3571900000000028
11
140.5971899999999835
21
-90.3571869999999961
0
LINE
8
BLACK
6
CONTINUOUS
10
140.5971899999999835
20
-90.3571869999999961
11
140.6833499999999901
21
-90.242092999999997
0
LINE
8
BLACK
6
CONTINUOUS
10
140.6833499999999901
20
-90.242092999999997
11
140.68335399999998
21
-90.2420860000000005
0
LINE
8
BLACK
6
CONTINUOUS
10
140.68335399999998
20
-90.2420860000000005
11
140.7335960000000057
21
-90.1073789999999946
0
LINE
8
BLACK
6
CONTINUOUS
10
140.7335960000000057
20
-90.1073789999999946
11
140.7335980000000006
21
-90.107371999999998
0
LINE
8
BLACK
6
CONTINUOUS
10
140.7335980000000006
20
-90.107371999999998
11
140.7399989999999832
21
-90.0478439999999978
0
LINE
8
BLACK
6
CONTINUOUS
10
140.7399989999999832
20
-90.0478439999999978
11
140.7399999999999807
21
-90.0478269999999981
0
LINE
8
BLACK
6
CONTINUOUS
10
140.7399999999999807
20
-90.0478269999999981
11
140.7399999999999807
21
-89.5
0
LINE
8
BLACK
6
CONTINUOUS
10
140.7399999999999807
20
-89.5
11
140.2399999999999807
21
-89.5
0
LINE
8
BLACK
6
CONTINUOUS
10
140.2399999999999807
20
-89.5
11
140.2399999999999807
21
-90.
0
LINE
8
BLACK
6
CONTINUOUS
10
140.2399999999999807
20
-90.
11
137.9499999999999886
21
-90.
0
LINE
8
BLACK
6
CONTINUOUS
10
137.9499999999999886
20
-90.
11
137.9499999999999886
21
-90.5
0
LINE
8
BLACK
6
CONTINUOUS
10
137.9499999999999886
20
-90.5
11
140.2878279999999904
21
-90.5
0
LINE
8
BLACK
6
CONTINUOUS
10
140.233224000000007
20
-82.
11
139.733224000000007
21
-81.5
0
LINE
8
BLACK
6
CONTINUOUS
10
139.733224000000007
20
-81.5
11
137.9499999999999886
21
-81.5
0
LINE
8
BLACK
6
CONTINUOUS
10
137.9499999999999886
20
-81.5
11
137.9499999999999886
21
-82.
0
LINE
8
BLACK
6
CONTINUOUS
10
137.9499999999999886
20
-82.
11
140.233224000000007
21
-82.
0
LINE
8
BLACK
6
CONTINUOUS
10
143.3366619999999898
20
-84.1402760000000001
11
143.3804590000000019
21
-84.1695409999999953
0
LINE
8
BLACK
6
CONTINUOUS
10
143.3804590000000019
20
-84.1695409999999953
11
143.4097239999999829
21
-84.2133379999999931
0
LINE
8
BLACK
6
CONTINUOUS
10
143.4097239999999829
20
-84.2133379999999931
11
143.4199999999999875
21
-84.2650000000000006
0
LINE
8
BLACK
6
CONTINUOUS
10
143.4199999999999875
20
-84.2650000000000006
11
143.4199999999999875
21
-84.5349999999999966
0
LINE
8
BLACK
6
CONTINUOUS
10
143.4199999999999875
20
-84.5349999999999966
11
143.4186349999999948
21
-84.5418590000000023
0
LINE
8
BLACK
6
CONTINUOUS
10
143.4186349999999948
20
-84.5418590000000023
11
144.2517760000000067
21
-85.375
0
LINE
8
BLACK
6
CONTINUOUS
10
144.2517760000000067
20
-85.375
11
146.4399999999999977
21
-85.375
0
LINE
8
BLACK
6
CONTINUOUS
10
146.4399999999999977
20
-85.375
11
146.4399999999999977
21
-85.3299999999999983
0
LINE
8
BLACK
6
CONTINUOUS
10
146.4399999999999977
20
-85.3299999999999983
11
146.4506570000000067
21
-85.2764239999999916
0
LINE
8
BLACK
6
CONTINUOUS
10
146.4506570000000067
20
-85.2764239999999916
11
146.4810049999999819
21
-85.2310049999999961
0
LINE
8
BLACK
6
CONTINUOUS
10
146.4810049999999819
20
-85.2310049999999961
11
146.5264239999999916
21
-85.2006569999999925
0
LINE
8
BLACK
6
CONTINUOUS
10
146.5264239999999916
20
-85.2006569999999925
11
146.5799999999999841
21
-85.1899999999999977
0
LINE
8
BLACK
6
CONTINUOUS
10
146.5799999999999841
20
-85.1899999999999977
11
146.8599999999999852
21
-85.1899999999999977
0
LINE
8
BLACK
6
CONTINUOUS
10
146.8599999999999852
20
-85.1899999999999977
11
146.9135760000000062
21
-85.2006569999999925
0
LINE
8
BLACK
6
CONTINUOUS
10
146.9135760000000062
20
-85.2006569999999925
11
146.9589949999999874
21
-85.2310049999999961
0
LINE
8
BLACK
6
CONTINUOUS
10
146.9589949999999874
20
-85.2310049999999961
11
146.989342999999991
21
-85.2764239999999916
0
LINE
8
BLACK
6
CONTINUOUS
10
146.989342999999991
20
-85.2764239999999916
11
147.
21
-85.3299999999999983
0
LINE
8
BLACK
6
CONTINUOUS
10
147.
20
-85.3299999999999983
11
147.
21
-85.6700000000000017
0
LINE
8
BLACK
6
CONTINUOUS
10
147.
20
-85.6700000000000017
11
146.989342999999991
21
-85.7235759999999942
0
LINE
8
BLACK
6
CONTINUOUS
10
146.989342999999991
20
-85.7235759999999942
11
146.9589949999999874
21
-85.7689949999999897
0
LINE
8
BLACK
6
CONTINUOUS
10
146.9589949999999874
20
-85.7689949999999897
11
146.9135760000000062
21
-85.7993429999999933
0
LINE
8
BLACK
6
CONTINUOUS
10
146.9135760000000062
20
-85.7993429999999933
11
146.8599999999999852
21
-85.8100000000000023
0
LINE
8
BLACK
6
CONTINUOUS
10
146.8599999999999852
20
-85.8100000000000023
11
146.5799999999999841
21
-85.8100000000000023
0
LINE
8
BLACK
6
CONTINUOUS
10
146.5799999999999841
20
-85.8100000000000023
11
146.5264239999999916
21
-85.7993429999999933
0
LINE
8
BLACK
6
CONTINUOUS
10
146.5264239999999916
20
-85.7993429999999933
11
146.4810049999999819
21
-85.7689949999999897
0
LINE
8
BLACK
6
CONTINUOUS
10
146.4810049999999819
20
-85.7689949999999897
11
146.4506570000000067
21
-85.7235759999999942
0
LINE
8
BLACK
6
CONTINUOUS
10
146.4506570000000067
20
-85.7235759999999942
11
146.4399999999999977
21
-85.6700000000000017
0
LINE
8
BLACK
6
CONTINUOUS
10
146.4399999999999977
20
-85.6700000000000017
11
146.4399999999999977
21
-85.625
0
LINE
8
BLACK
6
CONTINUOUS
10
146.4399999999999977
20
-85.625
11
144.1999999999999886
21
-85.625
0
LINE
8
BLACK
6
CONTINUOUS
10
144.1999999999999886
20
-85.625
11
144.1756139999999959
21
-85.6225979999999964
0
LINE
8
BLACK
6
CONTINUOUS
10
144.1756139999999959
20
-85.6225979999999964
11
144.1756129999999985
21
-85.6225979999999964
0
LINE
8
BLACK
6
CONTINUOUS
10
144.1756129999999985
20
-85.6225979999999964
11
144.1624149999999815
21
-85.6171310000000005
0
LINE
8
BLACK
6
CONTINUOUS
10
144.1624149999999815
20
-85.6171310000000005
11
144.1305539999999894
21
-85.6039339999999953
0
LINE
8
BLACK
6
CONTINUOUS
10
144.1305539999999894
20
-85.6039339999999953
11
144.1305480000000045
21
-85.6039279999999962
0
LINE
8
BLACK
6
CONTINUOUS
10
144.1305480000000045
20
-85.6039279999999962
11
144.1116119999999796
21
-85.5883879999999948
0
LINE
8
BLACK
6
CONTINUOUS
10
144.1116119999999796
20
-85.5883879999999948
11
143.1932239999999865
21
-84.6700000000000017
0
LINE
8
BLACK
6
CONTINUOUS
10
143.1932239999999865
20
-84.6700000000000017
11
142.914999999999992
21
-84.6700000000000017
0
LINE
8
BLACK
6
CONTINUOUS
10
142.914999999999992
20
-84.6700000000000017
11
142.8633379999999988
21
-84.6597239999999971
0
LINE
8
BLACK
6
CONTINUOUS
10
142.8633379999999988
20
-84.6597239999999971
11
142.8195409999999868
21
-84.6304590000000019
0
LINE
8
BLACK
6
CONTINUOUS
10
142.8195409999999868
20
-84.6304590000000019
11
142.7902760000000058
21
-84.5866619999999898
0
LINE
8
BLACK
6
CONTINUOUS
10
142.7902760000000058
20
-84.5866619999999898
11
142.7800000000000011
21
-84.5349999999999966
0
LINE
8
BLACK
6
CONTINUOUS
10
142.7800000000000011
20
-84.5349999999999966
11
142.1200000000000045
21
-84.5349999999999966
0
LINE
8
BLACK
6
CONTINUOUS
10
142.1200000000000045
20
-84.5349999999999966
11
142.1200000000000045
21
-84.5450000000000017
0
LINE
8
BLACK
6
CONTINUOUS
10
142.1200000000000045
20
-84.5450000000000017
11
142.1097239999999999
21
-84.5966619999999949
0
LINE
8
BLACK
6
CONTINUOUS
10
142.1097239999999999
20
-84.5966619999999949
11
142.0804589999999905
21
-84.6404589999999928
0
LINE
8
BLACK
6
CONTINUOUS
10
142.0804589999999905
20
-84.6404589999999928
11
142.0366620000000069
21
-84.6697240000000022
0
LINE
8
BLACK
6
CONTINUOUS
10
142.0366620000000069
20
-84.6697240000000022
11
141.9849999999999852
21
-84.6799999999999926
0
LINE
8
BLACK
6
CONTINUOUS
10
141.9849999999999852
20
-84.6799999999999926
11
141.7067759999999907
21
-84.6799999999999926
0
LINE
8
BLACK
6
CONTINUOUS
10
141.7067759999999907
20
-84.6799999999999926
11
141.2983879999999886
21
-85.0883879999999948
0
LINE
8
BLACK
6
CONTINUOUS
10
141.2983879999999886
20
-85.0883879999999948
11
141.2794509999999946
21
-85.1039279999999962
0
LINE
8
BLACK
6
CONTINUOUS
10
141.2794509999999946
20
-85.1039279999999962
11
141.2794460000000072
21
-85.1039339999999953
0
LINE
8
BLACK
6
CONTINUOUS
10
141.2794460000000072
20
-85.1039339999999953
11
141.2475839999999891
21
-85.1171310000000005
0
LINE
8
BLACK
6
CONTINUOUS
10
141.2475839999999891
20
-85.1171310000000005
11
141.2343869999999981
21
-85.1225979999999964
0
LINE
8
BLACK
6
CONTINUOUS
10
141.2343869999999981
20
-85.1225979999999964
11
141.2343860000000006
21
-85.1225979999999964
0
LINE
8
BLACK
6
CONTINUOUS
10
141.2343860000000006
20
-85.1225979999999964
11
141.2099999999999795
21
-85.125
0
LINE
8
BLACK
6
CONTINUOUS
10
141.2099999999999795
20
-85.125
11
140.2399999999999807
21
-85.125
0
LINE
8
BLACK
6
CONTINUOUS
10
140.2399999999999807
20
-85.125
11
140.2399999999999807
21
-85.75
0
LINE
8
BLACK
6
CONTINUOUS
10
140.2399999999999807
20
-85.75
11
135.1599999999999966
21
-85.75
0
LINE
8
BLACK
6
CONTINUOUS
10
135.1599999999999966
20
-85.75
11
135.1599999999999966
21
-84.25
0
LINE
8
BLACK
6
CONTINUOUS
10
135.1599999999999966
20
-84.25
11
140.2399999999999807
21
-84.25
0
LINE
8
BLACK
6
CONTINUOUS
10
140.2399999999999807
20
-84.25
11
140.2399999999999807
21
-84.875
0
LINE
8
BLACK
6
CONTINUOUS
10
140.2399999999999807
20
-84.875
11
141.1582239999999899
21
-84.875
0
LINE
8
BLACK
6
CONTINUOUS
10
141.1582239999999899
20
-84.875
11
141.481363999999985
21
-84.5518589999999932
0
LINE
8
BLACK
6
CONTINUOUS
10
141.481363999999985
20
-84.5518589999999932
11
141.4799999999999898
21
-84.5450000000000017
0
LINE
8
BLACK
6
CONTINUOUS
10
141.4799999999999898
20
-84.5450000000000017
11
141.4799999999999898
21
-84.2749999999999915
0
LINE
8
BLACK
6
CONTINUOUS
10
141.4799999999999898
20
-84.2749999999999915
11
141.4902759999999944
21
-84.2233379999999983
0
LINE
8
BLACK
6
CONTINUOUS
10
141.4902759999999944
20
-84.2233379999999983
11
141.5195410000000038
21
-84.1795410000000004
0
LINE
8
BLACK
6
CONTINUOUS
10
141.5195410000000038
20
-84.1795410000000004
11
141.5633379999999875
21
-84.150275999999991
0
LINE
8
BLACK
6
CONTINUOUS
10
141.5633379999999875
20
-84.150275999999991
11
141.6149999999999807
21
-84.1400000000000006
0
LINE
8
BLACK
6
CONTINUOUS
10
141.6149999999999807
20
-84.1400000000000006
11
141.9849999999999852
21
-84.1400000000000006
0
LINE
8
BLACK
6
CONTINUOUS
10
141.9849999999999852
20
-84.1400000000000006
11
142.0366620000000069
21
-84.150275999999991
0
LINE
8
BLACK
6
CONTINUOUS
10
142.0366620000000069
20
-84.150275999999991
11
142.0804589999999905
21
-84.1795410000000004
0
LINE
8
BLACK
6
CONTINUOUS
10
142.0804589999999905
20
-84.1795410000000004
11
142.1097239999999999
21
-84.2233379999999983
0
LINE
8
BLACK
6
CONTINUOUS
10
142.1097239999999999
20
-84.2233379999999983
11
142.1200000000000045
21
-84.2749999999999915
0
LINE
8
BLACK
6
CONTINUOUS
10
142.1200000000000045
20
-84.2749999999999915
11
142.1200000000000045
21
-84.2849999999999966
0
LINE
8
BLACK
6
CONTINUOUS
10
142.1200000000000045
20
-84.2849999999999966
11
142.7800000000000011
21
-84.2849999999999966
0
LINE
8
BLACK
6
CONTINUOUS
10
142.7800000000000011
20
-84.2849999999999966
11
142.7800000000000011
21
-84.2650000000000006
0
LINE
8
BLACK
6
CONTINUOUS
10
142.7800000000000011
20
-84.2650000000000006
11
142.7902760000000058
21
-84.2133379999999931
0
LINE
8
BLACK
6
CONTINUOUS
10
142.7902760000000058
20
-84.2133379999999931
11
142.8195409999999868
21
-84.1695409999999953
0
LINE
8
BLACK
6
CONTINUOUS
10
142.8195409999999868
20
-84.1695409999999953
11
142.8633379999999988
21
-84.1402760000000001
0
LINE
8
BLACK
6
CONTINUOUS
10
142.8633379999999988
20
-84.1402760000000001
11
142.914999999999992
21
-84.1299999999999955
0
LINE
8
BLACK
6
CONTINUOUS
10
142.914999999999992
20
-84.1299999999999955
11
143.2849999999999966
21
-84.1299999999999955
0
LINE
8
BLACK
6
CONTINUOUS
10
143.2849999999999966
20
-84.1299999999999955
11
143.3366619999999898
21
-84.1402760000000001
0
LINE
8
BLACK
6
CONTINUOUS
10
149.4864179999999863
20
-84.8822579999999931
11
149.5066939999999818
21
-84.8958059999999932
0
LINE
8
BLACK
6
CONTINUOUS
10
149.5066939999999818
20
-84.8958059999999932
11
149.5202419999999961
21
-84.9160820000000029
0
LINE
8
BLACK
6
CONTINUOUS
10
149.5202419999999961
20
-84.9160820000000029
11
149.5250000000000057
21
-84.9399999999999977
0
LINE
8
BLACK
6
CONTINUOUS
10
149.5250000000000057
20
-84.9399999999999977
11
149.5250000000000057
21
-85.6899999999999977
0
LINE
8
BLACK
6
CONTINUOUS
10
149.5250000000000057
20
-85.6899999999999977
11
149.5202419999999961
21
-85.7139179999999925
0
LINE
8
BLACK
6
CONTINUOUS
10
149.5202419999999961
20
-85.7139179999999925
11
149.5066939999999818
21
-85.7341940000000022
0
LINE
8
BLACK
6
CONTINUOUS
10
149.5066939999999818
20
-85.7341940000000022
11
149.4864179999999863
21
-85.7477420000000023
0
LINE
8
BLACK
6
CONTINUOUS
10
149.4864179999999863
20
-85.7477420000000023
11
149.4625000000000057
21
-85.7524999999999977
0
LINE
8
BLACK
6
CONTINUOUS
10
149.4625000000000057
20
-85.7524999999999977
11
149.3375000000000057
21
-85.7524999999999977
0
LINE
8
BLACK
6
CONTINUOUS
10
149.3375000000000057
20
-85.7524999999999977
11
149.3135819999999967
21
-85.7477420000000023
0
LINE
8
BLACK
6
CONTINUOUS
10
149.3135819999999967
20
-85.7477420000000023
11
149.2933060000000012
21
-85.7341940000000022
0
LINE
8
BLACK
6
CONTINUOUS
10
149.2933060000000012
20
-85.7341940000000022
11
149.2797579999999869
21
-85.7139179999999925
0
LINE
8
BLACK
6
CONTINUOUS
10
149.2797579999999869
20
-85.7139179999999925
11
149.2750000000000057
21
-85.6899999999999977
0
LINE
8
BLACK
6
CONTINUOUS
10
149.2750000000000057
20
-85.6899999999999977
11
149.2750000000000057
21
-85.607845999999995
0
LINE
8
BLACK
6
CONTINUOUS
10
149.2750000000000057
20
-85.607845999999995
11
149.2525839999999846
21
-85.6171310000000005
0
LINE
8
BLACK
6
CONTINUOUS
10
149.2525839999999846
20
-85.6171310000000005
11
149.2393869999999936
21
-85.6225979999999964
0
LINE
8
BLACK
6
CONTINUOUS
10
149.2393869999999936
20
-85.6225979999999964
11
149.2393859999999961
21
-85.6225979999999964
0
LINE
8
BLACK
6
CONTINUOUS
10
149.2393859999999961
20
-85.6225979999999964
11
149.2150000000000034
21
-85.625
0
LINE
8
BLACK
6
CONTINUOUS
10
149.2150000000000034
20
-85.625
11
147.9599999999999795
21
-85.625
0
LINE
8
BLACK
6
CONTINUOUS
10
147.9599999999999795
20
-85.625
11
147.9599999999999795
21
-85.6700000000000017
0
LINE
8
BLACK
6
CONTINUOUS
10
147.9599999999999795
20
-85.6700000000000017
11
147.9493429999999989
21
-85.7235759999999942
0
LINE
8
BLACK
6
CONTINUOUS
10
147.9493429999999989
20
-85.7235759999999942
11
147.9189949999999953
21
-85.7689949999999897
0
LINE
8
BLACK
6
CONTINUOUS
10
147.9189949999999953
20
-85.7689949999999897
11
147.8735759999999857
21
-85.7993429999999933
0
LINE
8
BLACK
6
CONTINUOUS
10
147.8735759999999857
20
-85.7993429999999933
11
147.8199999999999932
21
-85.8100000000000023
0
LINE
8
BLACK
6
CONTINUOUS
10
147.8199999999999932
20
-85.8100000000000023
11
147.539999999999992
21
-85.8100000000000023
0
LINE
8
BLACK
6
CONTINUOUS
10
147.539999999999992
20
-85.8100000000000023
11
147.4864239999999995
21
-85.7993429999999933
0
LINE
8
BLACK
6
CONTINUOUS
10
147.4864239999999995
20
-85.7993429999999933
11
147.4410049999999899
21
-85.7689949999999897
0
LINE
8
BLACK
6
CONTINUOUS
10
147.4410049999999899
20
-85.7689949999999897
11
147.4106569999999863
21
-85.7235759999999942
0
LINE
8
BLACK
6
CONTINUOUS
10
147.4106569999999863
20
-85.7235759999999942
11
147.4000000000000057
21
-85.6700000000000017
0
LINE
8
BLACK
6
CONTINUOUS
10
147.4000000000000057
20
-85.6700000000000017
11
147.4000000000000057
21
-85.3299999999999983
0
LINE
8
BLACK
6
CONTINUOUS
10
147.4000000000000057
20
-85.3299999999999983
11
147.4106569999999863
21
-85.2764239999999916
0
LINE
8
BLACK
6
CONTINUOUS
10
147.4106569999999863
20
-85.2764239999999916
11
147.4410049999999899
21
-85.2310049999999961
0
LINE
8
BLACK
6
CONTINUOUS
10
147.4410049999999899
20
-85.2310049999999961
11
147.4864239999999995
21
-85.2006569999999925
0
LINE
8
BLACK
6
CONTINUOUS
10
147.4864239999999995
20
-85.2006569999999925
11
147.539999999999992
21
-85.1899999999999977
0
LINE
8
BLACK
6
CONTINUOUS
10
147.539999999999992
20
-85.1899999999999977
11
147.8199999999999932
21
-85.1899999999999977
0
LINE
8
BLACK
6
CONTINUOUS
10
147.8199999999999932
20
-85.1899999999999977
11
147.8735759999999857
21
-85.2006569999999925
0
LINE
8
BLACK
6
CONTINUOUS
10
147.8735759999999857
20
-85.2006569999999925
11
147.9189949999999953
21
-85.2310049999999961
0
LINE
8
BLACK
6
CONTINUOUS
10
147.9189949999999953
20
-85.2310049999999961
11
147.9493429999999989
21
-85.2764239999999916
0
LINE
8
BLACK
6
CONTINUOUS
10
147.9493429999999989
20
-85.2764239999999916
11
147.9599999999999795
21
-85.3299999999999983
0
LINE
8
BLACK
6
CONTINUOUS
10
147.9599999999999795
20
-85.3299999999999983
11
147.9599999999999795
21
-85.375
0
LINE
8
BLACK
6
CONTINUOUS
10
147.9599999999999795
20
-85.375
11
149.1632239999999854
21
-85.375
0
LINE
8
BLACK
6
CONTINUOUS
10
149.1632239999999854
20
-85.375
11
149.2750000000000057
21
-85.2632229999999964
0
LINE
8
BLACK
6
CONTINUOUS
10
149.2750000000000057
20
-85.2632229999999964
11
149.2750000000000057
21
-84.9399999999999977
0
LINE
8
BLACK
6
CONTINUOUS
10
149.2750000000000057
20
-84.9399999999999977
11
149.2797579999999869
21
-84.9160820000000029
0
LINE
8
BLACK
6
CONTINUOUS
10
149.2797579999999869
20
-84.9160820000000029
11
149.2933060000000012
21
-84.8958059999999932
0
LINE
8
BLACK
6
CONTINUOUS
10
149.2933060000000012
20
-84.8958059999999932
11
149.3135819999999967
21
-84.8822579999999931
0
LINE
8
BLACK
6
CONTINUOUS
10
149.3135819999999967
20
-84.8822579999999931
11
149.3375000000000057
21
-84.8774999999999977
0
LINE
8
BLACK
6
CONTINUOUS
10
149.3375000000000057
20
-84.8774999999999977
11
149.4625000000000057
21
-84.8774999999999977
0
LINE
8
BLACK
6
CONTINUOUS
10
149.4625000000000057
20
-84.8774999999999977
11
149.4864179999999863
21
-84.8822579999999931
0
LINE
8
BLACK
6
CONTINUOUS
10
149.9864179999999863
20
-84.8822579999999931
11
150.0066939999999818
21
-84.8958059999999932
0
LINE
8
BLACK
6
CONTINUOUS
10
150.0066939999999818
20
-84.8958059999999932
11
150.0202419999999961
21
-84.9160820000000029
0
LINE
8
BLACK
6
CONTINUOUS
10
150.0202419999999961
20
-84.9160820000000029
11
150.0250000000000057
21
-84.9399999999999977
0
LINE
8
BLACK
6
CONTINUOUS
10
150.0250000000000057
20
-84.9399999999999977
11
150.0250000000000057
21
-85.6899999999999977
0
LINE
8
BLACK
6
CONTINUOUS
10
150.0250000000000057
20
-85.6899999999999977
11
150.0202419999999961
21
-85.7139179999999925
0
LINE
8
BLACK
6
CONTINUOUS
10
150.0202419999999961
20
-85.7139179999999925
11
150.0066939999999818
21
-85.7341940000000022
0
LINE
8
BLACK
6
CONTINUOUS
10
150.0066939999999818
20
-85.7341940000000022
11
149.9864179999999863
21
-85.7477420000000023
0
LINE
8
BLACK
6
CONTINUOUS
10
149.9864179999999863
20
-85.7477420000000023
11
149.9625000000000057
21
-85.7524999999999977
0
LINE
8
BLACK
6
CONTINUOUS
10
149.9625000000000057
20
-85.7524999999999977
11
149.8375000000000057
21
-85.7524999999999977
0
LINE
8
BLACK
6
CONTINUOUS
10
149.8375000000000057
20
-85.7524999999999977
11
149.8135819999999967
21
-85.7477420000000023
0
LINE
8
BLACK
6
CONTINUOUS
10
149.8135819999999967
20
-85.7477420000000023
11
149.7933060000000012
21
-85.7341940000000022
0
LINE
8
BLACK
6
CONTINUOUS
10
149.7933060000000012
20
-85.7341940000000022
11
149.7797579999999869
21
-85.7139179999999925
0
LINE
8
BLACK
6
CONTINUOUS
10
149.7797579999999869
20
-85.7139179999999925
11
149.7750000000000057
21
-85.6899999999999977
0
LINE
8
BLACK
6
CONTINUOUS
10
149.7750000000000057
20
-85.6899999999999977
11
149.7750000000000057
21
-84.9399999999999977
0
LINE
8
BLACK
6
CONTINUOUS
10
149.7750000000000057
20
-84.9399999999999977
11
149.7797579999999869
21
-84.9160820000000029
0
LINE
8
BLACK
6
CONTINUOUS
10
149.7797579999999869
20
-84.9160820000000029
11
149.7933060000000012
21
-84.8958059999999932
0
LINE
8
BLACK
6
CONTINUOUS
10
149.7933060000000012
20
-84.8958059999999932
11
149.8135819999999967
21
-84.8822579999999931
0
LINE
8
BLACK
6
CONTINUOUS
10
149.8135819999999967
20
-84.8822579999999931
11
149.8375000000000057
21
-84.8774999999999977
0
LINE
8
BLACK
6
CONTINUOUS
10
149.8375000000000057
20
-84.8774999999999977
11
149.9625000000000057
21
-84.8774999999999977
0
LINE
8
BLACK
6
CONTINUOUS
10
149.9625000000000057
20
-84.8774999999999977
11
149.9864179999999863
21
-84.8822579999999931
0
LINE
8
BLACK
6
CONTINUOUS
10
150.4864179999999863
20
-84.8822579999999931
11
150.5066939999999818
21
-84.8958059999999932
0
LINE
8
BLACK
6
CONTINUOUS
10
150.5066939999999818
20
-84.8958059999999932
11
150.5202419999999961
21
-84.9160820000000029
0
LINE
8
BLACK
6
CONTINUOUS
10
150.5202419999999961
20
-84.9160820000000029
11
150.5250000000000057
21
-84.9399999999999977
0
LINE
8
BLACK
6
CONTINUOUS
10
150.5250000000000057
20
-84.9399999999999977
11
150.5250000000000057
21
-85.6899999999999977
0
LINE
8
BLACK
6
CONTINUOUS
10
150.5250000000000057
20
-85.6899999999999977
11
150.5202419999999961
21
-85.7139179999999925
0
LINE
8
BLACK
6
CONTINUOUS
10
150.5202419999999961
20
-85.7139179999999925
11
150.5066939999999818
21
-85.7341940000000022
0
LINE
8
BLACK
6
CONTINUOUS
10
150.5066939999999818
20
-85.7341940000000022
11
150.4864179999999863
21
-85.7477420000000023
0
LINE
8
BLACK
6
CONTINUOUS
10
150.4864179999999863
20
-85.7477420000000023
11
150.4625000000000057
21
-85.7524999999999977
0
LINE
8
BLACK
6
CONTINUOUS
10
150.4625000000000057
20
-85.7524999999999977
11
150.3375000000000057
21
-85.7524999999999977
0
LINE
8
BLACK
6
CONTINUOUS
10
150.3375000000000057
20
-85.7524999999999977
11
150.3135819999999967
21
-85.7477420000000023
0
LINE
8
BLACK
6
CONTINUOUS
10
150.3135819999999967
20
-85.7477420000000023
11
150.2933060000000012
21
-85.7341940000000022
0
LINE
8
BLACK
6
CONTINUOUS
10
150.2933060000000012
20
-85.7341940000000022
11
150.2797579999999869
21
-85.7139179999999925
0
LINE
8
BLACK
6
CONTINUOUS
10
150.2797579999999869
20
-85.7139179999999925
11
150.2750000000000057
21
-85.6899999999999977
0
LINE
8
BLACK
6
CONTINUOUS
10
150.2750000000000057
20
-85.6899999999999977
11
150.2750000000000057
21
-84.9399999999999977
0
LINE
8
BLACK
6
CONTINUOUS
10
150.2750000000000057
20
-84.9399999999999977
11
150.2797579999999869
21
-84.9160820000000029
0
LINE
8
BLACK
6
CONTINUOUS
10
150.2797579999999869
20
-84.9160820000000029
11
150.2933060000000012
21
-84.8958059999999932
0
LINE
8
BLACK
6
CONTINUOUS
10
150.2933060000000012
20
-84.8958059999999932
11
150.3135819999999967
21
-84.8822579999999931
0
LINE
8
BLACK
6
CONTINUOUS
10
150.3135819999999967
20
-84.8822579999999931
11
150.3375000000000057
21
-84.8774999999999977
0
LINE
8
BLACK
6
CONTINUOUS
10
150.3375000000000057
20
-84.8774999999999977
11
150.4625000000000057
21
-84.8774999999999977
0
LINE
8
BLACK
6
CONTINUOUS
10
150.4625000000000057
20
-84.8774999999999977
11
150.4864179999999863
21
-84.8822579999999931
0
LINE
8
BLACK
6
CONTINUOUS
10
150.9864179999999863
20
-84.8822579999999931
11
151.0066939999999818
21
-84.8958059999999932
0
LINE
8
BLACK
6
CONTINUOUS
10
151.0066939999999818
20
-84.8958059999999932
11
151.0202419999999961
21
-84.9160820000000029
0
LINE
8
BLACK
6
CONTINUOUS
10
151.0202419999999961
20
-84.9160820000000029
11
151.0250000000000057
21
-84.9399999999999977
0
LINE
8
BLACK
6
CONTINUOUS
10
151.0250000000000057
20
-84.9399999999999977
11
151.0250000000000057
21
-85.6899999999999977
0
LINE
8
BLACK
6
CONTINUOUS
10
151.0250000000000057
20
-85.6899999999999977
11
151.0202419999999961
21
-85.7139179999999925
0
LINE
8
BLACK
6
CONTINUOUS
10
151.0202419999999961
20
-85.7139179999999925
11
151.0066939999999818
21
-85.7341940000000022
0
LINE
8
BLACK
6
CONTINUOUS
10
151.0066939999999818
20
-85.7341940000000022
11
150.9864179999999863
21
-85.7477420000000023
0
LINE
8
BLACK
6
CONTINUOUS
10
150.9864179999999863
20
-85.7477420000000023
11
150.9625000000000057
21
-85.7524999999999977
0
LINE
8
BLACK
6
CONTINUOUS
10
150.9625000000000057
20
-85.7524999999999977
11
150.8375000000000057
21
-85.7524999999999977
0
LINE
8
BLACK
6
CONTINUOUS
10
150.8375000000000057
20
-85.7524999999999977
11
150.8135819999999967
21
-85.7477420000000023
0
LINE
8
BLACK
6
CONTINUOUS
10
150.8135819999999967
20
-85.7477420000000023
11
150.7933060000000012
21
-85.7341940000000022
0
LINE
8
BLACK
6
CONTINUOUS
10
150.7933060000000012
20
-85.7341940000000022
11
150.7797579999999869
21
-85.7139179999999925
0
LINE
8
BLACK
6
CONTINUOUS
10
150.7797579999999869
20
-85.7139179999999925
11
150.7750000000000057
21
-85.6899999999999977
0
LINE
8
BLACK
6
CONTINUOUS
10
150.7750000000000057
20
-85.6899999999999977
11
150.7750000000000057
21
-84.9399999999999977
0
LINE
8
BLACK
6
CONTINUOUS
10
150.7750000000000057
20
-84.9399999999999977
11
150.7797579999999869
21
-84.9160820000000029
0
LINE
8
BLACK
6
CONTINUOUS
10
150.7797579999999869
20
-84.9160820000000029
11
150.7933060000000012
21
-84.8958059999999932
0
LINE
8
BLACK
6
CONTINUOUS
10
150.7933060000000012
20
-84.8958059999999932
11
150.8135819999999967
21
-84.8822579999999931
0
LINE
8
BLACK
6
CONTINUOUS
10
150.8135819999999967
20
-84.8822579999999931
11
150.8375000000000057
21
-84.8774999999999977
0
LINE
8
BLACK
6
CONTINUOUS
10
150.8375000000000057
20
-84.8774999999999977
11
150.9625000000000057
21
-84.8774999999999977
0
LINE
8
BLACK
6
CONTINUOUS
10
150.9625000000000057
20
-84.8774999999999977
11
150.9864179999999863
21
-84.8822579999999931
0
LINE
8
BLACK
6
CONTINUOUS
10
151.3199999999999932
20
-84.6274999999999977
11
148.9799999999999898
21
-84.6274999999999977
0
LINE
8
BLACK
6
CONTINUOUS
10
148.9799999999999898
20
-84.6274999999999977
11
148.9799999999999898
21
-84.1274999999999977
0
LINE
8
BLACK
6
CONTINUOUS
10
148.9799999999999898
20
-84.1274999999999977
11
151.3199999999999932
21
-84.1274999999999977
0
LINE
8
BLACK
6
CONTINUOUS
10
151.3199999999999932
20
-84.1274999999999977
11
151.3199999999999932
21
-84.6274999999999977
0
LINE
8
BLACK
6
CONTINUOUS
10
150.9864179999999863
20
-83.0372579999999942
11
151.0066939999999818
21
-83.0508059999999944
0
LINE
8
BLACK
6
CONTINUOUS
10
151.0066939999999818
20
-83.0508059999999944
11
151.0202419999999961
21
-83.0710819999999899
0
LINE
8
BLACK
6
CONTINUOUS
10
151.0202419999999961
20
-83.0710819999999899
11
151.0250000000000057
21
-83.0949999999999989
0
LINE
8
BLACK
6
CONTINUOUS
10
151.0250000000000057
20
-83.0949999999999989
11
151.0250000000000057
21
-83.8449999999999989
0
LINE
8
BLACK
6
CONTINUOUS
10
151.0250000000000057
20
-83.8449999999999989
11
151.0202419999999961
21
-83.8689179999999936
0
LINE
8
BLACK
6
CONTINUOUS
10
151.0202419999999961
20
-83.8689179999999936
11
151.0066939999999818
21
-83.8891939999999892
0
LINE
8
BLACK
6
CONTINUOUS
10
151.0066939999999818
20
-83.8891939999999892
11
150.9864179999999863
21
-83.9027419999999893
0
LINE
8
BLACK
6
CONTINUOUS
10
150.9864179999999863
20
-83.9027419999999893
11
150.9625000000000057
21
-83.9074999999999989
0
LINE
8
BLACK
6
CONTINUOUS
10
150.9625000000000057
20
-83.9074999999999989
11
150.8375000000000057
21
-83.9074999999999989
0
LINE
8
BLACK
6
CONTINUOUS
10
150.8375000000000057
20
-83.9074999999999989
11
150.8135819999999967
21
-83.9027419999999893
0
LINE
8
BLACK
6
CONTINUOUS
10
150.8135819999999967
20
-83.9027419999999893
11
150.7933060000000012
21
-83.8891939999999892
0
LINE
8
BLACK
6
CONTINUOUS
10
150.7933060000000012
20
-83.8891939999999892
11
150.7797579999999869
21
-83.8689179999999936
0
LINE
8
BLACK
6
CONTINUOUS
10
150.7797579999999869
20
-83.8689179999999936
11
150.7750000000000057
21
-83.8449999999999989
0
LINE
8
BLACK
6
CONTINUOUS
10
150.7750000000000057
20
-83.8449999999999989
11
150.7750000000000057
21
-83.0949999999999989
0
LINE
8
BLACK
6
CONTINUOUS
10
150.7750000000000057
20
-83.0949999999999989
11
150.7797579999999869
21
-83.0710819999999899
0
LINE
8
BLACK
6
CONTINUOUS
10
150.7797579999999869
20
-83.0710819999999899
11
150.7933060000000012
21
-83.0508059999999944
0
LINE
8
BLACK
6
CONTINUOUS
10
150.7933060000000012
20
-83.0508059999999944
11
150.8135819999999967
21
-83.0372579999999942
0
LINE
8
BLACK
6
CONTINUOUS
10
150.8135819999999967
20
-83.0372579999999942
11
150.8375000000000057
21
-83.0324999999999989
0
LINE
8
BLACK
6
CONTINUOUS
10
150.8375000000000057
20
-83.0324999999999989
11
150.9625000000000057
21
-83.0324999999999989
0
LINE
8
BLACK
6
CONTINUOUS
10
150.9625000000000057
20
-83.0324999999999989
11
150.9864179999999863
21
-83.0372579999999942
0
LINE
8
BLACK
6
CONTINUOUS
10
150.4864179999999863
20
-83.0072579999999931
11
150.5066939999999818
21
-83.0208059999999932
0
LINE
8
BLACK
6
CONTINUOUS
10
150.5066939999999818
20
-83.0208059999999932
11
150.5202419999999961
21
-83.0410820000000029
0
LINE
8
BLACK
6
CONTINUOUS
10
150.5202419999999961
20
-83.0410820000000029
11
150.5250000000000057
21
-83.0649999999999977
0
LINE
8
BLACK
6
CONTINUOUS
10
150.5250000000000057
20
-83.0649999999999977
11
150.5250000000000057
21
-83.8149999999999977
0
LINE
8
BLACK
6
CONTINUOUS
10
150.5250000000000057
20
-83.8149999999999977
11
150.5202419999999961
21
-83.8389179999999925
0
LINE
8
BLACK
6
CONTINUOUS
10
150.5202419999999961
20
-83.8389179999999925
11
150.5066939999999818
21
-83.8591940000000022
0
LINE
8
BLACK
6
CONTINUOUS
10
150.5066939999999818
20
-83.8591940000000022
11
150.4864179999999863
21
-83.8727420000000023
0
LINE
8
BLACK
6
CONTINUOUS
10
150.4864179999999863
20
-83.8727420000000023
11
150.4625000000000057
21
-83.8774999999999977
0
LINE
8
BLACK
6
CONTINUOUS
10
150.4625000000000057
20
-83.8774999999999977
11
150.3375000000000057
21
-83.8774999999999977
0
LINE
8
BLACK
6
CONTINUOUS
10
150.3375000000000057
20
-83.8774999999999977
11
150.3135819999999967
21
-83.8727420000000023
0
LINE
8
BLACK
6
CONTINUOUS
10
150.3135819999999967
20
-83.8727420000000023
11
150.2933060000000012
21
-83.8591940000000022
0
LINE
8
BLACK
6
CONTINUOUS
10
150.2933060000000012
20
-83.8591940000000022
11
150.2797579999999869
21
-83.8389179999999925
0
LINE
8
BLACK
6
CONTINUOUS
10
150.2797579999999869
20
-83.8389179999999925
11
150.2750000000000057
21
-83.8149999999999977
0
LINE
8
BLACK
6
CONTINUOUS
10
150.2750000000000057
20
-83.8149999999999977
11
150.2750000000000057
21
-83.0649999999999977
0
LINE
8
BLACK
6
CONTINUOUS
10
150.2750000000000057
20
-83.0649999999999977
11
150.2797579999999869
21
-83.0410820000000029
0
LINE
8
BLACK
6
CONTINUOUS
10
150.2797579999999869
20
-83.0410820000000029
11
150.2933060000000012
21
-83.0208059999999932
0
LINE
8
BLACK
6
CONTINUOUS
10
150.2933060000000012
20
-83.0208059999999932
11
150.3135819999999967
21
-83.0072579999999931
0
LINE
8
BLACK
6
CONTINUOUS
10
150.3135819999999967
20
-83.0072579999999931
11
150.3375000000000057
21
-83.0024999999999977
0
LINE
8
BLACK
6
CONTINUOUS
10
150.3375000000000057
20
-83.0024999999999977
11
150.4625000000000057
21
-83.0024999999999977
0
LINE
8
BLACK
6
CONTINUOUS
10
150.4625000000000057
20
-83.0024999999999977
11
150.4864179999999863
21
-83.0072579999999931
0
LINE
8
BLACK
6
CONTINUOUS
10
149.9864179999999863
20
-82.9847579999999994
11
150.0066939999999818
21
-82.9983059999999995
0
LINE
8
BLACK
6
CONTINUOUS
10
150.0066939999999818
20
-82.9983059999999995
11
150.0202419999999961
21
-83.018581999999995
0
LINE
8
BLACK
6
CONTINUOUS
10
150.0202419999999961
20
-83.018581999999995
11
150.0250000000000057
21
-83.0424999999999898
0
LINE
8
BLACK
6
CONTINUOUS
10
150.0250000000000057
20
-83.0424999999999898
11
150.0250000000000057
21
-83.7924999999999898
0
LINE
8
BLACK
6
CONTINUOUS
10
150.0250000000000057
20
-83.7924999999999898
11
150.0202419999999961
21
-83.8164179999999988
0
LINE
8
BLACK
6
CONTINUOUS
10
150.0202419999999961
20
-83.8164179999999988
11
150.0066939999999818
21
-83.8366939999999943
0
LINE
8
BLACK
6
CONTINUOUS
10
150.0066939999999818
20
-83.8366939999999943
11
149.9864179999999863
21
-83.8502419999999944
0
LINE
8
BLACK
6
CONTINUOUS
10
149.9864179999999863
20
-83.8502419999999944
11
149.9625000000000057
21
-83.8549999999999898
0
LINE
8
BLACK
6
CONTINUOUS
10
149.9625000000000057
20
-83.8549999999999898
11
149.8375000000000057
21
-83.8549999999999898
0
LINE
8
BLACK
6
CONTINUOUS
10
149.8375000000000057
20
-83.8549999999999898
11
149.8135819999999967
21
-83.8502419999999944
0
LINE
8
BLACK
6
CONTINUOUS
10
149.8135819999999967
20
-83.8502419999999944
11
149.7933060000000012
21
-83.8366939999999943
0
LINE
8
BLACK
6
CONTINUOUS
10
149.7933060000000012
20
-83.8366939999999943
11
149.7797579999999869
21
-83.8164179999999988
0
LINE
8
BLACK
6
CONTINUOUS
10
149.7797579999999869
20
-83.8164179999999988
11
149.7750000000000057
21
-83.7924999999999898
0
LINE
8
BLACK
6
CONTINUOUS
10
149.7750000000000057
20
-83.7924999999999898
11
149.7750000000000057
21
-83.0424999999999898
0
LINE
8
BLACK
6
CONTINUOUS
10
149.7750000000000057
20
-83.0424999999999898
11
149.7797579999999869
21
-83.018581999999995
0
LINE
8
BLACK
6
CONTINUOUS
10
149.7797579999999869
20
-83.018581999999995
11
149.7933060000000012
21
-82.9983059999999995
0
LINE
8
BLACK
6
CONTINUOUS
10
149.7933060000000012
20
-82.9983059999999995
11
149.8135819999999967
21
-82.9847579999999994
0
LINE
8
BLACK
6
CONTINUOUS
10
149.8135819999999967
20
-82.9847579999999994
11
149.8375000000000057
21
-82.9799999999999898
0
LINE
8
BLACK
6
CONTINUOUS
10
149.8375000000000057
20
-82.9799999999999898
11
149.9625000000000057
21
-82.9799999999999898
0
LINE
8
BLACK
6
CONTINUOUS
10
149.9625000000000057
20
-82.9799999999999898
11
149.9864179999999863
21
-82.9847579999999994
0
LINE
8
BLACK
6
CONTINUOUS
10
149.4864179999999863
20
-82.9672580000000011
11
149.5066939999999818
21
-82.9808060000000012
0
LINE
8
BLACK
6
CONTINUOUS
10
149.5066939999999818
20
-82.9808060000000012
11
149.5202419999999961
21
-83.0010819999999967
0
LINE
8
BLACK
6
CONTINUOUS
10
149.5202419999999961
20
-83.0010819999999967
11
149.5250000000000057
21
-83.0249999999999915
0
LINE
8
BLACK
6
CONTINUOUS
10
149.5250000000000057
20
-83.0249999999999915
11
149.5250000000000057
21
-83.7749999999999915
0
LINE
8
BLACK
6
CONTINUOUS
10
149.5250000000000057
20
-83.7749999999999915
11
149.5202419999999961
21
-83.7989180000000005
0
LINE
8
BLACK
6
CONTINUOUS
10
149.5202419999999961
20
-83.7989180000000005
11
149.5066939999999818
21
-83.819193999999996
0
LINE
8
BLACK
6
CONTINUOUS
10
149.5066939999999818
20
-83.819193999999996
11
149.4864179999999863
21
-83.8327419999999961
0
LINE
8
BLACK
6
CONTINUOUS
10
149.4864179999999863
20
-83.8327419999999961
11
149.4625000000000057
21
-83.8374999999999915
0
LINE
8
BLACK
6
CONTINUOUS
10
149.4625000000000057
20
-83.8374999999999915
11
149.3375000000000057
21
-83.8374999999999915
0
LINE
8
BLACK
6
CONTINUOUS
10
149.3375000000000057
20
-83.8374999999999915
11
149.3135819999999967
21
-83.8327419999999961
0
LINE
8
BLACK
6
CONTINUOUS
10
149.3135819999999967
20
-83.8327419999999961
11
149.2933060000000012
21
-83.819193999999996
0
LINE
8
BLACK
6
CONTINUOUS
10
149.2933060000000012
20
-83.819193999999996
11
149.2797579999999869
21
-83.7989180000000005
0
LINE
8
BLACK
6
CONTINUOUS
10
149.2797579999999869
20
-83.7989180000000005
11
149.2750000000000057
21
-83.7749999999999915
0
LINE
8
BLACK
6
CONTINUOUS
10
149.2750000000000057
20
-83.7749999999999915
11
149.2750000000000057
21
-83.5249999999999915
0
LINE
8
BLACK
6
CONTINUOUS
10
149.2750000000000057
20
-83.5249999999999915
11
147.9799999999999898
21
-83.5249999999999915
0
LINE
8
BLACK
6
CONTINUOUS
10
147.9799999999999898
20
-83.5249999999999915
11
147.9799999999999898
21
-83.5699999999999932
0
LINE
8
BLACK
6
CONTINUOUS
10
147.9799999999999898
20
-83.5699999999999932
11
147.9693429999999807
21
-83.6235759999999999
0
LINE
8
BLACK
6
CONTINUOUS
10
147.9693429999999807
20
-83.6235759999999999
11
147.9389950000000056
21
-83.6689949999999953
0
LINE
8
BLACK
6
CONTINUOUS
10
147.9389950000000056
20
-83.6689949999999953
11
147.8935759999999959
21
-83.6993429999999989
0
LINE
8
BLACK
6
CONTINUOUS
10
147.8935759999999959
20
-83.6993429999999989
11
147.8400000000000034
21
-83.7099999999999937
0
LINE
8
BLACK
6
CONTINUOUS
10
147.8400000000000034
20
-83.7099999999999937
11
147.5600000000000023
21
-83.7099999999999937
0
LINE
8
BLACK
6
CONTINUOUS
10
147.5600000000000023
20
-83.7099999999999937
11
147.5064239999999813
21
-83.6993429999999989
0
LINE
8
BLACK
6
CONTINUOUS
10
147.5064239999999813
20
-83.6993429999999989
11
147.4610050000000001
21
-83.6689949999999953
0
LINE
8
BLACK
6
CONTINUOUS
10
147.4610050000000001
20
-83.6689949999999953
11
147.4306569999999965
21
-83.6235759999999999
0
LINE
8
BLACK
6
CONTINUOUS
10
147.4306569999999965
20
-83.6235759999999999
11
147.4199999999999875
21
-83.5699999999999932
0
LINE
8
BLACK
6
CONTINUOUS
10
147.4199999999999875
20
-83.5699999999999932
11
147.4199999999999875
21
-83.2299999999999898
0
LINE
8
BLACK
6
CONTINUOUS
10
147.4199999999999875
20
-83.2299999999999898
11
147.4306569999999965
21
-83.1764239999999972
0
LINE
8
BLACK
6
CONTINUOUS
10
147.4306569999999965
20
-83.1764239999999972
11
147.4610050000000001
21
-83.1310050000000018
0
LINE
8
BLACK
6
CONTINUOUS
10
147.4610050000000001
20
-83.1310050000000018
11
147.5064239999999813
21
-83.1006569999999982
0
LINE
8
BLACK
6
CONTINUOUS
10
147.5064239999999813
20
-83.1006569999999982
11
147.5600000000000023
21
-83.0899999999999892
0
LINE
8
BLACK
6
CONTINUOUS
10
147.5600000000000023
20
-83.0899999999999892
11
147.8400000000000034
21
-83.0899999999999892
0
LINE
8
BLACK
6
CONTINUOUS
10
147.8400000000000034
20
-83.0899999999999892
11
147.8935759999999959
21
-83.1006569999999982
0
LINE
8
BLACK
6
CONTINUOUS
10
147.8935759999999959
20
-83.1006569999999982
11
147.9389950000000056
21
-83.1310050000000018
0
LINE
8
BLACK
6
CONTINUOUS
10
147.9389950000000056
20
-83.1310050000000018
11
147.9693429999999807
21
-83.1764239999999972
0
LINE
8
BLACK
6
CONTINUOUS
10
147.9693429999999807
20
-83.1764239999999972
11
147.9799999999999898
21
-83.2299999999999898
0
LINE
8
BLACK
6
CONTINUOUS
10
147.9799999999999898
20
-83.2299999999999898
11
147.9799999999999898
21
-83.2749999999999915
0
LINE
8
BLACK
6
CONTINUOUS
10
147.9799999999999898
20
-83.2749999999999915
11
149.2750000000000057
21
-83.2749999999999915
0
LINE
8
BLACK
6
CONTINUOUS
10
149.2750000000000057
20
-83.2749999999999915
11
149.2750000000000057
21
-83.0249999999999915
0
LINE
8
BLACK
6
CONTINUOUS
10
149.2750000000000057
20
-83.0249999999999915
11
149.2797579999999869
21
-83.0010819999999967
0
LINE
8
BLACK
6
CONTINUOUS
10
149.2797579999999869
20
-83.0010819999999967
11
149.2933060000000012
21
-82.9808060000000012
0
LINE
8
BLACK
6
CONTINUOUS
10
149.2933060000000012
20
-82.9808060000000012
11
149.3135819999999967
21
-82.9672580000000011
0
LINE
8
BLACK
6
CONTINUOUS
10
149.3135819999999967
20
-82.9672580000000011
11
149.3375000000000057
21
-82.9624999999999915
0
LINE
8
BLACK
6
CONTINUOUS
10
149.3375000000000057
20
-82.9624999999999915
11
149.4625000000000057
21
-82.9624999999999915
0
LINE
8
BLACK
6
CONTINUOUS
10
149.4625000000000057
20
-82.9624999999999915
11
149.4864179999999863
21
-82.9672580000000011
0
LINE
8
BLACK
6
CONTINUOUS
10
146.933575999999988
20
-83.1006569999999982
11
146.9789949999999976
21
-83.1310050000000018
0
LINE
8
BLACK
6
CONTINUOUS
10
146.9789949999999976
20
-83.1310050000000018
11
147.0093430000000012
21
-83.1764239999999972
0
LINE
8
BLACK
6
CONTINUOUS
10
147.0093430000000012
20
-83.1764239999999972
11
147.0199999999999818
21
-83.2299999999999898
0
LINE
8
BLACK
6
CONTINUOUS
10
147.0199999999999818
20
-83.2299999999999898
11
147.0199999999999818
21
-83.5699999999999932
0
LINE
8
BLACK
6
CONTINUOUS
10
147.0199999999999818
20
-83.5699999999999932
11
147.0093430000000012
21
-83.6235759999999999
0
LINE
8
BLACK
6
CONTINUOUS
10
147.0093430000000012
20
-83.6235759999999999
11
146.9789949999999976
21
-83.6689949999999953
0
LINE
8
BLACK
6
CONTINUOUS
10
146.9789949999999976
20
-83.6689949999999953
11
146.933575999999988
21
-83.6993429999999989
0
LINE
8
BLACK
6
CONTINUOUS
10
146.933575999999988
20
-83.6993429999999989
11
146.8799999999999955
21
-83.7099999999999937
0
LINE
8
BLACK
6
CONTINUOUS
10
146.8799999999999955
20
-83.7099999999999937
11
146.5999999999999943
21
-83.7099999999999937
0
LINE
8
BLACK
6
CONTINUOUS
10
146.5999999999999943
20
-83.7099999999999937
11
146.5464240000000018
21
-83.6993429999999989
0
LINE
8
BLACK
6
CONTINUOUS
10
146.5464240000000018
20
-83.6993429999999989
11
146.5010049999999922
21
-83.6689949999999953
0
LINE
8
BLACK
6
CONTINUOUS
10
146.5010049999999922
20
-83.6689949999999953
11
146.4706569999999886
21
-83.6235759999999999
0
LINE
8
BLACK
6
CONTINUOUS
10
146.4706569999999886
20
-83.6235759999999999
11
146.4599999999999795
21
-83.5699999999999932
0
LINE
8
BLACK
6
CONTINUOUS
10
146.4599999999999795
20
-83.5699999999999932
11
146.4599999999999795
21
-83.5249999999999915
0
LINE
8
BLACK
6
CONTINUOUS
10
146.4599999999999795
20
-83.5249999999999915
11
143.418011000000007
21
-83.5249999999999915
0
LINE
8
BLACK
6
CONTINUOUS
10
143.418011000000007
20
-83.5249999999999915
11
143.4097239999999829
21
-83.5666619999999938
0
LINE
8
BLACK
6
CONTINUOUS
10
143.4097239999999829
20
-83.5666619999999938
11
143.3804590000000019
21
-83.6104589999999916
0
LINE
8
BLACK
6
CONTINUOUS
10
143.3804590000000019
20
-83.6104589999999916
11
143.3366619999999898
21
-83.6397240000000011
0
LINE
8
BLACK
6
CONTINUOUS
10
143.3366619999999898
20
-83.6397240000000011
11
143.2849999999999966
21
-83.6499999999999915
0
LINE
8
BLACK
6
CONTINUOUS
10
143.2849999999999966
20
-83.6499999999999915
11
142.914999999999992
21
-83.6499999999999915
0
LINE
8
BLACK
6
CONTINUOUS
10
142.914999999999992
20
-83.6499999999999915
11
142.8633379999999988
21
-83.6397240000000011
0
LINE
8
BLACK
6
CONTINUOUS
10
142.8633379999999988
20
-83.6397240000000011
11
142.8195409999999868
21
-83.6104589999999916
0
LINE
8
BLACK
6
CONTINUOUS
10
142.8195409999999868
20
-83.6104589999999916
11
142.7902760000000058
21
-83.5666619999999938
0
LINE
8
BLACK
6
CONTINUOUS
10
142.7902760000000058
20
-83.5666619999999938
11
142.7800000000000011
21
-83.5150000000000006
0
LINE
8
BLACK
6
CONTINUOUS
10
142.7800000000000011
20
-83.5150000000000006
11
142.7800000000000011
21
-83.2449999999999903
0
LINE
8
BLACK
6
CONTINUOUS
10
142.7800000000000011
20
-83.2449999999999903
11
142.7902760000000058
21
-83.1933379999999971
0
LINE
8
BLACK
6
CONTINUOUS
10
142.7902760000000058
20
-83.1933379999999971
11
142.8195409999999868
21
-83.1495409999999993
0
LINE
8
BLACK
6
CONTINUOUS
10
142.8195409999999868
20
-83.1495409999999993
11
142.8633379999999988
21
-83.1202759999999898
0
LINE
8
BLACK
6
CONTINUOUS
10
142.8633379999999988
20
-83.1202759999999898
11
142.914999999999992
21
-83.1099999999999994
0
LINE
8
BLACK
6
CONTINUOUS
10
142.914999999999992
20
-83.1099999999999994
11
143.2849999999999966
21
-83.1099999999999994
0
LINE
8
BLACK
6
CONTINUOUS
10
143.2849999999999966
20
-83.1099999999999994
11
143.3366619999999898
21
-83.1202759999999898
0
LINE
8
BLACK
6
CONTINUOUS
10
143.3366619999999898
20
-83.1202759999999898
11
143.3804590000000019
21
-83.1495409999999993
0
LINE
8
BLACK
6
CONTINUOUS
10
143.3804590000000019
20
-83.1495409999999993
11
143.4097239999999829
21
-83.1933379999999971
0
LINE
8
BLACK
6
CONTINUOUS
10
143.4097239999999829
20
-83.1933379999999971
11
143.4199999999999875
21
-83.2449999999999903
0
LINE
8
BLACK
6
CONTINUOUS
10
143.4199999999999875
20
-83.2449999999999903
11
143.4199999999999875
21
-83.2749999999999915
0
LINE
8
BLACK
6
CONTINUOUS
10
143.4199999999999875
20
-83.2749999999999915
11
146.4599999999999795
21
-83.2749999999999915
0
LINE
8
BLACK
6
CONTINUOUS
10
146.4599999999999795
20
-83.2749999999999915
11
146.4599999999999795
21
-83.2299999999999898
0
LINE
8
BLACK
6
CONTINUOUS
10
146.4599999999999795
20
-83.2299999999999898
11
146.4706569999999886
21
-83.1764239999999972
0
LINE
8
BLACK
6
CONTINUOUS
10
146.4706569999999886
20
-83.1764239999999972
11
146.5010049999999922
21
-83.1310050000000018
0
LINE
8
BLACK
6
CONTINUOUS
10
146.5010049999999922
20
-83.1310050000000018
11
146.5464240000000018
21
-83.1006569999999982
0
LINE
8
BLACK
6
CONTINUOUS
10
146.5464240000000018
20
-83.1006569999999982
11
146.5999999999999943
21
-83.0899999999999892
0
LINE
8
BLACK
6
CONTINUOUS
10
146.5999999999999943
20
-83.0899999999999892
11
146.8799999999999955
21
-83.0899999999999892
0
LINE
8
BLACK
6
CONTINUOUS
10
146.8799999999999955
20
-83.0899999999999892
11
146.933575999999988
21
-83.1006569999999982
0
LINE
8
BLACK
6
CONTINUOUS
10
175.3694459999999822
20
-63.4960669999999965
11
175.388387999999992
21
-63.5116119999999995
0
LINE
8
BLACK
6
CONTINUOUS
10
175.388387999999992
20
-63.5116119999999995
11
175.7883879999999976
21
-63.9116110000000006
0
LINE
8
BLACK
6
CONTINUOUS
10
175.7883879999999976
20
-63.9116110000000006
11
175.8039330000000007
21
-63.9305529999999962
0
LINE
8
BLACK
6
CONTINUOUS
10
175.8039330000000007
20
-63.9305529999999962
11
175.8225979999999993
21
-63.9756129999999956
0
LINE
8
BLACK
6
CONTINUOUS
10
175.8225979999999993
20
-63.9756129999999956
11
175.8225979999999993
21
-64.0243859999999927
0
LINE
8
BLACK
6
CONTINUOUS
10
175.8225979999999993
20
-64.0243859999999927
11
175.8039330000000007
21
-64.0694459999999992
0
LINE
8
BLACK
6
CONTINUOUS
10
175.8039330000000007
20
-64.0694459999999992
11
175.7694459999999879
21
-64.1039329999999978
0
LINE
8
BLACK
6
CONTINUOUS
10
175.7694459999999879
20
-64.1039329999999978
11
175.7243859999999813
21
-64.1225979999999964
0
LINE
8
BLACK
6
CONTINUOUS
10
175.7243859999999813
20
-64.1225979999999964
11
175.6756129999999985
21
-64.1225979999999964
0
LINE
8
BLACK
6
CONTINUOUS
10
175.6756129999999985
20
-64.1225979999999964
11
175.6305529999999919
21
-64.1039329999999978
0
LINE
8
BLACK
6
CONTINUOUS
10
175.6305529999999919
20
-64.1039329999999978
11
175.6116109999999821
21
-64.0883879999999948
0
LINE
8
BLACK
6
CONTINUOUS
10
175.6116109999999821
20
-64.0883879999999948
11
175.2116120000000024
21
-63.6883879999999962
0
LINE
8
BLACK
6
CONTINUOUS
10
175.2116120000000024
20
-63.6883879999999962
11
175.1960669999999993
21
-63.6694460000000007
0
LINE
8
BLACK
6
CONTINUOUS
10
175.1960669999999993
20
-63.6694460000000007
11
175.1774020000000007
21
-63.6243869999999987
0
LINE
8
BLACK
6
CONTINUOUS
10
175.1774020000000007
20
-63.6243869999999987
11
175.1774020000000007
21
-63.575612999999997
0
LINE
8
BLACK
6
CONTINUOUS
10
175.1774020000000007
20
-63.575612999999997
11
175.1960669999999993
21
-63.5305539999999951
0
LINE
8
BLACK
6
CONTINUOUS
10
175.1960669999999993
20
-63.5305539999999951
11
175.2305539999999837
21
-63.4960669999999965
0
LINE
8
BLACK
6
CONTINUOUS
10
175.2305539999999837
20
-63.4960669999999965
11
175.2756129999999928
21
-63.4774019999999979
0
LINE
8
BLACK
6
CONTINUOUS
10
175.2756129999999928
20
-63.4774019999999979
11
175.3243870000000015
21
-63.4774019999999979
0
LINE
8
BLACK
6
CONTINUOUS
10
175.3243870000000015
20
-63.4774019999999979
11
175.3694459999999822
21
-63.4960669999999965
  0
ENDSEC
  0
EOF
