  0
SECTION
  2
BLOCKS
  0
ENDSEC
  0
SECTION
  2
ENTITIES
  0
LINE
  8
0
 10
428.699
 20
65.6869
 11
429.953
 21
66.3261
  0
LINE
  8
0
 10
429.953
 20
66.3261
 11
430.949
 21
67.3216
  0
LINE
  8
0
 10
430.949
 20
67.3216
 11
431.588
 21
68.5761
  0
LINE
  8
0
 10
431.588
 20
68.5761
 11
431.808
 21
69.9667
  0
LINE
  8
0
 10
431.808
 20
69.9667
 11
431.808
 21
100.233
  0
LINE
  8
0
 10
431.808
 20
100.233
 11
425.808
 21
100.233
  0
LINE
  8
0
 10
425.808
 20
100.233
 11
425.808
 21
103.983
  0
LINE
  8
0
 10
425.808
 20
103.983
 11
431.69
 21
103.983
  0
LINE
  8
0
 10
431.69
 20
103.983
 11
431.588
 21
104.624
  0
LINE
  8
0
 10
431.588
 20
104.624
 11
430.949
 21
105.878
  0
LINE
  8
0
 10
430.949
 20
105.878
 11
429.953
 21
106.874
  0
LINE
  8
0
 10
429.953
 20
106.874
 11
428.699
 21
107.513
  0
LINE
  8
0
 10
428.699
 20
107.513
 11
427.308
 21
107.733
  0
LINE
  8
0
 10
427.308
 20
107.733
 11
425.918
 21
107.513
  0
LINE
  8
0
 10
425.918
 20
107.513
 11
424.663
 21
106.874
  0
LINE
  8
0
 10
424.663
 20
106.874
 11
414.042
 21
100.233
  0
LINE
  8
0
 10
414.042
 20
100.233
 11
414.042
 21
69.9667
  0
LINE
  8
0
 10
414.042
 20
69.9667
 11
425.918
 21
65.6869
  0
LINE
  8
0
 10
425.918
 20
65.6869
 11
427.308
 21
65.4667
  0
LINE
  8
0
 10
427.308
 20
65.4667
 11
428.699
 21
65.6869
  0
LINE
  8
0
 10
415.492
 20
89.1444
 11
415.492
 21
97.2333
  0
LINE
  8
0
 10
415.492
 20
97.2333
 11
418.492
 21
97.2333
  0
LINE
  8
0
 10
418.492
 20
97.2333
 11
418.492
 21
89.1444
  0
LINE
  8
0
 10
418.492
 20
89.1444
 11
415.492
 21
89.1444
  0
LINE
  8
0
 10
416.497
 20
83.5783
 11
416.051
 21
83.8056
  0
LINE
  8
0
 10
416.051
 20
83.8056
 11
415.697
 21
84.1595
  0
LINE
  8
0
 10
415.697
 20
84.1595
 11
415.47
 21
84.6056
  0
LINE
  8
0
 10
415.47
 20
84.6056
 11
415.392
 21
85.1
  0
LINE
  8
0
 10
415.392
 20
85.1
 11
415.47
 21
85.5944
  0
LINE
  8
0
 10
415.47
 20
85.5944
 11
415.697
 21
86.0404
  0
LINE
  8
0
 10
415.697
 20
86.0404
 11
416.051
 21
86.3944
  0
LINE
  8
0
 10
416.051
 20
86.3944
 11
416.497
 21
86.6217
  0
LINE
  8
0
 10
416.497
 20
86.6217
 11
416.992
 21
86.7
  0
LINE
  8
0
 10
416.992
 20
86.7
 11
417.486
 21
86.6217
  0
LINE
  8
0
 10
417.486
 20
86.6217
 11
417.932
 21
86.3944
  0
LINE
  8
0
 10
417.932
 20
86.3944
 11
418.286
 21
86.0404
  0
LINE
  8
0
 10
418.286
 20
86.0404
 11
418.513
 21
85.5944
  0
LINE
  8
0
 10
418.513
 20
85.5944
 11
418.592
 21
85.1
  0
LINE
  8
0
 10
418.592
 20
85.1
 11
418.513
 21
84.6056
  0
LINE
  8
0
 10
418.513
 20
84.6056
 11
418.286
 21
84.1595
  0
LINE
  8
0
 10
418.286
 20
84.1595
 11
417.932
 21
83.8056
  0
LINE
  8
0
 10
417.932
 20
83.8056
 11
417.486
 21
83.5783
  0
LINE
  8
0
 10
417.486
 20
83.5783
 11
416.992
 21
83.5
  0
LINE
  8
0
 10
416.992
 20
83.5
 11
416.497
 21
83.5783
  0
LINE
  8
0
 10
415.492
 20
72.9667
 11
415.492
 21
81.0555
  0
LINE
  8
0
 10
415.492
 20
81.0555
 11
418.492
 21
81.0555
  0
LINE
  8
0
 10
418.492
 20
81.0555
 11
418.492
 21
72.9667
  0
LINE
  8
0
 10
418.492
 20
72.9667
 11
415.492
 21
72.9667
  0
LINE
  8
0
 10
426.845
 20
68.5401
 11
426.427
 21
68.7531
  0
LINE
  8
0
 10
426.427
 20
68.7531
 11
426.095
 21
69.085
  0
LINE
  8
0
 10
426.095
 20
69.085
 11
425.882
 21
69.5031
  0
LINE
  8
0
 10
425.882
 20
69.5031
 11
425.808
 21
69.9667
  0
LINE
  8
0
 10
425.808
 20
69.9667
 11
425.882
 21
70.4302
  0
LINE
  8
0
 10
425.882
 20
70.4302
 11
426.095
 21
70.8483
  0
LINE
  8
0
 10
426.095
 20
70.8483
 11
426.427
 21
71.1802
  0
LINE
  8
0
 10
426.427
 20
71.1802
 11
426.845
 21
71.3932
  0
LINE
  8
0
 10
426.845
 20
71.3932
 11
427.308
 21
71.4667
  0
LINE
  8
0
 10
427.308
 20
71.4667
 11
427.772
 21
71.3932
  0
LINE
  8
0
 10
427.772
 20
71.3932
 11
428.19
 21
71.1802
  0
LINE
  8
0
 10
428.19
 20
71.1802
 11
428.522
 21
70.8483
  0
LINE
  8
0
 10
428.522
 20
70.8483
 11
428.735
 21
70.4302
  0
LINE
  8
0
 10
428.735
 20
70.4302
 11
428.808
 21
69.9667
  0
LINE
  8
0
 10
428.808
 20
69.9667
 11
428.735
 21
69.5031
  0
LINE
  8
0
 10
428.735
 20
69.5031
 11
428.522
 21
69.085
  0
LINE
  8
0
 10
428.522
 20
69.085
 11
428.19
 21
68.7531
  0
LINE
  8
0
 10
428.19
 20
68.7531
 11
427.772
 21
68.5401
  0
LINE
  8
0
 10
427.772
 20
68.5401
 11
427.308
 21
68.4667
  0
LINE
  8
0
 10
427.308
 20
68.4667
 11
426.845
 21
68.5401
  0
LINE
  8
0
 10
408.932
 20
65.6869
 11
410.187
 21
66.3261
  0
LINE
  8
0
 10
410.187
 20
66.3261
 11
411.182
 21
67.3216
  0
LINE
  8
0
 10
411.182
 20
67.3216
 11
411.821
 21
68.5761
  0
LINE
  8
0
 10
411.821
 20
68.5761
 11
412.042
 21
69.9667
  0
LINE
  8
0
 10
412.042
 20
69.9667
 11
412.042
 21
100.233
  0
LINE
  8
0
 10
412.042
 20
100.233
 11
406.042
 21
100.233
  0
LINE
  8
0
 10
406.042
 20
100.233
 11
406.042
 21
103.983
  0
LINE
  8
0
 10
406.042
 20
103.983
 11
411.923
 21
103.983
  0
LINE
  8
0
 10
411.923
 20
103.983
 11
411.821
 21
104.624
  0
LINE
  8
0
 10
411.821
 20
104.624
 11
411.182
 21
105.878
  0
LINE
  8
0
 10
411.182
 20
105.878
 11
410.187
 21
106.874
  0
LINE
  8
0
 10
410.187
 20
106.874
 11
408.932
 21
107.513
  0
LINE
  8
0
 10
408.932
 20
107.513
 11
407.542
 21
107.733
  0
LINE
  8
0
 10
407.542
 20
107.733
 11
406.151
 21
107.513
  0
LINE
  8
0
 10
406.151
 20
107.513
 11
404.897
 21
106.874
  0
LINE
  8
0
 10
404.897
 20
106.874
 11
394.275
 21
100.233
  0
LINE
  8
0
 10
394.275
 20
100.233
 11
394.275
 21
69.9667
  0
LINE
  8
0
 10
394.275
 20
69.9667
 11
406.151
 21
65.6869
  0
LINE
  8
0
 10
406.151
 20
65.6869
 11
407.542
 21
65.4667
  0
LINE
  8
0
 10
407.542
 20
65.4667
 11
408.932
 21
65.6869
  0
LINE
  8
0
 10
395.725
 20
89.1444
 11
395.725
 21
97.2333
  0
LINE
  8
0
 10
395.725
 20
97.2333
 11
398.725
 21
97.2333
  0
LINE
  8
0
 10
398.725
 20
97.2333
 11
398.725
 21
89.1444
  0
LINE
  8
0
 10
398.725
 20
89.1444
 11
395.725
 21
89.1444
  0
LINE
  8
0
 10
396.731
 20
83.5783
 11
396.285
 21
83.8056
  0
LINE
  8
0
 10
396.285
 20
83.8056
 11
395.931
 21
84.1595
  0
LINE
  8
0
 10
395.931
 20
84.1595
 11
395.703
 21
84.6056
  0
LINE
  8
0
 10
395.703
 20
84.6056
 11
395.625
 21
85.1
  0
LINE
  8
0
 10
395.625
 20
85.1
 11
395.703
 21
85.5944
  0
LINE
  8
0
 10
395.703
 20
85.5944
 11
395.931
 21
86.0404
  0
LINE
  8
0
 10
395.931
 20
86.0404
 11
396.285
 21
86.3944
  0
LINE
  8
0
 10
396.285
 20
86.3944
 11
396.731
 21
86.6217
  0
LINE
  8
0
 10
396.731
 20
86.6217
 11
397.225
 21
86.7
  0
LINE
  8
0
 10
397.225
 20
86.7
 11
397.719
 21
86.6217
  0
LINE
  8
0
 10
397.719
 20
86.6217
 11
398.165
 21
86.3944
  0
LINE
  8
0
 10
398.165
 20
86.3944
 11
398.519
 21
86.0404
  0
LINE
  8
0
 10
398.519
 20
86.0404
 11
398.747
 21
85.5944
  0
LINE
  8
0
 10
398.747
 20
85.5944
 11
398.825
 21
85.1
  0
LINE
  8
0
 10
398.825
 20
85.1
 11
398.747
 21
84.6056
  0
LINE
  8
0
 10
398.747
 20
84.6056
 11
398.519
 21
84.1595
  0
LINE
  8
0
 10
398.519
 20
84.1595
 11
398.165
 21
83.8056
  0
LINE
  8
0
 10
398.165
 20
83.8056
 11
397.719
 21
83.5783
  0
LINE
  8
0
 10
397.719
 20
83.5783
 11
397.225
 21
83.5
  0
LINE
  8
0
 10
397.225
 20
83.5
 11
396.731
 21
83.5783
  0
LINE
  8
0
 10
395.725
 20
72.9667
 11
395.725
 21
81.0555
  0
LINE
  8
0
 10
395.725
 20
81.0555
 11
398.725
 21
81.0555
  0
LINE
  8
0
 10
398.725
 20
81.0555
 11
398.725
 21
72.9667
  0
LINE
  8
0
 10
398.725
 20
72.9667
 11
395.725
 21
72.9667
  0
LINE
  8
0
 10
407.078
 20
68.5401
 11
406.66
 21
68.7531
  0
LINE
  8
0
 10
406.66
 20
68.7531
 11
406.328
 21
69.085
  0
LINE
  8
0
 10
406.328
 20
69.085
 11
406.115
 21
69.5031
  0
LINE
  8
0
 10
406.115
 20
69.5031
 11
406.042
 21
69.9667
  0
LINE
  8
0
 10
406.042
 20
69.9667
 11
406.115
 21
70.4302
  0
LINE
  8
0
 10
406.115
 20
70.4302
 11
406.328
 21
70.8483
  0
LINE
  8
0
 10
406.328
 20
70.8483
 11
406.66
 21
71.1802
  0
LINE
  8
0
 10
406.66
 20
71.1802
 11
407.078
 21
71.3932
  0
LINE
  8
0
 10
407.078
 20
71.3932
 11
407.542
 21
71.4667
  0
LINE
  8
0
 10
407.542
 20
71.4667
 11
408.005
 21
71.3932
  0
LINE
  8
0
 10
408.005
 20
71.3932
 11
408.423
 21
71.1802
  0
LINE
  8
0
 10
408.423
 20
71.1802
 11
408.755
 21
70.8483
  0
LINE
  8
0
 10
408.755
 20
70.8483
 11
408.968
 21
70.4302
  0
LINE
  8
0
 10
408.968
 20
70.4302
 11
409.042
 21
69.9667
  0
LINE
  8
0
 10
409.042
 20
69.9667
 11
408.968
 21
69.5031
  0
LINE
  8
0
 10
408.968
 20
69.5031
 11
408.755
 21
69.085
  0
LINE
  8
0
 10
408.755
 20
69.085
 11
408.423
 21
68.7531
  0
LINE
  8
0
 10
408.423
 20
68.7531
 11
408.005
 21
68.5401
  0
LINE
  8
0
 10
408.005
 20
68.5401
 11
407.542
 21
68.4667
  0
LINE
  8
0
 10
407.542
 20
68.4667
 11
407.078
 21
68.5401
  0
LINE
  8
0
 10
359.075
 20
56.4643
 11
356.075
 21
56.4643
  0
LINE
  8
0
 10
356.075
 20
56.4643
 11
356.075
 21
58.931
  0
LINE
  8
0
 10
356.075
 20
58.931
 11
352.075
 21
58.931
  0
LINE
  8
0
 10
352.075
 20
58.931
 11
352.075
 21
57.906
  0
LINE
  8
0
 10
352.075
 20
57.906
 11
349.675
 21
57.906
  0
LINE
  8
0
 10
349.675
 20
57.906
 11
349.675
 21
58.931
  0
LINE
  8
0
 10
349.675
 20
58.931
 11
342.075
 21
58.931
  0
LINE
  8
0
 10
342.075
 20
58.931
 11
342.075
 21
62.331
  0
LINE
  8
0
 10
342.075
 20
62.331
 11
349.675
 21
62.331
  0
LINE
  8
0
 10
349.675
 20
62.331
 11
349.675
 21
63.356
  0
LINE
  8
0
 10
349.675
 20
63.356
 11
352.075
 21
63.356
  0
LINE
  8
0
 10
352.075
 20
63.356
 11
352.075
 21
62.331
  0
LINE
  8
0
 10
352.075
 20
62.331
 11
356.075
 21
62.331
  0
LINE
  8
0
 10
356.075
 20
62.331
 11
356.075
 21
64.7977
  0
LINE
  8
0
 10
356.075
 20
64.7977
 11
359.075
 21
64.7977
  0
LINE
  8
0
 10
359.075
 20
64.7977
 11
359.075
 21
73.131
  0
LINE
  8
0
 10
359.075
 20
73.131
 11
350.075
 21
73.131
  0
LINE
  8
0
 10
350.075
 20
73.131
 11
350.075
 21
86.481
  0
LINE
  8
0
 10
350.075
 20
86.481
 11
346.075
 21
86.481
  0
LINE
  8
0
 10
346.075
 20
86.481
 11
346.075
 21
85.456
  0
LINE
  8
0
 10
346.075
 20
85.456
 11
343.675
 21
85.456
  0
LINE
  8
0
 10
343.675
 20
85.456
 11
343.675
 21
86.481
  0
LINE
  8
0
 10
343.675
 20
86.481
 11
342.075
 21
86.481
  0
LINE
  8
0
 10
342.075
 20
86.481
 11
342.075
 21
89.881
  0
LINE
  8
0
 10
342.075
 20
89.881
 11
343.675
 21
89.881
  0
LINE
  8
0
 10
343.675
 20
89.881
 11
343.675
 21
90.906
  0
LINE
  8
0
 10
343.675
 20
90.906
 11
346.075
 21
90.906
  0
LINE
  8
0
 10
346.075
 20
90.906
 11
346.075
 21
89.881
  0
LINE
  8
0
 10
346.075
 20
89.881
 11
350.075
 21
89.881
  0
LINE
  8
0
 10
350.075
 20
89.881
 11
350.075
 21
95.681
  0
LINE
  8
0
 10
350.075
 20
95.681
 11
316.875
 21
95.681
  0
LINE
  8
0
 10
316.875
 20
95.681
 11
316.875
 21
89.881
  0
LINE
  8
0
 10
316.875
 20
89.881
 11
320.875
 21
89.881
  0
LINE
  8
0
 10
320.875
 20
89.881
 11
320.875
 21
90.906
  0
LINE
  8
0
 10
320.875
 20
90.906
 11
323.275
 21
90.906
  0
LINE
  8
0
 10
323.275
 20
90.906
 11
323.275
 21
89.881
  0
LINE
  8
0
 10
323.275
 20
89.881
 11
324.875
 21
89.881
  0
LINE
  8
0
 10
324.875
 20
89.881
 11
324.875
 21
86.481
  0
LINE
  8
0
 10
324.875
 20
86.481
 11
323.275
 21
86.481
  0
LINE
  8
0
 10
323.275
 20
86.481
 11
323.275
 21
85.456
  0
LINE
  8
0
 10
323.275
 20
85.456
 11
320.875
 21
85.456
  0
LINE
  8
0
 10
320.875
 20
85.456
 11
320.875
 21
86.481
  0
LINE
  8
0
 10
320.875
 20
86.481
 11
316.875
 21
86.481
  0
LINE
  8
0
 10
316.875
 20
86.481
 11
316.875
 21
73.131
  0
LINE
  8
0
 10
316.875
 20
73.131
 11
307.875
 21
73.131
  0
LINE
  8
0
 10
307.875
 20
73.131
 11
307.875
 21
64.7977
  0
LINE
  8
0
 10
307.875
 20
64.7977
 11
310.875
 21
64.7977
  0
LINE
  8
0
 10
310.875
 20
64.7977
 11
310.875
 21
62.331
  0
LINE
  8
0
 10
310.875
 20
62.331
 11
314.875
 21
62.331
  0
LINE
  8
0
 10
314.875
 20
62.331
 11
314.875
 21
63.356
  0
LINE
  8
0
 10
314.875
 20
63.356
 11
317.275
 21
63.356
  0
LINE
  8
0
 10
317.275
 20
63.356
 11
317.275
 21
62.331
  0
LINE
  8
0
 10
317.275
 20
62.331
 11
324.875
 21
62.331
  0
LINE
  8
0
 10
324.875
 20
62.331
 11
324.875
 21
58.931
  0
LINE
  8
0
 10
324.875
 20
58.931
 11
317.275
 21
58.931
  0
LINE
  8
0
 10
317.275
 20
58.931
 11
317.275
 21
57.906
  0
LINE
  8
0
 10
317.275
 20
57.906
 11
314.875
 21
57.906
  0
LINE
  8
0
 10
314.875
 20
57.906
 11
314.875
 21
58.931
  0
LINE
  8
0
 10
314.875
 20
58.931
 11
310.875
 21
58.931
  0
LINE
  8
0
 10
310.875
 20
58.931
 11
310.875
 21
56.4643
  0
LINE
  8
0
 10
310.875
 20
56.4643
 11
307.875
 21
56.4643
  0
LINE
  8
0
 10
307.875
 20
56.4643
 11
307.875
 21
48.131
  0
LINE
  8
0
 10
307.875
 20
48.131
 11
359.075
 21
48.131
  0
LINE
  8
0
 10
359.075
 20
48.131
 11
359.075
 21
56.4643
  0
LINE
  8
0
 10
251.8
 20
9.45663
 11
245.8
 21
9.45663
  0
LINE
  8
0
 10
245.8
 20
9.45663
 11
245.8
 21
18.9133
  0
LINE
  8
0
 10
245.8
 20
18.9133
 11
251.8
 21
18.9133
  0
LINE
  8
0
 10
251.8
 20
18.9133
 11
251.8
 21
28.3699
  0
LINE
  8
0
 10
251.8
 20
28.3699
 11
245.8
 21
28.3699
  0
LINE
  8
0
 10
245.8
 20
28.3699
 11
245.8
 21
31.3983
  0
LINE
  8
0
 10
245.8
 20
31.3983
 11
241.8
 21
31.3983
  0
LINE
  8
0
 10
241.8
 20
31.3983
 11
241.8
 21
30.3733
  0
LINE
  8
0
 10
241.8
 20
30.3733
 11
239.4
 21
30.3733
  0
LINE
  8
0
 10
239.4
 20
30.3733
 11
239.4
 21
31.3983
  0
LINE
  8
0
 10
239.4
 20
31.3983
 11
234.8
 21
31.3983
  0
LINE
  8
0
 10
234.8
 20
31.3983
 11
234.8
 21
34.7982
  0
LINE
  8
0
 10
234.8
 20
34.7982
 11
239.4
 21
34.7982
  0
LINE
  8
0
 10
239.4
 20
34.7982
 11
239.4
 21
35.8232
  0
LINE
  8
0
 10
239.4
 20
35.8232
 11
241.8
 21
35.8232
  0
LINE
  8
0
 10
241.8
 20
35.8232
 11
241.8
 21
34.7982
  0
LINE
  8
0
 10
241.8
 20
34.7982
 11
245.8
 21
34.7982
  0
LINE
  8
0
 10
245.8
 20
34.7982
 11
245.8
 21
37.8266
  0
LINE
  8
0
 10
245.8
 20
37.8266
 11
251.8
 21
37.8266
  0
LINE
  8
0
 10
251.8
 20
37.8266
 11
251.8
 21
47.2832
  0
LINE
  8
0
 10
251.8
 20
47.2832
 11
245.8
 21
47.2832
  0
LINE
  8
0
 10
245.8
 20
47.2832
 11
245.8
 21
56.7399
  0
LINE
  8
0
 10
245.8
 20
56.7399
 11
251.8
 21
56.7399
  0
LINE
  8
0
 10
251.8
 20
56.7399
 11
251.8
 21
66.1965
  0
LINE
  8
0
 10
251.8
 20
66.1965
 11
269.85
 21
66.1965
  0
LINE
  8
0
 10
269.85
 20
66.1965
 11
271.225
 21
66.4143
  0
LINE
  8
0
 10
271.225
 20
66.4143
 11
272.466
 21
67.0464
  0
LINE
  8
0
 10
272.466
 20
67.0464
 11
273.45
 21
68.0309
  0
LINE
  8
0
 10
273.45
 20
68.0309
 11
274.082
 21
69.2714
  0
LINE
  8
0
 10
274.082
 20
69.2714
 11
274.3
 21
70.6465
  0
LINE
  8
0
 10
274.3
 20
70.6465
 11
274.082
 21
72.0216
  0
LINE
  8
0
 10
274.082
 20
72.0216
 11
273.45
 21
73.2621
  0
LINE
  8
0
 10
273.45
 20
73.2621
 11
272.466
 21
74.2466
  0
LINE
  8
0
 10
272.466
 20
74.2466
 11
271.225
 21
74.8787
  0
LINE
  8
0
 10
271.225
 20
74.8787
 11
269.85
 21
75.0965
  0
LINE
  8
0
 10
269.85
 20
75.0965
 11
226.8
 21
75.0965
  0
LINE
  8
0
 10
226.8
 20
75.0965
 11
226.8
 21
0
  0
LINE
  8
0
 10
226.8
 20
0
 11
251.8
 21
0
  0
LINE
  8
0
 10
251.8
 20
0
 11
251.8
 21
9.45663
  0
LINE
  8
0
 10
241.806
 20
69.1248
 11
241.36
 21
69.3521
  0
LINE
  8
0
 10
241.36
 20
69.3521
 11
241.006
 21
69.706
  0
LINE
  8
0
 10
241.006
 20
69.706
 11
240.778
 21
70.1521
  0
LINE
  8
0
 10
240.778
 20
70.1521
 11
240.7
 21
70.6465
  0
LINE
  8
0
 10
240.7
 20
70.6465
 11
240.778
 21
71.1409
  0
LINE
  8
0
 10
240.778
 20
71.1409
 11
241.006
 21
71.587
  0
LINE
  8
0
 10
241.006
 20
71.587
 11
241.36
 21
71.9409
  0
LINE
  8
0
 10
241.36
 20
71.9409
 11
241.806
 21
72.1682
  0
LINE
  8
0
 10
241.806
 20
72.1682
 11
242.3
 21
72.2465
  0
LINE
  8
0
 10
242.3
 20
72.2465
 11
242.794
 21
72.1682
  0
LINE
  8
0
 10
242.794
 20
72.1682
 11
243.24
 21
71.9409
  0
LINE
  8
0
 10
243.24
 20
71.9409
 11
243.594
 21
71.587
  0
LINE
  8
0
 10
243.594
 20
71.587
 11
243.822
 21
71.1409
  0
LINE
  8
0
 10
243.822
 20
71.1409
 11
243.9
 21
70.6465
  0
LINE
  8
0
 10
243.9
 20
70.6465
 11
243.822
 21
70.1521
  0
LINE
  8
0
 10
243.822
 20
70.1521
 11
243.594
 21
69.706
  0
LINE
  8
0
 10
243.594
 20
69.706
 11
243.24
 21
69.3521
  0
LINE
  8
0
 10
243.24
 20
69.3521
 11
242.794
 21
69.1248
  0
LINE
  8
0
 10
242.794
 20
69.1248
 11
242.3
 21
69.0465
  0
LINE
  8
0
 10
242.3
 20
69.0465
 11
241.806
 21
69.1248
  0
LINE
  8
0
 10
229.8
 20
69.1465
 11
229.8
 21
72.1465
  0
LINE
  8
0
 10
229.8
 20
72.1465
 11
238.133
 21
72.1465
  0
LINE
  8
0
 10
238.133
 20
72.1465
 11
238.133
 21
69.1465
  0
LINE
  8
0
 10
238.133
 20
69.1465
 11
229.8
 21
69.1465
  0
LINE
  8
0
 10
246.467
 20
69.1465
 11
246.467
 21
72.1465
  0
LINE
  8
0
 10
246.467
 20
72.1465
 11
254.8
 21
72.1465
  0
LINE
  8
0
 10
254.8
 20
72.1465
 11
254.8
 21
69.1465
  0
LINE
  8
0
 10
254.8
 20
69.1465
 11
246.467
 21
69.1465
  0
LINE
  8
0
 10
269.402
 20
69.2675
 11
268.998
 21
69.4734
  0
LINE
  8
0
 10
268.998
 20
69.4734
 11
268.677
 21
69.7942
  0
LINE
  8
0
 10
268.677
 20
69.7942
 11
268.471
 21
70.1984
  0
LINE
  8
0
 10
268.471
 20
70.1984
 11
268.4
 21
70.6465
  0
LINE
  8
0
 10
268.4
 20
70.6465
 11
268.471
 21
71.0946
  0
LINE
  8
0
 10
268.471
 20
71.0946
 11
268.677
 21
71.4988
  0
LINE
  8
0
 10
268.677
 20
71.4988
 11
268.998
 21
71.8196
  0
LINE
  8
0
 10
268.998
 20
71.8196
 11
269.402
 21
72.0255
  0
LINE
  8
0
 10
269.402
 20
72.0255
 11
269.85
 21
72.0965
  0
LINE
  8
0
 10
269.85
 20
72.0965
 11
270.298
 21
72.0255
  0
LINE
  8
0
 10
270.298
 20
72.0255
 11
270.702
 21
71.8196
  0
LINE
  8
0
 10
270.702
 20
71.8196
 11
271.023
 21
71.4988
  0
LINE
  8
0
 10
271.023
 20
71.4988
 11
271.229
 21
71.0946
  0
LINE
  8
0
 10
271.229
 20
71.0946
 11
271.3
 21
70.6465
  0
LINE
  8
0
 10
271.3
 20
70.6465
 11
271.229
 21
70.1984
  0
LINE
  8
0
 10
271.229
 20
70.1984
 11
271.023
 21
69.7942
  0
LINE
  8
0
 10
271.023
 20
69.7942
 11
270.702
 21
69.4734
  0
LINE
  8
0
 10
270.702
 20
69.4734
 11
270.298
 21
69.2675
  0
LINE
  8
0
 10
270.298
 20
69.2675
 11
269.85
 21
69.1965
  0
LINE
  8
0
 10
269.85
 20
69.1965
 11
269.402
 21
69.2675
  0
LINE
  8
0
 10
232.8
 20
55.8413
 11
232.8
 21
63.1965
  0
LINE
  8
0
 10
232.8
 20
63.1965
 11
235.8
 21
63.1965
  0
LINE
  8
0
 10
235.8
 20
63.1965
 11
235.8
 21
55.8413
  0
LINE
  8
0
 10
235.8
 20
55.8413
 11
232.8
 21
55.8413
  0
LINE
  8
0
 10
233.806
 20
50.6421
 11
233.36
 21
50.8693
  0
LINE
  8
0
 10
233.36
 20
50.8693
 11
233.006
 21
51.2233
  0
LINE
  8
0
 10
233.006
 20
51.2233
 11
232.778
 21
51.6693
  0
LINE
  8
0
 10
232.778
 20
51.6693
 11
232.7
 21
52.1637
  0
LINE
  8
0
 10
232.7
 20
52.1637
 11
232.778
 21
52.6582
  0
LINE
  8
0
 10
232.778
 20
52.6582
 11
233.006
 21
53.1042
  0
LINE
  8
0
 10
233.006
 20
53.1042
 11
233.36
 21
53.4582
  0
LINE
  8
0
 10
233.36
 20
53.4582
 11
233.806
 21
53.6854
  0
LINE
  8
0
 10
233.806
 20
53.6854
 11
234.3
 21
53.7637
  0
LINE
  8
0
 10
234.3
 20
53.7637
 11
234.794
 21
53.6854
  0
LINE
  8
0
 10
234.794
 20
53.6854
 11
235.24
 21
53.4582
  0
LINE
  8
0
 10
235.24
 20
53.4582
 11
235.594
 21
53.1042
  0
LINE
  8
0
 10
235.594
 20
53.1042
 11
235.822
 21
52.6582
  0
LINE
  8
0
 10
235.822
 20
52.6582
 11
235.9
 21
52.1637
  0
LINE
  8
0
 10
235.9
 20
52.1637
 11
235.822
 21
51.6693
  0
LINE
  8
0
 10
235.822
 20
51.6693
 11
235.594
 21
51.2233
  0
LINE
  8
0
 10
235.594
 20
51.2233
 11
235.24
 21
50.8693
  0
LINE
  8
0
 10
235.24
 20
50.8693
 11
234.794
 21
50.6421
  0
LINE
  8
0
 10
234.794
 20
50.6421
 11
234.3
 21
50.5638
  0
LINE
  8
0
 10
234.3
 20
50.5638
 11
233.806
 21
50.6421
  0
LINE
  8
0
 10
232.8
 20
41.131
 11
232.8
 21
48.4862
  0
LINE
  8
0
 10
232.8
 20
48.4862
 11
235.8
 21
48.4862
  0
LINE
  8
0
 10
235.8
 20
48.4862
 11
235.8
 21
41.131
  0
LINE
  8
0
 10
235.8
 20
41.131
 11
232.8
 21
41.131
  0
LINE
  8
0
 10
232.8
 20
11.0327
 11
232.8
 21
22.0655
  0
LINE
  8
0
 10
232.8
 20
22.0655
 11
235.8
 21
22.0655
  0
LINE
  8
0
 10
235.8
 20
22.0655
 11
235.8
 21
11.0327
  0
LINE
  8
0
 10
235.8
 20
11.0327
 11
232.8
 21
11.0327
  0
LINE
  8
0
 10
233.806
 20
7.4783
 11
233.36
 21
7.70557
  0
LINE
  8
0
 10
233.36
 20
7.70557
 11
233.006
 21
8.05954
  0
LINE
  8
0
 10
233.006
 20
8.05954
 11
232.778
 21
8.50557
  0
LINE
  8
0
 10
232.778
 20
8.50557
 11
232.7
 21
9
  0
LINE
  8
0
 10
232.7
 20
9
 11
232.778
 21
9.49442
  0
LINE
  8
0
 10
232.778
 20
9.49442
 11
233.006
 21
9.94044
  0
LINE
  8
0
 10
233.006
 20
9.94044
 11
233.36
 21
10.2944
  0
LINE
  8
0
 10
233.36
 20
10.2944
 11
233.806
 21
10.5217
  0
LINE
  8
0
 10
233.806
 20
10.5217
 11
234.3
 21
10.6
  0
LINE
  8
0
 10
234.3
 20
10.6
 11
234.794
 21
10.5217
  0
LINE
  8
0
 10
234.794
 20
10.5217
 11
235.24
 21
10.2944
  0
LINE
  8
0
 10
235.24
 20
10.2944
 11
235.594
 21
9.94044
  0
LINE
  8
0
 10
235.594
 20
9.94044
 11
235.822
 21
9.49442
  0
LINE
  8
0
 10
235.822
 20
9.49442
 11
235.9
 21
9
  0
LINE
  8
0
 10
235.9
 20
9
 11
235.822
 21
8.50557
  0
LINE
  8
0
 10
235.822
 20
8.50557
 11
235.594
 21
8.05954
  0
LINE
  8
0
 10
235.594
 20
8.05954
 11
235.24
 21
7.70557
  0
LINE
  8
0
 10
235.24
 20
7.70557
 11
234.794
 21
7.4783
  0
LINE
  8
0
 10
234.794
 20
7.4783
 11
234.3
 21
7.39999
  0
LINE
  8
0
 10
234.3
 20
7.39999
 11
233.806
 21
7.4783
  0
LINE
  8
0
 10
371.675
 20
22.0655
 11
374.675
 21
22.0655
  0
LINE
  8
0
 10
374.675
 20
22.0655
 11
374.675
 21
44.131
  0
LINE
  8
0
 10
374.675
 20
44.131
 11
371.675
 21
44.131
  0
LINE
  8
0
 10
371.675
 20
44.131
 11
371.675
 21
66.1965
  0
LINE
  8
0
 10
371.675
 20
66.1965
 11
374.675
 21
66.1965
  0
LINE
  8
0
 10
374.675
 20
66.1965
 11
374.675
 21
66.2065
  0
LINE
  8
0
 10
374.675
 20
66.2065
 11
369.125
 21
73.2621
  0
LINE
  8
0
 10
369.125
 20
73.2621
 11
368.141
 21
74.2466
  0
LINE
  8
0
 10
368.141
 20
74.2466
 11
366.9
 21
74.8787
  0
LINE
  8
0
 10
366.9
 20
74.8787
 11
365.525
 21
75.0965
  0
LINE
  8
0
 10
365.525
 20
75.0965
 11
364.15
 21
74.8787
  0
LINE
  8
0
 10
364.15
 20
74.8787
 11
362.909
 21
74.2466
  0
LINE
  8
0
 10
362.909
 20
74.2466
 11
361.925
 21
73.2621
  0
LINE
  8
0
 10
361.925
 20
73.2621
 11
361.293
 21
72.0216
  0
LINE
  8
0
 10
361.293
 20
72.0216
 11
361.075
 21
70.6465
  0
LINE
  8
0
 10
361.075
 20
70.6465
 11
361.075
 21
66.1965
  0
LINE
  8
0
 10
361.075
 20
66.1965
 11
364.075
 21
66.1965
  0
LINE
  8
0
 10
364.075
 20
66.1965
 11
364.075
 21
60.1965
  0
LINE
  8
0
 10
364.075
 20
60.1965
 11
367.875
 21
60.1965
  0
LINE
  8
0
 10
367.875
 20
60.1965
 11
367.875
 21
57.1965
  0
LINE
  8
0
 10
367.875
 20
57.1965
 11
364.075
 21
57.1965
  0
LINE
  8
0
 10
364.075
 20
57.1965
 11
364.075
 21
44.131
  0
LINE
  8
0
 10
364.075
 20
44.131
 11
361.075
 21
44.131
  0
LINE
  8
0
 10
361.075
 20
44.131
 11
361.075
 21
22.0655
  0
LINE
  8
0
 10
361.075
 20
22.0655
 11
364.075
 21
22.0655
  0
LINE
  8
0
 10
364.075
 20
22.0655
 11
364.075
 21
6
  0
LINE
  8
0
 10
364.075
 20
6
 11
367.875
 21
6
  0
LINE
  8
0
 10
367.875
 20
6
 11
367.875
 21
3
  0
LINE
  8
0
 10
367.875
 20
3
 11
364.075
 21
3
  0
LINE
  8
0
 10
364.075
 20
3
 11
364.075
 21
0
  0
LINE
  8
0
 10
364.075
 20
0
 11
371.675
 21
0
  0
LINE
  8
0
 10
371.675
 20
0
 11
371.675
 21
22.0655
  0
LINE
  8
0
 10
365.077
 20
69.2675
 11
364.673
 21
69.4734
  0
LINE
  8
0
 10
364.673
 20
69.4734
 11
364.352
 21
69.7942
  0
LINE
  8
0
 10
364.352
 20
69.7942
 11
364.146
 21
70.1984
  0
LINE
  8
0
 10
364.146
 20
70.1984
 11
364.075
 21
70.6465
  0
LINE
  8
0
 10
364.075
 20
70.6465
 11
364.146
 21
71.0946
  0
LINE
  8
0
 10
364.146
 20
71.0946
 11
364.352
 21
71.4988
  0
LINE
  8
0
 10
364.352
 20
71.4988
 11
364.673
 21
71.8196
  0
LINE
  8
0
 10
364.673
 20
71.8196
 11
365.077
 21
72.0255
  0
LINE
  8
0
 10
365.077
 20
72.0255
 11
365.525
 21
72.0965
  0
LINE
  8
0
 10
365.525
 20
72.0965
 11
365.973
 21
72.0255
  0
LINE
  8
0
 10
365.973
 20
72.0255
 11
366.377
 21
71.8196
  0
LINE
  8
0
 10
366.377
 20
71.8196
 11
366.698
 21
71.4988
  0
LINE
  8
0
 10
366.698
 20
71.4988
 11
366.904
 21
71.0946
  0
LINE
  8
0
 10
366.904
 20
71.0946
 11
366.975
 21
70.6465
  0
LINE
  8
0
 10
366.975
 20
70.6465
 11
366.904
 21
70.1984
  0
LINE
  8
0
 10
366.904
 20
70.1984
 11
366.698
 21
69.7942
  0
LINE
  8
0
 10
366.698
 20
69.7942
 11
366.377
 21
69.4734
  0
LINE
  8
0
 10
366.377
 20
69.4734
 11
365.973
 21
69.2675
  0
LINE
  8
0
 10
365.973
 20
69.2675
 11
365.525
 21
69.1965
  0
LINE
  8
0
 10
365.525
 20
69.1965
 11
365.077
 21
69.2675
  0
LINE
  8
0
 10
387.275
 20
22.0655
 11
390.275
 21
22.0655
  0
LINE
  8
0
 10
390.275
 20
22.0655
 11
390.275
 21
44.131
  0
LINE
  8
0
 10
390.275
 20
44.131
 11
387.275
 21
44.131
  0
LINE
  8
0
 10
387.275
 20
44.131
 11
387.275
 21
66.1965
  0
LINE
  8
0
 10
387.275
 20
66.1965
 11
390.275
 21
66.1965
  0
LINE
  8
0
 10
390.275
 20
66.1965
 11
390.275
 21
66.2065
  0
LINE
  8
0
 10
390.275
 20
66.2065
 11
384.725
 21
73.2621
  0
LINE
  8
0
 10
384.725
 20
73.2621
 11
383.741
 21
74.2466
  0
LINE
  8
0
 10
383.741
 20
74.2466
 11
382.5
 21
74.8787
  0
LINE
  8
0
 10
382.5
 20
74.8787
 11
381.125
 21
75.0965
  0
LINE
  8
0
 10
381.125
 20
75.0965
 11
379.75
 21
74.8787
  0
LINE
  8
0
 10
379.75
 20
74.8787
 11
378.509
 21
74.2466
  0
LINE
  8
0
 10
378.509
 20
74.2466
 11
377.525
 21
73.2621
  0
LINE
  8
0
 10
377.525
 20
73.2621
 11
376.893
 21
72.0216
  0
LINE
  8
0
 10
376.893
 20
72.0216
 11
376.675
 21
70.6465
  0
LINE
  8
0
 10
376.675
 20
70.6465
 11
376.675
 21
66.1965
  0
LINE
  8
0
 10
376.675
 20
66.1965
 11
379.675
 21
66.1965
  0
LINE
  8
0
 10
379.675
 20
66.1965
 11
379.675
 21
60.1965
  0
LINE
  8
0
 10
379.675
 20
60.1965
 11
383.475
 21
60.1965
  0
LINE
  8
0
 10
383.475
 20
60.1965
 11
383.475
 21
57.1965
  0
LINE
  8
0
 10
383.475
 20
57.1965
 11
379.675
 21
57.1965
  0
LINE
  8
0
 10
379.675
 20
57.1965
 11
379.675
 21
44.131
  0
LINE
  8
0
 10
379.675
 20
44.131
 11
376.675
 21
44.131
  0
LINE
  8
0
 10
376.675
 20
44.131
 11
376.675
 21
22.0655
  0
LINE
  8
0
 10
376.675
 20
22.0655
 11
379.675
 21
22.0655
  0
LINE
  8
0
 10
379.675
 20
22.0655
 11
379.675
 21
6
  0
LINE
  8
0
 10
379.675
 20
6
 11
383.475
 21
6
  0
LINE
  8
0
 10
383.475
 20
6
 11
383.475
 21
3
  0
LINE
  8
0
 10
383.475
 20
3
 11
379.675
 21
3
  0
LINE
  8
0
 10
379.675
 20
3
 11
379.675
 21
0
  0
LINE
  8
0
 10
379.675
 20
0
 11
387.275
 21
0
  0
LINE
  8
0
 10
387.275
 20
0
 11
387.275
 21
22.0655
  0
LINE
  8
0
 10
380.677
 20
69.2675
 11
380.273
 21
69.4734
  0
LINE
  8
0
 10
380.273
 20
69.4734
 11
379.952
 21
69.7942
  0
LINE
  8
0
 10
379.952
 20
69.7942
 11
379.746
 21
70.1984
  0
LINE
  8
0
 10
379.746
 20
70.1984
 11
379.675
 21
70.6465
  0
LINE
  8
0
 10
379.675
 20
70.6465
 11
379.746
 21
71.0946
  0
LINE
  8
0
 10
379.746
 20
71.0946
 11
379.952
 21
71.4988
  0
LINE
  8
0
 10
379.952
 20
71.4988
 11
380.273
 21
71.8196
  0
LINE
  8
0
 10
380.273
 20
71.8196
 11
380.677
 21
72.0255
  0
LINE
  8
0
 10
380.677
 20
72.0255
 11
381.125
 21
72.0965
  0
LINE
  8
0
 10
381.125
 20
72.0965
 11
381.573
 21
72.0255
  0
LINE
  8
0
 10
381.573
 20
72.0255
 11
381.977
 21
71.8196
  0
LINE
  8
0
 10
381.977
 20
71.8196
 11
382.298
 21
71.4988
  0
LINE
  8
0
 10
382.298
 20
71.4988
 11
382.504
 21
71.0946
  0
LINE
  8
0
 10
382.504
 20
71.0946
 11
382.575
 21
70.6465
  0
LINE
  8
0
 10
382.575
 20
70.6465
 11
382.504
 21
70.1984
  0
LINE
  8
0
 10
382.504
 20
70.1984
 11
382.298
 21
69.7942
  0
LINE
  8
0
 10
382.298
 20
69.7942
 11
381.977
 21
69.4734
  0
LINE
  8
0
 10
381.977
 20
69.4734
 11
381.573
 21
69.2675
  0
LINE
  8
0
 10
381.573
 20
69.2675
 11
381.125
 21
69.1965
  0
LINE
  8
0
 10
381.125
 20
69.1965
 11
380.677
 21
69.2675
  0
LINE
  8
0
 10
301.3
 20
75.0965
 11
276.3
 21
75.0965
  0
LINE
  8
0
 10
276.3
 20
75.0965
 11
276.3
 21
65.6399
  0
LINE
  8
0
 10
276.3
 20
65.6399
 11
282.3
 21
65.6399
  0
LINE
  8
0
 10
282.3
 20
65.6399
 11
282.3
 21
56.1832
  0
LINE
  8
0
 10
282.3
 20
56.1832
 11
276.3
 21
56.1832
  0
LINE
  8
0
 10
276.3
 20
56.1832
 11
276.3
 21
46.7266
  0
LINE
  8
0
 10
276.3
 20
46.7266
 11
282.3
 21
46.7266
  0
LINE
  8
0
 10
282.3
 20
46.7266
 11
282.3
 21
43.6982
  0
LINE
  8
0
 10
282.3
 20
43.6982
 11
286.3
 21
43.6982
  0
LINE
  8
0
 10
286.3
 20
43.6982
 11
286.3
 21
44.7232
  0
LINE
  8
0
 10
286.3
 20
44.7232
 11
288.7
 21
44.7232
  0
LINE
  8
0
 10
288.7
 20
44.7232
 11
288.7
 21
43.6982
  0
LINE
  8
0
 10
288.7
 20
43.6982
 11
293.3
 21
43.6982
  0
LINE
  8
0
 10
293.3
 20
43.6982
 11
293.3
 21
40.2982
  0
LINE
  8
0
 10
293.3
 20
40.2982
 11
288.7
 21
40.2982
  0
LINE
  8
0
 10
288.7
 20
40.2982
 11
288.7
 21
39.2733
  0
LINE
  8
0
 10
288.7
 20
39.2733
 11
286.3
 21
39.2733
  0
LINE
  8
0
 10
286.3
 20
39.2733
 11
286.3
 21
40.2982
  0
LINE
  8
0
 10
286.3
 20
40.2982
 11
282.3
 21
40.2982
  0
LINE
  8
0
 10
282.3
 20
40.2982
 11
282.3
 21
37.2699
  0
LINE
  8
0
 10
282.3
 20
37.2699
 11
276.3
 21
37.2699
  0
LINE
  8
0
 10
276.3
 20
37.2699
 11
276.3
 21
27.8133
  0
LINE
  8
0
 10
276.3
 20
27.8133
 11
282.3
 21
27.8133
  0
LINE
  8
0
 10
282.3
 20
27.8133
 11
282.3
 21
18.3566
  0
LINE
  8
0
 10
282.3
 20
18.3566
 11
276.3
 21
18.3566
  0
LINE
  8
0
 10
276.3
 20
18.3566
 11
276.3
 21
8.89999
  0
LINE
  8
0
 10
276.3
 20
8.89999
 11
258.25
 21
8.89999
  0
LINE
  8
0
 10
258.25
 20
8.89999
 11
256.875
 21
8.68221
  0
LINE
  8
0
 10
256.875
 20
8.68221
 11
255.634
 21
8.05013
  0
LINE
  8
0
 10
255.634
 20
8.05013
 11
254.65
 21
7.06564
  0
LINE
  8
0
 10
254.65
 20
7.06564
 11
254.018
 21
5.82512
  0
LINE
  8
0
 10
254.018
 20
5.82512
 11
253.8
 21
4.45
  0
LINE
  8
0
 10
253.8
 20
4.45
 11
254.018
 21
3.07487
  0
LINE
  8
0
 10
254.018
 20
3.07487
 11
254.65
 21
1.83435
  0
LINE
  8
0
 10
254.65
 20
1.83435
 11
255.634
 21
0.849869
  0
LINE
  8
0
 10
255.634
 20
0.849869
 11
256.875
 21
0.217789
  0
LINE
  8
0
 10
256.875
 20
0.217789
 11
258.25
 21
0
  0
LINE
  8
0
 10
258.25
 20
0
 11
301.3
 21
0
  0
LINE
  8
0
 10
301.3
 20
0
 11
301.3
 21
75.0965
  0
LINE
  8
0
 10
293.306
 20
64.5748
 11
292.86
 21
64.8021
  0
LINE
  8
0
 10
292.86
 20
64.8021
 11
292.506
 21
65.1561
  0
LINE
  8
0
 10
292.506
 20
65.1561
 11
292.278
 21
65.6021
  0
LINE
  8
0
 10
292.278
 20
65.6021
 11
292.2
 21
66.0965
  0
LINE
  8
0
 10
292.2
 20
66.0965
 11
292.278
 21
66.5909
  0
LINE
  8
0
 10
292.278
 20
66.5909
 11
292.506
 21
67.037
  0
LINE
  8
0
 10
292.506
 20
67.037
 11
292.86
 21
67.3909
  0
LINE
  8
0
 10
292.86
 20
67.3909
 11
293.306
 21
67.6182
  0
LINE
  8
0
 10
293.306
 20
67.6182
 11
293.8
 21
67.6965
  0
LINE
  8
0
 10
293.8
 20
67.6965
 11
294.294
 21
67.6182
  0
LINE
  8
0
 10
294.294
 20
67.6182
 11
294.74
 21
67.3909
  0
LINE
  8
0
 10
294.74
 20
67.3909
 11
295.094
 21
67.037
  0
LINE
  8
0
 10
295.094
 20
67.037
 11
295.322
 21
66.5909
  0
LINE
  8
0
 10
295.322
 20
66.5909
 11
295.4
 21
66.0965
  0
LINE
  8
0
 10
295.4
 20
66.0965
 11
295.322
 21
65.6021
  0
LINE
  8
0
 10
295.322
 20
65.6021
 11
295.094
 21
65.1561
  0
LINE
  8
0
 10
295.094
 20
65.1561
 11
294.74
 21
64.8021
  0
LINE
  8
0
 10
294.74
 20
64.8021
 11
294.294
 21
64.5748
  0
LINE
  8
0
 10
294.294
 20
64.5748
 11
293.8
 21
64.4965
  0
LINE
  8
0
 10
293.8
 20
64.4965
 11
293.306
 21
64.5748
  0
LINE
  8
0
 10
292.3
 20
53.031
 11
292.3
 21
64.0638
  0
LINE
  8
0
 10
292.3
 20
64.0638
 11
295.3
 21
64.0638
  0
LINE
  8
0
 10
295.3
 20
64.0638
 11
295.3
 21
53.031
  0
LINE
  8
0
 10
295.3
 20
53.031
 11
292.3
 21
53.031
  0
LINE
  8
0
 10
292.3
 20
26.6103
 11
292.3
 21
33.9655
  0
LINE
  8
0
 10
292.3
 20
33.9655
 11
295.3
 21
33.9655
  0
LINE
  8
0
 10
295.3
 20
33.9655
 11
295.3
 21
26.6103
  0
LINE
  8
0
 10
295.3
 20
26.6103
 11
292.3
 21
26.6103
  0
LINE
  8
0
 10
293.306
 20
21.4111
 11
292.86
 21
21.6383
  0
LINE
  8
0
 10
292.86
 20
21.6383
 11
292.506
 21
21.9923
  0
LINE
  8
0
 10
292.506
 20
21.9923
 11
292.278
 21
22.4383
  0
LINE
  8
0
 10
292.278
 20
22.4383
 11
292.2
 21
22.9328
  0
LINE
  8
0
 10
292.2
 20
22.9328
 11
292.278
 21
23.4272
  0
LINE
  8
0
 10
292.278
 20
23.4272
 11
292.506
 21
23.8732
  0
LINE
  8
0
 10
292.506
 20
23.8732
 11
292.86
 21
24.2272
  0
LINE
  8
0
 10
292.86
 20
24.2272
 11
293.306
 21
24.4544
  0
LINE
  8
0
 10
293.306
 20
24.4544
 11
293.8
 21
24.5327
  0
LINE
  8
0
 10
293.8
 20
24.5327
 11
294.294
 21
24.4544
  0
LINE
  8
0
 10
294.294
 20
24.4544
 11
294.74
 21
24.2272
  0
LINE
  8
0
 10
294.74
 20
24.2272
 11
295.094
 21
23.8732
  0
LINE
  8
0
 10
295.094
 20
23.8732
 11
295.322
 21
23.4272
  0
LINE
  8
0
 10
295.322
 20
23.4272
 11
295.4
 21
22.9328
  0
LINE
  8
0
 10
295.4
 20
22.9328
 11
295.322
 21
22.4383
  0
LINE
  8
0
 10
295.322
 20
22.4383
 11
295.094
 21
21.9923
  0
LINE
  8
0
 10
295.094
 20
21.9923
 11
294.74
 21
21.6383
  0
LINE
  8
0
 10
294.74
 20
21.6383
 11
294.294
 21
21.4111
  0
LINE
  8
0
 10
294.294
 20
21.4111
 11
293.8
 21
21.3327
  0
LINE
  8
0
 10
293.8
 20
21.3327
 11
293.306
 21
21.4111
  0
LINE
  8
0
 10
292.3
 20
11.9
 11
292.3
 21
19.2552
  0
LINE
  8
0
 10
292.3
 20
19.2552
 11
295.3
 21
19.2552
  0
LINE
  8
0
 10
295.3
 20
19.2552
 11
295.3
 21
11.9
  0
LINE
  8
0
 10
295.3
 20
11.9
 11
292.3
 21
11.9
  0
LINE
  8
0
 10
285.306
 20
2.92831
 11
284.86
 21
3.15556
  0
LINE
  8
0
 10
284.86
 20
3.15556
 11
284.506
 21
3.50954
  0
LINE
  8
0
 10
284.506
 20
3.50954
 11
284.278
 21
3.95557
  0
LINE
  8
0
 10
284.278
 20
3.95557
 11
284.2
 21
4.45
  0
LINE
  8
0
 10
284.2
 20
4.45
 11
284.278
 21
4.94443
  0
LINE
  8
0
 10
284.278
 20
4.94443
 11
284.506
 21
5.39046
  0
LINE
  8
0
 10
284.506
 20
5.39046
 11
284.86
 21
5.74443
  0
LINE
  8
0
 10
284.86
 20
5.74443
 11
285.306
 21
5.97169
  0
LINE
  8
0
 10
285.306
 20
5.97169
 11
285.8
 21
6.05
  0
LINE
  8
0
 10
285.8
 20
6.05
 11
286.294
 21
5.97169
  0
LINE
  8
0
 10
286.294
 20
5.97169
 11
286.74
 21
5.74443
  0
LINE
  8
0
 10
286.74
 20
5.74443
 11
287.094
 21
5.39046
  0
LINE
  8
0
 10
287.094
 20
5.39046
 11
287.322
 21
4.94443
  0
LINE
  8
0
 10
287.322
 20
4.94443
 11
287.4
 21
4.45
  0
LINE
  8
0
 10
287.4
 20
4.45
 11
287.322
 21
3.95557
  0
LINE
  8
0
 10
287.322
 20
3.95557
 11
287.094
 21
3.50954
  0
LINE
  8
0
 10
287.094
 20
3.50954
 11
286.74
 21
3.15556
  0
LINE
  8
0
 10
286.74
 20
3.15556
 11
286.294
 21
2.92831
  0
LINE
  8
0
 10
286.294
 20
2.92831
 11
285.8
 21
2.84999
  0
LINE
  8
0
 10
285.8
 20
2.84999
 11
285.306
 21
2.92831
  0
LINE
  8
0
 10
273.3
 20
2.95
 11
273.3
 21
5.95
  0
LINE
  8
0
 10
273.3
 20
5.95
 11
281.633
 21
5.95
  0
LINE
  8
0
 10
281.633
 20
5.95
 11
281.633
 21
2.95
  0
LINE
  8
0
 10
281.633
 20
2.95
 11
273.3
 21
2.95
  0
LINE
  8
0
 10
289.967
 20
2.95
 11
289.967
 21
5.95
  0
LINE
  8
0
 10
289.967
 20
5.95
 11
298.3
 21
5.95
  0
LINE
  8
0
 10
298.3
 20
5.95
 11
298.3
 21
2.95
  0
LINE
  8
0
 10
298.3
 20
2.95
 11
289.967
 21
2.95
  0
LINE
  8
0
 10
257.802
 20
3.07097
 11
257.398
 21
3.27692
  0
LINE
  8
0
 10
257.398
 20
3.27692
 11
257.077
 21
3.5977
  0
LINE
  8
0
 10
257.077
 20
3.5977
 11
256.871
 21
4.00192
  0
LINE
  8
0
 10
256.871
 20
4.00192
 11
256.8
 21
4.45
  0
LINE
  8
0
 10
256.8
 20
4.45
 11
256.871
 21
4.89807
  0
LINE
  8
0
 10
256.871
 20
4.89807
 11
257.077
 21
5.30229
  0
LINE
  8
0
 10
257.077
 20
5.30229
 11
257.398
 21
5.62308
  0
LINE
  8
0
 10
257.398
 20
5.62308
 11
257.802
 21
5.82903
  0
LINE
  8
0
 10
257.802
 20
5.82903
 11
258.25
 21
5.89999
  0
LINE
  8
0
 10
258.25
 20
5.89999
 11
258.698
 21
5.82903
  0
LINE
  8
0
 10
258.698
 20
5.82903
 11
259.102
 21
5.62308
  0
LINE
  8
0
 10
259.102
 20
5.62308
 11
259.423
 21
5.30229
  0
LINE
  8
0
 10
259.423
 20
5.30229
 11
259.629
 21
4.89807
  0
LINE
  8
0
 10
259.629
 20
4.89807
 11
259.7
 21
4.45
  0
LINE
  8
0
 10
259.7
 20
4.45
 11
259.629
 21
4.00192
  0
LINE
  8
0
 10
259.629
 20
4.00192
 11
259.423
 21
3.5977
  0
LINE
  8
0
 10
259.423
 20
3.5977
 11
259.102
 21
3.27692
  0
LINE
  8
0
 10
259.102
 20
3.27692
 11
258.698
 21
3.07097
  0
LINE
  8
0
 10
258.698
 20
3.07097
 11
258.25
 21
3
  0
LINE
  8
0
 10
258.25
 20
3
 11
257.802
 21
3.07097
  0
LINE
  8
0
 10
101.4
 20
9.45663
 11
104.4
 21
9.45663
  0
LINE
  8
0
 10
104.4
 20
9.45663
 11
104.4
 21
18.9133
  0
LINE
  8
0
 10
104.4
 20
18.9133
 11
101.4
 21
18.9133
  0
LINE
  8
0
 10
101.4
 20
18.9133
 11
101.4
 21
28.3699
  0
LINE
  8
0
 10
101.4
 20
28.3699
 11
104.4
 21
28.3699
  0
LINE
  8
0
 10
104.4
 20
28.3699
 11
104.4
 21
32.5612
  0
LINE
  8
0
 10
104.4
 20
32.5612
 11
104.194
 21
32.1578
  0
LINE
  8
0
 10
104.194
 20
32.1578
 11
103.84
 21
31.8038
  0
LINE
  8
0
 10
103.84
 20
31.8038
 11
103.394
 21
31.5766
  0
LINE
  8
0
 10
103.394
 20
31.5766
 11
102.9
 21
31.4982
  0
LINE
  8
0
 10
102.9
 20
31.4982
 11
102.406
 21
31.5766
  0
LINE
  8
0
 10
102.406
 20
31.5766
 11
101.96
 21
31.8038
  0
LINE
  8
0
 10
101.96
 20
31.8038
 11
101.606
 21
32.1578
  0
LINE
  8
0
 10
101.606
 20
32.1578
 11
101.378
 21
32.6038
  0
LINE
  8
0
 10
101.378
 20
32.6038
 11
101.3
 21
33.0983
  0
LINE
  8
0
 10
101.3
 20
33.0983
 11
101.378
 21
33.5927
  0
LINE
  8
0
 10
101.378
 20
33.5927
 11
101.606
 21
34.0387
  0
LINE
  8
0
 10
101.606
 20
34.0387
 11
101.96
 21
34.3927
  0
LINE
  8
0
 10
101.96
 20
34.3927
 11
102.406
 21
34.6199
  0
LINE
  8
0
 10
102.406
 20
34.6199
 11
102.9
 21
34.6982
  0
LINE
  8
0
 10
102.9
 20
34.6982
 11
103.394
 21
34.6199
  0
LINE
  8
0
 10
103.394
 20
34.6199
 11
103.84
 21
34.3927
  0
LINE
  8
0
 10
103.84
 20
34.3927
 11
104.194
 21
34.0387
  0
LINE
  8
0
 10
104.194
 20
34.0387
 11
104.4
 21
33.6352
  0
LINE
  8
0
 10
104.4
 20
33.6352
 11
104.4
 21
37.8266
  0
LINE
  8
0
 10
104.4
 20
37.8266
 11
101.4
 21
37.8266
  0
LINE
  8
0
 10
101.4
 20
37.8266
 11
101.4
 21
47.2832
  0
LINE
  8
0
 10
101.4
 20
47.2832
 11
102.081
 21
47.2832
  0
LINE
  8
0
 10
102.081
 20
47.2832
 11
101.588
 21
47.6815
  0
LINE
  8
0
 10
101.588
 20
47.6815
 11
101.588
 21
49.2125
  0
LINE
  8
0
 10
101.588
 20
49.2125
 11
103.974
 21
47.2832
  0
LINE
  8
0
 10
103.974
 20
47.2832
 11
104.4
 21
47.2832
  0
LINE
  8
0
 10
104.4
 20
47.2832
 11
104.4
 21
56.7399
  0
LINE
  8
0
 10
104.4
 20
56.7399
 11
101.4
 21
56.7399
  0
LINE
  8
0
 10
101.4
 20
56.7399
 11
101.4
 21
66.1965
  0
LINE
  8
0
 10
101.4
 20
66.1965
 11
56.2
 21
66.1965
  0
LINE
  8
0
 10
56.2
 20
66.1965
 11
56.2
 21
56.7399
  0
LINE
  8
0
 10
56.2
 20
56.7399
 11
53.2
 21
56.7399
  0
LINE
  8
0
 10
53.2
 20
56.7399
 11
53.2
 21
48.8657
  0
LINE
  8
0
 10
53.2
 20
48.8657
 11
53.3863
 21
48.9545
  0
LINE
  8
0
 10
53.3863
 20
48.9545
 11
53.9001
 21
49.0955
  0
LINE
  8
0
 10
53.9001
 20
49.0955
 11
54.4433
 21
49.1425
  0
LINE
  8
0
 10
54.4433
 20
49.1425
 11
54.9848
 21
49.0965
  0
LINE
  8
0
 10
54.9848
 20
49.0965
 11
55.4953
 21
48.9585
  0
LINE
  8
0
 10
55.4953
 20
48.9585
 11
55.9633
 21
48.7375
  0
LINE
  8
0
 10
55.9633
 20
48.7375
 11
56.3773
 21
48.4425
  0
LINE
  8
0
 10
56.3773
 20
48.4425
 11
56.7311
 21
48.0755
  0
LINE
  8
0
 10
56.7311
 20
48.0755
 11
57.0183
 21
47.6385
  0
LINE
  8
0
 10
57.0183
 20
47.6385
 11
57.2276
 21
47.1432
  0
LINE
  8
0
 10
57.2276
 20
47.1432
 11
57.3473
 21
46.6015
  0
LINE
  8
0
 10
57.3473
 20
46.6015
 11
56.2
 21
46.6015
  0
LINE
  8
0
 10
56.2
 20
46.6015
 11
56.2
 21
45.8605
  0
LINE
  8
0
 10
56.2
 20
45.8605
 11
57.3473
 21
45.8605
  0
LINE
  8
0
 10
57.3473
 20
45.8605
 11
57.2276
 21
45.318
  0
LINE
  8
0
 10
57.2276
 20
45.318
 11
57.0183
 21
44.8225
  0
LINE
  8
0
 10
57.0183
 20
44.8225
 11
56.7311
 21
44.3855
  0
LINE
  8
0
 10
56.7311
 20
44.3855
 11
56.3773
 21
44.0185
  0
LINE
  8
0
 10
56.3773
 20
44.0185
 11
56.2
 21
43.8921
  0
LINE
  8
0
 10
56.2
 20
43.8921
 11
56.2
 21
37.8266
  0
LINE
  8
0
 10
56.2
 20
37.8266
 11
53.2
 21
37.8266
  0
LINE
  8
0
 10
53.2
 20
37.8266
 11
53.2
 21
33.6352
  0
LINE
  8
0
 10
53.2
 20
33.6352
 11
53.4056
 21
34.0387
  0
LINE
  8
0
 10
53.4056
 20
34.0387
 11
53.7595
 21
34.3927
  0
LINE
  8
0
 10
53.7595
 20
34.3927
 11
54.2056
 21
34.6199
  0
LINE
  8
0
 10
54.2056
 20
34.6199
 11
54.7
 21
34.6982
  0
LINE
  8
0
 10
54.7
 20
34.6982
 11
55.1944
 21
34.6199
  0
LINE
  8
0
 10
55.1944
 20
34.6199
 11
55.6404
 21
34.3927
  0
LINE
  8
0
 10
55.6404
 20
34.3927
 11
55.9944
 21
34.0387
  0
LINE
  8
0
 10
55.9944
 20
34.0387
 11
56.2217
 21
33.5927
  0
LINE
  8
0
 10
56.2217
 20
33.5927
 11
56.3
 21
33.0983
  0
LINE
  8
0
 10
56.3
 20
33.0983
 11
56.2217
 21
32.6038
  0
LINE
  8
0
 10
56.2217
 20
32.6038
 11
55.9944
 21
32.1578
  0
LINE
  8
0
 10
55.9944
 20
32.1578
 11
55.6404
 21
31.8038
  0
LINE
  8
0
 10
55.6404
 20
31.8038
 11
55.1944
 21
31.5766
  0
LINE
  8
0
 10
55.1944
 20
31.5766
 11
54.7
 21
31.4982
  0
LINE
  8
0
 10
54.7
 20
31.4982
 11
54.2056
 21
31.5766
  0
LINE
  8
0
 10
54.2056
 20
31.5766
 11
53.7595
 21
31.8038
  0
LINE
  8
0
 10
53.7595
 20
31.8038
 11
53.4056
 21
32.1578
  0
LINE
  8
0
 10
53.4056
 20
32.1578
 11
53.2
 21
32.5612
  0
LINE
  8
0
 10
53.2
 20
32.5612
 11
53.2
 21
28.3699
  0
LINE
  8
0
 10
53.2
 20
28.3699
 11
56.2
 21
28.3699
  0
LINE
  8
0
 10
56.2
 20
28.3699
 11
56.2
 21
18.9133
  0
LINE
  8
0
 10
56.2
 20
18.9133
 11
53.2
 21
18.9133
  0
LINE
  8
0
 10
53.2
 20
18.9133
 11
53.2
 21
9.45663
  0
LINE
  8
0
 10
53.2
 20
9.45663
 11
56.2
 21
9.45663
  0
LINE
  8
0
 10
56.2
 20
9.45663
 11
56.2
 21
0
  0
LINE
  8
0
 10
56.2
 20
0
 11
101.4
 21
0
  0
LINE
  8
0
 10
101.4
 20
0
 11
101.4
 21
9.45663
  0
LINE
  8
0
 10
85.6394
 20
46.4435
 11
85.1814
 21
45.4835
  0
LINE
  8
0
 10
85.1814
 20
45.4835
 11
84.5744
 21
46.9695
  0
LINE
  8
0
 10
84.5744
 20
46.9695
 11
85.6394
 21
49.2065
  0
LINE
  8
0
 10
85.6394
 20
49.2065
 11
87.7854
 21
44.7405
  0
LINE
  8
0
 10
87.7854
 20
44.7405
 11
87.1784
 21
43.2545
  0
LINE
  8
0
 10
87.1784
 20
43.2545
 11
85.6394
 21
46.4435
  0
LINE
  8
0
 10
76.1544
 20
46.6015
 11
76.2674
 21
47.1312
  0
LINE
  8
0
 10
76.2674
 20
47.1312
 11
76.4744
 21
47.6225
  0
LINE
  8
0
 10
76.4744
 20
47.6225
 11
76.7626
 21
48.0605
  0
LINE
  8
0
 10
76.7626
 20
48.0605
 11
77.1194
 21
48.4305
  0
LINE
  8
0
 10
77.1194
 20
48.4305
 11
77.5374
 21
48.7295
  0
LINE
  8
0
 10
77.5374
 20
48.7295
 11
78.0094
 21
48.9545
  0
LINE
  8
0
 10
78.0094
 20
48.9545
 11
78.5231
 21
49.0955
  0
LINE
  8
0
 10
78.5231
 20
49.0955
 11
79.0664
 21
49.1425
  0
LINE
  8
0
 10
79.0664
 20
49.1425
 11
79.6079
 21
49.0965
  0
LINE
  8
0
 10
79.6079
 20
49.0965
 11
80.1184
 21
48.9585
  0
LINE
  8
0
 10
80.1184
 20
48.9585
 11
80.5864
 21
48.7375
  0
LINE
  8
0
 10
80.5864
 20
48.7375
 11
81.0004
 21
48.4425
  0
LINE
  8
0
 10
81.0004
 20
48.4425
 11
81.3541
 21
48.0755
  0
LINE
  8
0
 10
81.3541
 20
48.0755
 11
81.6414
 21
47.6385
  0
LINE
  8
0
 10
81.6414
 20
47.6385
 11
81.8506
 21
47.1432
  0
LINE
  8
0
 10
81.8506
 20
47.1432
 11
81.9704
 21
46.6015
  0
LINE
  8
0
 10
81.9704
 20
46.6015
 11
80.7634
 21
46.6015
  0
LINE
  8
0
 10
80.7634
 20
46.6015
 11
80.5244
 21
47.1807
  0
LINE
  8
0
 10
80.5244
 20
47.1807
 11
80.1394
 21
47.6205
  0
LINE
  8
0
 10
80.1394
 20
47.6205
 11
79.6406
 21
47.898
  0
LINE
  8
0
 10
79.6406
 20
47.898
 11
79.0584
 21
47.9905
  0
LINE
  8
0
 10
79.0584
 20
47.9905
 11
78.7519
 21
47.9655
  0
LINE
  8
0
 10
78.7519
 20
47.9655
 11
78.4664
 21
47.8905
  0
LINE
  8
0
 10
78.4664
 20
47.8905
 11
78.2046
 21
47.7697
  0
LINE
  8
0
 10
78.2046
 20
47.7697
 11
77.9674
 21
47.6075
  0
LINE
  8
0
 10
77.9674
 20
47.6075
 11
77.7599
 21
47.4057
  0
LINE
  8
0
 10
77.7599
 20
47.4057
 11
77.5854
 21
47.1665
  0
LINE
  8
0
 10
77.5854
 20
47.1665
 11
77.4501
 21
46.8967
  0
LINE
  8
0
 10
77.4501
 20
46.8967
 11
77.3604
 21
46.6015
  0
LINE
  8
0
 10
77.3604
 20
46.6015
 11
76.1544
 21
46.6015
  0
LINE
  8
0
 10
87.4284
 20
46.9955
 11
88.2764
 21
49.0145
  0
LINE
  8
0
 10
88.2764
 20
49.0145
 11
89.5574
 21
49.0315
  0
LINE
  8
0
 10
89.5574
 20
49.0315
 11
88.1264
 21
45.5665
  0
LINE
  8
0
 10
88.1264
 20
45.5665
 11
87.4284
 21
46.9955
  0
LINE
  8
0
 10
94.5899
 20
43.4465
 11
94.5899
 21
49.0145
  0
LINE
  8
0
 10
94.5899
 20
49.0145
 11
95.7889
 21
49.0145
  0
LINE
  8
0
 10
95.7889
 20
49.0145
 11
95.7889
 21
43.4465
  0
LINE
  8
0
 10
95.7889
 20
43.4465
 11
94.5899
 21
43.4465
  0
LINE
  8
0
 10
91.4748
 20
47.8625
 11
91.4748
 21
49.0145
  0
LINE
  8
0
 10
91.4748
 20
49.0145
 11
93.6628
 21
49.0145
  0
LINE
  8
0
 10
93.6628
 20
49.0145
 11
93.6628
 21
47.8625
  0
LINE
  8
0
 10
93.6628
 20
47.8625
 11
91.4748
 21
47.8625
  0
LINE
  8
0
 10
81.7284
 20
49.0145
 11
83.0184
 21
49.0145
  0
LINE
  8
0
 10
83.0184
 20
49.0145
 11
84.7984
 21
44.6865
  0
LINE
  8
0
 10
84.7984
 20
44.6865
 11
84.1084
 21
43.2545
  0
LINE
  8
0
 10
84.1084
 20
43.2545
 11
81.7284
 21
49.0145
  0
LINE
  8
0
 10
96.4619
 20
45.6225
 11
96.4619
 21
46.7745
  0
LINE
  8
0
 10
96.4619
 20
46.7745
 11
96.8529
 21
46.7745
  0
LINE
  8
0
 10
96.8529
 20
46.7745
 11
97.0339
 21
46.7777
  0
LINE
  8
0
 10
97.0339
 20
46.7777
 11
97.1609
 21
46.7875
  0
LINE
  8
0
 10
97.1609
 20
46.7875
 11
97.2589
 21
46.809
  0
LINE
  8
0
 10
97.2589
 20
46.809
 11
97.3529
 21
46.8455
  0
LINE
  8
0
 10
97.3529
 20
46.8455
 11
97.4724
 21
46.924
  0
LINE
  8
0
 10
97.4724
 20
46.924
 11
97.5649
 21
47.0355
  0
LINE
  8
0
 10
97.5649
 20
47.0355
 11
97.6241
 21
47.1712
  0
LINE
  8
0
 10
97.6241
 20
47.1712
 11
97.6439
 21
47.3225
  0
LINE
  8
0
 10
97.6439
 20
47.3225
 11
97.6291
 21
47.451
  0
LINE
  8
0
 10
97.6291
 20
47.451
 11
97.5849
 21
47.5705
  0
LINE
  8
0
 10
97.5849
 20
47.5705
 11
97.5186
 21
47.6745
  0
LINE
  8
0
 10
97.5186
 20
47.6745
 11
97.4359
 21
47.7565
  0
LINE
  8
0
 10
97.4359
 20
47.7565
 11
97.3389
 21
47.8085
  0
LINE
  8
0
 10
97.3389
 20
47.8085
 11
97.2319
 21
47.8405
  0
LINE
  8
0
 10
97.2319
 20
47.8405
 11
97.0959
 21
47.857
  0
LINE
  8
0
 10
97.0959
 20
47.857
 11
96.9119
 21
47.8625
  0
LINE
  8
0
 10
96.9119
 20
47.8625
 11
96.4619
 21
47.8625
  0
LINE
  8
0
 10
96.4619
 20
47.8625
 11
96.4619
 21
49.0145
  0
LINE
  8
0
 10
96.4619
 20
49.0145
 11
96.8369
 21
49.0145
  0
LINE
  8
0
 10
96.8369
 20
49.0145
 11
97.0874
 21
49.0092
  0
LINE
  8
0
 10
97.0874
 20
49.0092
 11
97.3069
 21
48.9935
  0
LINE
  8
0
 10
97.3069
 20
48.9935
 11
97.5024
 21
48.9652
  0
LINE
  8
0
 10
97.5024
 20
48.9652
 11
97.6809
 21
48.9225
  0
LINE
  8
0
 10
97.6809
 20
48.9225
 11
97.8434
 21
48.864
  0
LINE
  8
0
 10
97.8434
 20
48.864
 11
97.9889
 21
48.7885
  0
LINE
  8
0
 10
97.9889
 20
48.7885
 11
98.1249
 21
48.6962
  0
LINE
  8
0
 10
98.1249
 20
48.6962
 11
98.2589
 21
48.5875
  0
LINE
  8
0
 10
98.2589
 20
48.5875
 11
98.4964
 21
48.3235
  0
LINE
  8
0
 10
98.4964
 20
48.3235
 11
98.6749
 21
48.0175
  0
LINE
  8
0
 10
98.6749
 20
48.0175
 11
98.7874
 21
47.6807
  0
LINE
  8
0
 10
98.7874
 20
47.6807
 11
98.8249
 21
47.3225
  0
LINE
  8
0
 10
98.8249
 20
47.3225
 11
98.7821
 21
46.9388
  0
LINE
  8
0
 10
98.7821
 20
46.9388
 11
98.6539
 21
46.5735
  0
LINE
  8
0
 10
98.6539
 20
46.5735
 11
98.4494
 21
46.2457
  0
LINE
  8
0
 10
98.4494
 20
46.2457
 11
98.1759
 21
45.9745
  0
LINE
  8
0
 10
98.1759
 20
45.9745
 11
97.9244
 21
45.8098
  0
LINE
  8
0
 10
97.9244
 20
45.8098
 11
97.6519
 21
45.7015
  0
LINE
  8
0
 10
97.6519
 20
45.7015
 11
97.3274
 21
45.6423
  0
LINE
  8
0
 10
97.3274
 20
45.6423
 11
96.9199
 21
45.6225
  0
LINE
  8
0
 10
96.9199
 20
45.6225
 11
96.4619
 21
45.6225
  0
LINE
  8
0
 10
89.5938
 20
43.4465
 11
89.5938
 21
49.0145
  0
LINE
  8
0
 10
89.5938
 20
49.0145
 11
90.7928
 21
49.0145
  0
LINE
  8
0
 10
90.7928
 20
49.0145
 11
90.7928
 21
43.4465
  0
LINE
  8
0
 10
90.7928
 20
43.4465
 11
89.5938
 21
43.4465
  0
LINE
  8
0
 10
71.569
 20
43.4465
 11
71.569
 21
49.0145
  0
LINE
  8
0
 10
71.569
 20
49.0145
 11
72.767
 21
49.0145
  0
LINE
  8
0
 10
72.767
 20
49.0145
 11
72.767
 21
43.4465
  0
LINE
  8
0
 10
72.767
 20
43.4465
 11
71.569
 21
43.4465
  0
LINE
  8
0
 10
65.0104
 20
43.4465
 11
65.0104
 21
49.0145
  0
LINE
  8
0
 10
65.0104
 20
49.0145
 11
66.2084
 21
49.0145
  0
LINE
  8
0
 10
66.2084
 20
49.0145
 11
66.2084
 21
43.4465
  0
LINE
  8
0
 10
66.2084
 20
43.4465
 11
65.0104
 21
43.4465
  0
LINE
  8
0
 10
66.8324
 20
47.8625
 11
66.8324
 21
49.0145
  0
LINE
  8
0
 10
66.8324
 20
49.0145
 11
68.9214
 21
49.0145
  0
LINE
  8
0
 10
68.9214
 20
49.0145
 11
68.9214
 21
47.8625
  0
LINE
  8
0
 10
68.9214
 20
47.8625
 11
66.8324
 21
47.8625
  0
LINE
  8
0
 10
73.441
 20
45.6225
 11
73.441
 21
46.7745
  0
LINE
  8
0
 10
73.441
 20
46.7745
 11
73.832
 21
46.7745
  0
LINE
  8
0
 10
73.832
 20
46.7745
 11
74.013
 21
46.7777
  0
LINE
  8
0
 10
74.013
 20
46.7777
 11
74.14
 21
46.7875
  0
LINE
  8
0
 10
74.14
 20
46.7875
 11
74.2378
 21
46.809
  0
LINE
  8
0
 10
74.2378
 20
46.809
 11
74.331
 21
46.8455
  0
LINE
  8
0
 10
74.331
 20
46.8455
 11
74.4513
 21
46.924
  0
LINE
  8
0
 10
74.4513
 20
46.924
 11
74.544
 21
47.0355
  0
LINE
  8
0
 10
74.544
 20
47.0355
 11
74.6033
 21
47.1712
  0
LINE
  8
0
 10
74.6033
 20
47.1712
 11
74.623
 21
47.3225
  0
LINE
  8
0
 10
74.623
 20
47.3225
 11
74.6083
 21
47.451
  0
LINE
  8
0
 10
74.6083
 20
47.451
 11
74.564
 21
47.5705
  0
LINE
  8
0
 10
74.564
 20
47.5705
 11
74.4978
 21
47.6745
  0
LINE
  8
0
 10
74.4978
 20
47.6745
 11
74.415
 21
47.7565
  0
LINE
  8
0
 10
74.415
 20
47.7565
 11
74.3178
 21
47.8085
  0
LINE
  8
0
 10
74.3178
 20
47.8085
 11
74.21
 21
47.8405
  0
LINE
  8
0
 10
74.21
 20
47.8405
 11
74.074
 21
47.857
  0
LINE
  8
0
 10
74.074
 20
47.857
 11
73.89
 21
47.8625
  0
LINE
  8
0
 10
73.89
 20
47.8625
 11
73.441
 21
47.8625
  0
LINE
  8
0
 10
73.441
 20
47.8625
 11
73.441
 21
49.0145
  0
LINE
  8
0
 10
73.441
 20
49.0145
 11
73.816
 21
49.0145
  0
LINE
  8
0
 10
73.816
 20
49.0145
 11
74.0665
 21
49.0092
  0
LINE
  8
0
 10
74.0665
 20
49.0092
 11
74.286
 21
48.9935
  0
LINE
  8
0
 10
74.286
 20
48.9935
 11
74.4815
 21
48.9652
  0
LINE
  8
0
 10
74.4815
 20
48.9652
 11
74.66
 21
48.9225
  0
LINE
  8
0
 10
74.66
 20
48.9225
 11
74.8225
 21
48.864
  0
LINE
  8
0
 10
74.8225
 20
48.864
 11
74.968
 21
48.7885
  0
LINE
  8
0
 10
74.968
 20
48.7885
 11
75.104
 21
48.6962
  0
LINE
  8
0
 10
75.104
 20
48.6962
 11
75.238
 21
48.5875
  0
LINE
  8
0
 10
75.238
 20
48.5875
 11
75.4755
 21
48.3235
  0
LINE
  8
0
 10
75.4755
 20
48.3235
 11
75.654
 21
48.0175
  0
LINE
  8
0
 10
75.654
 20
48.0175
 11
75.7665
 21
47.6807
  0
LINE
  8
0
 10
75.7665
 20
47.6807
 11
75.804
 21
47.3225
  0
LINE
  8
0
 10
75.804
 20
47.3225
 11
75.7613
 21
46.9388
  0
LINE
  8
0
 10
75.7613
 20
46.9388
 11
75.633
 21
46.5735
  0
LINE
  8
0
 10
75.633
 20
46.5735
 11
75.4285
 21
46.2457
  0
LINE
  8
0
 10
75.4285
 20
46.2457
 11
75.155
 21
45.9745
  0
LINE
  8
0
 10
75.155
 20
45.9745
 11
74.9035
 21
45.8098
  0
LINE
  8
0
 10
74.9035
 20
45.8098
 11
74.631
 21
45.7015
  0
LINE
  8
0
 10
74.631
 20
45.7015
 11
74.3065
 21
45.6423
  0
LINE
  8
0
 10
74.3065
 20
45.6423
 11
73.899
 21
45.6225
  0
LINE
  8
0
 10
73.899
 20
45.6225
 11
73.441
 21
45.6225
  0
LINE
  8
0
 10
61.9765
 20
45.6225
 11
61.9765
 21
46.7745
  0
LINE
  8
0
 10
61.9765
 20
46.7745
 11
62.3676
 21
46.7745
  0
LINE
  8
0
 10
62.3676
 20
46.7745
 11
62.5486
 21
46.7777
  0
LINE
  8
0
 10
62.5486
 20
46.7777
 11
62.6756
 21
46.7875
  0
LINE
  8
0
 10
62.6756
 20
46.7875
 11
62.7736
 21
46.809
  0
LINE
  8
0
 10
62.7736
 20
46.809
 11
62.8676
 21
46.8455
  0
LINE
  8
0
 10
62.8676
 20
46.8455
 11
62.9871
 21
46.924
  0
LINE
  8
0
 10
62.9871
 20
46.924
 11
63.0796
 21
47.0355
  0
LINE
  8
0
 10
63.0796
 20
47.0355
 11
63.1388
 21
47.1712
  0
LINE
  8
0
 10
63.1388
 20
47.1712
 11
63.1586
 21
47.3225
  0
LINE
  8
0
 10
63.1586
 20
47.3225
 11
63.1438
 21
47.451
  0
LINE
  8
0
 10
63.1438
 20
47.451
 11
63.0995
 21
47.5705
  0
LINE
  8
0
 10
63.0995
 20
47.5705
 11
63.0333
 21
47.6745
  0
LINE
  8
0
 10
63.0333
 20
47.6745
 11
62.9506
 21
47.7565
  0
LINE
  8
0
 10
62.9506
 20
47.7565
 11
62.8536
 21
47.8085
  0
LINE
  8
0
 10
62.8536
 20
47.8085
 11
62.7466
 21
47.8405
  0
LINE
  8
0
 10
62.7466
 20
47.8405
 11
62.6105
 21
47.857
  0
LINE
  8
0
 10
62.6105
 20
47.857
 11
62.4266
 21
47.8625
  0
LINE
  8
0
 10
62.4266
 20
47.8625
 11
61.9765
 21
47.8625
  0
LINE
  8
0
 10
61.9765
 20
47.8625
 11
61.9765
 21
49.0145
  0
LINE
  8
0
 10
61.9765
 20
49.0145
 11
62.3515
 21
49.0145
  0
LINE
  8
0
 10
62.3515
 20
49.0145
 11
62.6021
 21
49.0092
  0
LINE
  8
0
 10
62.6021
 20
49.0092
 11
62.8215
 21
48.9935
  0
LINE
  8
0
 10
62.8215
 20
48.9935
 11
63.0171
 21
48.9652
  0
LINE
  8
0
 10
63.0171
 20
48.9652
 11
63.1956
 21
48.9225
  0
LINE
  8
0
 10
63.1956
 20
48.9225
 11
63.358
 21
48.864
  0
LINE
  8
0
 10
63.358
 20
48.864
 11
63.5036
 21
48.7885
  0
LINE
  8
0
 10
63.5036
 20
48.7885
 11
63.6396
 21
48.6962
  0
LINE
  8
0
 10
63.6396
 20
48.6962
 11
63.7736
 21
48.5875
  0
LINE
  8
0
 10
63.7736
 20
48.5875
 11
64.011
 21
48.3235
  0
LINE
  8
0
 10
64.011
 20
48.3235
 11
64.1896
 21
48.0175
  0
LINE
  8
0
 10
64.1896
 20
48.0175
 11
64.302
 21
47.6807
  0
LINE
  8
0
 10
64.302
 20
47.6807
 11
64.3396
 21
47.3225
  0
LINE
  8
0
 10
64.3396
 20
47.3225
 11
64.2968
 21
46.9388
  0
LINE
  8
0
 10
64.2968
 20
46.9388
 11
64.1685
 21
46.5735
  0
LINE
  8
0
 10
64.1685
 20
46.5735
 11
63.9641
 21
46.2457
  0
LINE
  8
0
 10
63.9641
 20
46.2457
 11
63.6906
 21
45.9745
  0
LINE
  8
0
 10
63.6906
 20
45.9745
 11
63.4391
 21
45.8098
  0
LINE
  8
0
 10
63.4391
 20
45.8098
 11
63.1665
 21
45.7015
  0
LINE
  8
0
 10
63.1665
 20
45.7015
 11
62.8421
 21
45.6423
  0
LINE
  8
0
 10
62.8421
 20
45.6423
 11
62.4346
 21
45.6225
  0
LINE
  8
0
 10
62.4346
 20
45.6225
 11
61.9765
 21
45.6225
  0
LINE
  8
0
 10
60.1046
 20
43.4465
 11
60.1046
 21
49.0145
  0
LINE
  8
0
 10
60.1046
 20
49.0145
 11
61.3036
 21
49.0145
  0
LINE
  8
0
 10
61.3036
 20
49.0145
 11
61.3036
 21
43.4465
  0
LINE
  8
0
 10
61.3036
 20
43.4465
 11
60.1046
 21
43.4465
  0
LINE
  8
0
 10
66.8324
 20
45.6225
 11
66.8324
 21
46.7745
  0
LINE
  8
0
 10
66.8324
 20
46.7745
 11
68.9214
 21
46.7745
  0
LINE
  8
0
 10
68.9214
 20
46.7745
 11
68.9214
 21
45.6225
  0
LINE
  8
0
 10
68.9214
 20
45.6225
 11
66.8324
 21
45.6225
  0
LINE
  8
0
 10
91.4748
 20
45.6225
 11
91.4748
 21
46.7745
  0
LINE
  8
0
 10
91.4748
 20
46.7745
 11
93.6628
 21
46.7745
  0
LINE
  8
0
 10
93.6628
 20
46.7745
 11
93.6628
 21
45.6225
  0
LINE
  8
0
 10
93.6628
 20
45.6225
 11
91.4748
 21
45.6225
  0
LINE
  8
0
 10
78.5231
 20
43.3655
 11
78.0094
 21
43.5065
  0
LINE
  8
0
 10
78.0094
 20
43.5065
 11
77.5374
 21
43.7315
  0
LINE
  8
0
 10
77.5374
 20
43.7315
 11
77.1194
 21
44.0305
  0
LINE
  8
0
 10
77.1194
 20
44.0305
 11
76.7626
 21
44.4005
  0
LINE
  8
0
 10
76.7626
 20
44.4005
 11
76.4744
 21
44.8385
  0
LINE
  8
0
 10
76.4744
 20
44.8385
 11
76.2674
 21
45.3305
  0
LINE
  8
0
 10
76.2674
 20
45.3305
 11
76.1544
 21
45.8605
  0
LINE
  8
0
 10
76.1544
 20
45.8605
 11
77.3604
 21
45.8605
  0
LINE
  8
0
 10
77.3604
 20
45.8605
 11
77.4501
 21
45.56
  0
LINE
  8
0
 10
77.4501
 20
45.56
 11
77.5854
 21
45.2905
  0
LINE
  8
0
 10
77.5854
 20
45.2905
 11
77.7599
 21
45.0543
  0
LINE
  8
0
 10
77.7599
 20
45.0543
 11
77.9674
 21
44.8535
  0
LINE
  8
0
 10
77.9674
 20
44.8535
 11
78.2046
 21
44.6913
  0
LINE
  8
0
 10
78.2046
 20
44.6913
 11
78.4664
 21
44.5705
  0
LINE
  8
0
 10
78.4664
 20
44.5705
 11
78.7519
 21
44.4955
  0
LINE
  8
0
 10
78.7519
 20
44.4955
 11
79.0584
 21
44.4705
  0
LINE
  8
0
 10
79.0584
 20
44.4705
 11
79.6406
 21
44.563
  0
LINE
  8
0
 10
79.6406
 20
44.563
 11
80.1394
 21
44.8405
  0
LINE
  8
0
 10
80.1394
 20
44.8405
 11
80.5244
 21
45.281
  0
LINE
  8
0
 10
80.5244
 20
45.281
 11
80.7634
 21
45.8605
  0
LINE
  8
0
 10
80.7634
 20
45.8605
 11
81.9704
 21
45.8605
  0
LINE
  8
0
 10
81.9704
 20
45.8605
 11
81.8506
 21
45.318
  0
LINE
  8
0
 10
81.8506
 20
45.318
 11
81.6414
 21
44.8225
  0
LINE
  8
0
 10
81.6414
 20
44.8225
 11
81.3541
 21
44.3855
  0
LINE
  8
0
 10
81.3541
 20
44.3855
 11
81.0004
 21
44.0185
  0
LINE
  8
0
 10
81.0004
 20
44.0185
 11
80.5864
 21
43.7235
  0
LINE
  8
0
 10
80.5864
 20
43.7235
 11
80.1184
 21
43.5025
  0
LINE
  8
0
 10
80.1184
 20
43.5025
 11
79.6079
 21
43.3645
  0
LINE
  8
0
 10
79.6079
 20
43.3645
 11
79.0664
 21
43.3185
  0
LINE
  8
0
 10
79.0664
 20
43.3185
 11
78.5231
 21
43.3655
  0
LINE
  8
0
 10
63.0496
 20
43.4465
 11
62.4426
 21
45.1525
  0
LINE
  8
0
 10
62.4426
 20
45.1525
 11
62.7973
 21
45.173
  0
LINE
  8
0
 10
62.7973
 20
45.173
 11
63.0956
 21
45.2185
  0
LINE
  8
0
 10
63.0956
 20
45.2185
 11
63.3631
 21
45.2955
  0
LINE
  8
0
 10
63.3631
 20
45.2955
 11
63.6236
 21
45.4105
  0
LINE
  8
0
 10
63.6236
 20
45.4105
 11
64.3146
 21
43.4465
  0
LINE
  8
0
 10
64.3146
 20
43.4465
 11
63.0496
 21
43.4465
  0
LINE
  8
0
 10
97.5349
 20
43.4465
 11
96.9279
 21
45.1525
  0
LINE
  8
0
 10
96.9279
 20
45.1525
 11
97.2826
 21
45.173
  0
LINE
  8
0
 10
97.2826
 20
45.173
 11
97.5809
 21
45.2185
  0
LINE
  8
0
 10
97.5809
 20
45.2185
 11
97.8484
 21
45.2955
  0
LINE
  8
0
 10
97.8484
 20
45.2955
 11
98.1089
 21
45.4105
  0
LINE
  8
0
 10
98.1089
 20
45.4105
 11
98.7999
 21
43.4465
  0
LINE
  8
0
 10
98.7999
 20
43.4465
 11
97.5349
 21
43.4465
  0
LINE
  8
0
 10
91.4748
 20
43.4465
 11
91.4748
 21
44.5985
  0
LINE
  8
0
 10
91.4748
 20
44.5985
 11
93.6628
 21
44.5985
  0
LINE
  8
0
 10
93.6628
 20
44.5985
 11
93.6628
 21
43.4465
  0
LINE
  8
0
 10
93.6628
 20
43.4465
 11
91.4748
 21
43.4465
  0
LINE
  8
0
 10
87.969
 20
34.4778
 11
87.571
 21
35.2458
  0
LINE
  8
0
 10
87.571
 20
35.2458
 11
86.176
 21
35.2458
  0
LINE
  8
0
 10
86.176
 20
35.2458
 11
86.671
 21
36.2057
  0
LINE
  8
0
 10
86.671
 20
36.2057
 11
87.069
 21
36.2057
  0
LINE
  8
0
 10
87.069
 20
36.2057
 11
86.016
 21
38.2357
  0
LINE
  8
0
 10
86.016
 20
38.2357
 11
86.581
 21
39.3237
  0
LINE
  8
0
 10
86.581
 20
39.3237
 11
89.099
 21
34.4778
  0
LINE
  8
0
 10
89.099
 20
34.4778
 11
87.969
 21
34.4778
  0
LINE
  8
0
 10
76.9114
 20
38.5332
 11
76.9114
 21
38.1897
  0
LINE
  8
0
 10
76.9114
 20
38.1897
 11
75.0764
 21
38.1897
  0
LINE
  8
0
 10
75.0764
 20
38.1897
 11
75.0764
 21
39.1497
  0
LINE
  8
0
 10
75.0764
 20
39.1497
 11
76.9114
 21
39.1497
  0
LINE
  8
0
 10
76.9114
 20
39.1497
 11
76.9114
 21
39.1447
  0
LINE
  8
0
 10
76.9114
 20
39.1447
 11
77.7195
 21
39.1447
  0
LINE
  8
0
 10
77.7195
 20
39.1447
 11
79.6725
 21
35.3498
  0
LINE
  8
0
 10
79.6725
 20
35.3498
 11
79.1075
 21
34.2688
  0
LINE
  8
0
 10
79.1075
 20
34.2688
 11
76.9114
 21
38.5332
  0
LINE
  8
0
 10
69.3627
 20
34.4778
 11
69.3627
 21
39.1497
  0
LINE
  8
0
 10
69.3627
 20
39.1497
 11
70.3677
 21
39.1497
  0
LINE
  8
0
 10
70.3677
 20
39.1497
 11
70.3677
 21
34.4778
  0
LINE
  8
0
 10
70.3677
 20
34.4778
 11
69.3627
 21
34.4778
  0
LINE
  8
0
 10
73.4994
 20
34.4778
 11
73.4994
 21
39.1497
  0
LINE
  8
0
 10
73.4994
 20
39.1497
 11
74.5044
 21
39.1497
  0
LINE
  8
0
 10
74.5044
 20
39.1497
 11
74.5044
 21
34.4778
  0
LINE
  8
0
 10
74.5044
 20
34.4778
 11
73.4994
 21
34.4778
  0
LINE
  8
0
 10
70.9327
 20
36.3337
 11
70.9327
 21
37.2937
  0
LINE
  8
0
 10
70.9327
 20
37.2937
 11
71.2607
 21
37.2937
  0
LINE
  8
0
 10
71.2607
 20
37.2937
 11
71.4122
 21
37.2965
  0
LINE
  8
0
 10
71.4122
 20
37.2965
 11
71.5187
 21
37.3047
  0
LINE
  8
0
 10
71.5187
 20
37.3047
 11
71.6007
 21
37.322
  0
LINE
  8
0
 10
71.6007
 20
37.322
 11
71.6787
 21
37.3517
  0
LINE
  8
0
 10
71.6787
 20
37.3517
 11
71.7792
 21
37.4165
  0
LINE
  8
0
 10
71.7792
 20
37.4165
 11
71.8567
 21
37.5087
  0
LINE
  8
0
 10
71.8567
 20
37.5087
 11
71.907
 21
37.621
  0
LINE
  8
0
 10
71.907
 20
37.621
 11
71.9237
 21
37.7457
  0
LINE
  8
0
 10
71.9237
 20
37.7457
 11
71.9115
 21
37.851
  0
LINE
  8
0
 10
71.9115
 20
37.851
 11
71.8747
 21
37.9487
  0
LINE
  8
0
 10
71.8747
 20
37.9487
 11
71.8187
 21
38.0347
  0
LINE
  8
0
 10
71.8187
 20
38.0347
 11
71.7487
 21
38.1028
  0
LINE
  8
0
 10
71.7487
 20
38.1028
 11
71.6674
 21
38.1455
  0
LINE
  8
0
 10
71.6674
 20
38.1455
 11
71.5777
 21
38.1717
  0
LINE
  8
0
 10
71.5777
 20
38.1717
 11
71.4637
 21
38.1852
  0
LINE
  8
0
 10
71.4637
 20
38.1852
 11
71.3097
 21
38.1897
  0
LINE
  8
0
 10
71.3097
 20
38.1897
 11
70.9327
 21
38.1897
  0
LINE
  8
0
 10
70.9327
 20
38.1897
 11
70.9327
 21
39.1497
  0
LINE
  8
0
 10
70.9327
 20
39.1497
 11
71.2467
 21
39.1497
  0
LINE
  8
0
 10
71.2467
 20
39.1497
 11
71.4567
 21
39.1452
  0
LINE
  8
0
 10
71.4567
 20
39.1452
 11
71.6407
 21
39.1317
  0
LINE
  8
0
 10
71.6407
 20
39.1317
 11
71.8047
 21
39.1085
  0
LINE
  8
0
 10
71.8047
 20
39.1085
 11
71.9547
 21
39.0727
  0
LINE
  8
0
 10
71.9547
 20
39.0727
 11
72.0907
 21
39.0245
  0
LINE
  8
0
 10
72.0907
 20
39.0245
 11
72.2127
 21
38.9617
  0
LINE
  8
0
 10
72.2127
 20
38.9617
 11
72.327
 21
38.8855
  0
LINE
  8
0
 10
72.327
 20
38.8855
 11
72.4397
 21
38.7947
  0
LINE
  8
0
 10
72.4397
 20
38.7947
 11
72.6382
 21
38.576
  0
LINE
  8
0
 10
72.6382
 20
38.576
 11
72.7877
 21
38.3217
  0
LINE
  8
0
 10
72.7877
 20
38.3217
 11
72.8822
 21
38.042
  0
LINE
  8
0
 10
72.8822
 20
38.042
 11
72.9137
 21
37.7448
  0
LINE
  8
0
 10
72.9137
 20
37.7448
 11
72.8779
 21
37.4262
  0
LINE
  8
0
 10
72.8779
 20
37.4262
 11
72.7707
 21
37.1227
  0
LINE
  8
0
 10
72.7707
 20
37.1227
 11
72.599
 21
36.851
  0
LINE
  8
0
 10
72.599
 20
36.851
 11
72.3697
 21
36.6257
  0
LINE
  8
0
 10
72.3697
 20
36.6257
 11
72.1587
 21
36.4892
  0
LINE
  8
0
 10
72.1587
 20
36.4892
 11
71.9297
 21
36.3997
  0
LINE
  8
0
 10
71.9297
 20
36.3997
 11
71.6579
 21
36.3503
  0
LINE
  8
0
 10
71.6579
 20
36.3503
 11
71.3167
 21
36.3337
  0
LINE
  8
0
 10
71.3167
 20
36.3337
 11
70.9327
 21
36.3337
  0
LINE
  8
0
 10
79.4215
 20
37.0517
 11
80.5035
 21
39.1447
  0
LINE
  8
0
 10
80.5035
 20
39.1447
 11
81.6265
 21
39.1447
  0
LINE
  8
0
 10
81.6265
 20
39.1447
 11
79.9865
 21
35.9638
  0
LINE
  8
0
 10
79.9865
 20
35.9638
 11
79.4215
 21
37.0517
  0
LINE
  8
0
 10
84.076
 20
34.4778
 11
85.716
 21
37.6657
  0
LINE
  8
0
 10
85.716
 20
37.6657
 11
86.274
 21
36.5707
  0
LINE
  8
0
 10
86.274
 20
36.5707
 11
85.199
 21
34.4778
  0
LINE
  8
0
 10
85.199
 20
34.4778
 11
84.076
 21
34.4778
  0
LINE
  8
0
 10
75.0764
 20
36.3337
 11
75.0764
 21
37.2937
  0
LINE
  8
0
 10
75.0764
 20
37.2937
 11
76.9114
 21
37.2937
  0
LINE
  8
0
 10
76.9114
 20
37.2937
 11
76.9114
 21
36.3337
  0
LINE
  8
0
 10
76.9114
 20
36.3337
 11
75.0764
 21
36.3337
  0
LINE
  8
0
 10
71.8327
 20
34.4778
 11
71.3237
 21
35.9098
  0
LINE
  8
0
 10
71.3237
 20
35.9098
 11
71.6209
 21
35.9273
  0
LINE
  8
0
 10
71.6209
 20
35.9273
 11
71.8707
 21
35.9658
  0
LINE
  8
0
 10
71.8707
 20
35.9658
 11
72.095
 21
36.0303
  0
LINE
  8
0
 10
72.095
 20
36.0303
 11
72.3137
 21
36.1258
  0
LINE
  8
0
 10
72.3137
 20
36.1258
 11
72.8927
 21
34.4778
  0
LINE
  8
0
 10
72.8927
 20
34.4778
 11
71.8327
 21
34.4778
  0
LINE
  8
0
 10
75.0764
 20
34.4778
 11
75.0764
 21
35.4378
  0
LINE
  8
0
 10
75.0764
 20
35.4378
 11
76.9114
 21
35.4378
  0
LINE
  8
0
 10
76.9114
 20
35.4378
 11
76.9114
 21
34.4778
  0
LINE
  8
0
 10
76.9114
 20
34.4778
 11
75.0764
 21
34.4778
  0
LINE
  8
0
 10
81.0344
 20
33.1338
 11
81.0344
 21
34.0938
  0
LINE
  8
0
 10
81.0344
 20
34.0938
 11
84.5224
 21
34.0938
  0
LINE
  8
0
 10
84.5224
 20
34.0938
 11
84.5224
 21
33.1338
  0
LINE
  8
0
 10
84.5224
 20
33.1338
 11
81.0344
 21
33.1338
  0
LINE
  8
0
 10
66.7002
 20
13.4502
 11
66.6806
 21
13.4541
  0
LINE
  8
0
 10
66.6806
 20
13.4541
 11
66.6533
 21
13.4805
  0
LINE
  8
0
 10
66.6533
 20
13.4805
 11
66.6504
 21
13.5
  0
LINE
  8
0
 10
66.6504
 20
13.5
 11
66.6504
 21
27
  0
LINE
  8
0
 10
66.6504
 20
27
 11
66.6533
 21
27.0195
  0
LINE
  8
0
 10
66.6533
 20
27.0195
 11
66.6806
 21
27.0459
  0
LINE
  8
0
 10
66.6806
 20
27.0459
 11
66.7002
 21
27.0498
  0
LINE
  8
0
 10
66.7002
 20
27.0498
 11
84.9004
 21
27.0498
  0
LINE
  8
0
 10
84.9004
 20
27.0498
 11
84.9189
 21
27.0459
  0
LINE
  8
0
 10
84.9189
 20
27.0459
 11
84.9463
 21
27.0195
  0
LINE
  8
0
 10
84.9463
 20
27.0195
 11
84.9502
 21
27
  0
LINE
  8
0
 10
84.9502
 20
27
 11
84.9502
 21
13.5
  0
LINE
  8
0
 10
84.9502
 20
13.5
 11
84.9463
 21
13.4805
  0
LINE
  8
0
 10
84.9463
 20
13.4805
 11
84.9189
 21
13.4541
  0
LINE
  8
0
 10
84.9189
 20
13.4541
 11
84.9004
 21
13.4502
  0
LINE
  8
0
 10
84.9004
 20
13.4502
 11
66.7002
 21
13.4502
  0
LINE
  8
0
 10
151.6
 20
66.1965
 11
106.4
 21
66.1965
  0
LINE
  8
0
 10
106.4
 20
66.1965
 11
106.4
 21
0
  0
LINE
  8
0
 10
106.4
 20
0
 11
151.6
 21
0
  0
LINE
  8
0
 10
151.6
 20
0
 11
151.6
 21
66.1965
  0
LINE
  8
0
 10
120.967
 20
57.1965
 11
120.967
 21
60.1965
  0
LINE
  8
0
 10
120.967
 20
60.1965
 11
137.033
 21
60.1965
  0
LINE
  8
0
 10
137.033
 20
60.1965
 11
137.033
 21
57.1965
  0
LINE
  8
0
 10
137.033
 20
57.1965
 11
120.967
 21
57.1965
  0
LINE
  8
0
 10
113.1
 20
54.3109
 11
112.606
 21
54.756
  0
LINE
  8
0
 10
112.606
 20
54.756
 11
112.335
 21
55.3638
  0
LINE
  8
0
 10
112.335
 20
55.3638
 11
112.335
 21
56.0292
  0
LINE
  8
0
 10
112.335
 20
56.0292
 11
112.606
 21
56.637
  0
LINE
  8
0
 10
112.606
 20
56.637
 11
113.1
 21
57.0821
  0
LINE
  8
0
 10
113.1
 20
57.0821
 11
113.733
 21
57.2877
  0
LINE
  8
0
 10
113.733
 20
57.2877
 11
114.394
 21
57.2182
  0
LINE
  8
0
 10
114.394
 20
57.2182
 11
114.971
 21
56.8855
  0
LINE
  8
0
 10
114.971
 20
56.8855
 11
115.362
 21
56.3473
  0
LINE
  8
0
 10
115.362
 20
56.3473
 11
115.5
 21
55.6965
  0
LINE
  8
0
 10
115.5
 20
55.6965
 11
115.362
 21
55.0457
  0
LINE
  8
0
 10
115.362
 20
55.0457
 11
114.971
 21
54.5075
  0
LINE
  8
0
 10
114.971
 20
54.5075
 11
114.394
 21
54.1748
  0
LINE
  8
0
 10
114.394
 20
54.1748
 11
113.733
 21
54.1053
  0
LINE
  8
0
 10
113.733
 20
54.1053
 11
113.1
 21
54.3109
  0
LINE
  8
0
 10
143.3
 20
54.3109
 11
142.806
 21
54.756
  0
LINE
  8
0
 10
142.806
 20
54.756
 11
142.535
 21
55.3638
  0
LINE
  8
0
 10
142.535
 20
55.3638
 11
142.535
 21
56.0292
  0
LINE
  8
0
 10
142.535
 20
56.0292
 11
142.806
 21
56.637
  0
LINE
  8
0
 10
142.806
 20
56.637
 11
143.3
 21
57.0821
  0
LINE
  8
0
 10
143.3
 20
57.0821
 11
143.933
 21
57.2877
  0
LINE
  8
0
 10
143.933
 20
57.2877
 11
144.594
 21
57.2182
  0
LINE
  8
0
 10
144.594
 20
57.2182
 11
145.171
 21
56.8855
  0
LINE
  8
0
 10
145.171
 20
56.8855
 11
145.562
 21
56.3473
  0
LINE
  8
0
 10
145.562
 20
56.3473
 11
145.7
 21
55.6965
  0
LINE
  8
0
 10
145.7
 20
55.6965
 11
145.562
 21
55.0457
  0
LINE
  8
0
 10
145.562
 20
55.0457
 11
145.171
 21
54.5075
  0
LINE
  8
0
 10
145.171
 20
54.5075
 11
144.594
 21
54.1748
  0
LINE
  8
0
 10
144.594
 20
54.1748
 11
143.933
 21
54.1053
  0
LINE
  8
0
 10
143.933
 20
54.1053
 11
143.3
 21
54.3109
  0
LINE
  8
0
 10
117.906
 20
48.1748
 11
117.46
 21
48.4021
  0
LINE
  8
0
 10
117.46
 20
48.4021
 11
117.106
 21
48.756
  0
LINE
  8
0
 10
117.106
 20
48.756
 11
116.878
 21
49.2021
  0
LINE
  8
0
 10
116.878
 20
49.2021
 11
116.8
 21
49.6965
  0
LINE
  8
0
 10
116.8
 20
49.6965
 11
116.878
 21
50.1909
  0
LINE
  8
0
 10
116.878
 20
50.1909
 11
117.106
 21
50.637
  0
LINE
  8
0
 10
117.106
 20
50.637
 11
117.46
 21
50.9909
  0
LINE
  8
0
 10
117.46
 20
50.9909
 11
117.906
 21
51.2182
  0
LINE
  8
0
 10
117.906
 20
51.2182
 11
118.4
 21
51.2965
  0
LINE
  8
0
 10
118.4
 20
51.2965
 11
118.894
 21
51.2182
  0
LINE
  8
0
 10
118.894
 20
51.2182
 11
119.34
 21
50.9909
  0
LINE
  8
0
 10
119.34
 20
50.9909
 11
119.694
 21
50.637
  0
LINE
  8
0
 10
119.694
 20
50.637
 11
119.922
 21
50.1909
  0
LINE
  8
0
 10
119.922
 20
50.1909
 11
120
 21
49.6965
  0
LINE
  8
0
 10
120
 20
49.6965
 11
119.922
 21
49.2021
  0
LINE
  8
0
 10
119.922
 20
49.2021
 11
119.694
 21
48.756
  0
LINE
  8
0
 10
119.694
 20
48.756
 11
119.34
 21
48.4021
  0
LINE
  8
0
 10
119.34
 20
48.4021
 11
118.894
 21
48.1748
  0
LINE
  8
0
 10
118.894
 20
48.1748
 11
118.4
 21
48.0965
  0
LINE
  8
0
 10
118.4
 20
48.0965
 11
117.906
 21
48.1748
  0
LINE
  8
0
 10
139.106
 20
48.1748
 11
138.66
 21
48.4021
  0
LINE
  8
0
 10
138.66
 20
48.4021
 11
138.306
 21
48.756
  0
LINE
  8
0
 10
138.306
 20
48.756
 11
138.078
 21
49.2021
  0
LINE
  8
0
 10
138.078
 20
49.2021
 11
138
 21
49.6965
  0
LINE
  8
0
 10
138
 20
49.6965
 11
138.078
 21
50.1909
  0
LINE
  8
0
 10
138.078
 20
50.1909
 11
138.306
 21
50.637
  0
LINE
  8
0
 10
138.306
 20
50.637
 11
138.66
 21
50.9909
  0
LINE
  8
0
 10
138.66
 20
50.9909
 11
139.106
 21
51.2182
  0
LINE
  8
0
 10
139.106
 20
51.2182
 11
139.6
 21
51.2965
  0
LINE
  8
0
 10
139.6
 20
51.2965
 11
140.094
 21
51.2182
  0
LINE
  8
0
 10
140.094
 20
51.2182
 11
140.54
 21
50.9909
  0
LINE
  8
0
 10
140.54
 20
50.9909
 11
140.894
 21
50.637
  0
LINE
  8
0
 10
140.894
 20
50.637
 11
141.122
 21
50.1909
  0
LINE
  8
0
 10
141.122
 20
50.1909
 11
141.2
 21
49.6965
  0
LINE
  8
0
 10
141.2
 20
49.6965
 11
141.122
 21
49.2021
  0
LINE
  8
0
 10
141.122
 20
49.2021
 11
140.894
 21
48.756
  0
LINE
  8
0
 10
140.894
 20
48.756
 11
140.54
 21
48.4021
  0
LINE
  8
0
 10
140.54
 20
48.4021
 11
140.094
 21
48.1748
  0
LINE
  8
0
 10
140.094
 20
48.1748
 11
139.6
 21
48.0965
  0
LINE
  8
0
 10
139.6
 20
48.0965
 11
139.106
 21
48.1748
  0
LINE
  8
0
 10
134.982
 20
28.1642
 11
133.041
 21
29.4963
  0
LINE
  8
0
 10
133.041
 20
29.4963
 11
132.855
 21
29.5027
  0
LINE
  8
0
 10
132.855
 20
29.5027
 11
131.999
 21
29.0457
  0
LINE
  8
0
 10
131.999
 20
29.0457
 11
131.917
 21
29.0403
  0
LINE
  8
0
 10
131.917
 20
29.0403
 11
131.858
 21
29.0976
  0
LINE
  8
0
 10
131.858
 20
29.0976
 11
130.093
 21
33.3623
  0
LINE
  8
0
 10
130.093
 20
33.3623
 11
130.091
 21
33.4512
  0
LINE
  8
0
 10
130.091
 20
33.4512
 11
130.145
 21
33.5218
  0
LINE
  8
0
 10
130.145
 20
33.5218
 11
130.359
 21
33.6529
  0
LINE
  8
0
 10
130.359
 20
33.6529
 11
130.494
 21
33.7567
  0
LINE
  8
0
 10
130.494
 20
33.7567
 11
131.021
 21
34.1935
  0
LINE
  8
0
 10
131.021
 20
34.1935
 11
131.427
 21
34.7457
  0
LINE
  8
0
 10
131.427
 20
34.7457
 11
131.688
 21
35.3901
  0
LINE
  8
0
 10
131.688
 20
35.3901
 11
131.78
 21
36.103
  0
LINE
  8
0
 10
131.78
 20
36.103
 11
131.723
 21
36.6644
  0
LINE
  8
0
 10
131.723
 20
36.6644
 11
131.561
 21
37.1873
  0
LINE
  8
0
 10
131.561
 20
37.1873
 11
131.304
 21
37.6605
  0
LINE
  8
0
 10
131.304
 20
37.6605
 11
130.964
 21
38.0727
  0
LINE
  8
0
 10
130.964
 20
38.0727
 11
130.552
 21
38.4128
  0
LINE
  8
0
 10
130.552
 20
38.4128
 11
130.079
 21
38.6696
  0
LINE
  8
0
 10
130.079
 20
38.6696
 11
129.556
 21
38.8319
  0
LINE
  8
0
 10
129.556
 20
38.8319
 11
128.994
 21
38.8886
  0
LINE
  8
0
 10
128.994
 20
38.8886
 11
128.433
 21
38.8319
  0
LINE
  8
0
 10
128.433
 20
38.8319
 11
127.91
 21
38.6696
  0
LINE
  8
0
 10
127.91
 20
38.6696
 11
127.437
 21
38.4128
  0
LINE
  8
0
 10
127.437
 20
38.4128
 11
127.025
 21
38.0727
  0
LINE
  8
0
 10
127.025
 20
38.0727
 11
126.685
 21
37.6605
  0
LINE
  8
0
 10
126.685
 20
37.6605
 11
126.428
 21
37.1873
  0
LINE
  8
0
 10
126.428
 20
37.1873
 11
126.266
 21
36.6644
  0
LINE
  8
0
 10
126.266
 20
36.6644
 11
126.209
 21
36.103
  0
LINE
  8
0
 10
126.209
 20
36.103
 11
126.301
 21
35.3901
  0
LINE
  8
0
 10
126.301
 20
35.3901
 11
126.562
 21
34.7457
  0
LINE
  8
0
 10
126.562
 20
34.7457
 11
126.968
 21
34.1935
  0
LINE
  8
0
 10
126.968
 20
34.1935
 11
127.494
 21
33.7567
  0
LINE
  8
0
 10
127.494
 20
33.7567
 11
127.63
 21
33.6529
  0
LINE
  8
0
 10
127.63
 20
33.6529
 11
127.844
 21
33.5218
  0
LINE
  8
0
 10
127.844
 20
33.5218
 11
127.898
 21
33.4512
  0
LINE
  8
0
 10
127.898
 20
33.4512
 11
127.896
 21
33.3623
  0
LINE
  8
0
 10
127.896
 20
33.3623
 11
126.131
 21
29.0977
  0
LINE
  8
0
 10
126.131
 20
29.0977
 11
126.072
 21
29.0403
  0
LINE
  8
0
 10
126.072
 20
29.0403
 11
125.99
 21
29.0459
  0
LINE
  8
0
 10
125.99
 20
29.0459
 11
125.134
 21
29.5029
  0
LINE
  8
0
 10
125.134
 20
29.5029
 11
124.948
 21
29.4966
  0
LINE
  8
0
 10
124.948
 20
29.4966
 11
123.007
 21
28.1643
  0
LINE
  8
0
 10
123.007
 20
28.1643
 11
122.92
 21
28.1432
  0
LINE
  8
0
 10
122.92
 20
28.1432
 11
122.838
 21
28.1799
  0
LINE
  8
0
 10
122.838
 20
28.1799
 11
121.057
 21
29.9608
  0
LINE
  8
0
 10
121.057
 20
29.9608
 11
121.02
 21
30.0428
  0
LINE
  8
0
 10
121.02
 20
30.0428
 11
121.041
 21
30.1301
  0
LINE
  8
0
 10
121.041
 20
30.1301
 11
122.397
 21
32.1061
  0
LINE
  8
0
 10
122.397
 20
32.1061
 11
122.411
 21
32.2962
  0
LINE
  8
0
 10
122.411
 20
32.2962
 11
121.666
 21
34.1577
  0
LINE
  8
0
 10
121.666
 20
34.1577
 11
121.524
 21
34.2833
  0
LINE
  8
0
 10
121.524
 20
34.2833
 11
119.137
 21
34.7276
  0
LINE
  8
0
 10
119.137
 20
34.7276
 11
119.061
 21
34.7741
  0
LINE
  8
0
 10
119.061
 20
34.7741
 11
119.029
 21
34.8582
  0
LINE
  8
0
 10
119.029
 20
34.8582
 11
119.029
 21
37.3769
  0
LINE
  8
0
 10
119.029
 20
37.3769
 11
119.06
 21
37.4608
  0
LINE
  8
0
 10
119.06
 20
37.4608
 11
119.137
 21
37.5077
  0
LINE
  8
0
 10
119.137
 20
37.5077
 11
121.584
 21
37.9628
  0
LINE
  8
0
 10
121.584
 20
37.9628
 11
121.729
 21
38.0873
  0
LINE
  8
0
 10
121.729
 20
38.0873
 11
122.479
 21
39.8375
  0
LINE
  8
0
 10
122.479
 20
39.8375
 11
122.468
 21
40.0266
  0
LINE
  8
0
 10
122.468
 20
40.0266
 11
121.041
 21
42.1049
  0
LINE
  8
0
 10
121.041
 20
42.1049
 11
121.02
 21
42.1921
  0
LINE
  8
0
 10
121.02
 20
42.1921
 11
121.057
 21
42.274
  0
LINE
  8
0
 10
121.057
 20
42.274
 11
122.838
 21
44.0549
  0
LINE
  8
0
 10
122.838
 20
44.0549
 11
122.92
 21
44.0917
  0
LINE
  8
0
 10
122.92
 20
44.0917
 11
123.007
 21
44.0706
  0
LINE
  8
0
 10
123.007
 20
44.0706
 11
125.122
 21
42.6194
  0
LINE
  8
0
 10
125.122
 20
42.6194
 11
125.312
 21
42.6056
  0
LINE
  8
0
 10
125.312
 20
42.6056
 11
127.009
 21
43.3001
  0
LINE
  8
0
 10
127.009
 20
43.3001
 11
127.134
 21
43.4434
  0
LINE
  8
0
 10
127.134
 20
43.4434
 11
127.605
 21
45.9746
  0
LINE
  8
0
 10
127.605
 20
45.9746
 11
127.651
 21
46.0512
  0
LINE
  8
0
 10
127.651
 20
46.0512
 11
127.735
 21
46.0832
  0
LINE
  8
0
 10
127.735
 20
46.0832
 11
130.254
 21
46.0832
  0
LINE
  8
0
 10
130.254
 20
46.0832
 11
130.338
 21
46.0512
  0
LINE
  8
0
 10
130.338
 20
46.0512
 11
130.385
 21
45.9746
  0
LINE
  8
0
 10
130.385
 20
45.9746
 11
130.856
 21
43.4434
  0
LINE
  8
0
 10
130.856
 20
43.4434
 11
130.981
 21
43.3001
  0
LINE
  8
0
 10
130.981
 20
43.3001
 11
132.677
 21
42.6056
  0
LINE
  8
0
 10
132.677
 20
42.6056
 11
132.867
 21
42.6194
  0
LINE
  8
0
 10
132.867
 20
42.6194
 11
134.982
 21
44.0706
  0
LINE
  8
0
 10
134.982
 20
44.0706
 11
135.069
 21
44.0917
  0
LINE
  8
0
 10
135.069
 20
44.0917
 11
135.151
 21
44.0549
  0
LINE
  8
0
 10
135.151
 20
44.0549
 11
136.932
 21
42.274
  0
LINE
  8
0
 10
136.932
 20
42.274
 11
136.969
 21
42.1921
  0
LINE
  8
0
 10
136.969
 20
42.1921
 11
136.948
 21
42.1049
  0
LINE
  8
0
 10
136.948
 20
42.1049
 11
135.522
 21
40.0266
  0
LINE
  8
0
 10
135.522
 20
40.0266
 11
135.51
 21
39.8375
  0
LINE
  8
0
 10
135.51
 20
39.8375
 11
136.26
 21
38.0873
  0
LINE
  8
0
 10
136.26
 20
38.0873
 11
136.405
 21
37.9628
  0
LINE
  8
0
 10
136.405
 20
37.9628
 11
138.852
 21
37.5077
  0
LINE
  8
0
 10
138.852
 20
37.5077
 11
138.929
 21
37.4608
  0
LINE
  8
0
 10
138.929
 20
37.4608
 11
138.96
 21
37.3767
  0
LINE
  8
0
 10
138.96
 20
37.3767
 11
138.96
 21
34.8581
  0
LINE
  8
0
 10
138.96
 20
34.8581
 11
138.928
 21
34.774
  0
LINE
  8
0
 10
138.928
 20
34.774
 11
138.852
 21
34.7274
  0
LINE
  8
0
 10
138.852
 20
34.7274
 11
136.464
 21
34.2831
  0
LINE
  8
0
 10
136.464
 20
34.2831
 11
136.323
 21
34.1576
  0
LINE
  8
0
 10
136.323
 20
34.1576
 11
135.578
 21
32.2961
  0
LINE
  8
0
 10
135.578
 20
32.2961
 11
135.592
 21
32.1059
  0
LINE
  8
0
 10
135.592
 20
32.1059
 11
136.948
 21
30.13
  0
LINE
  8
0
 10
136.948
 20
30.13
 11
136.969
 21
30.0427
  0
LINE
  8
0
 10
136.969
 20
30.0427
 11
136.932
 21
29.9607
  0
LINE
  8
0
 10
136.932
 20
29.9607
 11
135.151
 21
28.1797
  0
LINE
  8
0
 10
135.151
 20
28.1797
 11
135.069
 21
28.1431
  0
LINE
  8
0
 10
135.069
 20
28.1431
 11
134.982
 21
28.1642
  0
LINE
  8
0
 10
109.4
 20
22.0655
 11
109.4
 21
44.131
  0
LINE
  8
0
 10
109.4
 20
44.131
 11
112.4
 21
44.131
  0
LINE
  8
0
 10
112.4
 20
44.131
 11
112.4
 21
22.0655
  0
LINE
  8
0
 10
112.4
 20
22.0655
 11
109.4
 21
22.0655
  0
LINE
  8
0
 10
145.6
 20
22.0655
 11
145.6
 21
44.131
  0
LINE
  8
0
 10
145.6
 20
44.131
 11
148.6
 21
44.131
  0
LINE
  8
0
 10
148.6
 20
44.131
 11
148.6
 21
22.0655
  0
LINE
  8
0
 10
148.6
 20
22.0655
 11
145.6
 21
22.0655
  0
LINE
  8
0
 10
134.475
 20
20.4705
 11
134.243
 21
20.6792
  0
LINE
  8
0
 10
134.243
 20
20.6792
 11
134.116
 21
20.9641
  0
LINE
  8
0
 10
134.116
 20
20.9641
 11
134.116
 21
21.2759
  0
LINE
  8
0
 10
134.116
 20
21.2759
 11
134.243
 21
21.5608
  0
LINE
  8
0
 10
134.243
 20
21.5608
 11
134.475
 21
21.7695
  0
LINE
  8
0
 10
134.475
 20
21.7695
 11
134.772
 21
21.8659
  0
LINE
  8
0
 10
134.772
 20
21.8659
 11
135.082
 21
21.8333
  0
LINE
  8
0
 10
135.082
 20
21.8333
 11
135.352
 21
21.6774
  0
LINE
  8
0
 10
135.352
 20
21.6774
 11
135.535
 21
21.425
  0
LINE
  8
0
 10
135.535
 20
21.425
 11
135.6
 21
21.12
  0
LINE
  8
0
 10
135.6
 20
21.12
 11
135.535
 21
20.8149
  0
LINE
  8
0
 10
135.535
 20
20.8149
 11
135.352
 21
20.5626
  0
LINE
  8
0
 10
135.352
 20
20.5626
 11
135.082
 21
20.4067
  0
LINE
  8
0
 10
135.082
 20
20.4067
 11
134.772
 21
20.3741
  0
LINE
  8
0
 10
134.772
 20
20.3741
 11
134.475
 21
20.4705
  0
LINE
  8
0
 10
143.3
 20
6.11435
 11
142.806
 21
6.55954
  0
LINE
  8
0
 10
142.806
 20
6.55954
 11
142.535
 21
7.16733
  0
LINE
  8
0
 10
142.535
 20
7.16733
 11
142.535
 21
7.83266
  0
LINE
  8
0
 10
142.535
 20
7.83266
 11
142.806
 21
8.44044
  0
LINE
  8
0
 10
142.806
 20
8.44044
 11
143.3
 21
8.88564
  0
LINE
  8
0
 10
143.3
 20
8.88564
 11
143.933
 21
9.09123
  0
LINE
  8
0
 10
143.933
 20
9.09123
 11
144.594
 21
9.02168
  0
LINE
  8
0
 10
144.594
 20
9.02168
 11
145.171
 21
8.68903
  0
LINE
  8
0
 10
145.171
 20
8.68903
 11
145.562
 21
8.15077
  0
LINE
  8
0
 10
145.562
 20
8.15077
 11
145.7
 21
7.5
  0
LINE
  8
0
 10
145.7
 20
7.5
 11
145.562
 21
6.84921
  0
LINE
  8
0
 10
145.562
 20
6.84921
 11
145.171
 21
6.31096
  0
LINE
  8
0
 10
145.171
 20
6.31096
 11
144.594
 21
5.9783
  0
LINE
  8
0
 10
144.594
 20
5.9783
 11
143.933
 21
5.90875
  0
LINE
  8
0
 10
143.933
 20
5.90875
 11
143.3
 21
6.11435
  0
LINE
  8
0
 10
113.1
 20
6.11435
 11
112.606
 21
6.55954
  0
LINE
  8
0
 10
112.606
 20
6.55954
 11
112.335
 21
7.16733
  0
LINE
  8
0
 10
112.335
 20
7.16733
 11
112.335
 21
7.83266
  0
LINE
  8
0
 10
112.335
 20
7.83266
 11
112.606
 21
8.44044
  0
LINE
  8
0
 10
112.606
 20
8.44044
 11
113.1
 21
8.88564
  0
LINE
  8
0
 10
113.1
 20
8.88564
 11
113.733
 21
9.09123
  0
LINE
  8
0
 10
113.733
 20
9.09123
 11
114.394
 21
9.02168
  0
LINE
  8
0
 10
114.394
 20
9.02168
 11
114.971
 21
8.68903
  0
LINE
  8
0
 10
114.971
 20
8.68903
 11
115.362
 21
8.15077
  0
LINE
  8
0
 10
115.362
 20
8.15077
 11
115.5
 21
7.5
  0
LINE
  8
0
 10
115.5
 20
7.5
 11
115.362
 21
6.84921
  0
LINE
  8
0
 10
115.362
 20
6.84921
 11
114.971
 21
6.31096
  0
LINE
  8
0
 10
114.971
 20
6.31096
 11
114.394
 21
5.9783
  0
LINE
  8
0
 10
114.394
 20
5.9783
 11
113.733
 21
5.90875
  0
LINE
  8
0
 10
113.733
 20
5.90875
 11
113.1
 21
6.11435
  0
LINE
  8
0
 10
120.967
 20
3
 11
120.967
 21
6
  0
LINE
  8
0
 10
120.967
 20
6
 11
137.033
 21
6
  0
LINE
  8
0
 10
137.033
 20
6
 11
137.033
 21
3
  0
LINE
  8
0
 10
137.033
 20
3
 11
120.967
 21
3
  0
LINE
  8
0
 10
211.8
 20
1.01637
 11
215.8
 21
1.01637
  0
LINE
  8
0
 10
215.8
 20
1.01637
 11
215.8
 21
4.01637
  0
LINE
  8
0
 10
215.8
 20
4.01637
 11
218.8
 21
4.01637
  0
LINE
  8
0
 10
218.8
 20
4.01637
 11
218.8
 21
1.09557
  0
LINE
  8
0
 10
218.8
 20
1.09557
 11
219.691
 21
1.23662
  0
LINE
  8
0
 10
219.691
 20
1.23662
 11
220.945
 21
1.87579
  0
LINE
  8
0
 10
220.945
 20
1.87579
 11
221.941
 21
2.87134
  0
LINE
  8
0
 10
221.941
 20
2.87134
 11
222.58
 21
4.12579
  0
LINE
  8
0
 10
222.58
 20
4.12579
 11
222.8
 21
5.51637
  0
LINE
  8
0
 10
222.8
 20
5.51637
 11
222.58
 21
6.90694
  0
LINE
  8
0
 10
222.58
 20
6.90694
 11
221.941
 21
8.16139
  0
LINE
  8
0
 10
221.941
 20
8.16139
 11
221.491
 21
8.61139
  0
LINE
  8
0
 10
221.491
 20
8.61139
 11
211.8
 21
31.5164
  0
LINE
  8
0
 10
211.8
 20
31.5164
 11
211.8
 21
43.8241
  0
LINE
  8
0
 10
211.8
 20
43.8241
 11
211.623
 21
43.9505
  0
LINE
  8
0
 10
211.623
 20
43.9505
 11
211.269
 21
44.3175
  0
LINE
  8
0
 10
211.269
 20
44.3175
 11
210.982
 21
44.7545
  0
LINE
  8
0
 10
210.982
 20
44.7545
 11
210.772
 21
45.2498
  0
LINE
  8
0
 10
210.772
 20
45.2498
 11
210.653
 21
45.7915
  0
LINE
  8
0
 10
210.653
 20
45.7915
 11
211.8
 21
45.7915
  0
LINE
  8
0
 10
211.8
 20
45.7915
 11
211.8
 21
46.5325
  0
LINE
  8
0
 10
211.8
 20
46.5325
 11
210.653
 21
46.5325
  0
LINE
  8
0
 10
210.653
 20
46.5325
 11
210.772
 21
47.075
  0
LINE
  8
0
 10
210.772
 20
47.075
 11
210.982
 21
47.5705
  0
LINE
  8
0
 10
210.982
 20
47.5705
 11
211.269
 21
48.0075
  0
LINE
  8
0
 10
211.269
 20
48.0075
 11
211.623
 21
48.3745
  0
LINE
  8
0
 10
211.623
 20
48.3745
 11
211.8
 21
48.5009
  0
LINE
  8
0
 10
211.8
 20
48.5009
 11
211.8
 21
66.1965
  0
LINE
  8
0
 10
211.8
 20
66.1965
 11
205.8
 21
66.1965
  0
LINE
  8
0
 10
205.8
 20
66.1965
 11
205.8
 21
63.1965
  0
LINE
  8
0
 10
205.8
 20
63.1965
 11
172.6
 21
63.1965
  0
LINE
  8
0
 10
172.6
 20
63.1965
 11
172.6
 21
66.1965
  0
LINE
  8
0
 10
172.6
 20
66.1965
 11
166.6
 21
66.1965
  0
LINE
  8
0
 10
166.6
 20
66.1965
 11
166.6
 21
31.5164
  0
LINE
  8
0
 10
166.6
 20
31.5164
 11
156.909
 21
8.61139
  0
LINE
  8
0
 10
156.909
 20
8.61139
 11
156.459
 21
8.16139
  0
LINE
  8
0
 10
156.459
 20
8.16139
 11
155.82
 21
6.90694
  0
LINE
  8
0
 10
155.82
 20
6.90694
 11
155.6
 21
5.51637
  0
LINE
  8
0
 10
155.6
 20
5.51637
 11
155.82
 21
4.12579
  0
LINE
  8
0
 10
155.82
 20
4.12579
 11
156.459
 21
2.87134
  0
LINE
  8
0
 10
156.459
 20
2.87134
 11
157.455
 21
1.87579
  0
LINE
  8
0
 10
157.455
 20
1.87579
 11
158.709
 21
1.23662
  0
LINE
  8
0
 10
158.709
 20
1.23662
 11
159.6
 21
1.09557
  0
LINE
  8
0
 10
159.6
 20
1.09557
 11
159.6
 21
4.01637
  0
LINE
  8
0
 10
159.6
 20
4.01637
 11
162.6
 21
4.01637
  0
LINE
  8
0
 10
162.6
 20
4.01637
 11
162.6
 21
1.01637
  0
LINE
  8
0
 10
162.6
 20
1.01637
 11
166.6
 21
1.01637
  0
LINE
  8
0
 10
166.6
 20
1.01637
 11
166.6
 21
0
  0
LINE
  8
0
 10
166.6
 20
0
 11
211.8
 21
0
  0
LINE
  8
0
 10
211.8
 20
0
 11
211.8
 21
1.01637
  0
LINE
  8
0
 10
181.167
 20
57.1965
 11
181.167
 21
60.1965
  0
LINE
  8
0
 10
181.167
 20
60.1965
 11
197.233
 21
60.1965
  0
LINE
  8
0
 10
197.233
 20
60.1965
 11
197.233
 21
57.1965
  0
LINE
  8
0
 10
197.233
 20
57.1965
 11
181.167
 21
57.1965
  0
LINE
  8
0
 10
173.606
 20
54.1748
 11
173.16
 21
54.4021
  0
LINE
  8
0
 10
173.16
 20
54.4021
 11
172.806
 21
54.756
  0
LINE
  8
0
 10
172.806
 20
54.756
 11
172.578
 21
55.2021
  0
LINE
  8
0
 10
172.578
 20
55.2021
 11
172.5
 21
55.6965
  0
LINE
  8
0
 10
172.5
 20
55.6965
 11
172.578
 21
56.1909
  0
LINE
  8
0
 10
172.578
 20
56.1909
 11
172.806
 21
56.637
  0
LINE
  8
0
 10
172.806
 20
56.637
 11
173.16
 21
56.9909
  0
LINE
  8
0
 10
173.16
 20
56.9909
 11
173.606
 21
57.2182
  0
LINE
  8
0
 10
173.606
 20
57.2182
 11
174.1
 21
57.2965
  0
LINE
  8
0
 10
174.1
 20
57.2965
 11
174.594
 21
57.2182
  0
LINE
  8
0
 10
174.594
 20
57.2182
 11
175.04
 21
56.9909
  0
LINE
  8
0
 10
175.04
 20
56.9909
 11
175.394
 21
56.637
  0
LINE
  8
0
 10
175.394
 20
56.637
 11
175.622
 21
56.1909
  0
LINE
  8
0
 10
175.622
 20
56.1909
 11
175.7
 21
55.6965
  0
LINE
  8
0
 10
175.7
 20
55.6965
 11
175.622
 21
55.2021
  0
LINE
  8
0
 10
175.622
 20
55.2021
 11
175.394
 21
54.756
  0
LINE
  8
0
 10
175.394
 20
54.756
 11
175.04
 21
54.4021
  0
LINE
  8
0
 10
175.04
 20
54.4021
 11
174.594
 21
54.1748
  0
LINE
  8
0
 10
174.594
 20
54.1748
 11
174.1
 21
54.0965
  0
LINE
  8
0
 10
174.1
 20
54.0965
 11
173.606
 21
54.1748
  0
LINE
  8
0
 10
203.806
 20
54.1748
 11
203.36
 21
54.4021
  0
LINE
  8
0
 10
203.36
 20
54.4021
 11
203.006
 21
54.756
  0
LINE
  8
0
 10
203.006
 20
54.756
 11
202.778
 21
55.2021
  0
LINE
  8
0
 10
202.778
 20
55.2021
 11
202.7
 21
55.6965
  0
LINE
  8
0
 10
202.7
 20
55.6965
 11
202.778
 21
56.1909
  0
LINE
  8
0
 10
202.778
 20
56.1909
 11
203.006
 21
56.637
  0
LINE
  8
0
 10
203.006
 20
56.637
 11
203.36
 21
56.9909
  0
LINE
  8
0
 10
203.36
 20
56.9909
 11
203.806
 21
57.2182
  0
LINE
  8
0
 10
203.806
 20
57.2182
 11
204.3
 21
57.2965
  0
LINE
  8
0
 10
204.3
 20
57.2965
 11
204.794
 21
57.2182
  0
LINE
  8
0
 10
204.794
 20
57.2182
 11
205.24
 21
56.9909
  0
LINE
  8
0
 10
205.24
 20
56.9909
 11
205.594
 21
56.637
  0
LINE
  8
0
 10
205.594
 20
56.637
 11
205.822
 21
56.1909
  0
LINE
  8
0
 10
205.822
 20
56.1909
 11
205.9
 21
55.6965
  0
LINE
  8
0
 10
205.9
 20
55.6965
 11
205.822
 21
55.2021
  0
LINE
  8
0
 10
205.822
 20
55.2021
 11
205.594
 21
54.756
  0
LINE
  8
0
 10
205.594
 20
54.756
 11
205.24
 21
54.4021
  0
LINE
  8
0
 10
205.24
 20
54.4021
 11
204.794
 21
54.1748
  0
LINE
  8
0
 10
204.794
 20
54.1748
 11
204.3
 21
54.0965
  0
LINE
  8
0
 10
204.3
 20
54.0965
 11
203.806
 21
54.1748
  0
LINE
  8
0
 10
184.982
 20
43.3785
 11
183.202
 21
47.7065
  0
LINE
  8
0
 10
183.202
 20
47.7065
 11
183.892
 21
49.1385
  0
LINE
  8
0
 10
183.892
 20
49.1385
 11
186.272
 21
43.3785
  0
LINE
  8
0
 10
186.272
 20
43.3785
 11
184.982
 21
43.3785
  0
LINE
  8
0
 10
180.215
 20
47.6525
 11
180.822
 21
49.1385
  0
LINE
  8
0
 10
180.822
 20
49.1385
 11
182.361
 21
45.9495
  0
LINE
  8
0
 10
182.361
 20
45.9495
 11
182.819
 21
46.9095
  0
LINE
  8
0
 10
182.819
 20
46.9095
 11
183.426
 21
45.4235
  0
LINE
  8
0
 10
183.426
 20
45.4235
 11
182.361
 21
43.1865
  0
LINE
  8
0
 10
182.361
 20
43.1865
 11
180.215
 21
47.6525
  0
LINE
  8
0
 10
186.03
 20
46.5325
 11
186.149
 21
47.075
  0
LINE
  8
0
 10
186.149
 20
47.075
 11
186.359
 21
47.5705
  0
LINE
  8
0
 10
186.359
 20
47.5705
 11
186.646
 21
48.0075
  0
LINE
  8
0
 10
186.646
 20
48.0075
 11
187
 21
48.3745
  0
LINE
  8
0
 10
187
 20
48.3745
 11
187.414
 21
48.6695
  0
LINE
  8
0
 10
187.414
 20
48.6695
 11
187.882
 21
48.8905
  0
LINE
  8
0
 10
187.882
 20
48.8905
 11
188.392
 21
49.0285
  0
LINE
  8
0
 10
188.392
 20
49.0285
 11
188.934
 21
49.0745
  0
LINE
  8
0
 10
188.934
 20
49.0745
 11
189.477
 21
49.0275
  0
LINE
  8
0
 10
189.477
 20
49.0275
 11
189.991
 21
48.8865
  0
LINE
  8
0
 10
189.991
 20
48.8865
 11
190.463
 21
48.6615
  0
LINE
  8
0
 10
190.463
 20
48.6615
 11
190.881
 21
48.3625
  0
LINE
  8
0
 10
190.881
 20
48.3625
 11
191.237
 21
47.9925
  0
LINE
  8
0
 10
191.237
 20
47.9925
 11
191.526
 21
47.5545
  0
LINE
  8
0
 10
191.526
 20
47.5545
 11
191.733
 21
47.0625
  0
LINE
  8
0
 10
191.733
 20
47.0625
 11
191.846
 21
46.5325
  0
LINE
  8
0
 10
191.846
 20
46.5325
 11
190.64
 21
46.5325
  0
LINE
  8
0
 10
190.64
 20
46.5325
 11
190.55
 21
46.833
  0
LINE
  8
0
 10
190.55
 20
46.833
 11
190.415
 21
47.1025
  0
LINE
  8
0
 10
190.415
 20
47.1025
 11
190.24
 21
47.3387
  0
LINE
  8
0
 10
190.24
 20
47.3387
 11
190.033
 21
47.5395
  0
LINE
  8
0
 10
190.033
 20
47.5395
 11
189.795
 21
47.7018
  0
LINE
  8
0
 10
189.795
 20
47.7018
 11
189.534
 21
47.8225
  0
LINE
  8
0
 10
189.534
 20
47.8225
 11
189.248
 21
47.8975
  0
LINE
  8
0
 10
189.248
 20
47.8975
 11
188.942
 21
47.9225
  0
LINE
  8
0
 10
188.942
 20
47.9225
 11
188.359
 21
47.83
  0
LINE
  8
0
 10
188.359
 20
47.83
 11
187.861
 21
47.5525
  0
LINE
  8
0
 10
187.861
 20
47.5525
 11
187.476
 21
47.112
  0
LINE
  8
0
 10
187.476
 20
47.112
 11
187.237
 21
46.5325
  0
LINE
  8
0
 10
187.237
 20
46.5325
 11
186.03
 21
46.5325
  0
LINE
  8
0
 10
174.337
 20
47.7945
 11
174.337
 21
48.9465
  0
LINE
  8
0
 10
174.337
 20
48.9465
 11
176.525
 21
48.9465
  0
LINE
  8
0
 10
176.525
 20
48.9465
 11
176.525
 21
47.7945
  0
LINE
  8
0
 10
176.525
 20
47.7945
 11
174.337
 21
47.7945
  0
LINE
  8
0
 10
203.685
 20
48.9465
 11
204.95
 21
48.9465
  0
LINE
  8
0
 10
204.95
 20
48.9465
 11
205.557
 21
47.2405
  0
LINE
  8
0
 10
205.557
 20
47.2405
 11
205.203
 21
47.22
  0
LINE
  8
0
 10
205.203
 20
47.22
 11
204.904
 21
47.1745
  0
LINE
  8
0
 10
204.904
 20
47.1745
 11
204.637
 21
47.0975
  0
LINE
  8
0
 10
204.637
 20
47.0975
 11
204.376
 21
46.9825
  0
LINE
  8
0
 10
204.376
 20
46.9825
 11
203.685
 21
48.9465
  0
LINE
  8
0
 10
169.2
 20
48.9465
 11
170.465
 21
48.9465
  0
LINE
  8
0
 10
170.465
 20
48.9465
 11
171.072
 21
47.2405
  0
LINE
  8
0
 10
171.072
 20
47.2405
 11
170.717
 21
47.22
  0
LINE
  8
0
 10
170.717
 20
47.22
 11
170.419
 21
47.1745
  0
LINE
  8
0
 10
170.419
 20
47.1745
 11
170.152
 21
47.0975
  0
LINE
  8
0
 10
170.152
 20
47.0975
 11
169.891
 21
46.9825
  0
LINE
  8
0
 10
169.891
 20
46.9825
 11
169.2
 21
48.9465
  0
LINE
  8
0
 10
169.6
 20
22.0655
 11
169.6
 21
43.9624
  0
LINE
  8
0
 10
169.6
 20
43.9624
 11
169.504
 21
44.0695
  0
LINE
  8
0
 10
169.504
 20
44.0695
 11
169.325
 21
44.3755
  0
LINE
  8
0
 10
169.325
 20
44.3755
 11
169.213
 21
44.7123
  0
LINE
  8
0
 10
169.213
 20
44.7123
 11
169.175
 21
45.0705
  0
LINE
  8
0
 10
169.175
 20
45.0705
 11
169.218
 21
45.4543
  0
LINE
  8
0
 10
169.218
 20
45.4543
 11
169.346
 21
45.8195
  0
LINE
  8
0
 10
169.346
 20
45.8195
 11
169.551
 21
46.1473
  0
LINE
  8
0
 10
169.551
 20
46.1473
 11
169.824
 21
46.4185
  0
LINE
  8
0
 10
169.824
 20
46.4185
 11
170.076
 21
46.5833
  0
LINE
  8
0
 10
170.076
 20
46.5833
 11
170.348
 21
46.6915
  0
LINE
  8
0
 10
170.348
 20
46.6915
 11
170.673
 21
46.7507
  0
LINE
  8
0
 10
170.673
 20
46.7507
 11
171.08
 21
46.7705
  0
LINE
  8
0
 10
171.08
 20
46.7705
 11
171.538
 21
46.7705
  0
LINE
  8
0
 10
171.538
 20
46.7705
 11
171.538
 21
45.6185
  0
LINE
  8
0
 10
171.538
 20
45.6185
 11
171.147
 21
45.6185
  0
LINE
  8
0
 10
171.147
 20
45.6185
 11
170.966
 21
45.6153
  0
LINE
  8
0
 10
170.966
 20
45.6153
 11
170.839
 21
45.6055
  0
LINE
  8
0
 10
170.839
 20
45.6055
 11
170.741
 21
45.584
  0
LINE
  8
0
 10
170.741
 20
45.584
 11
170.647
 21
45.5475
  0
LINE
  8
0
 10
170.647
 20
45.5475
 11
170.528
 21
45.469
  0
LINE
  8
0
 10
170.528
 20
45.469
 11
170.435
 21
45.3575
  0
LINE
  8
0
 10
170.435
 20
45.3575
 11
170.376
 21
45.2218
  0
LINE
  8
0
 10
170.376
 20
45.2218
 11
170.356
 21
45.0705
  0
LINE
  8
0
 10
170.356
 20
45.0705
 11
170.371
 21
44.942
  0
LINE
  8
0
 10
170.371
 20
44.942
 11
170.415
 21
44.8225
  0
LINE
  8
0
 10
170.415
 20
44.8225
 11
170.481
 21
44.7185
  0
LINE
  8
0
 10
170.481
 20
44.7185
 11
170.564
 21
44.6365
  0
LINE
  8
0
 10
170.564
 20
44.6365
 11
170.661
 21
44.5845
  0
LINE
  8
0
 10
170.661
 20
44.5845
 11
170.768
 21
44.5525
  0
LINE
  8
0
 10
170.768
 20
44.5525
 11
170.904
 21
44.536
  0
LINE
  8
0
 10
170.904
 20
44.536
 11
171.088
 21
44.5305
  0
LINE
  8
0
 10
171.088
 20
44.5305
 11
171.538
 21
44.5305
  0
LINE
  8
0
 10
171.538
 20
44.5305
 11
171.538
 21
44.131
  0
LINE
  8
0
 10
171.538
 20
44.131
 11
172.211
 21
44.131
  0
LINE
  8
0
 10
172.211
 20
44.131
 11
172.211
 21
48.9465
  0
LINE
  8
0
 10
172.211
 20
48.9465
 11
173.41
 21
48.9465
  0
LINE
  8
0
 10
173.41
 20
48.9465
 11
173.41
 21
43.3785
  0
LINE
  8
0
 10
173.41
 20
43.3785
 11
172.6
 21
43.3785
  0
LINE
  8
0
 10
172.6
 20
43.3785
 11
172.6
 21
22.0655
  0
LINE
  8
0
 10
172.6
 20
22.0655
 11
169.6
 21
22.0655
  0
LINE
  8
0
 10
195.233
 20
43.3785
 11
195.233
 21
48.9465
  0
LINE
  8
0
 10
195.233
 20
48.9465
 11
196.431
 21
48.9465
  0
LINE
  8
0
 10
196.431
 20
48.9465
 11
196.431
 21
43.3785
  0
LINE
  8
0
 10
196.431
 20
43.3785
 11
195.233
 21
43.3785
  0
LINE
  8
0
 10
201.792
 20
43.3785
 11
201.792
 21
48.9465
  0
LINE
  8
0
 10
201.792
 20
48.9465
 11
202.99
 21
48.9465
  0
LINE
  8
0
 10
202.99
 20
48.9465
 11
202.99
 21
43.3785
  0
LINE
  8
0
 10
202.99
 20
43.3785
 11
201.792
 21
43.3785
  0
LINE
  8
0
 10
205.8
 20
22.0655
 11
205.8
 21
43.3785
  0
LINE
  8
0
 10
205.8
 20
43.3785
 11
205.648
 21
43.3785
  0
LINE
  8
0
 10
205.648
 20
43.3785
 11
205.398
 21
43.3838
  0
LINE
  8
0
 10
205.398
 20
43.3838
 11
205.178
 21
43.3995
  0
LINE
  8
0
 10
205.178
 20
43.3995
 11
204.983
 21
43.4278
  0
LINE
  8
0
 10
204.983
 20
43.4278
 11
204.804
 21
43.4705
  0
LINE
  8
0
 10
204.804
 20
43.4705
 11
204.642
 21
43.529
  0
LINE
  8
0
 10
204.642
 20
43.529
 11
204.496
 21
43.6045
  0
LINE
  8
0
 10
204.496
 20
43.6045
 11
204.36
 21
43.6968
  0
LINE
  8
0
 10
204.36
 20
43.6968
 11
204.226
 21
43.8055
  0
LINE
  8
0
 10
204.226
 20
43.8055
 11
203.989
 21
44.0695
  0
LINE
  8
0
 10
203.989
 20
44.0695
 11
203.81
 21
44.3755
  0
LINE
  8
0
 10
203.81
 20
44.3755
 11
203.698
 21
44.7123
  0
LINE
  8
0
 10
203.698
 20
44.7123
 11
203.66
 21
45.0705
  0
LINE
  8
0
 10
203.66
 20
45.0705
 11
203.703
 21
45.4543
  0
LINE
  8
0
 10
203.703
 20
45.4543
 11
203.831
 21
45.8195
  0
LINE
  8
0
 10
203.831
 20
45.8195
 11
204.036
 21
46.1473
  0
LINE
  8
0
 10
204.036
 20
46.1473
 11
204.309
 21
46.4185
  0
LINE
  8
0
 10
204.309
 20
46.4185
 11
204.561
 21
46.5833
  0
LINE
  8
0
 10
204.561
 20
46.5833
 11
204.833
 21
46.6915
  0
LINE
  8
0
 10
204.833
 20
46.6915
 11
205.158
 21
46.7507
  0
LINE
  8
0
 10
205.158
 20
46.7507
 11
205.565
 21
46.7705
  0
LINE
  8
0
 10
205.565
 20
46.7705
 11
206.023
 21
46.7705
  0
LINE
  8
0
 10
206.023
 20
46.7705
 11
206.023
 21
45.6185
  0
LINE
  8
0
 10
206.023
 20
45.6185
 11
205.632
 21
45.6185
  0
LINE
  8
0
 10
205.632
 20
45.6185
 11
205.451
 21
45.6153
  0
LINE
  8
0
 10
205.451
 20
45.6153
 11
205.324
 21
45.6055
  0
LINE
  8
0
 10
205.324
 20
45.6055
 11
205.226
 21
45.584
  0
LINE
  8
0
 10
205.226
 20
45.584
 11
205.132
 21
45.5475
  0
LINE
  8
0
 10
205.132
 20
45.5475
 11
205.013
 21
45.469
  0
LINE
  8
0
 10
205.013
 20
45.469
 11
204.92
 21
45.3575
  0
LINE
  8
0
 10
204.92
 20
45.3575
 11
204.861
 21
45.2218
  0
LINE
  8
0
 10
204.861
 20
45.2218
 11
204.841
 21
45.0705
  0
LINE
  8
0
 10
204.841
 20
45.0705
 11
204.856
 21
44.942
  0
LINE
  8
0
 10
204.856
 20
44.942
 11
204.9
 21
44.8225
  0
LINE
  8
0
 10
204.9
 20
44.8225
 11
204.967
 21
44.7185
  0
LINE
  8
0
 10
204.967
 20
44.7185
 11
205.049
 21
44.6365
  0
LINE
  8
0
 10
205.049
 20
44.6365
 11
205.146
 21
44.5845
  0
LINE
  8
0
 10
205.146
 20
44.5845
 11
205.253
 21
44.5525
  0
LINE
  8
0
 10
205.253
 20
44.5525
 11
205.389
 21
44.536
  0
LINE
  8
0
 10
205.389
 20
44.536
 11
205.573
 21
44.5305
  0
LINE
  8
0
 10
205.573
 20
44.5305
 11
206.023
 21
44.5305
  0
LINE
  8
0
 10
206.023
 20
44.5305
 11
206.023
 21
44.131
  0
LINE
  8
0
 10
206.023
 20
44.131
 11
206.696
 21
44.131
  0
LINE
  8
0
 10
206.696
 20
44.131
 11
206.696
 21
48.9465
  0
LINE
  8
0
 10
206.696
 20
48.9465
 11
207.895
 21
48.9465
  0
LINE
  8
0
 10
207.895
 20
48.9465
 11
207.895
 21
44.131
  0
LINE
  8
0
 10
207.895
 20
44.131
 11
208.8
 21
44.131
  0
LINE
  8
0
 10
208.8
 20
44.131
 11
208.8
 21
22.0655
  0
LINE
  8
0
 10
208.8
 20
22.0655
 11
205.8
 21
22.0655
  0
LINE
  8
0
 10
177.207
 20
43.3785
 11
177.207
 21
48.9465
  0
LINE
  8
0
 10
177.207
 20
48.9465
 11
178.406
 21
48.9465
  0
LINE
  8
0
 10
178.406
 20
48.9465
 11
178.406
 21
43.3785
  0
LINE
  8
0
 10
178.406
 20
43.3785
 11
177.207
 21
43.3785
  0
LINE
  8
0
 10
179.874
 20
46.8265
 11
180.572
 21
45.3975
  0
LINE
  8
0
 10
180.572
 20
45.3975
 11
179.724
 21
43.3785
  0
LINE
  8
0
 10
179.724
 20
43.3785
 11
178.443
 21
43.3615
  0
LINE
  8
0
 10
178.443
 20
43.3615
 11
179.874
 21
46.8265
  0
LINE
  8
0
 10
174.337
 20
45.6185
 11
174.337
 21
46.7705
  0
LINE
  8
0
 10
174.337
 20
46.7705
 11
176.525
 21
46.7705
  0
LINE
  8
0
 10
176.525
 20
46.7705
 11
176.525
 21
45.6185
  0
LINE
  8
0
 10
176.525
 20
45.6185
 11
174.337
 21
45.6185
  0
LINE
  8
0
 10
194.184
 20
43.3785
 11
193.933
 21
43.3838
  0
LINE
  8
0
 10
193.933
 20
43.3838
 11
193.714
 21
43.3995
  0
LINE
  8
0
 10
193.714
 20
43.3995
 11
193.518
 21
43.4278
  0
LINE
  8
0
 10
193.518
 20
43.4278
 11
193.34
 21
43.4705
  0
LINE
  8
0
 10
193.34
 20
43.4705
 11
193.177
 21
43.529
  0
LINE
  8
0
 10
193.177
 20
43.529
 11
193.032
 21
43.6045
  0
LINE
  8
0
 10
193.032
 20
43.6045
 11
192.896
 21
43.6968
  0
LINE
  8
0
 10
192.896
 20
43.6968
 11
192.762
 21
43.8055
  0
LINE
  8
0
 10
192.762
 20
43.8055
 11
192.524
 21
44.0695
  0
LINE
  8
0
 10
192.524
 20
44.0695
 11
192.346
 21
44.3755
  0
LINE
  8
0
 10
192.346
 20
44.3755
 11
192.233
 21
44.7123
  0
LINE
  8
0
 10
192.233
 20
44.7123
 11
192.196
 21
45.0705
  0
LINE
  8
0
 10
192.196
 20
45.0705
 11
192.239
 21
45.4543
  0
LINE
  8
0
 10
192.239
 20
45.4543
 11
192.367
 21
45.8195
  0
LINE
  8
0
 10
192.367
 20
45.8195
 11
192.571
 21
46.1473
  0
LINE
  8
0
 10
192.571
 20
46.1473
 11
192.845
 21
46.4185
  0
LINE
  8
0
 10
192.845
 20
46.4185
 11
193.096
 21
46.5833
  0
LINE
  8
0
 10
193.096
 20
46.5833
 11
193.369
 21
46.6915
  0
LINE
  8
0
 10
193.369
 20
46.6915
 11
193.693
 21
46.7507
  0
LINE
  8
0
 10
193.693
 20
46.7507
 11
194.101
 21
46.7705
  0
LINE
  8
0
 10
194.101
 20
46.7705
 11
194.559
 21
46.7705
  0
LINE
  8
0
 10
194.559
 20
46.7705
 11
194.559
 21
45.6185
  0
LINE
  8
0
 10
194.559
 20
45.6185
 11
194.168
 21
45.6185
  0
LINE
  8
0
 10
194.168
 20
45.6185
 11
193.987
 21
45.6153
  0
LINE
  8
0
 10
193.987
 20
45.6153
 11
193.86
 21
45.6055
  0
LINE
  8
0
 10
193.86
 20
45.6055
 11
193.762
 21
45.584
  0
LINE
  8
0
 10
193.762
 20
45.584
 11
193.669
 21
45.5475
  0
LINE
  8
0
 10
193.669
 20
45.5475
 11
193.549
 21
45.469
  0
LINE
  8
0
 10
193.549
 20
45.469
 11
193.456
 21
45.3575
  0
LINE
  8
0
 10
193.456
 20
45.3575
 11
193.397
 21
45.2218
  0
LINE
  8
0
 10
193.397
 20
45.2218
 11
193.377
 21
45.0705
  0
LINE
  8
0
 10
193.377
 20
45.0705
 11
193.392
 21
44.942
  0
LINE
  8
0
 10
193.392
 20
44.942
 11
193.436
 21
44.8225
  0
LINE
  8
0
 10
193.436
 20
44.8225
 11
193.502
 21
44.7185
  0
LINE
  8
0
 10
193.502
 20
44.7185
 11
193.585
 21
44.6365
  0
LINE
  8
0
 10
193.585
 20
44.6365
 11
193.682
 21
44.5845
  0
LINE
  8
0
 10
193.682
 20
44.5845
 11
193.79
 21
44.5525
  0
LINE
  8
0
 10
193.79
 20
44.5525
 11
193.926
 21
44.536
  0
LINE
  8
0
 10
193.926
 20
44.536
 11
194.11
 21
44.5305
  0
LINE
  8
0
 10
194.11
 20
44.5305
 11
194.559
 21
44.5305
  0
LINE
  8
0
 10
194.559
 20
44.5305
 11
194.559
 21
43.3785
  0
LINE
  8
0
 10
194.559
 20
43.3785
 11
194.184
 21
43.3785
  0
LINE
  8
0
 10
199.079
 20
45.6185
 11
199.079
 21
46.7705
  0
LINE
  8
0
 10
199.079
 20
46.7705
 11
201.168
 21
46.7705
  0
LINE
  8
0
 10
201.168
 20
46.7705
 11
201.168
 21
45.6185
  0
LINE
  8
0
 10
201.168
 20
45.6185
 11
199.079
 21
45.6185
  0
LINE
  8
0
 10
188.392
 20
43.2965
 11
187.882
 21
43.4345
  0
LINE
  8
0
 10
187.882
 20
43.4345
 11
187.414
 21
43.6555
  0
LINE
  8
0
 10
187.414
 20
43.6555
 11
187
 21
43.9505
  0
LINE
  8
0
 10
187
 20
43.9505
 11
186.646
 21
44.3175
  0
LINE
  8
0
 10
186.646
 20
44.3175
 11
186.359
 21
44.7545
  0
LINE
  8
0
 10
186.359
 20
44.7545
 11
186.149
 21
45.2498
  0
LINE
  8
0
 10
186.149
 20
45.2498
 11
186.03
 21
45.7915
  0
LINE
  8
0
 10
186.03
 20
45.7915
 11
187.237
 21
45.7915
  0
LINE
  8
0
 10
187.237
 20
45.7915
 11
187.476
 21
45.2123
  0
LINE
  8
0
 10
187.476
 20
45.2123
 11
187.861
 21
44.7725
  0
LINE
  8
0
 10
187.861
 20
44.7725
 11
188.359
 21
44.495
  0
LINE
  8
0
 10
188.359
 20
44.495
 11
188.942
 21
44.4025
  0
LINE
  8
0
 10
188.942
 20
44.4025
 11
189.248
 21
44.4275
  0
LINE
  8
0
 10
189.248
 20
44.4275
 11
189.534
 21
44.5025
  0
LINE
  8
0
 10
189.534
 20
44.5025
 11
189.795
 21
44.6233
  0
LINE
  8
0
 10
189.795
 20
44.6233
 11
190.033
 21
44.7855
  0
LINE
  8
0
 10
190.033
 20
44.7855
 11
190.24
 21
44.9873
  0
LINE
  8
0
 10
190.24
 20
44.9873
 11
190.415
 21
45.2265
  0
LINE
  8
0
 10
190.415
 20
45.2265
 11
190.55
 21
45.4963
  0
LINE
  8
0
 10
190.55
 20
45.4963
 11
190.64
 21
45.7915
  0
LINE
  8
0
 10
190.64
 20
45.7915
 11
191.846
 21
45.7915
  0
LINE
  8
0
 10
191.846
 20
45.7915
 11
191.733
 21
45.2618
  0
LINE
  8
0
 10
191.733
 20
45.2618
 11
191.526
 21
44.7705
  0
LINE
  8
0
 10
191.526
 20
44.7705
 11
191.237
 21
44.3325
  0
LINE
  8
0
 10
191.237
 20
44.3325
 11
190.881
 21
43.9625
  0
LINE
  8
0
 10
190.881
 20
43.9625
 11
190.463
 21
43.6635
  0
LINE
  8
0
 10
190.463
 20
43.6635
 11
189.991
 21
43.4385
  0
LINE
  8
0
 10
189.991
 20
43.4385
 11
189.477
 21
43.2975
  0
LINE
  8
0
 10
189.477
 20
43.2975
 11
188.934
 21
43.2505
  0
LINE
  8
0
 10
188.934
 20
43.2505
 11
188.392
 21
43.2965
  0
LINE
  8
0
 10
199.079
 20
43.3785
 11
199.079
 21
44.5305
  0
LINE
  8
0
 10
199.079
 20
44.5305
 11
201.168
 21
44.5305
  0
LINE
  8
0
 10
201.168
 20
44.5305
 11
201.168
 21
43.3785
  0
LINE
  8
0
 10
201.168
 20
43.3785
 11
199.079
 21
43.3785
  0
LINE
  8
0
 10
174.337
 20
43.3785
 11
174.337
 21
44.5305
  0
LINE
  8
0
 10
174.337
 20
44.5305
 11
176.525
 21
44.5305
  0
LINE
  8
0
 10
176.525
 20
44.5305
 11
176.525
 21
43.3785
  0
LINE
  8
0
 10
176.525
 20
43.3785
 11
174.337
 21
43.3785
  0
LINE
  8
0
 10
183.478
 20
38.2992
 11
183.478
 21
39.2592
  0
LINE
  8
0
 10
183.478
 20
39.2592
 11
186.966
 21
39.2592
  0
LINE
  8
0
 10
186.966
 20
39.2592
 11
186.966
 21
38.2992
  0
LINE
  8
0
 10
186.966
 20
38.2992
 11
183.478
 21
38.2992
  0
LINE
  8
0
 10
191.089
 20
33.2433
 11
191.089
 21
33.2483
  0
LINE
  8
0
 10
191.089
 20
33.2483
 11
190.281
 21
33.2483
  0
LINE
  8
0
 10
190.281
 20
33.2483
 11
188.328
 21
37.0432
  0
LINE
  8
0
 10
188.328
 20
37.0432
 11
188.893
 21
38.1243
  0
LINE
  8
0
 10
188.893
 20
38.1243
 11
191.089
 21
33.8598
  0
LINE
  8
0
 10
191.089
 20
33.8598
 11
191.089
 21
34.2033
  0
LINE
  8
0
 10
191.089
 20
34.2033
 11
192.924
 21
34.2033
  0
LINE
  8
0
 10
192.924
 20
34.2033
 11
192.924
 21
33.2433
  0
LINE
  8
0
 10
192.924
 20
33.2433
 11
191.089
 21
33.2433
  0
LINE
  8
0
 10
191.089
 20
36.9552
 11
191.089
 21
37.9153
  0
LINE
  8
0
 10
191.089
 20
37.9153
 11
192.924
 21
37.9153
  0
LINE
  8
0
 10
192.924
 20
37.9153
 11
192.924
 21
36.9552
  0
LINE
  8
0
 10
192.924
 20
36.9552
 11
191.089
 21
36.9552
  0
LINE
  8
0
 10
195.107
 20
37.9153
 11
196.167
 21
37.9153
  0
LINE
  8
0
 10
196.167
 20
37.9153
 11
196.676
 21
36.4832
  0
LINE
  8
0
 10
196.676
 20
36.4832
 11
196.379
 21
36.4657
  0
LINE
  8
0
 10
196.379
 20
36.4657
 11
196.129
 21
36.4272
  0
LINE
  8
0
 10
196.129
 20
36.4272
 11
195.905
 21
36.3627
  0
LINE
  8
0
 10
195.905
 20
36.3627
 11
195.686
 21
36.2672
  0
LINE
  8
0
 10
195.686
 20
36.2672
 11
195.107
 21
37.9153
  0
LINE
  8
0
 10
181.726
 20
35.8223
 11
182.801
 21
37.9153
  0
LINE
  8
0
 10
182.801
 20
37.9153
 11
183.924
 21
37.9153
  0
LINE
  8
0
 10
183.924
 20
37.9153
 11
182.284
 21
34.7273
  0
LINE
  8
0
 10
182.284
 20
34.7273
 11
181.726
 21
35.8223
  0
LINE
  8
0
 10
193.496
 20
33.2433
 11
193.496
 21
37.9153
  0
LINE
  8
0
 10
193.496
 20
37.9153
 11
194.501
 21
37.9153
  0
LINE
  8
0
 10
194.501
 20
37.9153
 11
194.501
 21
33.2433
  0
LINE
  8
0
 10
194.501
 20
33.2433
 11
193.496
 21
33.2433
  0
LINE
  8
0
 10
197.632
 20
33.2433
 11
197.632
 21
37.9153
  0
LINE
  8
0
 10
197.632
 20
37.9153
 11
198.637
 21
37.9153
  0
LINE
  8
0
 10
198.637
 20
37.9153
 11
198.637
 21
33.2433
  0
LINE
  8
0
 10
198.637
 20
33.2433
 11
197.632
 21
33.2433
  0
LINE
  8
0
 10
178.901
 20
37.9153
 11
180.031
 21
37.9153
  0
LINE
  8
0
 10
180.031
 20
37.9153
 11
180.429
 21
37.1472
  0
LINE
  8
0
 10
180.429
 20
37.1472
 11
181.824
 21
37.1472
  0
LINE
  8
0
 10
181.824
 20
37.1472
 11
181.329
 21
36.1873
  0
LINE
  8
0
 10
181.329
 20
36.1873
 11
180.931
 21
36.1873
  0
LINE
  8
0
 10
180.931
 20
36.1873
 11
181.984
 21
34.1573
  0
LINE
  8
0
 10
181.984
 20
34.1573
 11
181.419
 21
33.0693
  0
LINE
  8
0
 10
181.419
 20
33.0693
 11
178.901
 21
37.9153
  0
LINE
  8
0
 10
186.374
 20
33.2483
 11
188.014
 21
36.4292
  0
LINE
  8
0
 10
188.014
 20
36.4292
 11
188.579
 21
35.3413
  0
LINE
  8
0
 10
188.579
 20
35.3413
 11
187.497
 21
33.2483
  0
LINE
  8
0
 10
187.497
 20
33.2483
 11
186.374
 21
33.2483
  0
LINE
  8
0
 10
191.089
 20
35.0993
 11
191.089
 21
36.0593
  0
LINE
  8
0
 10
191.089
 20
36.0593
 11
192.924
 21
36.0593
  0
LINE
  8
0
 10
192.924
 20
36.0593
 11
192.924
 21
35.0993
  0
LINE
  8
0
 10
192.924
 20
35.0993
 11
191.089
 21
35.0993
  0
LINE
  8
0
 10
196.753
 20
33.2433
 11
196.543
 21
33.2478
  0
LINE
  8
0
 10
196.543
 20
33.2478
 11
196.359
 21
33.2613
  0
LINE
  8
0
 10
196.359
 20
33.2613
 11
196.195
 21
33.2845
  0
LINE
  8
0
 10
196.195
 20
33.2845
 11
196.045
 21
33.3203
  0
LINE
  8
0
 10
196.045
 20
33.3203
 11
195.909
 21
33.3685
  0
LINE
  8
0
 10
195.909
 20
33.3685
 11
195.787
 21
33.4313
  0
LINE
  8
0
 10
195.787
 20
33.4313
 11
195.673
 21
33.5075
  0
LINE
  8
0
 10
195.673
 20
33.5075
 11
195.56
 21
33.5983
  0
LINE
  8
0
 10
195.56
 20
33.5983
 11
195.362
 21
33.817
  0
LINE
  8
0
 10
195.362
 20
33.817
 11
195.212
 21
34.0713
  0
LINE
  8
0
 10
195.212
 20
34.0713
 11
195.118
 21
34.351
  0
LINE
  8
0
 10
195.118
 20
34.351
 11
195.086
 21
34.6483
  0
LINE
  8
0
 10
195.086
 20
34.6483
 11
195.122
 21
34.9668
  0
LINE
  8
0
 10
195.122
 20
34.9668
 11
195.229
 21
35.2703
  0
LINE
  8
0
 10
195.229
 20
35.2703
 11
195.401
 21
35.542
  0
LINE
  8
0
 10
195.401
 20
35.542
 11
195.63
 21
35.7673
  0
LINE
  8
0
 10
195.63
 20
35.7673
 11
195.841
 21
35.9038
  0
LINE
  8
0
 10
195.841
 20
35.9038
 11
196.07
 21
35.9933
  0
LINE
  8
0
 10
196.07
 20
35.9933
 11
196.342
 21
36.0428
  0
LINE
  8
0
 10
196.342
 20
36.0428
 11
196.683
 21
36.0593
  0
LINE
  8
0
 10
196.683
 20
36.0593
 11
197.067
 21
36.0593
  0
LINE
  8
0
 10
197.067
 20
36.0593
 11
197.067
 21
35.0993
  0
LINE
  8
0
 10
197.067
 20
35.0993
 11
196.739
 21
35.0993
  0
LINE
  8
0
 10
196.739
 20
35.0993
 11
196.588
 21
35.0965
  0
LINE
  8
0
 10
196.588
 20
35.0965
 11
196.481
 21
35.0883
  0
LINE
  8
0
 10
196.481
 20
35.0883
 11
196.399
 21
35.071
  0
LINE
  8
0
 10
196.399
 20
35.071
 11
196.321
 21
35.0413
  0
LINE
  8
0
 10
196.321
 20
35.0413
 11
196.221
 21
34.9765
  0
LINE
  8
0
 10
196.221
 20
34.9765
 11
196.143
 21
34.8843
  0
LINE
  8
0
 10
196.143
 20
34.8843
 11
196.093
 21
34.772
  0
LINE
  8
0
 10
196.093
 20
34.772
 11
196.076
 21
34.6473
  0
LINE
  8
0
 10
196.076
 20
34.6473
 11
196.089
 21
34.542
  0
LINE
  8
0
 10
196.089
 20
34.542
 11
196.125
 21
34.4443
  0
LINE
  8
0
 10
196.125
 20
34.4443
 11
196.181
 21
34.3583
  0
LINE
  8
0
 10
196.181
 20
34.3583
 11
196.251
 21
34.2903
  0
LINE
  8
0
 10
196.251
 20
34.2903
 11
196.333
 21
34.2475
  0
LINE
  8
0
 10
196.333
 20
34.2475
 11
196.422
 21
34.2213
  0
LINE
  8
0
 10
196.422
 20
34.2213
 11
196.536
 21
34.2078
  0
LINE
  8
0
 10
196.536
 20
34.2078
 11
196.69
 21
34.2033
  0
LINE
  8
0
 10
196.69
 20
34.2033
 11
197.067
 21
34.2033
  0
LINE
  8
0
 10
197.067
 20
34.2033
 11
197.067
 21
33.2433
  0
LINE
  8
0
 10
197.067
 20
33.2433
 11
196.753
 21
33.2433
  0
LINE
  8
0
 10
183.118
 20
20.4067
 11
182.848
 21
20.5626
  0
LINE
  8
0
 10
182.848
 20
20.5626
 11
182.665
 21
20.8149
  0
LINE
  8
0
 10
182.665
 20
20.8149
 11
182.6
 21
21.12
  0
LINE
  8
0
 10
182.6
 20
21.12
 11
182.665
 21
21.425
  0
LINE
  8
0
 10
182.665
 20
21.425
 11
182.848
 21
21.6774
  0
LINE
  8
0
 10
182.848
 20
21.6774
 11
183.118
 21
21.8333
  0
LINE
  8
0
 10
183.118
 20
21.8333
 11
183.428
 21
21.8659
  0
LINE
  8
0
 10
183.428
 20
21.8659
 11
183.725
 21
21.7695
  0
LINE
  8
0
 10
183.725
 20
21.7695
 11
183.957
 21
21.5608
  0
LINE
  8
0
 10
183.957
 20
21.5608
 11
184.084
 21
21.2759
  0
LINE
  8
0
 10
184.084
 20
21.2759
 11
184.084
 21
20.9641
  0
LINE
  8
0
 10
184.084
 20
20.9641
 11
183.957
 21
20.6792
  0
LINE
  8
0
 10
183.957
 20
20.6792
 11
183.725
 21
20.4705
  0
LINE
  8
0
 10
183.725
 20
20.4705
 11
183.428
 21
20.3741
  0
LINE
  8
0
 10
183.428
 20
20.3741
 11
183.118
 21
20.4067
  0
LINE
  8
0
 10
203.806
 20
5.9783
 11
203.36
 21
6.20557
  0
LINE
  8
0
 10
203.36
 20
6.20557
 11
203.006
 21
6.55954
  0
LINE
  8
0
 10
203.006
 20
6.55954
 11
202.778
 21
7.00557
  0
LINE
  8
0
 10
202.778
 20
7.00557
 11
202.7
 21
7.5
  0
LINE
  8
0
 10
202.7
 20
7.5
 11
202.778
 21
7.99442
  0
LINE
  8
0
 10
202.778
 20
7.99442
 11
203.006
 21
8.44044
  0
LINE
  8
0
 10
203.006
 20
8.44044
 11
203.36
 21
8.79442
  0
LINE
  8
0
 10
203.36
 20
8.79442
 11
203.806
 21
9.02168
  0
LINE
  8
0
 10
203.806
 20
9.02168
 11
204.3
 21
9.09999
  0
LINE
  8
0
 10
204.3
 20
9.09999
 11
204.794
 21
9.02168
  0
LINE
  8
0
 10
204.794
 20
9.02168
 11
205.24
 21
8.79442
  0
LINE
  8
0
 10
205.24
 20
8.79442
 11
205.594
 21
8.44044
  0
LINE
  8
0
 10
205.594
 20
8.44044
 11
205.822
 21
7.99442
  0
LINE
  8
0
 10
205.822
 20
7.99442
 11
205.9
 21
7.5
  0
LINE
  8
0
 10
205.9
 20
7.5
 11
205.822
 21
7.00557
  0
LINE
  8
0
 10
205.822
 20
7.00557
 11
205.594
 21
6.55954
  0
LINE
  8
0
 10
205.594
 20
6.55954
 11
205.24
 21
6.20557
  0
LINE
  8
0
 10
205.24
 20
6.20557
 11
204.794
 21
5.9783
  0
LINE
  8
0
 10
204.794
 20
5.9783
 11
204.3
 21
5.89999
  0
LINE
  8
0
 10
204.3
 20
5.89999
 11
203.806
 21
5.9783
  0
LINE
  8
0
 10
173.606
 20
5.9783
 11
173.16
 21
6.20557
  0
LINE
  8
0
 10
173.16
 20
6.20557
 11
172.806
 21
6.55954
  0
LINE
  8
0
 10
172.806
 20
6.55954
 11
172.578
 21
7.00557
  0
LINE
  8
0
 10
172.578
 20
7.00557
 11
172.5
 21
7.5
  0
LINE
  8
0
 10
172.5
 20
7.5
 11
172.578
 21
7.99442
  0
LINE
  8
0
 10
172.578
 20
7.99442
 11
172.806
 21
8.44044
  0
LINE
  8
0
 10
172.806
 20
8.44044
 11
173.16
 21
8.79442
  0
LINE
  8
0
 10
173.16
 20
8.79442
 11
173.606
 21
9.02168
  0
LINE
  8
0
 10
173.606
 20
9.02168
 11
174.1
 21
9.09999
  0
LINE
  8
0
 10
174.1
 20
9.09999
 11
174.594
 21
9.02168
  0
LINE
  8
0
 10
174.594
 20
9.02168
 11
175.04
 21
8.79442
  0
LINE
  8
0
 10
175.04
 20
8.79442
 11
175.394
 21
8.44044
  0
LINE
  8
0
 10
175.394
 20
8.44044
 11
175.622
 21
7.99442
  0
LINE
  8
0
 10
175.622
 20
7.99442
 11
175.7
 21
7.5
  0
LINE
  8
0
 10
175.7
 20
7.5
 11
175.622
 21
7.00557
  0
LINE
  8
0
 10
175.622
 20
7.00557
 11
175.394
 21
6.55954
  0
LINE
  8
0
 10
175.394
 20
6.55954
 11
175.04
 21
6.20557
  0
LINE
  8
0
 10
175.04
 20
6.20557
 11
174.594
 21
5.9783
  0
LINE
  8
0
 10
174.594
 20
5.9783
 11
174.1
 21
5.89999
  0
LINE
  8
0
 10
174.1
 20
5.89999
 11
173.606
 21
5.9783
  0
LINE
  8
0
 10
181.167
 20
3
 11
181.167
 21
6
  0
LINE
  8
0
 10
181.167
 20
6
 11
197.233
 21
6
  0
LINE
  8
0
 10
197.233
 20
6
 11
197.233
 21
3
  0
LINE
  8
0
 10
197.233
 20
3
 11
181.167
 21
3
  0
LINE
  8
0
 10
48.2
 20
9.45663
 11
51.2
 21
9.45663
  0
LINE
  8
0
 10
51.2
 20
9.45663
 11
51.2
 21
18.9133
  0
LINE
  8
0
 10
51.2
 20
18.9133
 11
48.2
 21
18.9133
  0
LINE
  8
0
 10
48.2
 20
18.9133
 11
48.2
 21
28.3699
  0
LINE
  8
0
 10
48.2
 20
28.3699
 11
51.2
 21
28.3699
  0
LINE
  8
0
 10
51.2
 20
28.3699
 11
51.2
 21
32.5612
  0
LINE
  8
0
 10
51.2
 20
32.5612
 11
50.9944
 21
32.1578
  0
LINE
  8
0
 10
50.9944
 20
32.1578
 11
50.6404
 21
31.8038
  0
LINE
  8
0
 10
50.6404
 20
31.8038
 11
50.1944
 21
31.5766
  0
LINE
  8
0
 10
50.1944
 20
31.5766
 11
49.7
 21
31.4982
  0
LINE
  8
0
 10
49.7
 20
31.4982
 11
49.2056
 21
31.5766
  0
LINE
  8
0
 10
49.2056
 20
31.5766
 11
48.7595
 21
31.8038
  0
LINE
  8
0
 10
48.7595
 20
31.8038
 11
48.4056
 21
32.1578
  0
LINE
  8
0
 10
48.4056
 20
32.1578
 11
48.1783
 21
32.6038
  0
LINE
  8
0
 10
48.1783
 20
32.6038
 11
48.1
 21
33.0983
  0
LINE
  8
0
 10
48.1
 20
33.0983
 11
48.1783
 21
33.5927
  0
LINE
  8
0
 10
48.1783
 20
33.5927
 11
48.4056
 21
34.0387
  0
LINE
  8
0
 10
48.4056
 20
34.0387
 11
48.7595
 21
34.3927
  0
LINE
  8
0
 10
48.7595
 20
34.3927
 11
49.2056
 21
34.6199
  0
LINE
  8
0
 10
49.2056
 20
34.6199
 11
49.7
 21
34.6982
  0
LINE
  8
0
 10
49.7
 20
34.6982
 11
50.1944
 21
34.6199
  0
LINE
  8
0
 10
50.1944
 20
34.6199
 11
50.6404
 21
34.3927
  0
LINE
  8
0
 10
50.6404
 20
34.3927
 11
50.9944
 21
34.0387
  0
LINE
  8
0
 10
50.9944
 20
34.0387
 11
51.2
 21
33.6352
  0
LINE
  8
0
 10
51.2
 20
33.6352
 11
51.2
 21
37.8266
  0
LINE
  8
0
 10
51.2
 20
37.8266
 11
48.2
 21
37.8266
  0
LINE
  8
0
 10
48.2
 20
37.8266
 11
48.2
 21
47.2832
  0
LINE
  8
0
 10
48.2
 20
47.2832
 11
48.8809
 21
47.2832
  0
LINE
  8
0
 10
48.8809
 20
47.2832
 11
48.3879
 21
47.6815
  0
LINE
  8
0
 10
48.3879
 20
47.6815
 11
48.3879
 21
49.2125
  0
LINE
  8
0
 10
48.3879
 20
49.2125
 11
50.774
 21
47.2832
  0
LINE
  8
0
 10
50.774
 20
47.2832
 11
51.2
 21
47.2832
  0
LINE
  8
0
 10
51.2
 20
47.2832
 11
51.2
 21
56.7399
  0
LINE
  8
0
 10
51.2
 20
56.7399
 11
48.2
 21
56.7399
  0
LINE
  8
0
 10
48.2
 20
56.7399
 11
48.2
 21
66.1965
  0
LINE
  8
0
 10
48.2
 20
66.1965
 11
3
 21
66.1965
  0
LINE
  8
0
 10
3
 20
66.1965
 11
3
 21
56.7399
  0
LINE
  8
0
 10
3
 20
56.7399
 11
0
 21
56.7399
  0
LINE
  8
0
 10
0
 20
56.7399
 11
0
 21
48.8657
  0
LINE
  8
0
 10
0
 20
48.8657
 11
0.18634
 21
48.9545
  0
LINE
  8
0
 10
0.18634
 20
48.9545
 11
0.700089
 21
49.0955
  0
LINE
  8
0
 10
0.700089
 20
49.0955
 11
1.24333
 21
49.1425
  0
LINE
  8
0
 10
1.24333
 20
49.1425
 11
1.78484
 21
49.0965
  0
LINE
  8
0
 10
1.78484
 20
49.0965
 11
2.29533
 21
48.9585
  0
LINE
  8
0
 10
2.29533
 20
48.9585
 11
2.76334
 21
48.7375
  0
LINE
  8
0
 10
2.76334
 20
48.7375
 11
3.17734
 21
48.4425
  0
LINE
  8
0
 10
3.17734
 20
48.4425
 11
3.53108
 21
48.0755
  0
LINE
  8
0
 10
3.53108
 20
48.0755
 11
3.81834
 21
47.6385
  0
LINE
  8
0
 10
3.81834
 20
47.6385
 11
4.02759
 21
47.1432
  0
LINE
  8
0
 10
4.02759
 20
47.1432
 11
4.14734
 21
46.6015
  0
LINE
  8
0
 10
4.14734
 20
46.6015
 11
3
 21
46.6015
  0
LINE
  8
0
 10
3
 20
46.6015
 11
3
 21
45.8605
  0
LINE
  8
0
 10
3
 20
45.8605
 11
4.14734
 21
45.8605
  0
LINE
  8
0
 10
4.14734
 20
45.8605
 11
4.02759
 21
45.318
  0
LINE
  8
0
 10
4.02759
 20
45.318
 11
3.81834
 21
44.8225
  0
LINE
  8
0
 10
3.81834
 20
44.8225
 11
3.53108
 21
44.3855
  0
LINE
  8
0
 10
3.53108
 20
44.3855
 11
3.17734
 21
44.0185
  0
LINE
  8
0
 10
3.17734
 20
44.0185
 11
3
 21
43.8921
  0
LINE
  8
0
 10
3
 20
43.8921
 11
3
 21
37.8266
  0
LINE
  8
0
 10
3
 20
37.8266
 11
0
 21
37.8266
  0
LINE
  8
0
 10
0
 20
37.8266
 11
0
 21
33.6352
  0
LINE
  8
0
 10
0
 20
33.6352
 11
0.205566
 21
34.0387
  0
LINE
  8
0
 10
0.205566
 20
34.0387
 11
0.55954
 21
34.3927
  0
LINE
  8
0
 10
0.55954
 20
34.3927
 11
1.00557
 21
34.6199
  0
LINE
  8
0
 10
1.00557
 20
34.6199
 11
1.5
 21
34.6982
  0
LINE
  8
0
 10
1.5
 20
34.6982
 11
1.99442
 21
34.6199
  0
LINE
  8
0
 10
1.99442
 20
34.6199
 11
2.44044
 21
34.3927
  0
LINE
  8
0
 10
2.44044
 20
34.3927
 11
2.79442
 21
34.0387
  0
LINE
  8
0
 10
2.79442
 20
34.0387
 11
3.02168
 21
33.5927
  0
LINE
  8
0
 10
3.02168
 20
33.5927
 11
3.09999
 21
33.0983
  0
LINE
  8
0
 10
3.09999
 20
33.0983
 11
3.02168
 21
32.6038
  0
LINE
  8
0
 10
3.02168
 20
32.6038
 11
2.79442
 21
32.1578
  0
LINE
  8
0
 10
2.79442
 20
32.1578
 11
2.44044
 21
31.8038
  0
LINE
  8
0
 10
2.44044
 20
31.8038
 11
1.99442
 21
31.5766
  0
LINE
  8
0
 10
1.99442
 20
31.5766
 11
1.5
 21
31.4982
  0
LINE
  8
0
 10
1.5
 20
31.4982
 11
1.00557
 21
31.5766
  0
LINE
  8
0
 10
1.00557
 20
31.5766
 11
0.55954
 21
31.8038
  0
LINE
  8
0
 10
0.55954
 20
31.8038
 11
0.205566
 21
32.1578
  0
LINE
  8
0
 10
0.205566
 20
32.1578
 11
0
 21
32.5612
  0
LINE
  8
0
 10
0
 20
32.5612
 11
0
 21
28.3699
  0
LINE
  8
0
 10
0
 20
28.3699
 11
3
 21
28.3699
  0
LINE
  8
0
 10
3
 20
28.3699
 11
3
 21
18.9133
  0
LINE
  8
0
 10
3
 20
18.9133
 11
0
 21
18.9133
  0
LINE
  8
0
 10
0
 20
18.9133
 11
0
 21
9.45663
  0
LINE
  8
0
 10
0
 20
9.45663
 11
3
 21
9.45663
  0
LINE
  8
0
 10
3
 20
9.45663
 11
3
 21
0
  0
LINE
  8
0
 10
3
 20
0
 11
48.2
 21
0
  0
LINE
  8
0
 10
48.2
 20
0
 11
48.2
 21
9.45663
  0
LINE
  8
0
 10
32.4394
 20
46.4435
 11
31.9814
 21
45.4835
  0
LINE
  8
0
 10
31.9814
 20
45.4835
 11
31.3744
 21
46.9695
  0
LINE
  8
0
 10
31.3744
 20
46.9695
 11
32.4394
 21
49.2065
  0
LINE
  8
0
 10
32.4394
 20
49.2065
 11
34.5854
 21
44.7405
  0
LINE
  8
0
 10
34.5854
 20
44.7405
 11
33.9784
 21
43.2545
  0
LINE
  8
0
 10
33.9784
 20
43.2545
 11
32.4394
 21
46.4435
  0
LINE
  8
0
 10
22.9544
 20
46.6015
 11
23.0674
 21
47.1312
  0
LINE
  8
0
 10
23.0674
 20
47.1312
 11
23.2744
 21
47.6225
  0
LINE
  8
0
 10
23.2744
 20
47.6225
 11
23.5626
 21
48.0605
  0
LINE
  8
0
 10
23.5626
 20
48.0605
 11
23.9194
 21
48.4305
  0
LINE
  8
0
 10
23.9194
 20
48.4305
 11
24.3374
 21
48.7295
  0
LINE
  8
0
 10
24.3374
 20
48.7295
 11
24.8094
 21
48.9545
  0
LINE
  8
0
 10
24.8094
 20
48.9545
 11
25.3231
 21
49.0955
  0
LINE
  8
0
 10
25.3231
 20
49.0955
 11
25.8664
 21
49.1425
  0
LINE
  8
0
 10
25.8664
 20
49.1425
 11
26.4079
 21
49.0965
  0
LINE
  8
0
 10
26.4079
 20
49.0965
 11
26.9184
 21
48.9585
  0
LINE
  8
0
 10
26.9184
 20
48.9585
 11
27.3864
 21
48.7375
  0
LINE
  8
0
 10
27.3864
 20
48.7375
 11
27.8004
 21
48.4425
  0
LINE
  8
0
 10
27.8004
 20
48.4425
 11
28.1541
 21
48.0755
  0
LINE
  8
0
 10
28.1541
 20
48.0755
 11
28.4414
 21
47.6385
  0
LINE
  8
0
 10
28.4414
 20
47.6385
 11
28.6506
 21
47.1432
  0
LINE
  8
0
 10
28.6506
 20
47.1432
 11
28.7704
 21
46.6015
  0
LINE
  8
0
 10
28.7704
 20
46.6015
 11
27.5634
 21
46.6015
  0
LINE
  8
0
 10
27.5634
 20
46.6015
 11
27.3244
 21
47.1807
  0
LINE
  8
0
 10
27.3244
 20
47.1807
 11
26.9394
 21
47.6205
  0
LINE
  8
0
 10
26.9394
 20
47.6205
 11
26.4406
 21
47.898
  0
LINE
  8
0
 10
26.4406
 20
47.898
 11
25.8584
 21
47.9905
  0
LINE
  8
0
 10
25.8584
 20
47.9905
 11
25.5519
 21
47.9655
  0
LINE
  8
0
 10
25.5519
 20
47.9655
 11
25.2664
 21
47.8905
  0
LINE
  8
0
 10
25.2664
 20
47.8905
 11
25.0046
 21
47.7697
  0
LINE
  8
0
 10
25.0046
 20
47.7697
 11
24.7674
 21
47.6075
  0
LINE
  8
0
 10
24.7674
 20
47.6075
 11
24.5599
 21
47.4057
  0
LINE
  8
0
 10
24.5599
 20
47.4057
 11
24.3854
 21
47.1665
  0
LINE
  8
0
 10
24.3854
 20
47.1665
 11
24.2501
 21
46.8967
  0
LINE
  8
0
 10
24.2501
 20
46.8967
 11
24.1604
 21
46.6015
  0
LINE
  8
0
 10
24.1604
 20
46.6015
 11
22.9544
 21
46.6015
  0
LINE
  8
0
 10
34.2284
 20
46.9955
 11
35.0764
 21
49.0145
  0
LINE
  8
0
 10
35.0764
 20
49.0145
 11
36.3574
 21
49.0315
  0
LINE
  8
0
 10
36.3574
 20
49.0315
 11
34.9264
 21
45.5665
  0
LINE
  8
0
 10
34.9264
 20
45.5665
 11
34.2284
 21
46.9955
  0
LINE
  8
0
 10
13.6324
 20
47.8625
 11
13.6324
 21
49.0145
  0
LINE
  8
0
 10
13.6324
 20
49.0145
 11
15.7214
 21
49.0145
  0
LINE
  8
0
 10
15.7214
 20
49.0145
 11
15.7214
 21
47.8625
  0
LINE
  8
0
 10
15.7214
 20
47.8625
 11
13.6324
 21
47.8625
  0
LINE
  8
0
 10
18.369
 20
43.4465
 11
18.369
 21
49.0145
  0
LINE
  8
0
 10
18.369
 20
49.0145
 11
19.567
 21
49.0145
  0
LINE
  8
0
 10
19.567
 20
49.0145
 11
19.567
 21
43.4465
  0
LINE
  8
0
 10
19.567
 20
43.4465
 11
18.369
 21
43.4465
  0
LINE
  8
0
 10
36.3938
 20
43.4465
 11
36.3938
 21
49.0145
  0
LINE
  8
0
 10
36.3938
 20
49.0145
 11
37.5928
 21
49.0145
  0
LINE
  8
0
 10
37.5928
 20
49.0145
 11
37.5928
 21
43.4465
  0
LINE
  8
0
 10
37.5928
 20
43.4465
 11
36.3938
 21
43.4465
  0
LINE
  8
0
 10
11.8104
 20
43.4465
 11
11.8104
 21
49.0145
  0
LINE
  8
0
 10
11.8104
 20
49.0145
 11
13.0084
 21
49.0145
  0
LINE
  8
0
 10
13.0084
 20
49.0145
 11
13.0084
 21
43.4465
  0
LINE
  8
0
 10
13.0084
 20
43.4465
 11
11.8104
 21
43.4465
  0
LINE
  8
0
 10
43.2619
 20
45.6225
 11
43.2619
 21
46.7745
  0
LINE
  8
0
 10
43.2619
 20
46.7745
 11
43.6529
 21
46.7745
  0
LINE
  8
0
 10
43.6529
 20
46.7745
 11
43.8339
 21
46.7777
  0
LINE
  8
0
 10
43.8339
 20
46.7777
 11
43.9609
 21
46.7875
  0
LINE
  8
0
 10
43.9609
 20
46.7875
 11
44.0589
 21
46.809
  0
LINE
  8
0
 10
44.0589
 20
46.809
 11
44.1529
 21
46.8455
  0
LINE
  8
0
 10
44.1529
 20
46.8455
 11
44.2724
 21
46.924
  0
LINE
  8
0
 10
44.2724
 20
46.924
 11
44.3649
 21
47.0355
  0
LINE
  8
0
 10
44.3649
 20
47.0355
 11
44.4241
 21
47.1712
  0
LINE
  8
0
 10
44.4241
 20
47.1712
 11
44.4439
 21
47.3225
  0
LINE
  8
0
 10
44.4439
 20
47.3225
 11
44.4291
 21
47.451
  0
LINE
  8
0
 10
44.4291
 20
47.451
 11
44.3849
 21
47.5705
  0
LINE
  8
0
 10
44.3849
 20
47.5705
 11
44.3186
 21
47.6745
  0
LINE
  8
0
 10
44.3186
 20
47.6745
 11
44.2359
 21
47.7565
  0
LINE
  8
0
 10
44.2359
 20
47.7565
 11
44.1389
 21
47.8085
  0
LINE
  8
0
 10
44.1389
 20
47.8085
 11
44.0319
 21
47.8405
  0
LINE
  8
0
 10
44.0319
 20
47.8405
 11
43.8959
 21
47.857
  0
LINE
  8
0
 10
43.8959
 20
47.857
 11
43.7119
 21
47.8625
  0
LINE
  8
0
 10
43.7119
 20
47.8625
 11
43.2619
 21
47.8625
  0
LINE
  8
0
 10
43.2619
 20
47.8625
 11
43.2619
 21
49.0145
  0
LINE
  8
0
 10
43.2619
 20
49.0145
 11
43.6369
 21
49.0145
  0
LINE
  8
0
 10
43.6369
 20
49.0145
 11
43.8874
 21
49.0092
  0
LINE
  8
0
 10
43.8874
 20
49.0092
 11
44.1069
 21
48.9935
  0
LINE
  8
0
 10
44.1069
 20
48.9935
 11
44.3024
 21
48.9652
  0
LINE
  8
0
 10
44.3024
 20
48.9652
 11
44.4809
 21
48.9225
  0
LINE
  8
0
 10
44.4809
 20
48.9225
 11
44.6434
 21
48.864
  0
LINE
  8
0
 10
44.6434
 20
48.864
 11
44.7889
 21
48.7885
  0
LINE
  8
0
 10
44.7889
 20
48.7885
 11
44.9249
 21
48.6962
  0
LINE
  8
0
 10
44.9249
 20
48.6962
 11
45.0589
 21
48.5875
  0
LINE
  8
0
 10
45.0589
 20
48.5875
 11
45.2964
 21
48.3235
  0
LINE
  8
0
 10
45.2964
 20
48.3235
 11
45.4749
 21
48.0175
  0
LINE
  8
0
 10
45.4749
 20
48.0175
 11
45.5874
 21
47.6807
  0
LINE
  8
0
 10
45.5874
 20
47.6807
 11
45.6249
 21
47.3225
  0
LINE
  8
0
 10
45.6249
 20
47.3225
 11
45.5821
 21
46.9388
  0
LINE
  8
0
 10
45.5821
 20
46.9388
 11
45.4539
 21
46.5735
  0
LINE
  8
0
 10
45.4539
 20
46.5735
 11
45.2494
 21
46.2457
  0
LINE
  8
0
 10
45.2494
 20
46.2457
 11
44.9759
 21
45.9745
  0
LINE
  8
0
 10
44.9759
 20
45.9745
 11
44.7244
 21
45.8098
  0
LINE
  8
0
 10
44.7244
 20
45.8098
 11
44.4519
 21
45.7015
  0
LINE
  8
0
 10
44.4519
 20
45.7015
 11
44.1274
 21
45.6423
  0
LINE
  8
0
 10
44.1274
 20
45.6423
 11
43.7199
 21
45.6225
  0
LINE
  8
0
 10
43.7199
 20
45.6225
 11
43.2619
 21
45.6225
  0
LINE
  8
0
 10
41.3899
 20
43.4465
 11
41.3899
 21
49.0145
  0
LINE
  8
0
 10
41.3899
 20
49.0145
 11
42.5889
 21
49.0145
  0
LINE
  8
0
 10
42.5889
 20
49.0145
 11
42.5889
 21
43.4465
  0
LINE
  8
0
 10
42.5889
 20
43.4465
 11
41.3899
 21
43.4465
  0
LINE
  8
0
 10
20.241
 20
45.6225
 11
20.241
 21
46.7745
  0
LINE
  8
0
 10
20.241
 20
46.7745
 11
20.632
 21
46.7745
  0
LINE
  8
0
 10
20.632
 20
46.7745
 11
20.813
 21
46.7777
  0
LINE
  8
0
 10
20.813
 20
46.7777
 11
20.94
 21
46.7875
  0
LINE
  8
0
 10
20.94
 20
46.7875
 11
21.0378
 21
46.809
  0
LINE
  8
0
 10
21.0378
 20
46.809
 11
21.131
 21
46.8455
  0
LINE
  8
0
 10
21.131
 20
46.8455
 11
21.2513
 21
46.924
  0
LINE
  8
0
 10
21.2513
 20
46.924
 11
21.344
 21
47.0355
  0
LINE
  8
0
 10
21.344
 20
47.0355
 11
21.4033
 21
47.1712
  0
LINE
  8
0
 10
21.4033
 20
47.1712
 11
21.423
 21
47.3225
  0
LINE
  8
0
 10
21.423
 20
47.3225
 11
21.4083
 21
47.451
  0
LINE
  8
0
 10
21.4083
 20
47.451
 11
21.364
 21
47.5705
  0
LINE
  8
0
 10
21.364
 20
47.5705
 11
21.2978
 21
47.6745
  0
LINE
  8
0
 10
21.2978
 20
47.6745
 11
21.215
 21
47.7565
  0
LINE
  8
0
 10
21.215
 20
47.7565
 11
21.1178
 21
47.8085
  0
LINE
  8
0
 10
21.1178
 20
47.8085
 11
21.01
 21
47.8405
  0
LINE
  8
0
 10
21.01
 20
47.8405
 11
20.874
 21
47.857
  0
LINE
  8
0
 10
20.874
 20
47.857
 11
20.69
 21
47.8625
  0
LINE
  8
0
 10
20.69
 20
47.8625
 11
20.241
 21
47.8625
  0
LINE
  8
0
 10
20.241
 20
47.8625
 11
20.241
 21
49.0145
  0
LINE
  8
0
 10
20.241
 20
49.0145
 11
20.616
 21
49.0145
  0
LINE
  8
0
 10
20.616
 20
49.0145
 11
20.8665
 21
49.0092
  0
LINE
  8
0
 10
20.8665
 20
49.0092
 11
21.086
 21
48.9935
  0
LINE
  8
0
 10
21.086
 20
48.9935
 11
21.2815
 21
48.9652
  0
LINE
  8
0
 10
21.2815
 20
48.9652
 11
21.46
 21
48.9225
  0
LINE
  8
0
 10
21.46
 20
48.9225
 11
21.6225
 21
48.864
  0
LINE
  8
0
 10
21.6225
 20
48.864
 11
21.768
 21
48.7885
  0
LINE
  8
0
 10
21.768
 20
48.7885
 11
21.904
 21
48.6962
  0
LINE
  8
0
 10
21.904
 20
48.6962
 11
22.038
 21
48.5875
  0
LINE
  8
0
 10
22.038
 20
48.5875
 11
22.2755
 21
48.3235
  0
LINE
  8
0
 10
22.2755
 20
48.3235
 11
22.454
 21
48.0175
  0
LINE
  8
0
 10
22.454
 20
48.0175
 11
22.5665
 21
47.6807
  0
LINE
  8
0
 10
22.5665
 20
47.6807
 11
22.604
 21
47.3225
  0
LINE
  8
0
 10
22.604
 20
47.3225
 11
22.5613
 21
46.9388
  0
LINE
  8
0
 10
22.5613
 20
46.9388
 11
22.433
 21
46.5735
  0
LINE
  8
0
 10
22.433
 20
46.5735
 11
22.2285
 21
46.2457
  0
LINE
  8
0
 10
22.2285
 20
46.2457
 11
21.955
 21
45.9745
  0
LINE
  8
0
 10
21.955
 20
45.9745
 11
21.7035
 21
45.8098
  0
LINE
  8
0
 10
21.7035
 20
45.8098
 11
21.431
 21
45.7015
  0
LINE
  8
0
 10
21.431
 20
45.7015
 11
21.1065
 21
45.6423
  0
LINE
  8
0
 10
21.1065
 20
45.6423
 11
20.699
 21
45.6225
  0
LINE
  8
0
 10
20.699
 20
45.6225
 11
20.241
 21
45.6225
  0
LINE
  8
0
 10
6.90456
 20
43.4465
 11
6.90456
 21
49.0145
  0
LINE
  8
0
 10
6.90456
 20
49.0145
 11
8.10356
 21
49.0145
  0
LINE
  8
0
 10
8.10356
 20
49.0145
 11
8.10356
 21
43.4465
  0
LINE
  8
0
 10
8.10356
 20
43.4465
 11
6.90456
 21
43.4465
  0
LINE
  8
0
 10
38.2748
 20
47.8625
 11
38.2748
 21
49.0145
  0
LINE
  8
0
 10
38.2748
 20
49.0145
 11
40.4628
 21
49.0145
  0
LINE
  8
0
 10
40.4628
 20
49.0145
 11
40.4628
 21
47.8625
  0
LINE
  8
0
 10
40.4628
 20
47.8625
 11
38.2748
 21
47.8625
  0
LINE
  8
0
 10
28.5284
 20
49.0145
 11
29.8184
 21
49.0145
  0
LINE
  8
0
 10
29.8184
 20
49.0145
 11
31.5984
 21
44.6865
  0
LINE
  8
0
 10
31.5984
 20
44.6865
 11
30.9084
 21
43.2545
  0
LINE
  8
0
 10
30.9084
 20
43.2545
 11
28.5284
 21
49.0145
  0
LINE
  8
0
 10
8.77655
 20
45.6225
 11
8.77655
 21
46.7745
  0
LINE
  8
0
 10
8.77655
 20
46.7745
 11
9.16756
 21
46.7745
  0
LINE
  8
0
 10
9.16756
 20
46.7745
 11
9.34856
 21
46.7777
  0
LINE
  8
0
 10
9.34856
 20
46.7777
 11
9.47556
 21
46.7875
  0
LINE
  8
0
 10
9.47556
 20
46.7875
 11
9.57356
 21
46.809
  0
LINE
  8
0
 10
9.57356
 20
46.809
 11
9.66756
 21
46.8455
  0
LINE
  8
0
 10
9.66756
 20
46.8455
 11
9.78706
 21
46.924
  0
LINE
  8
0
 10
9.78706
 20
46.924
 11
9.87956
 21
47.0355
  0
LINE
  8
0
 10
9.87956
 20
47.0355
 11
9.93881
 21
47.1712
  0
LINE
  8
0
 10
9.93881
 20
47.1712
 11
9.95856
 21
47.3225
  0
LINE
  8
0
 10
9.95856
 20
47.3225
 11
9.9438
 21
47.451
  0
LINE
  8
0
 10
9.9438
 20
47.451
 11
9.89955
 21
47.5705
  0
LINE
  8
0
 10
9.89955
 20
47.5705
 11
9.83331
 21
47.6745
  0
LINE
  8
0
 10
9.83331
 20
47.6745
 11
9.75056
 21
47.7565
  0
LINE
  8
0
 10
9.75056
 20
47.7565
 11
9.65356
 21
47.8085
  0
LINE
  8
0
 10
9.65356
 20
47.8085
 11
9.54655
 21
47.8405
  0
LINE
  8
0
 10
9.54655
 20
47.8405
 11
9.41055
 21
47.857
  0
LINE
  8
0
 10
9.41055
 20
47.857
 11
9.22656
 21
47.8625
  0
LINE
  8
0
 10
9.22656
 20
47.8625
 11
8.77655
 21
47.8625
  0
LINE
  8
0
 10
8.77655
 20
47.8625
 11
8.77655
 21
49.0145
  0
LINE
  8
0
 10
8.77655
 20
49.0145
 11
9.15155
 21
49.0145
  0
LINE
  8
0
 10
9.15155
 20
49.0145
 11
9.40205
 21
49.0092
  0
LINE
  8
0
 10
9.40205
 20
49.0092
 11
9.62155
 21
48.9935
  0
LINE
  8
0
 10
9.62155
 20
48.9935
 11
9.81706
 21
48.9652
  0
LINE
  8
0
 10
9.81706
 20
48.9652
 11
9.99556
 21
48.9225
  0
LINE
  8
0
 10
9.99556
 20
48.9225
 11
10.1581
 21
48.864
  0
LINE
  8
0
 10
10.1581
 20
48.864
 11
10.3036
 21
48.7885
  0
LINE
  8
0
 10
10.3036
 20
48.7885
 11
10.4396
 21
48.6962
  0
LINE
  8
0
 10
10.4396
 20
48.6962
 11
10.5736
 21
48.5875
  0
LINE
  8
0
 10
10.5736
 20
48.5875
 11
10.8111
 21
48.3235
  0
LINE
  8
0
 10
10.8111
 20
48.3235
 11
10.9896
 21
48.0175
  0
LINE
  8
0
 10
10.9896
 20
48.0175
 11
11.1021
 21
47.6807
  0
LINE
  8
0
 10
11.1021
 20
47.6807
 11
11.1396
 21
47.3225
  0
LINE
  8
0
 10
11.1396
 20
47.3225
 11
11.0968
 21
46.9388
  0
LINE
  8
0
 10
11.0968
 20
46.9388
 11
10.9686
 21
46.5735
  0
LINE
  8
0
 10
10.9686
 20
46.5735
 11
10.7641
 21
46.2457
  0
LINE
  8
0
 10
10.7641
 20
46.2457
 11
10.4906
 21
45.9745
  0
LINE
  8
0
 10
10.4906
 20
45.9745
 11
10.2391
 21
45.8098
  0
LINE
  8
0
 10
10.2391
 20
45.8098
 11
9.96655
 21
45.7015
  0
LINE
  8
0
 10
9.96655
 20
45.7015
 11
9.64206
 21
45.6423
  0
LINE
  8
0
 10
9.64206
 20
45.6423
 11
9.23456
 21
45.6225
  0
LINE
  8
0
 10
9.23456
 20
45.6225
 11
8.77655
 21
45.6225
  0
LINE
  8
0
 10
13.6324
 20
45.6225
 11
13.6324
 21
46.7745
  0
LINE
  8
0
 10
13.6324
 20
46.7745
 11
15.7214
 21
46.7745
  0
LINE
  8
0
 10
15.7214
 20
46.7745
 11
15.7214
 21
45.6225
  0
LINE
  8
0
 10
15.7214
 20
45.6225
 11
13.6324
 21
45.6225
  0
LINE
  8
0
 10
38.2748
 20
45.6225
 11
38.2748
 21
46.7745
  0
LINE
  8
0
 10
38.2748
 20
46.7745
 11
40.4628
 21
46.7745
  0
LINE
  8
0
 10
40.4628
 20
46.7745
 11
40.4628
 21
45.6225
  0
LINE
  8
0
 10
40.4628
 20
45.6225
 11
38.2748
 21
45.6225
  0
LINE
  8
0
 10
25.3231
 20
43.3655
 11
24.8094
 21
43.5065
  0
LINE
  8
0
 10
24.8094
 20
43.5065
 11
24.3374
 21
43.7315
  0
LINE
  8
0
 10
24.3374
 20
43.7315
 11
23.9194
 21
44.0305
  0
LINE
  8
0
 10
23.9194
 20
44.0305
 11
23.5626
 21
44.4005
  0
LINE
  8
0
 10
23.5626
 20
44.4005
 11
23.2744
 21
44.8385
  0
LINE
  8
0
 10
23.2744
 20
44.8385
 11
23.0674
 21
45.3305
  0
LINE
  8
0
 10
23.0674
 20
45.3305
 11
22.9544
 21
45.8605
  0
LINE
  8
0
 10
22.9544
 20
45.8605
 11
24.1604
 21
45.8605
  0
LINE
  8
0
 10
24.1604
 20
45.8605
 11
24.2501
 21
45.56
  0
LINE
  8
0
 10
24.2501
 20
45.56
 11
24.3854
 21
45.2905
  0
LINE
  8
0
 10
24.3854
 20
45.2905
 11
24.5599
 21
45.0543
  0
LINE
  8
0
 10
24.5599
 20
45.0543
 11
24.7674
 21
44.8535
  0
LINE
  8
0
 10
24.7674
 20
44.8535
 11
25.0046
 21
44.6913
  0
LINE
  8
0
 10
25.0046
 20
44.6913
 11
25.2664
 21
44.5705
  0
LINE
  8
0
 10
25.2664
 20
44.5705
 11
25.5519
 21
44.4955
  0
LINE
  8
0
 10
25.5519
 20
44.4955
 11
25.8584
 21
44.4705
  0
LINE
  8
0
 10
25.8584
 20
44.4705
 11
26.4406
 21
44.563
  0
LINE
  8
0
 10
26.4406
 20
44.563
 11
26.9394
 21
44.8405
  0
LINE
  8
0
 10
26.9394
 20
44.8405
 11
27.3244
 21
45.281
  0
LINE
  8
0
 10
27.3244
 20
45.281
 11
27.5634
 21
45.8605
  0
LINE
  8
0
 10
27.5634
 20
45.8605
 11
28.7704
 21
45.8605
  0
LINE
  8
0
 10
28.7704
 20
45.8605
 11
28.6506
 21
45.318
  0
LINE
  8
0
 10
28.6506
 20
45.318
 11
28.4414
 21
44.8225
  0
LINE
  8
0
 10
28.4414
 20
44.8225
 11
28.1541
 21
44.3855
  0
LINE
  8
0
 10
28.1541
 20
44.3855
 11
27.8004
 21
44.0185
  0
LINE
  8
0
 10
27.8004
 20
44.0185
 11
27.3864
 21
43.7235
  0
LINE
  8
0
 10
27.3864
 20
43.7235
 11
26.9184
 21
43.5025
  0
LINE
  8
0
 10
26.9184
 20
43.5025
 11
26.4079
 21
43.3645
  0
LINE
  8
0
 10
26.4079
 20
43.3645
 11
25.8664
 21
43.3185
  0
LINE
  8
0
 10
25.8664
 20
43.3185
 11
25.3231
 21
43.3655
  0
LINE
  8
0
 10
44.3349
 20
43.4465
 11
43.7279
 21
45.1525
  0
LINE
  8
0
 10
43.7279
 20
45.1525
 11
44.0826
 21
45.173
  0
LINE
  8
0
 10
44.0826
 20
45.173
 11
44.3809
 21
45.2185
  0
LINE
  8
0
 10
44.3809
 20
45.2185
 11
44.6484
 21
45.2955
  0
LINE
  8
0
 10
44.6484
 20
45.2955
 11
44.9089
 21
45.4105
  0
LINE
  8
0
 10
44.9089
 20
45.4105
 11
45.5999
 21
43.4465
  0
LINE
  8
0
 10
45.5999
 20
43.4465
 11
44.3349
 21
43.4465
  0
LINE
  8
0
 10
9.84956
 20
43.4465
 11
9.24255
 21
45.1525
  0
LINE
  8
0
 10
9.24255
 20
45.1525
 11
9.59731
 21
45.173
  0
LINE
  8
0
 10
9.59731
 20
45.173
 11
9.89555
 21
45.2185
  0
LINE
  8
0
 10
9.89555
 20
45.2185
 11
10.1631
 21
45.2955
  0
LINE
  8
0
 10
10.1631
 20
45.2955
 11
10.4236
 21
45.4105
  0
LINE
  8
0
 10
10.4236
 20
45.4105
 11
11.1146
 21
43.4465
  0
LINE
  8
0
 10
11.1146
 20
43.4465
 11
9.84956
 21
43.4465
  0
LINE
  8
0
 10
38.2748
 20
43.4465
 11
38.2748
 21
44.5985
  0
LINE
  8
0
 10
38.2748
 20
44.5985
 11
40.4628
 21
44.5985
  0
LINE
  8
0
 10
40.4628
 20
44.5985
 11
40.4628
 21
43.4465
  0
LINE
  8
0
 10
40.4628
 20
43.4465
 11
38.2748
 21
43.4465
  0
LINE
  8
0
 10
34.769
 20
34.4778
 11
34.371
 21
35.2458
  0
LINE
  8
0
 10
34.371
 20
35.2458
 11
32.976
 21
35.2458
  0
LINE
  8
0
 10
32.976
 20
35.2458
 11
33.471
 21
36.2057
  0
LINE
  8
0
 10
33.471
 20
36.2057
 11
33.869
 21
36.2057
  0
LINE
  8
0
 10
33.869
 20
36.2057
 11
32.816
 21
38.2357
  0
LINE
  8
0
 10
32.816
 20
38.2357
 11
33.381
 21
39.3237
  0
LINE
  8
0
 10
33.381
 20
39.3237
 11
35.899
 21
34.4778
  0
LINE
  8
0
 10
35.899
 20
34.4778
 11
34.769
 21
34.4778
  0
LINE
  8
0
 10
23.7114
 20
38.5332
 11
23.7114
 21
38.1897
  0
LINE
  8
0
 10
23.7114
 20
38.1897
 11
21.8764
 21
38.1897
  0
LINE
  8
0
 10
21.8764
 20
38.1897
 11
21.8764
 21
39.1497
  0
LINE
  8
0
 10
21.8764
 20
39.1497
 11
23.7114
 21
39.1497
  0
LINE
  8
0
 10
23.7114
 20
39.1497
 11
23.7114
 21
39.1447
  0
LINE
  8
0
 10
23.7114
 20
39.1447
 11
24.5195
 21
39.1447
  0
LINE
  8
0
 10
24.5195
 20
39.1447
 11
26.4725
 21
35.3498
  0
LINE
  8
0
 10
26.4725
 20
35.3498
 11
25.9075
 21
34.2688
  0
LINE
  8
0
 10
25.9075
 20
34.2688
 11
23.7114
 21
38.5332
  0
LINE
  8
0
 10
20.2994
 20
34.4778
 11
20.2994
 21
39.1497
  0
LINE
  8
0
 10
20.2994
 20
39.1497
 11
21.3044
 21
39.1497
  0
LINE
  8
0
 10
21.3044
 20
39.1497
 11
21.3044
 21
34.4778
  0
LINE
  8
0
 10
21.3044
 20
34.4778
 11
20.2994
 21
34.4778
  0
LINE
  8
0
 10
17.7327
 20
36.3337
 11
17.7327
 21
37.2937
  0
LINE
  8
0
 10
17.7327
 20
37.2937
 11
18.0607
 21
37.2937
  0
LINE
  8
0
 10
18.0607
 20
37.2937
 11
18.2122
 21
37.2965
  0
LINE
  8
0
 10
18.2122
 20
37.2965
 11
18.3187
 21
37.3047
  0
LINE
  8
0
 10
18.3187
 20
37.3047
 11
18.4007
 21
37.322
  0
LINE
  8
0
 10
18.4007
 20
37.322
 11
18.4787
 21
37.3517
  0
LINE
  8
0
 10
18.4787
 20
37.3517
 11
18.5792
 21
37.4165
  0
LINE
  8
0
 10
18.5792
 20
37.4165
 11
18.6567
 21
37.5087
  0
LINE
  8
0
 10
18.6567
 20
37.5087
 11
18.707
 21
37.621
  0
LINE
  8
0
 10
18.707
 20
37.621
 11
18.7237
 21
37.7457
  0
LINE
  8
0
 10
18.7237
 20
37.7457
 11
18.7115
 21
37.851
  0
LINE
  8
0
 10
18.7115
 20
37.851
 11
18.6747
 21
37.9487
  0
LINE
  8
0
 10
18.6747
 20
37.9487
 11
18.6187
 21
38.0347
  0
LINE
  8
0
 10
18.6187
 20
38.0347
 11
18.5487
 21
38.1028
  0
LINE
  8
0
 10
18.5487
 20
38.1028
 11
18.4675
 21
38.1455
  0
LINE
  8
0
 10
18.4675
 20
38.1455
 11
18.3777
 21
38.1717
  0
LINE
  8
0
 10
18.3777
 20
38.1717
 11
18.2637
 21
38.1852
  0
LINE
  8
0
 10
18.2637
 20
38.1852
 11
18.1097
 21
38.1897
  0
LINE
  8
0
 10
18.1097
 20
38.1897
 11
17.7327
 21
38.1897
  0
LINE
  8
0
 10
17.7327
 20
38.1897
 11
17.7327
 21
39.1497
  0
LINE
  8
0
 10
17.7327
 20
39.1497
 11
18.0467
 21
39.1497
  0
LINE
  8
0
 10
18.0467
 20
39.1497
 11
18.2567
 21
39.1452
  0
LINE
  8
0
 10
18.2567
 20
39.1452
 11
18.4407
 21
39.1317
  0
LINE
  8
0
 10
18.4407
 20
39.1317
 11
18.6047
 21
39.1085
  0
LINE
  8
0
 10
18.6047
 20
39.1085
 11
18.7547
 21
39.0727
  0
LINE
  8
0
 10
18.7547
 20
39.0727
 11
18.8907
 21
39.0245
  0
LINE
  8
0
 10
18.8907
 20
39.0245
 11
19.0127
 21
38.9617
  0
LINE
  8
0
 10
19.0127
 20
38.9617
 11
19.127
 21
38.8855
  0
LINE
  8
0
 10
19.127
 20
38.8855
 11
19.2397
 21
38.7947
  0
LINE
  8
0
 10
19.2397
 20
38.7947
 11
19.4382
 21
38.576
  0
LINE
  8
0
 10
19.4382
 20
38.576
 11
19.5877
 21
38.3217
  0
LINE
  8
0
 10
19.5877
 20
38.3217
 11
19.6822
 21
38.042
  0
LINE
  8
0
 10
19.6822
 20
38.042
 11
19.7137
 21
37.7448
  0
LINE
  8
0
 10
19.7137
 20
37.7448
 11
19.6779
 21
37.4262
  0
LINE
  8
0
 10
19.6779
 20
37.4262
 11
19.5707
 21
37.1227
  0
LINE
  8
0
 10
19.5707
 20
37.1227
 11
19.399
 21
36.851
  0
LINE
  8
0
 10
19.399
 20
36.851
 11
19.1697
 21
36.6257
  0
LINE
  8
0
 10
19.1697
 20
36.6257
 11
18.9587
 21
36.4892
  0
LINE
  8
0
 10
18.9587
 20
36.4892
 11
18.7297
 21
36.3997
  0
LINE
  8
0
 10
18.7297
 20
36.3997
 11
18.4579
 21
36.3503
  0
LINE
  8
0
 10
18.4579
 20
36.3503
 11
18.1167
 21
36.3337
  0
LINE
  8
0
 10
18.1167
 20
36.3337
 11
17.7327
 21
36.3337
  0
LINE
  8
0
 10
16.1627
 20
34.4778
 11
16.1627
 21
39.1497
  0
LINE
  8
0
 10
16.1627
 20
39.1497
 11
17.1677
 21
39.1497
  0
LINE
  8
0
 10
17.1677
 20
39.1497
 11
17.1677
 21
34.4778
  0
LINE
  8
0
 10
17.1677
 20
34.4778
 11
16.1627
 21
34.4778
  0
LINE
  8
0
 10
26.2215
 20
37.0517
 11
27.3035
 21
39.1447
  0
LINE
  8
0
 10
27.3035
 20
39.1447
 11
28.4265
 21
39.1447
  0
LINE
  8
0
 10
28.4265
 20
39.1447
 11
26.7865
 21
35.9638
  0
LINE
  8
0
 10
26.7865
 20
35.9638
 11
26.2215
 21
37.0517
  0
LINE
  8
0
 10
30.876
 20
34.4778
 11
32.516
 21
37.6657
  0
LINE
  8
0
 10
32.516
 20
37.6657
 11
33.074
 21
36.5707
  0
LINE
  8
0
 10
33.074
 20
36.5707
 11
31.999
 21
34.4778
  0
LINE
  8
0
 10
31.999
 20
34.4778
 11
30.876
 21
34.4778
  0
LINE
  8
0
 10
21.8764
 20
36.3337
 11
21.8764
 21
37.2937
  0
LINE
  8
0
 10
21.8764
 20
37.2937
 11
23.7114
 21
37.2937
  0
LINE
  8
0
 10
23.7114
 20
37.2937
 11
23.7114
 21
36.3337
  0
LINE
  8
0
 10
23.7114
 20
36.3337
 11
21.8764
 21
36.3337
  0
LINE
  8
0
 10
18.6327
 20
34.4778
 11
18.1237
 21
35.9098
  0
LINE
  8
0
 10
18.1237
 20
35.9098
 11
18.4209
 21
35.9273
  0
LINE
  8
0
 10
18.4209
 20
35.9273
 11
18.6707
 21
35.9658
  0
LINE
  8
0
 10
18.6707
 20
35.9658
 11
18.895
 21
36.0303
  0
LINE
  8
0
 10
18.895
 20
36.0303
 11
19.1137
 21
36.1258
  0
LINE
  8
0
 10
19.1137
 20
36.1258
 11
19.6927
 21
34.4778
  0
LINE
  8
0
 10
19.6927
 20
34.4778
 11
18.6327
 21
34.4778
  0
LINE
  8
0
 10
21.8764
 20
34.4778
 11
21.8764
 21
35.4378
  0
LINE
  8
0
 10
21.8764
 20
35.4378
 11
23.7114
 21
35.4378
  0
LINE
  8
0
 10
23.7114
 20
35.4378
 11
23.7114
 21
34.4778
  0
LINE
  8
0
 10
23.7114
 20
34.4778
 11
21.8764
 21
34.4778
  0
LINE
  8
0
 10
27.8344
 20
33.1338
 11
27.8344
 21
34.0938
  0
LINE
  8
0
 10
27.8344
 20
34.0938
 11
31.3224
 21
34.0938
  0
LINE
  8
0
 10
31.3224
 20
34.0938
 11
31.3224
 21
33.1338
  0
LINE
  8
0
 10
31.3224
 20
33.1338
 11
27.8344
 21
33.1338
  0
LINE
  8
0
 10
18.4728
 20
18.45
 11
18.4639
 21
18.4511
  0
LINE
  8
0
 10
18.4639
 20
18.4511
 11
18.4515
 21
18.4581
  0
LINE
  8
0
 10
18.4515
 20
18.4581
 11
18.4502
 21
18.4632
  0
LINE
  8
0
 10
18.4502
 20
18.4632
 11
18.4502
 21
22.0368
  0
LINE
  8
0
 10
18.4502
 20
22.0368
 11
18.4515
 21
22.0419
  0
LINE
  8
0
 10
18.4515
 20
22.0419
 11
18.4639
 21
22.0489
  0
LINE
  8
0
 10
18.4639
 20
22.0489
 11
18.4728
 21
22.0499
  0
LINE
  8
0
 10
18.4728
 20
22.0499
 11
26.7275
 21
22.0499
  0
LINE
  8
0
 10
26.7275
 20
22.0499
 11
26.7359
 21
22.0489
  0
LINE
  8
0
 10
26.7359
 20
22.0489
 11
26.7483
 21
22.0419
  0
LINE
  8
0
 10
26.7483
 20
22.0419
 11
26.7501
 21
22.0368
  0
LINE
  8
0
 10
26.7501
 20
22.0368
 11
26.7501
 21
18.4632
  0
LINE
  8
0
 10
26.7501
 20
18.4632
 11
26.7483
 21
18.4581
  0
LINE
  8
0
 10
26.7483
 20
18.4581
 11
26.7359
 21
18.4511
  0
LINE
  8
0
 10
26.7359
 20
18.4511
 11
26.7275
 21
18.45
  0
LINE
  8
0
 10
26.7275
 20
18.45
 11
18.4728
 21
18.45
  0
LINE
  8
0
 10
417.402
 20
57.6135
 11
418.482
 21
58.2372
  0
LINE
  8
0
 10
418.482
 20
58.2372
 11
419.216
 21
59.2465
  0
LINE
  8
0
 10
419.216
 20
59.2465
 11
419.475
 21
60.4667
  0
LINE
  8
0
 10
419.475
 20
60.4667
 11
419.216
 21
61.6869
  0
LINE
  8
0
 10
419.216
 20
61.6869
 11
418.482
 21
62.6961
  0
LINE
  8
0
 10
418.482
 20
62.6961
 11
417.402
 21
63.3198
  0
LINE
  8
0
 10
417.402
 20
63.3198
 11
416.161
 21
63.4502
  0
LINE
  8
0
 10
416.161
 20
63.4502
 11
394.961
 21
63.4502
  0
LINE
  8
0
 10
394.961
 20
63.4502
 11
393.775
 21
63.0647
  0
LINE
  8
0
 10
393.775
 20
63.0647
 11
392.848
 21
62.23
  0
LINE
  8
0
 10
392.848
 20
62.23
 11
392.341
 21
61.0904
  0
LINE
  8
0
 10
392.341
 20
61.0904
 11
392.341
 21
59.8429
  0
LINE
  8
0
 10
392.341
 20
59.8429
 11
392.848
 21
58.7033
  0
LINE
  8
0
 10
392.848
 20
58.7033
 11
393.775
 21
57.8686
  0
LINE
  8
0
 10
393.775
 20
57.8686
 11
394.961
 21
57.4831
  0
LINE
  8
0
 10
394.961
 20
57.4831
 11
416.161
 21
57.4831
  0
LINE
  8
0
 10
416.161
 20
57.4831
 11
417.402
 21
57.6135
  0
LINE
  8
0
 10
394.781
 20
58.945
 11
394.335
 21
59.1722
  0
LINE
  8
0
 10
394.335
 20
59.1722
 11
393.981
 21
59.5262
  0
LINE
  8
0
 10
393.981
 20
59.5262
 11
393.753
 21
59.9722
  0
LINE
  8
0
 10
393.753
 20
59.9722
 11
393.675
 21
60.4667
  0
LINE
  8
0
 10
393.675
 20
60.4667
 11
393.753
 21
60.9611
  0
LINE
  8
0
 10
393.753
 20
60.9611
 11
393.981
 21
61.4071
  0
LINE
  8
0
 10
393.981
 20
61.4071
 11
394.335
 21
61.7611
  0
LINE
  8
0
 10
394.335
 20
61.7611
 11
394.781
 21
61.9883
  0
LINE
  8
0
 10
394.781
 20
61.9883
 11
395.275
 21
62.0667
  0
LINE
  8
0
 10
395.275
 20
62.0667
 11
395.769
 21
61.9883
  0
LINE
  8
0
 10
395.769
 20
61.9883
 11
396.215
 21
61.7611
  0
LINE
  8
0
 10
396.215
 20
61.7611
 11
396.569
 21
61.4071
  0
LINE
  8
0
 10
396.569
 20
61.4071
 11
396.797
 21
60.9611
  0
LINE
  8
0
 10
396.797
 20
60.9611
 11
396.875
 21
60.4667
  0
LINE
  8
0
 10
396.875
 20
60.4667
 11
396.797
 21
59.9722
  0
LINE
  8
0
 10
396.797
 20
59.9722
 11
396.569
 21
59.5262
  0
LINE
  8
0
 10
396.569
 20
59.5262
 11
396.215
 21
59.1722
  0
LINE
  8
0
 10
396.215
 20
59.1722
 11
395.769
 21
58.945
  0
LINE
  8
0
 10
395.769
 20
58.945
 11
395.275
 21
58.8667
  0
LINE
  8
0
 10
395.275
 20
58.8667
 11
394.781
 21
58.945
  0
LINE
  8
0
 10
415.981
 20
58.945
 11
415.535
 21
59.1722
  0
LINE
  8
0
 10
415.535
 20
59.1722
 11
415.181
 21
59.5262
  0
LINE
  8
0
 10
415.181
 20
59.5262
 11
414.953
 21
59.9722
  0
LINE
  8
0
 10
414.953
 20
59.9722
 11
414.875
 21
60.4667
  0
LINE
  8
0
 10
414.875
 20
60.4667
 11
414.953
 21
60.9611
  0
LINE
  8
0
 10
414.953
 20
60.9611
 11
415.181
 21
61.4071
  0
LINE
  8
0
 10
415.181
 20
61.4071
 11
415.535
 21
61.7611
  0
LINE
  8
0
 10
415.535
 20
61.7611
 11
415.981
 21
61.9883
  0
LINE
  8
0
 10
415.981
 20
61.9883
 11
416.475
 21
62.0667
  0
LINE
  8
0
 10
416.475
 20
62.0667
 11
416.969
 21
61.9883
  0
LINE
  8
0
 10
416.969
 20
61.9883
 11
417.415
 21
61.7611
  0
LINE
  8
0
 10
417.415
 20
61.7611
 11
417.769
 21
61.4071
  0
LINE
  8
0
 10
417.769
 20
61.4071
 11
417.997
 21
60.9611
  0
LINE
  8
0
 10
417.997
 20
60.9611
 11
418.075
 21
60.4667
  0
LINE
  8
0
 10
418.075
 20
60.4667
 11
417.997
 21
59.9722
  0
LINE
  8
0
 10
417.997
 20
59.9722
 11
417.769
 21
59.5262
  0
LINE
  8
0
 10
417.769
 20
59.5262
 11
417.415
 21
59.1722
  0
LINE
  8
0
 10
417.415
 20
59.1722
 11
416.969
 21
58.945
  0
LINE
  8
0
 10
416.969
 20
58.945
 11
416.475
 21
58.8667
  0
LINE
  8
0
 10
416.475
 20
58.8667
 11
415.981
 21
58.945
  0
LINE
  8
0
 10
422.408
 20
44.8667
 11
437.475
 21
44.8667
  0
LINE
  8
0
 10
437.475
 20
44.8667
 11
437.475
 21
52.4666
  0
LINE
  8
0
 10
437.475
 20
52.4666
 11
434.475
 21
52.4666
  0
LINE
  8
0
 10
434.475
 20
52.4666
 11
434.475
 21
48.6666
  0
LINE
  8
0
 10
434.475
 20
48.6666
 11
431.475
 21
48.6666
  0
LINE
  8
0
 10
431.475
 20
48.6666
 11
431.475
 21
52.4666
  0
LINE
  8
0
 10
431.475
 20
52.4666
 11
422.408
 21
52.4666
  0
LINE
  8
0
 10
422.408
 20
52.4666
 11
422.408
 21
55.4666
  0
LINE
  8
0
 10
422.408
 20
55.4666
 11
407.342
 21
55.4666
  0
LINE
  8
0
 10
407.342
 20
55.4666
 11
407.342
 21
52.4666
  0
LINE
  8
0
 10
407.342
 20
52.4666
 11
398.275
 21
52.4666
  0
LINE
  8
0
 10
398.275
 20
52.4666
 11
398.275
 21
48.6666
  0
LINE
  8
0
 10
398.275
 20
48.6666
 11
395.275
 21
48.6666
  0
LINE
  8
0
 10
395.275
 20
48.6666
 11
395.275
 21
52.4666
  0
LINE
  8
0
 10
395.275
 20
52.4666
 11
392.275
 21
52.4666
  0
LINE
  8
0
 10
392.275
 20
52.4666
 11
392.275
 21
44.8667
  0
LINE
  8
0
 10
392.275
 20
44.8667
 11
407.342
 21
44.8667
  0
LINE
  8
0
 10
407.342
 20
44.8667
 11
407.342
 21
41.8667
  0
LINE
  8
0
 10
407.342
 20
41.8667
 11
422.408
 21
41.8667
  0
LINE
  8
0
 10
422.408
 20
41.8667
 11
422.408
 21
44.8667
  0
LINE
  8
0
 10
55.5163
 20
47.6205
 11
55.0176
 21
47.898
  0
LINE
  8
0
 10
55.0176
 20
47.898
 11
54.4353
 21
47.9905
  0
LINE
  8
0
 10
54.4353
 20
47.9905
 11
54.1288
 21
47.9655
  0
LINE
  8
0
 10
54.1288
 20
47.9655
 11
53.8433
 21
47.8905
  0
LINE
  8
0
 10
53.8433
 20
47.8905
 11
53.5816
 21
47.7697
  0
LINE
  8
0
 10
53.5816
 20
47.7697
 11
53.3443
 21
47.6075
  0
LINE
  8
0
 10
53.3443
 20
47.6075
 11
53.2
 21
47.4671
  0
LINE
  8
0
 10
53.2
 20
47.4671
 11
53.2
 21
47.2832
  0
LINE
  8
0
 10
53.2
 20
47.2832
 11
55.8116
 21
47.2832
  0
LINE
  8
0
 10
55.8116
 20
47.2832
 11
55.5163
 21
47.6205
  0
LINE
  8
0
 10
2.31635
 20
47.6205
 11
1.81758
 21
47.898
  0
LINE
  8
0
 10
1.81758
 20
47.898
 11
1.23534
 21
47.9905
  0
LINE
  8
0
 10
1.23534
 20
47.9905
 11
0.928833
 21
47.9655
  0
LINE
  8
0
 10
0.928833
 20
47.9655
 11
0.643341
 21
47.8905
  0
LINE
  8
0
 10
0.643341
 20
47.8905
 11
0.381592
 21
47.7697
  0
LINE
  8
0
 10
0.381592
 20
47.7697
 11
0.144333
 21
47.6075
  0
LINE
  8
0
 10
0.144333
 20
47.6075
 11
0
 21
47.4671
  0
LINE
  8
0
 10
0
 20
47.4671
 11
0
 21
47.2832
  0
LINE
  8
0
 10
0
 20
47.2832
 11
2.61163
 21
47.2832
  0
LINE
  8
0
 10
2.61163
 20
47.2832
 11
2.31635
 21
47.6205
  0
LINE
  8
0
 10
359.075
 20
31.4207
 11
356.075
 21
31.4207
  0
LINE
  8
0
 10
356.075
 20
31.4207
 11
356.075
 21
33.3982
  0
LINE
  8
0
 10
356.075
 20
33.3982
 11
352.075
 21
33.3982
  0
LINE
  8
0
 10
352.075
 20
33.3982
 11
352.075
 21
32.3732
  0
LINE
  8
0
 10
352.075
 20
32.3732
 11
349.675
 21
32.3732
  0
LINE
  8
0
 10
349.675
 20
32.3732
 11
349.675
 21
33.3982
  0
LINE
  8
0
 10
349.675
 20
33.3982
 11
342.075
 21
33.3982
  0
LINE
  8
0
 10
342.075
 20
33.3982
 11
342.075
 21
36.7982
  0
LINE
  8
0
 10
342.075
 20
36.7982
 11
349.675
 21
36.7982
  0
LINE
  8
0
 10
349.675
 20
36.7982
 11
349.675
 21
37.8232
  0
LINE
  8
0
 10
349.675
 20
37.8232
 11
352.075
 21
37.8232
  0
LINE
  8
0
 10
352.075
 20
37.8232
 11
352.075
 21
36.7982
  0
LINE
  8
0
 10
352.075
 20
36.7982
 11
356.075
 21
36.7982
  0
LINE
  8
0
 10
356.075
 20
36.7982
 11
356.075
 21
38.7758
  0
LINE
  8
0
 10
356.075
 20
38.7758
 11
359.075
 21
38.7758
  0
LINE
  8
0
 10
359.075
 20
38.7758
 11
359.075
 21
46.131
  0
LINE
  8
0
 10
359.075
 20
46.131
 11
307.875
 21
46.131
  0
LINE
  8
0
 10
307.875
 20
46.131
 11
307.875
 21
38.7758
  0
LINE
  8
0
 10
307.875
 20
38.7758
 11
310.875
 21
38.7758
  0
LINE
  8
0
 10
310.875
 20
38.7758
 11
310.875
 21
36.7982
  0
LINE
  8
0
 10
310.875
 20
36.7982
 11
314.875
 21
36.7982
  0
LINE
  8
0
 10
314.875
 20
36.7982
 11
314.875
 21
37.8232
  0
LINE
  8
0
 10
314.875
 20
37.8232
 11
317.275
 21
37.8232
  0
LINE
  8
0
 10
317.275
 20
37.8232
 11
317.275
 21
36.7982
  0
LINE
  8
0
 10
317.275
 20
36.7982
 11
324.875
 21
36.7982
  0
LINE
  8
0
 10
324.875
 20
36.7982
 11
324.875
 21
33.3982
  0
LINE
  8
0
 10
324.875
 20
33.3982
 11
317.275
 21
33.3982
  0
LINE
  8
0
 10
317.275
 20
33.3982
 11
317.275
 21
32.3732
  0
LINE
  8
0
 10
317.275
 20
32.3732
 11
314.875
 21
32.3732
  0
LINE
  8
0
 10
314.875
 20
32.3732
 11
314.875
 21
33.3982
  0
LINE
  8
0
 10
314.875
 20
33.3982
 11
310.875
 21
33.3982
  0
LINE
  8
0
 10
310.875
 20
33.3982
 11
310.875
 21
31.4207
  0
LINE
  8
0
 10
310.875
 20
31.4207
 11
307.875
 21
31.4207
  0
LINE
  8
0
 10
307.875
 20
31.4207
 11
307.875
 21
24.0655
  0
LINE
  8
0
 10
307.875
 20
24.0655
 11
359.075
 21
24.0655
  0
LINE
  8
0
 10
359.075
 20
24.0655
 11
359.075
 21
31.4207
  0
LINE
  8
0
 10
422.408
 20
29.2667
 11
437.475
 21
29.2667
  0
LINE
  8
0
 10
437.475
 20
29.2667
 11
437.475
 21
36.8667
  0
LINE
  8
0
 10
437.475
 20
36.8667
 11
434.475
 21
36.8667
  0
LINE
  8
0
 10
434.475
 20
36.8667
 11
434.475
 21
33.0667
  0
LINE
  8
0
 10
434.475
 20
33.0667
 11
431.475
 21
33.0667
  0
LINE
  8
0
 10
431.475
 20
33.0667
 11
431.475
 21
36.8667
  0
LINE
  8
0
 10
431.475
 20
36.8667
 11
422.408
 21
36.8667
  0
LINE
  8
0
 10
422.408
 20
36.8667
 11
422.408
 21
39.8667
  0
LINE
  8
0
 10
422.408
 20
39.8667
 11
407.342
 21
39.8667
  0
LINE
  8
0
 10
407.342
 20
39.8667
 11
407.342
 21
36.8667
  0
LINE
  8
0
 10
407.342
 20
36.8667
 11
398.275
 21
36.8667
  0
LINE
  8
0
 10
398.275
 20
36.8667
 11
398.275
 21
33.0667
  0
LINE
  8
0
 10
398.275
 20
33.0667
 11
395.275
 21
33.0667
  0
LINE
  8
0
 10
395.275
 20
33.0667
 11
395.275
 21
36.8667
  0
LINE
  8
0
 10
395.275
 20
36.8667
 11
392.275
 21
36.8667
  0
LINE
  8
0
 10
392.275
 20
36.8667
 11
392.275
 21
29.2667
  0
LINE
  8
0
 10
392.275
 20
29.2667
 11
407.342
 21
29.2667
  0
LINE
  8
0
 10
407.342
 20
29.2667
 11
407.342
 21
26.2667
  0
LINE
  8
0
 10
407.342
 20
26.2667
 11
422.408
 21
26.2667
  0
LINE
  8
0
 10
422.408
 20
26.2667
 11
422.408
 21
29.2667
  0
LINE
  8
0
 10
264.2
 20
26.4678
 11
265.441
 21
27.0999
  0
LINE
  8
0
 10
265.441
 20
27.0999
 11
266.425
 21
28.0844
  0
LINE
  8
0
 10
266.425
 20
28.0844
 11
267.057
 21
29.3249
  0
LINE
  8
0
 10
267.057
 20
29.3249
 11
267.275
 21
30.7
  0
LINE
  8
0
 10
267.275
 20
30.7
 11
267.057
 21
32.0751
  0
LINE
  8
0
 10
267.057
 20
32.0751
 11
266.425
 21
33.3156
  0
LINE
  8
0
 10
266.425
 20
33.3156
 11
265.441
 21
34.3001
  0
LINE
  8
0
 10
265.441
 20
34.3001
 11
264.2
 21
34.9322
  0
LINE
  8
0
 10
264.2
 20
34.9322
 11
262.825
 21
35.15
  0
LINE
  8
0
 10
262.825
 20
35.15
 11
261.45
 21
34.9322
  0
LINE
  8
0
 10
261.45
 20
34.9322
 11
260.209
 21
34.3001
  0
LINE
  8
0
 10
260.209
 20
34.3001
 11
259.225
 21
33.3156
  0
LINE
  8
0
 10
259.225
 20
33.3156
 11
258.593
 21
32.0751
  0
LINE
  8
0
 10
258.593
 20
32.0751
 11
258.375
 21
30.7
  0
LINE
  8
0
 10
258.375
 20
30.7
 11
258.593
 21
29.3249
  0
LINE
  8
0
 10
258.593
 20
29.3249
 11
259.225
 21
28.0844
  0
LINE
  8
0
 10
259.225
 20
28.0844
 11
260.209
 21
27.0999
  0
LINE
  8
0
 10
260.209
 20
27.0999
 11
261.45
 21
26.4678
  0
LINE
  8
0
 10
261.45
 20
26.4678
 11
262.825
 21
26.25
  0
LINE
  8
0
 10
262.825
 20
26.25
 11
264.2
 21
26.4678
  0
LINE
  8
0
 10
262.377
 20
29.321
 11
261.973
 21
29.5269
  0
LINE
  8
0
 10
261.973
 20
29.5269
 11
261.652
 21
29.8477
  0
LINE
  8
0
 10
261.652
 20
29.8477
 11
261.446
 21
30.2519
  0
LINE
  8
0
 10
261.446
 20
30.2519
 11
261.375
 21
30.7
  0
LINE
  8
0
 10
261.375
 20
30.7
 11
261.446
 21
31.1481
  0
LINE
  8
0
 10
261.446
 20
31.1481
 11
261.652
 21
31.5523
  0
LINE
  8
0
 10
261.652
 20
31.5523
 11
261.973
 21
31.8731
  0
LINE
  8
0
 10
261.973
 20
31.8731
 11
262.377
 21
32.079
  0
LINE
  8
0
 10
262.377
 20
32.079
 11
262.825
 21
32.15
  0
LINE
  8
0
 10
262.825
 20
32.15
 11
263.273
 21
32.079
  0
LINE
  8
0
 10
263.273
 20
32.079
 11
263.677
 21
31.8731
  0
LINE
  8
0
 10
263.677
 20
31.8731
 11
263.998
 21
31.5523
  0
LINE
  8
0
 10
263.998
 20
31.5523
 11
264.204
 21
31.1481
  0
LINE
  8
0
 10
264.204
 20
31.1481
 11
264.275
 21
30.7
  0
LINE
  8
0
 10
264.275
 20
30.7
 11
264.204
 21
30.2519
  0
LINE
  8
0
 10
264.204
 20
30.2519
 11
263.998
 21
29.8477
  0
LINE
  8
0
 10
263.998
 20
29.8477
 11
263.677
 21
29.5269
  0
LINE
  8
0
 10
263.677
 20
29.5269
 11
263.273
 21
29.321
  0
LINE
  8
0
 10
263.273
 20
29.321
 11
262.825
 21
29.25
  0
LINE
  8
0
 10
262.825
 20
29.25
 11
262.377
 21
29.321
  0
LINE
  8
0
 10
451.475
 20
8.08888
 11
448.475
 21
8.08888
  0
LINE
  8
0
 10
448.475
 20
8.08888
 11
448.475
 21
10.4333
  0
LINE
  8
0
 10
448.475
 20
10.4333
 11
444.475
 21
10.4333
  0
LINE
  8
0
 10
444.475
 20
10.4333
 11
444.475
 21
9.40834
  0
LINE
  8
0
 10
444.475
 20
9.40834
 11
442.075
 21
9.40834
  0
LINE
  8
0
 10
442.075
 20
9.40834
 11
442.075
 21
10.4333
  0
LINE
  8
0
 10
442.075
 20
10.4333
 11
434.475
 21
10.4333
  0
LINE
  8
0
 10
434.475
 20
10.4333
 11
434.475
 21
13.8333
  0
LINE
  8
0
 10
434.475
 20
13.8333
 11
442.075
 21
13.8333
  0
LINE
  8
0
 10
442.075
 20
13.8333
 11
442.075
 21
14.8583
  0
LINE
  8
0
 10
442.075
 20
14.8583
 11
444.475
 21
14.8583
  0
LINE
  8
0
 10
444.475
 20
14.8583
 11
444.475
 21
13.8333
  0
LINE
  8
0
 10
444.475
 20
13.8333
 11
448.475
 21
13.8333
  0
LINE
  8
0
 10
448.475
 20
13.8333
 11
448.475
 21
16.1778
  0
LINE
  8
0
 10
448.475
 20
16.1778
 11
451.475
 21
16.1778
  0
LINE
  8
0
 10
451.475
 20
16.1778
 11
451.475
 21
24.2667
  0
LINE
  8
0
 10
451.475
 20
24.2667
 11
392.275
 21
24.2667
  0
LINE
  8
0
 10
392.275
 20
24.2667
 11
392.275
 21
16.1778
  0
LINE
  8
0
 10
392.275
 20
16.1778
 11
395.275
 21
16.1778
  0
LINE
  8
0
 10
395.275
 20
16.1778
 11
395.275
 21
13.8333
  0
LINE
  8
0
 10
395.275
 20
13.8333
 11
399.275
 21
13.8333
  0
LINE
  8
0
 10
399.275
 20
13.8333
 11
399.275
 21
14.8583
  0
LINE
  8
0
 10
399.275
 20
14.8583
 11
401.675
 21
14.8583
  0
LINE
  8
0
 10
401.675
 20
14.8583
 11
401.675
 21
13.8333
  0
LINE
  8
0
 10
401.675
 20
13.8333
 11
409.275
 21
13.8333
  0
LINE
  8
0
 10
409.275
 20
13.8333
 11
409.275
 21
10.4333
  0
LINE
  8
0
 10
409.275
 20
10.4333
 11
401.675
 21
10.4333
  0
LINE
  8
0
 10
401.675
 20
10.4333
 11
401.675
 21
9.40834
  0
LINE
  8
0
 10
401.675
 20
9.40834
 11
399.275
 21
9.40834
  0
LINE
  8
0
 10
399.275
 20
9.40834
 11
399.275
 21
10.4333
  0
LINE
  8
0
 10
399.275
 20
10.4333
 11
395.275
 21
10.4333
  0
LINE
  8
0
 10
395.275
 20
10.4333
 11
395.275
 21
8.08888
  0
LINE
  8
0
 10
395.275
 20
8.08888
 11
392.275
 21
8.08888
  0
LINE
  8
0
 10
392.275
 20
8.08888
 11
392.275
 21
0
  0
LINE
  8
0
 10
392.275
 20
0
 11
451.475
 21
0
  0
LINE
  8
0
 10
451.475
 20
0
 11
451.475
 21
8.08888
  0
LINE
  8
0
 10
264.2
 20
15.5678
 11
265.441
 21
16.1999
  0
LINE
  8
0
 10
265.441
 20
16.1999
 11
266.425
 21
17.1844
  0
LINE
  8
0
 10
266.425
 20
17.1844
 11
267.057
 21
18.4249
  0
LINE
  8
0
 10
267.057
 20
18.4249
 11
267.275
 21
19.8
  0
LINE
  8
0
 10
267.275
 20
19.8
 11
267.057
 21
21.1751
  0
LINE
  8
0
 10
267.057
 20
21.1751
 11
266.425
 21
22.4156
  0
LINE
  8
0
 10
266.425
 20
22.4156
 11
265.441
 21
23.4001
  0
LINE
  8
0
 10
265.441
 20
23.4001
 11
264.2
 21
24.0322
  0
LINE
  8
0
 10
264.2
 20
24.0322
 11
262.825
 21
24.25
  0
LINE
  8
0
 10
262.825
 20
24.25
 11
261.45
 21
24.0322
  0
LINE
  8
0
 10
261.45
 20
24.0322
 11
260.209
 21
23.4001
  0
LINE
  8
0
 10
260.209
 20
23.4001
 11
259.225
 21
22.4156
  0
LINE
  8
0
 10
259.225
 20
22.4156
 11
258.593
 21
21.1751
  0
LINE
  8
0
 10
258.593
 20
21.1751
 11
258.375
 21
19.8
  0
LINE
  8
0
 10
258.375
 20
19.8
 11
258.593
 21
18.4249
  0
LINE
  8
0
 10
258.593
 20
18.4249
 11
259.225
 21
17.1844
  0
LINE
  8
0
 10
259.225
 20
17.1844
 11
260.209
 21
16.1999
  0
LINE
  8
0
 10
260.209
 20
16.1999
 11
261.45
 21
15.5678
  0
LINE
  8
0
 10
261.45
 20
15.5678
 11
262.825
 21
15.35
  0
LINE
  8
0
 10
262.825
 20
15.35
 11
264.2
 21
15.5678
  0
LINE
  8
0
 10
262.377
 20
18.421
 11
261.973
 21
18.6269
  0
LINE
  8
0
 10
261.973
 20
18.6269
 11
261.652
 21
18.9477
  0
LINE
  8
0
 10
261.652
 20
18.9477
 11
261.446
 21
19.3519
  0
LINE
  8
0
 10
261.446
 20
19.3519
 11
261.375
 21
19.8
  0
LINE
  8
0
 10
261.375
 20
19.8
 11
261.446
 21
20.2481
  0
LINE
  8
0
 10
261.446
 20
20.2481
 11
261.652
 21
20.6523
  0
LINE
  8
0
 10
261.652
 20
20.6523
 11
261.973
 21
20.9731
  0
LINE
  8
0
 10
261.973
 20
20.9731
 11
262.377
 21
21.179
  0
LINE
  8
0
 10
262.377
 20
21.179
 11
262.825
 21
21.25
  0
LINE
  8
0
 10
262.825
 20
21.25
 11
263.273
 21
21.179
  0
LINE
  8
0
 10
263.273
 20
21.179
 11
263.677
 21
20.9731
  0
LINE
  8
0
 10
263.677
 20
20.9731
 11
263.998
 21
20.6523
  0
LINE
  8
0
 10
263.998
 20
20.6523
 11
264.204
 21
20.2481
  0
LINE
  8
0
 10
264.204
 20
20.2481
 11
264.275
 21
19.8
  0
LINE
  8
0
 10
264.275
 20
19.8
 11
264.204
 21
19.3519
  0
LINE
  8
0
 10
264.204
 20
19.3519
 11
263.998
 21
18.9477
  0
LINE
  8
0
 10
263.998
 20
18.9477
 11
263.677
 21
18.6269
  0
LINE
  8
0
 10
263.677
 20
18.6269
 11
263.273
 21
18.421
  0
LINE
  8
0
 10
263.273
 20
18.421
 11
262.825
 21
18.35
  0
LINE
  8
0
 10
262.825
 20
18.35
 11
262.377
 21
18.421
  0
LINE
  8
0
 10
356.075
 20
11.0327
 11
359.075
 21
11.0327
  0
LINE
  8
0
 10
359.075
 20
11.0327
 11
359.075
 21
22.0655
  0
LINE
  8
0
 10
359.075
 20
22.0655
 11
307.875
 21
22.0655
  0
LINE
  8
0
 10
307.875
 20
22.0655
 11
307.875
 21
11.0327
  0
LINE
  8
0
 10
307.875
 20
11.0327
 11
310.875
 21
11.0327
  0
LINE
  8
0
 10
310.875
 20
11.0327
 11
310.875
 21
10.7
  0
LINE
  8
0
 10
310.875
 20
10.7
 11
314.875
 21
10.7
  0
LINE
  8
0
 10
314.875
 20
10.7
 11
314.875
 21
11.725
  0
LINE
  8
0
 10
314.875
 20
11.725
 11
317.275
 21
11.725
  0
LINE
  8
0
 10
317.275
 20
11.725
 11
317.275
 21
10.7
  0
LINE
  8
0
 10
317.275
 20
10.7
 11
321.875
 21
10.7
  0
LINE
  8
0
 10
321.875
 20
10.7
 11
321.875
 21
7.3
  0
LINE
  8
0
 10
321.875
 20
7.3
 11
317.275
 21
7.3
  0
LINE
  8
0
 10
317.275
 20
7.3
 11
317.275
 21
6.27501
  0
LINE
  8
0
 10
317.275
 20
6.27501
 11
314.875
 21
6.27501
  0
LINE
  8
0
 10
314.875
 20
6.27501
 11
314.875
 21
7.3
  0
LINE
  8
0
 10
314.875
 20
7.3
 11
310.875
 21
7.3
  0
LINE
  8
0
 10
310.875
 20
7.3
 11
310.875
 21
0
  0
LINE
  8
0
 10
310.875
 20
0
 11
356.075
 21
0
  0
LINE
  8
0
 10
356.075
 20
0
 11
356.075
 21
11.0327
  0
ENDSEC
  0
SECTION
  2
OBJECTS
  0
DICTIONARY
  0
ENDSEC
  0
EOF
