G04 #@! TF.GenerationSoftware,KiCad,Pcbnew,10.0.5*
G04 #@! TF.CreationDate,2026-08-09T21:16:14+02:00*
G04 #@! TF.ProjectId,ad8317_powermeter,61643833-3137-45f7-906f-7765726d6574,A*
G04 #@! TF.SameCoordinates,Original*
G04 #@! TF.FileFunction,Soldermask,Top*
G04 #@! TF.FilePolarity,Negative*
%FSLAX46Y46*%
G04 Gerber Fmt 4.6, Leading zero omitted, Abs format (unit mm)*
G04 Created by KiCad (PCBNEW 10.0.5) date 2026-08-09 21:16:14*
%MOMM*%
%LPD*%
G01*
G04 APERTURE LIST*
%ADD10C,0.650000*%
%ADD11R,1.240000X0.600000*%
%ADD12R,1.240000X0.300000*%
%ADD13O,2.100000X1.000000*%
%ADD14O,1.800000X1.000000*%
%ADD15C,1.200000*%
%ADD16O,2.000000X1.700000*%
%ADD17R,5.080000X0.500000*%
%ADD18R,5.080000X1.500000*%
%ADD19R,2.340000X0.500000*%
%ADD20R,1.700000X1.700000*%
%ADD21C,1.700000*%
%ADD22R,1.890000X1.830000*%
%ADD23R,2.400000X0.740000*%
%ADD24R,1.600000X1.400000*%
G04 APERTURE END LIST*
G36*
X140900000Y-99850000D02*
G01*
X141200000Y-99850000D01*
X141200000Y-101350000D01*
X140900000Y-101350000D01*
X140900000Y-99850000D01*
G37*
G36*
G01*
X179515000Y-81510000D02*
X179885000Y-81510000D01*
G75*
G02*
X180020000Y-81645000I0J-135000D01*
G01*
X180020000Y-81915000D01*
G75*
G02*
X179885000Y-82050000I-135000J0D01*
G01*
X179515000Y-82050000D01*
G75*
G02*
X179380000Y-81915000I0J135000D01*
G01*
X179380000Y-81645000D01*
G75*
G02*
X179515000Y-81510000I135000J0D01*
G01*
G37*
G36*
G01*
X179515000Y-82530000D02*
X179885000Y-82530000D01*
G75*
G02*
X180020000Y-82665000I0J-135000D01*
G01*
X180020000Y-82935000D01*
G75*
G02*
X179885000Y-83070000I-135000J0D01*
G01*
X179515000Y-83070000D01*
G75*
G02*
X179380000Y-82935000I0J135000D01*
G01*
X179380000Y-82665000D01*
G75*
G02*
X179515000Y-82530000I135000J0D01*
G01*
G37*
D10*
X214430000Y-87790000D03*
X214430000Y-82010000D03*
D11*
X213310000Y-88100000D03*
X213310000Y-87300000D03*
D12*
X213310000Y-86150000D03*
X213310000Y-85150000D03*
X213310000Y-84650000D03*
X213310000Y-83650000D03*
D11*
X213310000Y-82500000D03*
X213310000Y-81700000D03*
X213310000Y-81700000D03*
X213310000Y-82500000D03*
D12*
X213310000Y-83150000D03*
X213310000Y-84150000D03*
X213310000Y-85650000D03*
X213310000Y-86650000D03*
D11*
X213310000Y-87300000D03*
X213310000Y-88100000D03*
D13*
X213910000Y-89220000D03*
D14*
X218110000Y-89220000D03*
D13*
X213910000Y-80580000D03*
D14*
X218110000Y-80580000D03*
D15*
X212100000Y-76700000D03*
G36*
G01*
X210850000Y-75950000D02*
X209350000Y-75950000D01*
G75*
G02*
X209100000Y-75700000I0J250000D01*
G01*
X209100000Y-74500000D01*
G75*
G02*
X209350000Y-74250000I250000J0D01*
G01*
X210850000Y-74250000D01*
G75*
G02*
X211100000Y-74500000I0J-250000D01*
G01*
X211100000Y-75700000D01*
G75*
G02*
X210850000Y-75950000I-250000J0D01*
G01*
G37*
D16*
X210100000Y-72600000D03*
G36*
G01*
X155700000Y-93170000D02*
X155500000Y-93170000D01*
G75*
G02*
X155400000Y-93070000I0J100000D01*
G01*
X155400000Y-92810000D01*
G75*
G02*
X155500000Y-92710000I100000J0D01*
G01*
X155700000Y-92710000D01*
G75*
G02*
X155800000Y-92810000I0J-100000D01*
G01*
X155800000Y-93070000D01*
G75*
G02*
X155700000Y-93170000I-100000J0D01*
G01*
G37*
G36*
G01*
X155700000Y-92530000D02*
X155500000Y-92530000D01*
G75*
G02*
X155400000Y-92430000I0J100000D01*
G01*
X155400000Y-92170000D01*
G75*
G02*
X155500000Y-92070000I100000J0D01*
G01*
X155700000Y-92070000D01*
G75*
G02*
X155800000Y-92170000I0J-100000D01*
G01*
X155800000Y-92430000D01*
G75*
G02*
X155700000Y-92530000I-100000J0D01*
G01*
G37*
G36*
G01*
X143095000Y-85260000D02*
X142725000Y-85260000D01*
G75*
G02*
X142590000Y-85125000I0J135000D01*
G01*
X142590000Y-84855000D01*
G75*
G02*
X142725000Y-84720000I135000J0D01*
G01*
X143095000Y-84720000D01*
G75*
G02*
X143230000Y-84855000I0J-135000D01*
G01*
X143230000Y-85125000D01*
G75*
G02*
X143095000Y-85260000I-135000J0D01*
G01*
G37*
G36*
G01*
X143095000Y-84240000D02*
X142725000Y-84240000D01*
G75*
G02*
X142590000Y-84105000I0J135000D01*
G01*
X142590000Y-83835000D01*
G75*
G02*
X142725000Y-83700000I135000J0D01*
G01*
X143095000Y-83700000D01*
G75*
G02*
X143230000Y-83835000I0J-135000D01*
G01*
X143230000Y-84105000D01*
G75*
G02*
X143095000Y-84240000I-135000J0D01*
G01*
G37*
G36*
G01*
X143775000Y-85760000D02*
X143775000Y-85420000D01*
G75*
G02*
X143915000Y-85280000I140000J0D01*
G01*
X144195000Y-85280000D01*
G75*
G02*
X144335000Y-85420000I0J-140000D01*
G01*
X144335000Y-85760000D01*
G75*
G02*
X144195000Y-85900000I-140000J0D01*
G01*
X143915000Y-85900000D01*
G75*
G02*
X143775000Y-85760000I0J140000D01*
G01*
G37*
G36*
G01*
X144735000Y-85760000D02*
X144735000Y-85420000D01*
G75*
G02*
X144875000Y-85280000I140000J0D01*
G01*
X145155000Y-85280000D01*
G75*
G02*
X145295000Y-85420000I0J-140000D01*
G01*
X145295000Y-85760000D01*
G75*
G02*
X145155000Y-85900000I-140000J0D01*
G01*
X144875000Y-85900000D01*
G75*
G02*
X144735000Y-85760000I0J140000D01*
G01*
G37*
G36*
G01*
X197362500Y-71950000D02*
X197362500Y-72250000D01*
G75*
G02*
X197212500Y-72400000I-150000J0D01*
G01*
X196187500Y-72400000D01*
G75*
G02*
X196037500Y-72250000I0J150000D01*
G01*
X196037500Y-71950000D01*
G75*
G02*
X196187500Y-71800000I150000J0D01*
G01*
X197212500Y-71800000D01*
G75*
G02*
X197362500Y-71950000I0J-150000D01*
G01*
G37*
G36*
G01*
X197362500Y-71000000D02*
X197362500Y-71300000D01*
G75*
G02*
X197212500Y-71450000I-150000J0D01*
G01*
X196187500Y-71450000D01*
G75*
G02*
X196037500Y-71300000I0J150000D01*
G01*
X196037500Y-71000000D01*
G75*
G02*
X196187500Y-70850000I150000J0D01*
G01*
X197212500Y-70850000D01*
G75*
G02*
X197362500Y-71000000I0J-150000D01*
G01*
G37*
G36*
G01*
X197362500Y-70050000D02*
X197362500Y-70350000D01*
G75*
G02*
X197212500Y-70500000I-150000J0D01*
G01*
X196187500Y-70500000D01*
G75*
G02*
X196037500Y-70350000I0J150000D01*
G01*
X196037500Y-70050000D01*
G75*
G02*
X196187500Y-69900000I150000J0D01*
G01*
X197212500Y-69900000D01*
G75*
G02*
X197362500Y-70050000I0J-150000D01*
G01*
G37*
G36*
G01*
X195087500Y-70050000D02*
X195087500Y-70350000D01*
G75*
G02*
X194937500Y-70500000I-150000J0D01*
G01*
X193912500Y-70500000D01*
G75*
G02*
X193762500Y-70350000I0J150000D01*
G01*
X193762500Y-70050000D01*
G75*
G02*
X193912500Y-69900000I150000J0D01*
G01*
X194937500Y-69900000D01*
G75*
G02*
X195087500Y-70050000I0J-150000D01*
G01*
G37*
G36*
G01*
X195087500Y-71950000D02*
X195087500Y-72250000D01*
G75*
G02*
X194937500Y-72400000I-150000J0D01*
G01*
X193912500Y-72400000D01*
G75*
G02*
X193762500Y-72250000I0J150000D01*
G01*
X193762500Y-71950000D01*
G75*
G02*
X193912500Y-71800000I150000J0D01*
G01*
X194937500Y-71800000D01*
G75*
G02*
X195087500Y-71950000I0J-150000D01*
G01*
G37*
G36*
G01*
X209270000Y-64000000D02*
X208930000Y-64000000D01*
G75*
G02*
X208790000Y-63860000I0J140000D01*
G01*
X208790000Y-63580000D01*
G75*
G02*
X208930000Y-63440000I140000J0D01*
G01*
X209270000Y-63440000D01*
G75*
G02*
X209410000Y-63580000I0J-140000D01*
G01*
X209410000Y-63860000D01*
G75*
G02*
X209270000Y-64000000I-140000J0D01*
G01*
G37*
G36*
G01*
X209270000Y-63040000D02*
X208930000Y-63040000D01*
G75*
G02*
X208790000Y-62900000I0J140000D01*
G01*
X208790000Y-62620000D01*
G75*
G02*
X208930000Y-62480000I140000J0D01*
G01*
X209270000Y-62480000D01*
G75*
G02*
X209410000Y-62620000I0J-140000D01*
G01*
X209410000Y-62900000D01*
G75*
G02*
X209270000Y-63040000I-140000J0D01*
G01*
G37*
G36*
X141200000Y-99850000D02*
G01*
X141700000Y-99850000D01*
X141700000Y-99854278D01*
X141765263Y-99854278D01*
X141891342Y-99888060D01*
X142004381Y-99953323D01*
X142096677Y-100045619D01*
X142161940Y-100158658D01*
X142195722Y-100284737D01*
X142195722Y-100350000D01*
X142200000Y-100350000D01*
X142200000Y-100850000D01*
X142195722Y-100850000D01*
X142195722Y-100915263D01*
X142161940Y-101041342D01*
X142096677Y-101154381D01*
X142004381Y-101246677D01*
X141891342Y-101311940D01*
X141765263Y-101345722D01*
X141700000Y-101345722D01*
X141700000Y-101350000D01*
X141200000Y-101350000D01*
X141200000Y-99850000D01*
G37*
G36*
X140400000Y-101345722D02*
G01*
X140334737Y-101345722D01*
X140208658Y-101311940D01*
X140095619Y-101246677D01*
X140003323Y-101154381D01*
X139938060Y-101041342D01*
X139904278Y-100915263D01*
X139904278Y-100850000D01*
X139900000Y-100850000D01*
X139900000Y-100350000D01*
X139904278Y-100350000D01*
X139904278Y-100284737D01*
X139938060Y-100158658D01*
X140003323Y-100045619D01*
X140095619Y-99953323D01*
X140208658Y-99888060D01*
X140334737Y-99854278D01*
X140400000Y-99854278D01*
X140400000Y-99850000D01*
X140900000Y-99850000D01*
X140900000Y-101350000D01*
X140400000Y-101350000D01*
X140400000Y-101345722D01*
G37*
G36*
G01*
X193100000Y-73050000D02*
X192900000Y-73050000D01*
G75*
G02*
X192800000Y-72950000I0J100000D01*
G01*
X192800000Y-72690000D01*
G75*
G02*
X192900000Y-72590000I100000J0D01*
G01*
X193100000Y-72590000D01*
G75*
G02*
X193200000Y-72690000I0J-100000D01*
G01*
X193200000Y-72950000D01*
G75*
G02*
X193100000Y-73050000I-100000J0D01*
G01*
G37*
G36*
G01*
X193100000Y-72410000D02*
X192900000Y-72410000D01*
G75*
G02*
X192800000Y-72310000I0J100000D01*
G01*
X192800000Y-72050000D01*
G75*
G02*
X192900000Y-71950000I100000J0D01*
G01*
X193100000Y-71950000D01*
G75*
G02*
X193200000Y-72050000I0J-100000D01*
G01*
X193200000Y-72310000D01*
G75*
G02*
X193100000Y-72410000I-100000J0D01*
G01*
G37*
G36*
G01*
X208615000Y-99700000D02*
X208615000Y-99900000D01*
G75*
G02*
X208515000Y-100000000I-100000J0D01*
G01*
X208255000Y-100000000D01*
G75*
G02*
X208155000Y-99900000I0J100000D01*
G01*
X208155000Y-99700000D01*
G75*
G02*
X208255000Y-99600000I100000J0D01*
G01*
X208515000Y-99600000D01*
G75*
G02*
X208615000Y-99700000I0J-100000D01*
G01*
G37*
G36*
G01*
X207975000Y-99700000D02*
X207975000Y-99900000D01*
G75*
G02*
X207875000Y-100000000I-100000J0D01*
G01*
X207615000Y-100000000D01*
G75*
G02*
X207515000Y-99900000I0J100000D01*
G01*
X207515000Y-99700000D01*
G75*
G02*
X207615000Y-99600000I100000J0D01*
G01*
X207875000Y-99600000D01*
G75*
G02*
X207975000Y-99700000I0J-100000D01*
G01*
G37*
G36*
G01*
X204870000Y-78940000D02*
X204530000Y-78940000D01*
G75*
G02*
X204390000Y-78800000I0J140000D01*
G01*
X204390000Y-78520000D01*
G75*
G02*
X204530000Y-78380000I140000J0D01*
G01*
X204870000Y-78380000D01*
G75*
G02*
X205010000Y-78520000I0J-140000D01*
G01*
X205010000Y-78800000D01*
G75*
G02*
X204870000Y-78940000I-140000J0D01*
G01*
G37*
G36*
G01*
X204870000Y-77980000D02*
X204530000Y-77980000D01*
G75*
G02*
X204390000Y-77840000I0J140000D01*
G01*
X204390000Y-77560000D01*
G75*
G02*
X204530000Y-77420000I140000J0D01*
G01*
X204870000Y-77420000D01*
G75*
G02*
X205010000Y-77560000I0J-140000D01*
G01*
X205010000Y-77840000D01*
G75*
G02*
X204870000Y-77980000I-140000J0D01*
G01*
G37*
G36*
G01*
X204885000Y-66580000D02*
X204515000Y-66580000D01*
G75*
G02*
X204380000Y-66445000I0J135000D01*
G01*
X204380000Y-66175000D01*
G75*
G02*
X204515000Y-66040000I135000J0D01*
G01*
X204885000Y-66040000D01*
G75*
G02*
X205020000Y-66175000I0J-135000D01*
G01*
X205020000Y-66445000D01*
G75*
G02*
X204885000Y-66580000I-135000J0D01*
G01*
G37*
G36*
G01*
X204885000Y-65560000D02*
X204515000Y-65560000D01*
G75*
G02*
X204380000Y-65425000I0J135000D01*
G01*
X204380000Y-65155000D01*
G75*
G02*
X204515000Y-65020000I135000J0D01*
G01*
X204885000Y-65020000D01*
G75*
G02*
X205020000Y-65155000I0J-135000D01*
G01*
X205020000Y-65425000D01*
G75*
G02*
X204885000Y-65560000I-135000J0D01*
G01*
G37*
D17*
X137700000Y-85000000D03*
D18*
X137700000Y-89250000D03*
X137700000Y-80750000D03*
G36*
G01*
X151370000Y-85740000D02*
X151030000Y-85740000D01*
G75*
G02*
X150890000Y-85600000I0J140000D01*
G01*
X150890000Y-85320000D01*
G75*
G02*
X151030000Y-85180000I140000J0D01*
G01*
X151370000Y-85180000D01*
G75*
G02*
X151510000Y-85320000I0J-140000D01*
G01*
X151510000Y-85600000D01*
G75*
G02*
X151370000Y-85740000I-140000J0D01*
G01*
G37*
G36*
G01*
X151370000Y-84780000D02*
X151030000Y-84780000D01*
G75*
G02*
X150890000Y-84640000I0J140000D01*
G01*
X150890000Y-84360000D01*
G75*
G02*
X151030000Y-84220000I140000J0D01*
G01*
X151370000Y-84220000D01*
G75*
G02*
X151510000Y-84360000I0J-140000D01*
G01*
X151510000Y-84640000D01*
G75*
G02*
X151370000Y-84780000I-140000J0D01*
G01*
G37*
G36*
G01*
X209990000Y-84455000D02*
X210540000Y-84455000D01*
G75*
G02*
X210555000Y-84470000I0J-15000D01*
G01*
X210555000Y-84740000D01*
G75*
G02*
X210540000Y-84755000I-15000J0D01*
G01*
X209990000Y-84755000D01*
G75*
G02*
X209975000Y-84740000I0J15000D01*
G01*
X209975000Y-84470000D01*
G75*
G02*
X209990000Y-84455000I15000J0D01*
G01*
G37*
G36*
G01*
X208680000Y-84455000D02*
X209230000Y-84455000D01*
G75*
G02*
X209245000Y-84470000I0J-15000D01*
G01*
X209245000Y-84740000D01*
G75*
G02*
X209230000Y-84755000I-15000J0D01*
G01*
X208680000Y-84755000D01*
G75*
G02*
X208665000Y-84740000I0J15000D01*
G01*
X208665000Y-84470000D01*
G75*
G02*
X208680000Y-84455000I15000J0D01*
G01*
G37*
G36*
G01*
X208680000Y-85005000D02*
X209230000Y-85005000D01*
G75*
G02*
X209245000Y-85020000I0J-15000D01*
G01*
X209245000Y-85290000D01*
G75*
G02*
X209230000Y-85305000I-15000J0D01*
G01*
X208680000Y-85305000D01*
G75*
G02*
X208665000Y-85290000I0J15000D01*
G01*
X208665000Y-85020000D01*
G75*
G02*
X208680000Y-85005000I15000J0D01*
G01*
G37*
G36*
G01*
X209990000Y-85005000D02*
X210540000Y-85005000D01*
G75*
G02*
X210555000Y-85020000I0J-15000D01*
G01*
X210555000Y-85290000D01*
G75*
G02*
X210540000Y-85305000I-15000J0D01*
G01*
X209990000Y-85305000D01*
G75*
G02*
X209975000Y-85290000I0J15000D01*
G01*
X209975000Y-85020000D01*
G75*
G02*
X209990000Y-85005000I15000J0D01*
G01*
G37*
G36*
G01*
X146215000Y-77630000D02*
X146585000Y-77630000D01*
G75*
G02*
X146720000Y-77765000I0J-135000D01*
G01*
X146720000Y-78035000D01*
G75*
G02*
X146585000Y-78170000I-135000J0D01*
G01*
X146215000Y-78170000D01*
G75*
G02*
X146080000Y-78035000I0J135000D01*
G01*
X146080000Y-77765000D01*
G75*
G02*
X146215000Y-77630000I135000J0D01*
G01*
G37*
G36*
G01*
X146215000Y-78650000D02*
X146585000Y-78650000D01*
G75*
G02*
X146720000Y-78785000I0J-135000D01*
G01*
X146720000Y-79055000D01*
G75*
G02*
X146585000Y-79190000I-135000J0D01*
G01*
X146215000Y-79190000D01*
G75*
G02*
X146080000Y-79055000I0J135000D01*
G01*
X146080000Y-78785000D01*
G75*
G02*
X146215000Y-78650000I135000J0D01*
G01*
G37*
G36*
G01*
X198315000Y-69920000D02*
X198685000Y-69920000D01*
G75*
G02*
X198820000Y-70055000I0J-135000D01*
G01*
X198820000Y-70325000D01*
G75*
G02*
X198685000Y-70460000I-135000J0D01*
G01*
X198315000Y-70460000D01*
G75*
G02*
X198180000Y-70325000I0J135000D01*
G01*
X198180000Y-70055000D01*
G75*
G02*
X198315000Y-69920000I135000J0D01*
G01*
G37*
G36*
G01*
X198315000Y-70940000D02*
X198685000Y-70940000D01*
G75*
G02*
X198820000Y-71075000I0J-135000D01*
G01*
X198820000Y-71345000D01*
G75*
G02*
X198685000Y-71480000I-135000J0D01*
G01*
X198315000Y-71480000D01*
G75*
G02*
X198180000Y-71345000I0J135000D01*
G01*
X198180000Y-71075000D01*
G75*
G02*
X198315000Y-70940000I135000J0D01*
G01*
G37*
G36*
G01*
X141995000Y-85270000D02*
X141625000Y-85270000D01*
G75*
G02*
X141490000Y-85135000I0J135000D01*
G01*
X141490000Y-84865000D01*
G75*
G02*
X141625000Y-84730000I135000J0D01*
G01*
X141995000Y-84730000D01*
G75*
G02*
X142130000Y-84865000I0J-135000D01*
G01*
X142130000Y-85135000D01*
G75*
G02*
X141995000Y-85270000I-135000J0D01*
G01*
G37*
G36*
G01*
X141995000Y-84250000D02*
X141625000Y-84250000D01*
G75*
G02*
X141490000Y-84115000I0J135000D01*
G01*
X141490000Y-83845000D01*
G75*
G02*
X141625000Y-83710000I135000J0D01*
G01*
X141995000Y-83710000D01*
G75*
G02*
X142130000Y-83845000I0J-135000D01*
G01*
X142130000Y-84115000D01*
G75*
G02*
X141995000Y-84250000I-135000J0D01*
G01*
G37*
G36*
G01*
X204390000Y-70515000D02*
X204390000Y-70885000D01*
G75*
G02*
X204255000Y-71020000I-135000J0D01*
G01*
X203985000Y-71020000D01*
G75*
G02*
X203850000Y-70885000I0J135000D01*
G01*
X203850000Y-70515000D01*
G75*
G02*
X203985000Y-70380000I135000J0D01*
G01*
X204255000Y-70380000D01*
G75*
G02*
X204390000Y-70515000I0J-135000D01*
G01*
G37*
G36*
G01*
X203370000Y-70515000D02*
X203370000Y-70885000D01*
G75*
G02*
X203235000Y-71020000I-135000J0D01*
G01*
X202965000Y-71020000D01*
G75*
G02*
X202830000Y-70885000I0J135000D01*
G01*
X202830000Y-70515000D01*
G75*
G02*
X202965000Y-70380000I135000J0D01*
G01*
X203235000Y-70380000D01*
G75*
G02*
X203370000Y-70515000I0J-135000D01*
G01*
G37*
G36*
G01*
X206185000Y-61490000D02*
X205815000Y-61490000D01*
G75*
G02*
X205680000Y-61355000I0J135000D01*
G01*
X205680000Y-61085000D01*
G75*
G02*
X205815000Y-60950000I135000J0D01*
G01*
X206185000Y-60950000D01*
G75*
G02*
X206320000Y-61085000I0J-135000D01*
G01*
X206320000Y-61355000D01*
G75*
G02*
X206185000Y-61490000I-135000J0D01*
G01*
G37*
G36*
G01*
X206185000Y-60470000D02*
X205815000Y-60470000D01*
G75*
G02*
X205680000Y-60335000I0J135000D01*
G01*
X205680000Y-60065000D01*
G75*
G02*
X205815000Y-59930000I135000J0D01*
G01*
X206185000Y-59930000D01*
G75*
G02*
X206320000Y-60065000I0J-135000D01*
G01*
X206320000Y-60335000D01*
G75*
G02*
X206185000Y-60470000I-135000J0D01*
G01*
G37*
G36*
G01*
X174230000Y-69260000D02*
X174570000Y-69260000D01*
G75*
G02*
X174710000Y-69400000I0J-140000D01*
G01*
X174710000Y-69680000D01*
G75*
G02*
X174570000Y-69820000I-140000J0D01*
G01*
X174230000Y-69820000D01*
G75*
G02*
X174090000Y-69680000I0J140000D01*
G01*
X174090000Y-69400000D01*
G75*
G02*
X174230000Y-69260000I140000J0D01*
G01*
G37*
G36*
G01*
X174230000Y-70220000D02*
X174570000Y-70220000D01*
G75*
G02*
X174710000Y-70360000I0J-140000D01*
G01*
X174710000Y-70640000D01*
G75*
G02*
X174570000Y-70780000I-140000J0D01*
G01*
X174230000Y-70780000D01*
G75*
G02*
X174090000Y-70640000I0J140000D01*
G01*
X174090000Y-70360000D01*
G75*
G02*
X174230000Y-70220000I140000J0D01*
G01*
G37*
G36*
G01*
X146940000Y-87770000D02*
X146940000Y-87430000D01*
G75*
G02*
X147080000Y-87290000I140000J0D01*
G01*
X147360000Y-87290000D01*
G75*
G02*
X147500000Y-87430000I0J-140000D01*
G01*
X147500000Y-87770000D01*
G75*
G02*
X147360000Y-87910000I-140000J0D01*
G01*
X147080000Y-87910000D01*
G75*
G02*
X146940000Y-87770000I0J140000D01*
G01*
G37*
G36*
G01*
X147900000Y-87770000D02*
X147900000Y-87430000D01*
G75*
G02*
X148040000Y-87290000I140000J0D01*
G01*
X148320000Y-87290000D01*
G75*
G02*
X148460000Y-87430000I0J-140000D01*
G01*
X148460000Y-87770000D01*
G75*
G02*
X148320000Y-87910000I-140000J0D01*
G01*
X148040000Y-87910000D01*
G75*
G02*
X147900000Y-87770000I0J140000D01*
G01*
G37*
G36*
G01*
X164270000Y-75460000D02*
X163930000Y-75460000D01*
G75*
G02*
X163790000Y-75320000I0J140000D01*
G01*
X163790000Y-75040000D01*
G75*
G02*
X163930000Y-74900000I140000J0D01*
G01*
X164270000Y-74900000D01*
G75*
G02*
X164410000Y-75040000I0J-140000D01*
G01*
X164410000Y-75320000D01*
G75*
G02*
X164270000Y-75460000I-140000J0D01*
G01*
G37*
G36*
G01*
X164270000Y-74500000D02*
X163930000Y-74500000D01*
G75*
G02*
X163790000Y-74360000I0J140000D01*
G01*
X163790000Y-74080000D01*
G75*
G02*
X163930000Y-73940000I140000J0D01*
G01*
X164270000Y-73940000D01*
G75*
G02*
X164410000Y-74080000I0J-140000D01*
G01*
X164410000Y-74360000D01*
G75*
G02*
X164270000Y-74500000I-140000J0D01*
G01*
G37*
G36*
G01*
X208705000Y-94200000D02*
X208705000Y-94400000D01*
G75*
G02*
X208605000Y-94500000I-100000J0D01*
G01*
X208345000Y-94500000D01*
G75*
G02*
X208245000Y-94400000I0J100000D01*
G01*
X208245000Y-94200000D01*
G75*
G02*
X208345000Y-94100000I100000J0D01*
G01*
X208605000Y-94100000D01*
G75*
G02*
X208705000Y-94200000I0J-100000D01*
G01*
G37*
G36*
G01*
X208065000Y-94200000D02*
X208065000Y-94400000D01*
G75*
G02*
X207965000Y-94500000I-100000J0D01*
G01*
X207705000Y-94500000D01*
G75*
G02*
X207605000Y-94400000I0J100000D01*
G01*
X207605000Y-94200000D01*
G75*
G02*
X207705000Y-94100000I100000J0D01*
G01*
X207965000Y-94100000D01*
G75*
G02*
X208065000Y-94200000I0J-100000D01*
G01*
G37*
G36*
G01*
X146797500Y-85842500D02*
X146672500Y-85842500D01*
G75*
G02*
X146610000Y-85780000I0J62500D01*
G01*
X146610000Y-85030000D01*
G75*
G02*
X146672500Y-84967500I62500J0D01*
G01*
X146797500Y-84967500D01*
G75*
G02*
X146860000Y-85030000I0J-62500D01*
G01*
X146860000Y-85780000D01*
G75*
G02*
X146797500Y-85842500I-62500J0D01*
G01*
G37*
G36*
G01*
X147297500Y-85842500D02*
X147172500Y-85842500D01*
G75*
G02*
X147110000Y-85780000I0J62500D01*
G01*
X147110000Y-85030000D01*
G75*
G02*
X147172500Y-84967500I62500J0D01*
G01*
X147297500Y-84967500D01*
G75*
G02*
X147360000Y-85030000I0J-62500D01*
G01*
X147360000Y-85780000D01*
G75*
G02*
X147297500Y-85842500I-62500J0D01*
G01*
G37*
G36*
G01*
X147797500Y-85842500D02*
X147672500Y-85842500D01*
G75*
G02*
X147610000Y-85780000I0J62500D01*
G01*
X147610000Y-85030000D01*
G75*
G02*
X147672500Y-84967500I62500J0D01*
G01*
X147797500Y-84967500D01*
G75*
G02*
X147860000Y-85030000I0J-62500D01*
G01*
X147860000Y-85780000D01*
G75*
G02*
X147797500Y-85842500I-62500J0D01*
G01*
G37*
G36*
G01*
X148297500Y-85842500D02*
X148172500Y-85842500D01*
G75*
G02*
X148110000Y-85780000I0J62500D01*
G01*
X148110000Y-85030000D01*
G75*
G02*
X148172500Y-84967500I62500J0D01*
G01*
X148297500Y-84967500D01*
G75*
G02*
X148360000Y-85030000I0J-62500D01*
G01*
X148360000Y-85780000D01*
G75*
G02*
X148297500Y-85842500I-62500J0D01*
G01*
G37*
G36*
G01*
X148297500Y-83997500D02*
X148172500Y-83997500D01*
G75*
G02*
X148110000Y-83935000I0J62500D01*
G01*
X148110000Y-83185000D01*
G75*
G02*
X148172500Y-83122500I62500J0D01*
G01*
X148297500Y-83122500D01*
G75*
G02*
X148360000Y-83185000I0J-62500D01*
G01*
X148360000Y-83935000D01*
G75*
G02*
X148297500Y-83997500I-62500J0D01*
G01*
G37*
G36*
G01*
X147797500Y-83967500D02*
X147672500Y-83967500D01*
G75*
G02*
X147610000Y-83905000I0J62500D01*
G01*
X147610000Y-83155000D01*
G75*
G02*
X147672500Y-83092500I62500J0D01*
G01*
X147797500Y-83092500D01*
G75*
G02*
X147860000Y-83155000I0J-62500D01*
G01*
X147860000Y-83905000D01*
G75*
G02*
X147797500Y-83967500I-62500J0D01*
G01*
G37*
G36*
G01*
X147297500Y-83945000D02*
X147172500Y-83945000D01*
G75*
G02*
X147110000Y-83882500I0J62500D01*
G01*
X147110000Y-83132500D01*
G75*
G02*
X147172500Y-83070000I62500J0D01*
G01*
X147297500Y-83070000D01*
G75*
G02*
X147360000Y-83132500I0J-62500D01*
G01*
X147360000Y-83882500D01*
G75*
G02*
X147297500Y-83945000I-62500J0D01*
G01*
G37*
G36*
G01*
X146797500Y-83927500D02*
X146672500Y-83927500D01*
G75*
G02*
X146610000Y-83865000I0J62500D01*
G01*
X146610000Y-83115000D01*
G75*
G02*
X146672500Y-83052500I62500J0D01*
G01*
X146797500Y-83052500D01*
G75*
G02*
X146860000Y-83115000I0J-62500D01*
G01*
X146860000Y-83865000D01*
G75*
G02*
X146797500Y-83927500I-62500J0D01*
G01*
G37*
D19*
X147485000Y-84467500D03*
G36*
G01*
X145650000Y-82000000D02*
X145650000Y-81800000D01*
G75*
G02*
X145750000Y-81700000I100000J0D01*
G01*
X146010000Y-81700000D01*
G75*
G02*
X146110000Y-81800000I0J-100000D01*
G01*
X146110000Y-82000000D01*
G75*
G02*
X146010000Y-82100000I-100000J0D01*
G01*
X145750000Y-82100000D01*
G75*
G02*
X145650000Y-82000000I0J100000D01*
G01*
G37*
G36*
G01*
X146290000Y-82000000D02*
X146290000Y-81800000D01*
G75*
G02*
X146390000Y-81700000I100000J0D01*
G01*
X146650000Y-81700000D01*
G75*
G02*
X146750000Y-81800000I0J-100000D01*
G01*
X146750000Y-82000000D01*
G75*
G02*
X146650000Y-82100000I-100000J0D01*
G01*
X146390000Y-82100000D01*
G75*
G02*
X146290000Y-82000000I0J100000D01*
G01*
G37*
G36*
G01*
X188100000Y-64000000D02*
X187900000Y-64000000D01*
G75*
G02*
X187800000Y-63900000I0J100000D01*
G01*
X187800000Y-63640000D01*
G75*
G02*
X187900000Y-63540000I100000J0D01*
G01*
X188100000Y-63540000D01*
G75*
G02*
X188200000Y-63640000I0J-100000D01*
G01*
X188200000Y-63900000D01*
G75*
G02*
X188100000Y-64000000I-100000J0D01*
G01*
G37*
G36*
G01*
X188100000Y-63360000D02*
X187900000Y-63360000D01*
G75*
G02*
X187800000Y-63260000I0J100000D01*
G01*
X187800000Y-63000000D01*
G75*
G02*
X187900000Y-62900000I100000J0D01*
G01*
X188100000Y-62900000D01*
G75*
G02*
X188200000Y-63000000I0J-100000D01*
G01*
X188200000Y-63260000D01*
G75*
G02*
X188100000Y-63360000I-100000J0D01*
G01*
G37*
D20*
X184800000Y-71925000D03*
D21*
X182260000Y-71925000D03*
X179720000Y-71925000D03*
X177180000Y-71925000D03*
G36*
G01*
X158775000Y-95000000D02*
X158775000Y-95300000D01*
G75*
G02*
X158625000Y-95450000I-150000J0D01*
G01*
X157450000Y-95450000D01*
G75*
G02*
X157300000Y-95300000I0J150000D01*
G01*
X157300000Y-95000000D01*
G75*
G02*
X157450000Y-94850000I150000J0D01*
G01*
X158625000Y-94850000D01*
G75*
G02*
X158775000Y-95000000I0J-150000D01*
G01*
G37*
G36*
G01*
X158775000Y-93100000D02*
X158775000Y-93400000D01*
G75*
G02*
X158625000Y-93550000I-150000J0D01*
G01*
X157450000Y-93550000D01*
G75*
G02*
X157300000Y-93400000I0J150000D01*
G01*
X157300000Y-93100000D01*
G75*
G02*
X157450000Y-92950000I150000J0D01*
G01*
X158625000Y-92950000D01*
G75*
G02*
X158775000Y-93100000I0J-150000D01*
G01*
G37*
G36*
G01*
X156900000Y-94050000D02*
X156900000Y-94350000D01*
G75*
G02*
X156750000Y-94500000I-150000J0D01*
G01*
X155575000Y-94500000D01*
G75*
G02*
X155425000Y-94350000I0J150000D01*
G01*
X155425000Y-94050000D01*
G75*
G02*
X155575000Y-93900000I150000J0D01*
G01*
X156750000Y-93900000D01*
G75*
G02*
X156900000Y-94050000I0J-150000D01*
G01*
G37*
G36*
G01*
X150285000Y-85780000D02*
X149915000Y-85780000D01*
G75*
G02*
X149780000Y-85645000I0J135000D01*
G01*
X149780000Y-85375000D01*
G75*
G02*
X149915000Y-85240000I135000J0D01*
G01*
X150285000Y-85240000D01*
G75*
G02*
X150420000Y-85375000I0J-135000D01*
G01*
X150420000Y-85645000D01*
G75*
G02*
X150285000Y-85780000I-135000J0D01*
G01*
G37*
G36*
G01*
X150285000Y-84760000D02*
X149915000Y-84760000D01*
G75*
G02*
X149780000Y-84625000I0J135000D01*
G01*
X149780000Y-84355000D01*
G75*
G02*
X149915000Y-84220000I135000J0D01*
G01*
X150285000Y-84220000D01*
G75*
G02*
X150420000Y-84355000I0J-135000D01*
G01*
X150420000Y-84625000D01*
G75*
G02*
X150285000Y-84760000I-135000J0D01*
G01*
G37*
G36*
G01*
X202850000Y-69870000D02*
X202850000Y-69530000D01*
G75*
G02*
X202990000Y-69390000I140000J0D01*
G01*
X203270000Y-69390000D01*
G75*
G02*
X203410000Y-69530000I0J-140000D01*
G01*
X203410000Y-69870000D01*
G75*
G02*
X203270000Y-70010000I-140000J0D01*
G01*
X202990000Y-70010000D01*
G75*
G02*
X202850000Y-69870000I0J140000D01*
G01*
G37*
G36*
G01*
X203810000Y-69870000D02*
X203810000Y-69530000D01*
G75*
G02*
X203950000Y-69390000I140000J0D01*
G01*
X204230000Y-69390000D01*
G75*
G02*
X204370000Y-69530000I0J-140000D01*
G01*
X204370000Y-69870000D01*
G75*
G02*
X204230000Y-70010000I-140000J0D01*
G01*
X203950000Y-70010000D01*
G75*
G02*
X203810000Y-69870000I0J140000D01*
G01*
G37*
G36*
G01*
X208685000Y-66770000D02*
X208315000Y-66770000D01*
G75*
G02*
X208180000Y-66635000I0J135000D01*
G01*
X208180000Y-66365000D01*
G75*
G02*
X208315000Y-66230000I135000J0D01*
G01*
X208685000Y-66230000D01*
G75*
G02*
X208820000Y-66365000I0J-135000D01*
G01*
X208820000Y-66635000D01*
G75*
G02*
X208685000Y-66770000I-135000J0D01*
G01*
G37*
G36*
G01*
X208685000Y-65750000D02*
X208315000Y-65750000D01*
G75*
G02*
X208180000Y-65615000I0J135000D01*
G01*
X208180000Y-65345000D01*
G75*
G02*
X208315000Y-65210000I135000J0D01*
G01*
X208685000Y-65210000D01*
G75*
G02*
X208820000Y-65345000I0J-135000D01*
G01*
X208820000Y-65615000D01*
G75*
G02*
X208685000Y-65750000I-135000J0D01*
G01*
G37*
G36*
G01*
X225460000Y-88355000D02*
X225140000Y-88355000D01*
G75*
G02*
X224980000Y-88195000I0J160000D01*
G01*
X224980000Y-87800000D01*
G75*
G02*
X225140000Y-87640000I160000J0D01*
G01*
X225460000Y-87640000D01*
G75*
G02*
X225620000Y-87800000I0J-160000D01*
G01*
X225620000Y-88195000D01*
G75*
G02*
X225460000Y-88355000I-160000J0D01*
G01*
G37*
G36*
G01*
X225460000Y-87160000D02*
X225140000Y-87160000D01*
G75*
G02*
X224980000Y-87000000I0J160000D01*
G01*
X224980000Y-86605000D01*
G75*
G02*
X225140000Y-86445000I160000J0D01*
G01*
X225460000Y-86445000D01*
G75*
G02*
X225620000Y-86605000I0J-160000D01*
G01*
X225620000Y-87000000D01*
G75*
G02*
X225460000Y-87160000I-160000J0D01*
G01*
G37*
G36*
G01*
X200320000Y-78860000D02*
X200170000Y-78860000D01*
G75*
G02*
X200095000Y-78785000I0J75000D01*
G01*
X200095000Y-77485000D01*
G75*
G02*
X200170000Y-77410000I75000J0D01*
G01*
X200320000Y-77410000D01*
G75*
G02*
X200395000Y-77485000I0J-75000D01*
G01*
X200395000Y-78785000D01*
G75*
G02*
X200320000Y-78860000I-75000J0D01*
G01*
G37*
G36*
G01*
X200820000Y-78860000D02*
X200670000Y-78860000D01*
G75*
G02*
X200595000Y-78785000I0J75000D01*
G01*
X200595000Y-77485000D01*
G75*
G02*
X200670000Y-77410000I75000J0D01*
G01*
X200820000Y-77410000D01*
G75*
G02*
X200895000Y-77485000I0J-75000D01*
G01*
X200895000Y-78785000D01*
G75*
G02*
X200820000Y-78860000I-75000J0D01*
G01*
G37*
G36*
G01*
X201320000Y-78860000D02*
X201170000Y-78860000D01*
G75*
G02*
X201095000Y-78785000I0J75000D01*
G01*
X201095000Y-77485000D01*
G75*
G02*
X201170000Y-77410000I75000J0D01*
G01*
X201320000Y-77410000D01*
G75*
G02*
X201395000Y-77485000I0J-75000D01*
G01*
X201395000Y-78785000D01*
G75*
G02*
X201320000Y-78860000I-75000J0D01*
G01*
G37*
G36*
G01*
X201820000Y-78860000D02*
X201670000Y-78860000D01*
G75*
G02*
X201595000Y-78785000I0J75000D01*
G01*
X201595000Y-77485000D01*
G75*
G02*
X201670000Y-77410000I75000J0D01*
G01*
X201820000Y-77410000D01*
G75*
G02*
X201895000Y-77485000I0J-75000D01*
G01*
X201895000Y-78785000D01*
G75*
G02*
X201820000Y-78860000I-75000J0D01*
G01*
G37*
G36*
G01*
X202320000Y-78860000D02*
X202170000Y-78860000D01*
G75*
G02*
X202095000Y-78785000I0J75000D01*
G01*
X202095000Y-77485000D01*
G75*
G02*
X202170000Y-77410000I75000J0D01*
G01*
X202320000Y-77410000D01*
G75*
G02*
X202395000Y-77485000I0J-75000D01*
G01*
X202395000Y-78785000D01*
G75*
G02*
X202320000Y-78860000I-75000J0D01*
G01*
G37*
G36*
G01*
X202320000Y-74560000D02*
X202170000Y-74560000D01*
G75*
G02*
X202095000Y-74485000I0J75000D01*
G01*
X202095000Y-73185000D01*
G75*
G02*
X202170000Y-73110000I75000J0D01*
G01*
X202320000Y-73110000D01*
G75*
G02*
X202395000Y-73185000I0J-75000D01*
G01*
X202395000Y-74485000D01*
G75*
G02*
X202320000Y-74560000I-75000J0D01*
G01*
G37*
G36*
G01*
X201820000Y-74560000D02*
X201670000Y-74560000D01*
G75*
G02*
X201595000Y-74485000I0J75000D01*
G01*
X201595000Y-73185000D01*
G75*
G02*
X201670000Y-73110000I75000J0D01*
G01*
X201820000Y-73110000D01*
G75*
G02*
X201895000Y-73185000I0J-75000D01*
G01*
X201895000Y-74485000D01*
G75*
G02*
X201820000Y-74560000I-75000J0D01*
G01*
G37*
G36*
G01*
X201320000Y-74560000D02*
X201170000Y-74560000D01*
G75*
G02*
X201095000Y-74485000I0J75000D01*
G01*
X201095000Y-73185000D01*
G75*
G02*
X201170000Y-73110000I75000J0D01*
G01*
X201320000Y-73110000D01*
G75*
G02*
X201395000Y-73185000I0J-75000D01*
G01*
X201395000Y-74485000D01*
G75*
G02*
X201320000Y-74560000I-75000J0D01*
G01*
G37*
G36*
G01*
X200820000Y-74560000D02*
X200670000Y-74560000D01*
G75*
G02*
X200595000Y-74485000I0J75000D01*
G01*
X200595000Y-73185000D01*
G75*
G02*
X200670000Y-73110000I75000J0D01*
G01*
X200820000Y-73110000D01*
G75*
G02*
X200895000Y-73185000I0J-75000D01*
G01*
X200895000Y-74485000D01*
G75*
G02*
X200820000Y-74560000I-75000J0D01*
G01*
G37*
G36*
G01*
X200320000Y-74560000D02*
X200170000Y-74560000D01*
G75*
G02*
X200095000Y-74485000I0J75000D01*
G01*
X200095000Y-73185000D01*
G75*
G02*
X200170000Y-73110000I75000J0D01*
G01*
X200320000Y-73110000D01*
G75*
G02*
X200395000Y-73185000I0J-75000D01*
G01*
X200395000Y-74485000D01*
G75*
G02*
X200320000Y-74560000I-75000J0D01*
G01*
G37*
D22*
X201245000Y-75985000D03*
D23*
X145900000Y-94900000D03*
X149800000Y-94900000D03*
X145900000Y-96170000D03*
X149800000Y-96170000D03*
X145900000Y-97440000D03*
X149800000Y-97440000D03*
X145900000Y-98710000D03*
X149800000Y-98710000D03*
X145900000Y-99980000D03*
X149800000Y-99980000D03*
G36*
G01*
X188470000Y-97280000D02*
X188130000Y-97280000D01*
G75*
G02*
X187990000Y-97140000I0J140000D01*
G01*
X187990000Y-96860000D01*
G75*
G02*
X188130000Y-96720000I140000J0D01*
G01*
X188470000Y-96720000D01*
G75*
G02*
X188610000Y-96860000I0J-140000D01*
G01*
X188610000Y-97140000D01*
G75*
G02*
X188470000Y-97280000I-140000J0D01*
G01*
G37*
G36*
G01*
X188470000Y-96320000D02*
X188130000Y-96320000D01*
G75*
G02*
X187990000Y-96180000I0J140000D01*
G01*
X187990000Y-95900000D01*
G75*
G02*
X188130000Y-95760000I140000J0D01*
G01*
X188470000Y-95760000D01*
G75*
G02*
X188610000Y-95900000I0J-140000D01*
G01*
X188610000Y-96180000D01*
G75*
G02*
X188470000Y-96320000I-140000J0D01*
G01*
G37*
G36*
G01*
X165800000Y-76705000D02*
X165600000Y-76705000D01*
G75*
G02*
X165500000Y-76605000I0J100000D01*
G01*
X165500000Y-76345000D01*
G75*
G02*
X165600000Y-76245000I100000J0D01*
G01*
X165800000Y-76245000D01*
G75*
G02*
X165900000Y-76345000I0J-100000D01*
G01*
X165900000Y-76605000D01*
G75*
G02*
X165800000Y-76705000I-100000J0D01*
G01*
G37*
G36*
G01*
X165800000Y-76065000D02*
X165600000Y-76065000D01*
G75*
G02*
X165500000Y-75965000I0J100000D01*
G01*
X165500000Y-75705000D01*
G75*
G02*
X165600000Y-75605000I100000J0D01*
G01*
X165800000Y-75605000D01*
G75*
G02*
X165900000Y-75705000I0J-100000D01*
G01*
X165900000Y-75965000D01*
G75*
G02*
X165800000Y-76065000I-100000J0D01*
G01*
G37*
G36*
G01*
X158320000Y-83570000D02*
X158320000Y-83230000D01*
G75*
G02*
X158460000Y-83090000I140000J0D01*
G01*
X158740000Y-83090000D01*
G75*
G02*
X158880000Y-83230000I0J-140000D01*
G01*
X158880000Y-83570000D01*
G75*
G02*
X158740000Y-83710000I-140000J0D01*
G01*
X158460000Y-83710000D01*
G75*
G02*
X158320000Y-83570000I0J140000D01*
G01*
G37*
G36*
G01*
X159280000Y-83570000D02*
X159280000Y-83230000D01*
G75*
G02*
X159420000Y-83090000I140000J0D01*
G01*
X159700000Y-83090000D01*
G75*
G02*
X159840000Y-83230000I0J-140000D01*
G01*
X159840000Y-83570000D01*
G75*
G02*
X159700000Y-83710000I-140000J0D01*
G01*
X159420000Y-83710000D01*
G75*
G02*
X159280000Y-83570000I0J140000D01*
G01*
G37*
G36*
G01*
X210985000Y-67070000D02*
X210615000Y-67070000D01*
G75*
G02*
X210480000Y-66935000I0J135000D01*
G01*
X210480000Y-66665000D01*
G75*
G02*
X210615000Y-66530000I135000J0D01*
G01*
X210985000Y-66530000D01*
G75*
G02*
X211120000Y-66665000I0J-135000D01*
G01*
X211120000Y-66935000D01*
G75*
G02*
X210985000Y-67070000I-135000J0D01*
G01*
G37*
G36*
G01*
X210985000Y-66050000D02*
X210615000Y-66050000D01*
G75*
G02*
X210480000Y-65915000I0J135000D01*
G01*
X210480000Y-65645000D01*
G75*
G02*
X210615000Y-65510000I135000J0D01*
G01*
X210985000Y-65510000D01*
G75*
G02*
X211120000Y-65645000I0J-135000D01*
G01*
X211120000Y-65915000D01*
G75*
G02*
X210985000Y-66050000I-135000J0D01*
G01*
G37*
D24*
X196500000Y-98850000D03*
X188500000Y-98850000D03*
X196500000Y-94350000D03*
X188500000Y-94350000D03*
G36*
G01*
X156400000Y-91105000D02*
X156600000Y-91105000D01*
G75*
G02*
X156700000Y-91205000I0J-100000D01*
G01*
X156700000Y-91465000D01*
G75*
G02*
X156600000Y-91565000I-100000J0D01*
G01*
X156400000Y-91565000D01*
G75*
G02*
X156300000Y-91465000I0J100000D01*
G01*
X156300000Y-91205000D01*
G75*
G02*
X156400000Y-91105000I100000J0D01*
G01*
G37*
G36*
G01*
X156400000Y-91745000D02*
X156600000Y-91745000D01*
G75*
G02*
X156700000Y-91845000I0J-100000D01*
G01*
X156700000Y-92105000D01*
G75*
G02*
X156600000Y-92205000I-100000J0D01*
G01*
X156400000Y-92205000D01*
G75*
G02*
X156300000Y-92105000I0J100000D01*
G01*
X156300000Y-91845000D01*
G75*
G02*
X156400000Y-91745000I100000J0D01*
G01*
G37*
G36*
G01*
X203872500Y-63765000D02*
X203527500Y-63765000D01*
G75*
G02*
X203380000Y-63617500I0J147500D01*
G01*
X203380000Y-63322500D01*
G75*
G02*
X203527500Y-63175000I147500J0D01*
G01*
X203872500Y-63175000D01*
G75*
G02*
X204020000Y-63322500I0J-147500D01*
G01*
X204020000Y-63617500D01*
G75*
G02*
X203872500Y-63765000I-147500J0D01*
G01*
G37*
G36*
G01*
X203872500Y-62795000D02*
X203527500Y-62795000D01*
G75*
G02*
X203380000Y-62647500I0J147500D01*
G01*
X203380000Y-62352500D01*
G75*
G02*
X203527500Y-62205000I147500J0D01*
G01*
X203872500Y-62205000D01*
G75*
G02*
X204020000Y-62352500I0J-147500D01*
G01*
X204020000Y-62647500D01*
G75*
G02*
X203872500Y-62795000I-147500J0D01*
G01*
G37*
G36*
G01*
X199100000Y-98395000D02*
X198900000Y-98395000D01*
G75*
G02*
X198800000Y-98295000I0J100000D01*
G01*
X198800000Y-98035000D01*
G75*
G02*
X198900000Y-97935000I100000J0D01*
G01*
X199100000Y-97935000D01*
G75*
G02*
X199200000Y-98035000I0J-100000D01*
G01*
X199200000Y-98295000D01*
G75*
G02*
X199100000Y-98395000I-100000J0D01*
G01*
G37*
G36*
G01*
X199100000Y-97755000D02*
X198900000Y-97755000D01*
G75*
G02*
X198800000Y-97655000I0J100000D01*
G01*
X198800000Y-97395000D01*
G75*
G02*
X198900000Y-97295000I100000J0D01*
G01*
X199100000Y-97295000D01*
G75*
G02*
X199200000Y-97395000I0J-100000D01*
G01*
X199200000Y-97655000D01*
G75*
G02*
X199100000Y-97755000I-100000J0D01*
G01*
G37*
G36*
G01*
X177070000Y-66640000D02*
X176730000Y-66640000D01*
G75*
G02*
X176590000Y-66500000I0J140000D01*
G01*
X176590000Y-66220000D01*
G75*
G02*
X176730000Y-66080000I140000J0D01*
G01*
X177070000Y-66080000D01*
G75*
G02*
X177210000Y-66220000I0J-140000D01*
G01*
X177210000Y-66500000D01*
G75*
G02*
X177070000Y-66640000I-140000J0D01*
G01*
G37*
G36*
G01*
X177070000Y-65680000D02*
X176730000Y-65680000D01*
G75*
G02*
X176590000Y-65540000I0J140000D01*
G01*
X176590000Y-65260000D01*
G75*
G02*
X176730000Y-65120000I140000J0D01*
G01*
X177070000Y-65120000D01*
G75*
G02*
X177210000Y-65260000I0J-140000D01*
G01*
X177210000Y-65540000D01*
G75*
G02*
X177070000Y-65680000I-140000J0D01*
G01*
G37*
G36*
G01*
X162150000Y-80525000D02*
X162150000Y-80375000D01*
G75*
G02*
X162225000Y-80300000I75000J0D01*
G01*
X163625000Y-80300000D01*
G75*
G02*
X163700000Y-80375000I0J-75000D01*
G01*
X163700000Y-80525000D01*
G75*
G02*
X163625000Y-80600000I-75000J0D01*
G01*
X162225000Y-80600000D01*
G75*
G02*
X162150000Y-80525000I0J75000D01*
G01*
G37*
G36*
G01*
X162150000Y-81025000D02*
X162150000Y-80875000D01*
G75*
G02*
X162225000Y-80800000I75000J0D01*
G01*
X163625000Y-80800000D01*
G75*
G02*
X163700000Y-80875000I0J-75000D01*
G01*
X163700000Y-81025000D01*
G75*
G02*
X163625000Y-81100000I-75000J0D01*
G01*
X162225000Y-81100000D01*
G75*
G02*
X162150000Y-81025000I0J75000D01*
G01*
G37*
G36*
G01*
X162150000Y-81525000D02*
X162150000Y-81375000D01*
G75*
G02*
X162225000Y-81300000I75000J0D01*
G01*
X163625000Y-81300000D01*
G75*
G02*
X163700000Y-81375000I0J-75000D01*
G01*
X163700000Y-81525000D01*
G75*
G02*
X163625000Y-81600000I-75000J0D01*
G01*
X162225000Y-81600000D01*
G75*
G02*
X162150000Y-81525000I0J75000D01*
G01*
G37*
G36*
G01*
X162150000Y-82025000D02*
X162150000Y-81875000D01*
G75*
G02*
X162225000Y-81800000I75000J0D01*
G01*
X163625000Y-81800000D01*
G75*
G02*
X163700000Y-81875000I0J-75000D01*
G01*
X163700000Y-82025000D01*
G75*
G02*
X163625000Y-82100000I-75000J0D01*
G01*
X162225000Y-82100000D01*
G75*
G02*
X162150000Y-82025000I0J75000D01*
G01*
G37*
G36*
G01*
X162150000Y-82525000D02*
X162150000Y-82375000D01*
G75*
G02*
X162225000Y-82300000I75000J0D01*
G01*
X163625000Y-82300000D01*
G75*
G02*
X163700000Y-82375000I0J-75000D01*
G01*
X163700000Y-82525000D01*
G75*
G02*
X163625000Y-82600000I-75000J0D01*
G01*
X162225000Y-82600000D01*
G75*
G02*
X162150000Y-82525000I0J75000D01*
G01*
G37*
G36*
G01*
X162150000Y-83025000D02*
X162150000Y-82875000D01*
G75*
G02*
X162225000Y-82800000I75000J0D01*
G01*
X163625000Y-82800000D01*
G75*
G02*
X163700000Y-82875000I0J-75000D01*
G01*
X163700000Y-83025000D01*
G75*
G02*
X163625000Y-83100000I-75000J0D01*
G01*
X162225000Y-83100000D01*
G75*
G02*
X162150000Y-83025000I0J75000D01*
G01*
G37*
G36*
G01*
X162150000Y-83525000D02*
X162150000Y-83375000D01*
G75*
G02*
X162225000Y-83300000I75000J0D01*
G01*
X163625000Y-83300000D01*
G75*
G02*
X163700000Y-83375000I0J-75000D01*
G01*
X163700000Y-83525000D01*
G75*
G02*
X163625000Y-83600000I-75000J0D01*
G01*
X162225000Y-83600000D01*
G75*
G02*
X162150000Y-83525000I0J75000D01*
G01*
G37*
G36*
G01*
X162150000Y-84025000D02*
X162150000Y-83875000D01*
G75*
G02*
X162225000Y-83800000I75000J0D01*
G01*
X163625000Y-83800000D01*
G75*
G02*
X163700000Y-83875000I0J-75000D01*
G01*
X163700000Y-84025000D01*
G75*
G02*
X163625000Y-84100000I-75000J0D01*
G01*
X162225000Y-84100000D01*
G75*
G02*
X162150000Y-84025000I0J75000D01*
G01*
G37*
G36*
G01*
X162150000Y-84525000D02*
X162150000Y-84375000D01*
G75*
G02*
X162225000Y-84300000I75000J0D01*
G01*
X163625000Y-84300000D01*
G75*
G02*
X163700000Y-84375000I0J-75000D01*
G01*
X163700000Y-84525000D01*
G75*
G02*
X163625000Y-84600000I-75000J0D01*
G01*
X162225000Y-84600000D01*
G75*
G02*
X162150000Y-84525000I0J75000D01*
G01*
G37*
G36*
G01*
X162150000Y-85025000D02*
X162150000Y-84875000D01*
G75*
G02*
X162225000Y-84800000I75000J0D01*
G01*
X163625000Y-84800000D01*
G75*
G02*
X163700000Y-84875000I0J-75000D01*
G01*
X163700000Y-85025000D01*
G75*
G02*
X163625000Y-85100000I-75000J0D01*
G01*
X162225000Y-85100000D01*
G75*
G02*
X162150000Y-85025000I0J75000D01*
G01*
G37*
G36*
G01*
X162150000Y-85525000D02*
X162150000Y-85375000D01*
G75*
G02*
X162225000Y-85300000I75000J0D01*
G01*
X163625000Y-85300000D01*
G75*
G02*
X163700000Y-85375000I0J-75000D01*
G01*
X163700000Y-85525000D01*
G75*
G02*
X163625000Y-85600000I-75000J0D01*
G01*
X162225000Y-85600000D01*
G75*
G02*
X162150000Y-85525000I0J75000D01*
G01*
G37*
G36*
G01*
X162150000Y-86025000D02*
X162150000Y-85875000D01*
G75*
G02*
X162225000Y-85800000I75000J0D01*
G01*
X163625000Y-85800000D01*
G75*
G02*
X163700000Y-85875000I0J-75000D01*
G01*
X163700000Y-86025000D01*
G75*
G02*
X163625000Y-86100000I-75000J0D01*
G01*
X162225000Y-86100000D01*
G75*
G02*
X162150000Y-86025000I0J75000D01*
G01*
G37*
G36*
G01*
X162150000Y-86525000D02*
X162150000Y-86375000D01*
G75*
G02*
X162225000Y-86300000I75000J0D01*
G01*
X163625000Y-86300000D01*
G75*
G02*
X163700000Y-86375000I0J-75000D01*
G01*
X163700000Y-86525000D01*
G75*
G02*
X163625000Y-86600000I-75000J0D01*
G01*
X162225000Y-86600000D01*
G75*
G02*
X162150000Y-86525000I0J75000D01*
G01*
G37*
G36*
G01*
X162150000Y-87025000D02*
X162150000Y-86875000D01*
G75*
G02*
X162225000Y-86800000I75000J0D01*
G01*
X163625000Y-86800000D01*
G75*
G02*
X163700000Y-86875000I0J-75000D01*
G01*
X163700000Y-87025000D01*
G75*
G02*
X163625000Y-87100000I-75000J0D01*
G01*
X162225000Y-87100000D01*
G75*
G02*
X162150000Y-87025000I0J75000D01*
G01*
G37*
G36*
G01*
X162150000Y-87525000D02*
X162150000Y-87375000D01*
G75*
G02*
X162225000Y-87300000I75000J0D01*
G01*
X163625000Y-87300000D01*
G75*
G02*
X163700000Y-87375000I0J-75000D01*
G01*
X163700000Y-87525000D01*
G75*
G02*
X163625000Y-87600000I-75000J0D01*
G01*
X162225000Y-87600000D01*
G75*
G02*
X162150000Y-87525000I0J75000D01*
G01*
G37*
G36*
G01*
X162150000Y-88025000D02*
X162150000Y-87875000D01*
G75*
G02*
X162225000Y-87800000I75000J0D01*
G01*
X163625000Y-87800000D01*
G75*
G02*
X163700000Y-87875000I0J-75000D01*
G01*
X163700000Y-88025000D01*
G75*
G02*
X163625000Y-88100000I-75000J0D01*
G01*
X162225000Y-88100000D01*
G75*
G02*
X162150000Y-88025000I0J75000D01*
G01*
G37*
G36*
G01*
X164700000Y-90575000D02*
X164700000Y-89175000D01*
G75*
G02*
X164775000Y-89100000I75000J0D01*
G01*
X164925000Y-89100000D01*
G75*
G02*
X165000000Y-89175000I0J-75000D01*
G01*
X165000000Y-90575000D01*
G75*
G02*
X164925000Y-90650000I-75000J0D01*
G01*
X164775000Y-90650000D01*
G75*
G02*
X164700000Y-90575000I0J75000D01*
G01*
G37*
G36*
G01*
X165200000Y-90575000D02*
X165200000Y-89175000D01*
G75*
G02*
X165275000Y-89100000I75000J0D01*
G01*
X165425000Y-89100000D01*
G75*
G02*
X165500000Y-89175000I0J-75000D01*
G01*
X165500000Y-90575000D01*
G75*
G02*
X165425000Y-90650000I-75000J0D01*
G01*
X165275000Y-90650000D01*
G75*
G02*
X165200000Y-90575000I0J75000D01*
G01*
G37*
G36*
G01*
X165700000Y-90575000D02*
X165700000Y-89175000D01*
G75*
G02*
X165775000Y-89100000I75000J0D01*
G01*
X165925000Y-89100000D01*
G75*
G02*
X166000000Y-89175000I0J-75000D01*
G01*
X166000000Y-90575000D01*
G75*
G02*
X165925000Y-90650000I-75000J0D01*
G01*
X165775000Y-90650000D01*
G75*
G02*
X165700000Y-90575000I0J75000D01*
G01*
G37*
G36*
G01*
X166200000Y-90575000D02*
X166200000Y-89175000D01*
G75*
G02*
X166275000Y-89100000I75000J0D01*
G01*
X166425000Y-89100000D01*
G75*
G02*
X166500000Y-89175000I0J-75000D01*
G01*
X166500000Y-90575000D01*
G75*
G02*
X166425000Y-90650000I-75000J0D01*
G01*
X166275000Y-90650000D01*
G75*
G02*
X166200000Y-90575000I0J75000D01*
G01*
G37*
G36*
G01*
X166700000Y-90575000D02*
X166700000Y-89175000D01*
G75*
G02*
X166775000Y-89100000I75000J0D01*
G01*
X166925000Y-89100000D01*
G75*
G02*
X167000000Y-89175000I0J-75000D01*
G01*
X167000000Y-90575000D01*
G75*
G02*
X166925000Y-90650000I-75000J0D01*
G01*
X166775000Y-90650000D01*
G75*
G02*
X166700000Y-90575000I0J75000D01*
G01*
G37*
G36*
G01*
X167200000Y-90575000D02*
X167200000Y-89175000D01*
G75*
G02*
X167275000Y-89100000I75000J0D01*
G01*
X167425000Y-89100000D01*
G75*
G02*
X167500000Y-89175000I0J-75000D01*
G01*
X167500000Y-90575000D01*
G75*
G02*
X167425000Y-90650000I-75000J0D01*
G01*
X167275000Y-90650000D01*
G75*
G02*
X167200000Y-90575000I0J75000D01*
G01*
G37*
G36*
G01*
X167700000Y-90575000D02*
X167700000Y-89175000D01*
G75*
G02*
X167775000Y-89100000I75000J0D01*
G01*
X167925000Y-89100000D01*
G75*
G02*
X168000000Y-89175000I0J-75000D01*
G01*
X168000000Y-90575000D01*
G75*
G02*
X167925000Y-90650000I-75000J0D01*
G01*
X167775000Y-90650000D01*
G75*
G02*
X167700000Y-90575000I0J75000D01*
G01*
G37*
G36*
G01*
X168200000Y-90575000D02*
X168200000Y-89175000D01*
G75*
G02*
X168275000Y-89100000I75000J0D01*
G01*
X168425000Y-89100000D01*
G75*
G02*
X168500000Y-89175000I0J-75000D01*
G01*
X168500000Y-90575000D01*
G75*
G02*
X168425000Y-90650000I-75000J0D01*
G01*
X168275000Y-90650000D01*
G75*
G02*
X168200000Y-90575000I0J75000D01*
G01*
G37*
G36*
G01*
X168700000Y-90575000D02*
X168700000Y-89175000D01*
G75*
G02*
X168775000Y-89100000I75000J0D01*
G01*
X168925000Y-89100000D01*
G75*
G02*
X169000000Y-89175000I0J-75000D01*
G01*
X169000000Y-90575000D01*
G75*
G02*
X168925000Y-90650000I-75000J0D01*
G01*
X168775000Y-90650000D01*
G75*
G02*
X168700000Y-90575000I0J75000D01*
G01*
G37*
G36*
G01*
X169200000Y-90575000D02*
X169200000Y-89175000D01*
G75*
G02*
X169275000Y-89100000I75000J0D01*
G01*
X169425000Y-89100000D01*
G75*
G02*
X169500000Y-89175000I0J-75000D01*
G01*
X169500000Y-90575000D01*
G75*
G02*
X169425000Y-90650000I-75000J0D01*
G01*
X169275000Y-90650000D01*
G75*
G02*
X169200000Y-90575000I0J75000D01*
G01*
G37*
G36*
G01*
X169700000Y-90575000D02*
X169700000Y-89175000D01*
G75*
G02*
X169775000Y-89100000I75000J0D01*
G01*
X169925000Y-89100000D01*
G75*
G02*
X170000000Y-89175000I0J-75000D01*
G01*
X170000000Y-90575000D01*
G75*
G02*
X169925000Y-90650000I-75000J0D01*
G01*
X169775000Y-90650000D01*
G75*
G02*
X169700000Y-90575000I0J75000D01*
G01*
G37*
G36*
G01*
X170200000Y-90575000D02*
X170200000Y-89175000D01*
G75*
G02*
X170275000Y-89100000I75000J0D01*
G01*
X170425000Y-89100000D01*
G75*
G02*
X170500000Y-89175000I0J-75000D01*
G01*
X170500000Y-90575000D01*
G75*
G02*
X170425000Y-90650000I-75000J0D01*
G01*
X170275000Y-90650000D01*
G75*
G02*
X170200000Y-90575000I0J75000D01*
G01*
G37*
G36*
G01*
X170700000Y-90575000D02*
X170700000Y-89175000D01*
G75*
G02*
X170775000Y-89100000I75000J0D01*
G01*
X170925000Y-89100000D01*
G75*
G02*
X171000000Y-89175000I0J-75000D01*
G01*
X171000000Y-90575000D01*
G75*
G02*
X170925000Y-90650000I-75000J0D01*
G01*
X170775000Y-90650000D01*
G75*
G02*
X170700000Y-90575000I0J75000D01*
G01*
G37*
G36*
G01*
X171200000Y-90575000D02*
X171200000Y-89175000D01*
G75*
G02*
X171275000Y-89100000I75000J0D01*
G01*
X171425000Y-89100000D01*
G75*
G02*
X171500000Y-89175000I0J-75000D01*
G01*
X171500000Y-90575000D01*
G75*
G02*
X171425000Y-90650000I-75000J0D01*
G01*
X171275000Y-90650000D01*
G75*
G02*
X171200000Y-90575000I0J75000D01*
G01*
G37*
G36*
G01*
X171700000Y-90575000D02*
X171700000Y-89175000D01*
G75*
G02*
X171775000Y-89100000I75000J0D01*
G01*
X171925000Y-89100000D01*
G75*
G02*
X172000000Y-89175000I0J-75000D01*
G01*
X172000000Y-90575000D01*
G75*
G02*
X171925000Y-90650000I-75000J0D01*
G01*
X171775000Y-90650000D01*
G75*
G02*
X171700000Y-90575000I0J75000D01*
G01*
G37*
G36*
G01*
X172200000Y-90575000D02*
X172200000Y-89175000D01*
G75*
G02*
X172275000Y-89100000I75000J0D01*
G01*
X172425000Y-89100000D01*
G75*
G02*
X172500000Y-89175000I0J-75000D01*
G01*
X172500000Y-90575000D01*
G75*
G02*
X172425000Y-90650000I-75000J0D01*
G01*
X172275000Y-90650000D01*
G75*
G02*
X172200000Y-90575000I0J75000D01*
G01*
G37*
G36*
G01*
X173500000Y-88025000D02*
X173500000Y-87875000D01*
G75*
G02*
X173575000Y-87800000I75000J0D01*
G01*
X174975000Y-87800000D01*
G75*
G02*
X175050000Y-87875000I0J-75000D01*
G01*
X175050000Y-88025000D01*
G75*
G02*
X174975000Y-88100000I-75000J0D01*
G01*
X173575000Y-88100000D01*
G75*
G02*
X173500000Y-88025000I0J75000D01*
G01*
G37*
G36*
G01*
X173500000Y-87525000D02*
X173500000Y-87375000D01*
G75*
G02*
X173575000Y-87300000I75000J0D01*
G01*
X174975000Y-87300000D01*
G75*
G02*
X175050000Y-87375000I0J-75000D01*
G01*
X175050000Y-87525000D01*
G75*
G02*
X174975000Y-87600000I-75000J0D01*
G01*
X173575000Y-87600000D01*
G75*
G02*
X173500000Y-87525000I0J75000D01*
G01*
G37*
G36*
G01*
X173500000Y-87025000D02*
X173500000Y-86875000D01*
G75*
G02*
X173575000Y-86800000I75000J0D01*
G01*
X174975000Y-86800000D01*
G75*
G02*
X175050000Y-86875000I0J-75000D01*
G01*
X175050000Y-87025000D01*
G75*
G02*
X174975000Y-87100000I-75000J0D01*
G01*
X173575000Y-87100000D01*
G75*
G02*
X173500000Y-87025000I0J75000D01*
G01*
G37*
G36*
G01*
X173500000Y-86525000D02*
X173500000Y-86375000D01*
G75*
G02*
X173575000Y-86300000I75000J0D01*
G01*
X174975000Y-86300000D01*
G75*
G02*
X175050000Y-86375000I0J-75000D01*
G01*
X175050000Y-86525000D01*
G75*
G02*
X174975000Y-86600000I-75000J0D01*
G01*
X173575000Y-86600000D01*
G75*
G02*
X173500000Y-86525000I0J75000D01*
G01*
G37*
G36*
G01*
X173500000Y-86025000D02*
X173500000Y-85875000D01*
G75*
G02*
X173575000Y-85800000I75000J0D01*
G01*
X174975000Y-85800000D01*
G75*
G02*
X175050000Y-85875000I0J-75000D01*
G01*
X175050000Y-86025000D01*
G75*
G02*
X174975000Y-86100000I-75000J0D01*
G01*
X173575000Y-86100000D01*
G75*
G02*
X173500000Y-86025000I0J75000D01*
G01*
G37*
G36*
G01*
X173500000Y-85525000D02*
X173500000Y-85375000D01*
G75*
G02*
X173575000Y-85300000I75000J0D01*
G01*
X174975000Y-85300000D01*
G75*
G02*
X175050000Y-85375000I0J-75000D01*
G01*
X175050000Y-85525000D01*
G75*
G02*
X174975000Y-85600000I-75000J0D01*
G01*
X173575000Y-85600000D01*
G75*
G02*
X173500000Y-85525000I0J75000D01*
G01*
G37*
G36*
G01*
X173500000Y-85025000D02*
X173500000Y-84875000D01*
G75*
G02*
X173575000Y-84800000I75000J0D01*
G01*
X174975000Y-84800000D01*
G75*
G02*
X175050000Y-84875000I0J-75000D01*
G01*
X175050000Y-85025000D01*
G75*
G02*
X174975000Y-85100000I-75000J0D01*
G01*
X173575000Y-85100000D01*
G75*
G02*
X173500000Y-85025000I0J75000D01*
G01*
G37*
G36*
G01*
X173500000Y-84525000D02*
X173500000Y-84375000D01*
G75*
G02*
X173575000Y-84300000I75000J0D01*
G01*
X174975000Y-84300000D01*
G75*
G02*
X175050000Y-84375000I0J-75000D01*
G01*
X175050000Y-84525000D01*
G75*
G02*
X174975000Y-84600000I-75000J0D01*
G01*
X173575000Y-84600000D01*
G75*
G02*
X173500000Y-84525000I0J75000D01*
G01*
G37*
G36*
G01*
X173500000Y-84025000D02*
X173500000Y-83875000D01*
G75*
G02*
X173575000Y-83800000I75000J0D01*
G01*
X174975000Y-83800000D01*
G75*
G02*
X175050000Y-83875000I0J-75000D01*
G01*
X175050000Y-84025000D01*
G75*
G02*
X174975000Y-84100000I-75000J0D01*
G01*
X173575000Y-84100000D01*
G75*
G02*
X173500000Y-84025000I0J75000D01*
G01*
G37*
G36*
G01*
X173500000Y-83525000D02*
X173500000Y-83375000D01*
G75*
G02*
X173575000Y-83300000I75000J0D01*
G01*
X174975000Y-83300000D01*
G75*
G02*
X175050000Y-83375000I0J-75000D01*
G01*
X175050000Y-83525000D01*
G75*
G02*
X174975000Y-83600000I-75000J0D01*
G01*
X173575000Y-83600000D01*
G75*
G02*
X173500000Y-83525000I0J75000D01*
G01*
G37*
G36*
G01*
X173500000Y-83025000D02*
X173500000Y-82875000D01*
G75*
G02*
X173575000Y-82800000I75000J0D01*
G01*
X174975000Y-82800000D01*
G75*
G02*
X175050000Y-82875000I0J-75000D01*
G01*
X175050000Y-83025000D01*
G75*
G02*
X174975000Y-83100000I-75000J0D01*
G01*
X173575000Y-83100000D01*
G75*
G02*
X173500000Y-83025000I0J75000D01*
G01*
G37*
G36*
G01*
X173500000Y-82525000D02*
X173500000Y-82375000D01*
G75*
G02*
X173575000Y-82300000I75000J0D01*
G01*
X174975000Y-82300000D01*
G75*
G02*
X175050000Y-82375000I0J-75000D01*
G01*
X175050000Y-82525000D01*
G75*
G02*
X174975000Y-82600000I-75000J0D01*
G01*
X173575000Y-82600000D01*
G75*
G02*
X173500000Y-82525000I0J75000D01*
G01*
G37*
G36*
G01*
X173500000Y-82025000D02*
X173500000Y-81875000D01*
G75*
G02*
X173575000Y-81800000I75000J0D01*
G01*
X174975000Y-81800000D01*
G75*
G02*
X175050000Y-81875000I0J-75000D01*
G01*
X175050000Y-82025000D01*
G75*
G02*
X174975000Y-82100000I-75000J0D01*
G01*
X173575000Y-82100000D01*
G75*
G02*
X173500000Y-82025000I0J75000D01*
G01*
G37*
G36*
G01*
X173500000Y-81525000D02*
X173500000Y-81375000D01*
G75*
G02*
X173575000Y-81300000I75000J0D01*
G01*
X174975000Y-81300000D01*
G75*
G02*
X175050000Y-81375000I0J-75000D01*
G01*
X175050000Y-81525000D01*
G75*
G02*
X174975000Y-81600000I-75000J0D01*
G01*
X173575000Y-81600000D01*
G75*
G02*
X173500000Y-81525000I0J75000D01*
G01*
G37*
G36*
G01*
X173500000Y-81025000D02*
X173500000Y-80875000D01*
G75*
G02*
X173575000Y-80800000I75000J0D01*
G01*
X174975000Y-80800000D01*
G75*
G02*
X175050000Y-80875000I0J-75000D01*
G01*
X175050000Y-81025000D01*
G75*
G02*
X174975000Y-81100000I-75000J0D01*
G01*
X173575000Y-81100000D01*
G75*
G02*
X173500000Y-81025000I0J75000D01*
G01*
G37*
G36*
G01*
X173500000Y-80525000D02*
X173500000Y-80375000D01*
G75*
G02*
X173575000Y-80300000I75000J0D01*
G01*
X174975000Y-80300000D01*
G75*
G02*
X175050000Y-80375000I0J-75000D01*
G01*
X175050000Y-80525000D01*
G75*
G02*
X174975000Y-80600000I-75000J0D01*
G01*
X173575000Y-80600000D01*
G75*
G02*
X173500000Y-80525000I0J75000D01*
G01*
G37*
G36*
G01*
X172200000Y-79225000D02*
X172200000Y-77825000D01*
G75*
G02*
X172275000Y-77750000I75000J0D01*
G01*
X172425000Y-77750000D01*
G75*
G02*
X172500000Y-77825000I0J-75000D01*
G01*
X172500000Y-79225000D01*
G75*
G02*
X172425000Y-79300000I-75000J0D01*
G01*
X172275000Y-79300000D01*
G75*
G02*
X172200000Y-79225000I0J75000D01*
G01*
G37*
G36*
G01*
X171700000Y-79225000D02*
X171700000Y-77825000D01*
G75*
G02*
X171775000Y-77750000I75000J0D01*
G01*
X171925000Y-77750000D01*
G75*
G02*
X172000000Y-77825000I0J-75000D01*
G01*
X172000000Y-79225000D01*
G75*
G02*
X171925000Y-79300000I-75000J0D01*
G01*
X171775000Y-79300000D01*
G75*
G02*
X171700000Y-79225000I0J75000D01*
G01*
G37*
G36*
G01*
X171200000Y-79225000D02*
X171200000Y-77825000D01*
G75*
G02*
X171275000Y-77750000I75000J0D01*
G01*
X171425000Y-77750000D01*
G75*
G02*
X171500000Y-77825000I0J-75000D01*
G01*
X171500000Y-79225000D01*
G75*
G02*
X171425000Y-79300000I-75000J0D01*
G01*
X171275000Y-79300000D01*
G75*
G02*
X171200000Y-79225000I0J75000D01*
G01*
G37*
G36*
G01*
X170700000Y-79225000D02*
X170700000Y-77825000D01*
G75*
G02*
X170775000Y-77750000I75000J0D01*
G01*
X170925000Y-77750000D01*
G75*
G02*
X171000000Y-77825000I0J-75000D01*
G01*
X171000000Y-79225000D01*
G75*
G02*
X170925000Y-79300000I-75000J0D01*
G01*
X170775000Y-79300000D01*
G75*
G02*
X170700000Y-79225000I0J75000D01*
G01*
G37*
G36*
G01*
X170200000Y-79225000D02*
X170200000Y-77825000D01*
G75*
G02*
X170275000Y-77750000I75000J0D01*
G01*
X170425000Y-77750000D01*
G75*
G02*
X170500000Y-77825000I0J-75000D01*
G01*
X170500000Y-79225000D01*
G75*
G02*
X170425000Y-79300000I-75000J0D01*
G01*
X170275000Y-79300000D01*
G75*
G02*
X170200000Y-79225000I0J75000D01*
G01*
G37*
G36*
G01*
X169700000Y-79225000D02*
X169700000Y-77825000D01*
G75*
G02*
X169775000Y-77750000I75000J0D01*
G01*
X169925000Y-77750000D01*
G75*
G02*
X170000000Y-77825000I0J-75000D01*
G01*
X170000000Y-79225000D01*
G75*
G02*
X169925000Y-79300000I-75000J0D01*
G01*
X169775000Y-79300000D01*
G75*
G02*
X169700000Y-79225000I0J75000D01*
G01*
G37*
G36*
G01*
X169200000Y-79225000D02*
X169200000Y-77825000D01*
G75*
G02*
X169275000Y-77750000I75000J0D01*
G01*
X169425000Y-77750000D01*
G75*
G02*
X169500000Y-77825000I0J-75000D01*
G01*
X169500000Y-79225000D01*
G75*
G02*
X169425000Y-79300000I-75000J0D01*
G01*
X169275000Y-79300000D01*
G75*
G02*
X169200000Y-79225000I0J75000D01*
G01*
G37*
G36*
G01*
X168700000Y-79225000D02*
X168700000Y-77825000D01*
G75*
G02*
X168775000Y-77750000I75000J0D01*
G01*
X168925000Y-77750000D01*
G75*
G02*
X169000000Y-77825000I0J-75000D01*
G01*
X169000000Y-79225000D01*
G75*
G02*
X168925000Y-79300000I-75000J0D01*
G01*
X168775000Y-79300000D01*
G75*
G02*
X168700000Y-79225000I0J75000D01*
G01*
G37*
G36*
G01*
X168200000Y-79225000D02*
X168200000Y-77825000D01*
G75*
G02*
X168275000Y-77750000I75000J0D01*
G01*
X168425000Y-77750000D01*
G75*
G02*
X168500000Y-77825000I0J-75000D01*
G01*
X168500000Y-79225000D01*
G75*
G02*
X168425000Y-79300000I-75000J0D01*
G01*
X168275000Y-79300000D01*
G75*
G02*
X168200000Y-79225000I0J75000D01*
G01*
G37*
G36*
G01*
X167700000Y-79225000D02*
X167700000Y-77825000D01*
G75*
G02*
X167775000Y-77750000I75000J0D01*
G01*
X167925000Y-77750000D01*
G75*
G02*
X168000000Y-77825000I0J-75000D01*
G01*
X168000000Y-79225000D01*
G75*
G02*
X167925000Y-79300000I-75000J0D01*
G01*
X167775000Y-79300000D01*
G75*
G02*
X167700000Y-79225000I0J75000D01*
G01*
G37*
G36*
G01*
X167200000Y-79225000D02*
X167200000Y-77825000D01*
G75*
G02*
X167275000Y-77750000I75000J0D01*
G01*
X167425000Y-77750000D01*
G75*
G02*
X167500000Y-77825000I0J-75000D01*
G01*
X167500000Y-79225000D01*
G75*
G02*
X167425000Y-79300000I-75000J0D01*
G01*
X167275000Y-79300000D01*
G75*
G02*
X167200000Y-79225000I0J75000D01*
G01*
G37*
G36*
G01*
X166700000Y-79225000D02*
X166700000Y-77825000D01*
G75*
G02*
X166775000Y-77750000I75000J0D01*
G01*
X166925000Y-77750000D01*
G75*
G02*
X167000000Y-77825000I0J-75000D01*
G01*
X167000000Y-79225000D01*
G75*
G02*
X166925000Y-79300000I-75000J0D01*
G01*
X166775000Y-79300000D01*
G75*
G02*
X166700000Y-79225000I0J75000D01*
G01*
G37*
G36*
G01*
X166200000Y-79225000D02*
X166200000Y-77825000D01*
G75*
G02*
X166275000Y-77750000I75000J0D01*
G01*
X166425000Y-77750000D01*
G75*
G02*
X166500000Y-77825000I0J-75000D01*
G01*
X166500000Y-79225000D01*
G75*
G02*
X166425000Y-79300000I-75000J0D01*
G01*
X166275000Y-79300000D01*
G75*
G02*
X166200000Y-79225000I0J75000D01*
G01*
G37*
G36*
G01*
X165700000Y-79225000D02*
X165700000Y-77825000D01*
G75*
G02*
X165775000Y-77750000I75000J0D01*
G01*
X165925000Y-77750000D01*
G75*
G02*
X166000000Y-77825000I0J-75000D01*
G01*
X166000000Y-79225000D01*
G75*
G02*
X165925000Y-79300000I-75000J0D01*
G01*
X165775000Y-79300000D01*
G75*
G02*
X165700000Y-79225000I0J75000D01*
G01*
G37*
G36*
G01*
X165200000Y-79225000D02*
X165200000Y-77825000D01*
G75*
G02*
X165275000Y-77750000I75000J0D01*
G01*
X165425000Y-77750000D01*
G75*
G02*
X165500000Y-77825000I0J-75000D01*
G01*
X165500000Y-79225000D01*
G75*
G02*
X165425000Y-79300000I-75000J0D01*
G01*
X165275000Y-79300000D01*
G75*
G02*
X165200000Y-79225000I0J75000D01*
G01*
G37*
G36*
G01*
X164700000Y-79225000D02*
X164700000Y-77825000D01*
G75*
G02*
X164775000Y-77750000I75000J0D01*
G01*
X164925000Y-77750000D01*
G75*
G02*
X165000000Y-77825000I0J-75000D01*
G01*
X165000000Y-79225000D01*
G75*
G02*
X164925000Y-79300000I-75000J0D01*
G01*
X164775000Y-79300000D01*
G75*
G02*
X164700000Y-79225000I0J75000D01*
G01*
G37*
X184500000Y-98850000D03*
X176500000Y-98850000D03*
X184500000Y-94350000D03*
X176500000Y-94350000D03*
G36*
G01*
X149820000Y-83675000D02*
X149820000Y-83305000D01*
G75*
G02*
X149955000Y-83170000I135000J0D01*
G01*
X150225000Y-83170000D01*
G75*
G02*
X150360000Y-83305000I0J-135000D01*
G01*
X150360000Y-83675000D01*
G75*
G02*
X150225000Y-83810000I-135000J0D01*
G01*
X149955000Y-83810000D01*
G75*
G02*
X149820000Y-83675000I0J135000D01*
G01*
G37*
G36*
G01*
X150840000Y-83675000D02*
X150840000Y-83305000D01*
G75*
G02*
X150975000Y-83170000I135000J0D01*
G01*
X151245000Y-83170000D01*
G75*
G02*
X151380000Y-83305000I0J-135000D01*
G01*
X151380000Y-83675000D01*
G75*
G02*
X151245000Y-83810000I-135000J0D01*
G01*
X150975000Y-83810000D01*
G75*
G02*
X150840000Y-83675000I0J135000D01*
G01*
G37*
G36*
G01*
X166450000Y-69745000D02*
X166450000Y-69445000D01*
G75*
G02*
X166600000Y-69295000I150000J0D01*
G01*
X168250000Y-69295000D01*
G75*
G02*
X168400000Y-69445000I0J-150000D01*
G01*
X168400000Y-69745000D01*
G75*
G02*
X168250000Y-69895000I-150000J0D01*
G01*
X166600000Y-69895000D01*
G75*
G02*
X166450000Y-69745000I0J150000D01*
G01*
G37*
G36*
G01*
X166450000Y-71015000D02*
X166450000Y-70715000D01*
G75*
G02*
X166600000Y-70565000I150000J0D01*
G01*
X168250000Y-70565000D01*
G75*
G02*
X168400000Y-70715000I0J-150000D01*
G01*
X168400000Y-71015000D01*
G75*
G02*
X168250000Y-71165000I-150000J0D01*
G01*
X166600000Y-71165000D01*
G75*
G02*
X166450000Y-71015000I0J150000D01*
G01*
G37*
G36*
G01*
X166450000Y-72285000D02*
X166450000Y-71985000D01*
G75*
G02*
X166600000Y-71835000I150000J0D01*
G01*
X168250000Y-71835000D01*
G75*
G02*
X168400000Y-71985000I0J-150000D01*
G01*
X168400000Y-72285000D01*
G75*
G02*
X168250000Y-72435000I-150000J0D01*
G01*
X166600000Y-72435000D01*
G75*
G02*
X166450000Y-72285000I0J150000D01*
G01*
G37*
G36*
G01*
X166450000Y-73555000D02*
X166450000Y-73255000D01*
G75*
G02*
X166600000Y-73105000I150000J0D01*
G01*
X168250000Y-73105000D01*
G75*
G02*
X168400000Y-73255000I0J-150000D01*
G01*
X168400000Y-73555000D01*
G75*
G02*
X168250000Y-73705000I-150000J0D01*
G01*
X166600000Y-73705000D01*
G75*
G02*
X166450000Y-73555000I0J150000D01*
G01*
G37*
G36*
G01*
X171400000Y-73555000D02*
X171400000Y-73255000D01*
G75*
G02*
X171550000Y-73105000I150000J0D01*
G01*
X173200000Y-73105000D01*
G75*
G02*
X173350000Y-73255000I0J-150000D01*
G01*
X173350000Y-73555000D01*
G75*
G02*
X173200000Y-73705000I-150000J0D01*
G01*
X171550000Y-73705000D01*
G75*
G02*
X171400000Y-73555000I0J150000D01*
G01*
G37*
G36*
G01*
X171400000Y-72285000D02*
X171400000Y-71985000D01*
G75*
G02*
X171550000Y-71835000I150000J0D01*
G01*
X173200000Y-71835000D01*
G75*
G02*
X173350000Y-71985000I0J-150000D01*
G01*
X173350000Y-72285000D01*
G75*
G02*
X173200000Y-72435000I-150000J0D01*
G01*
X171550000Y-72435000D01*
G75*
G02*
X171400000Y-72285000I0J150000D01*
G01*
G37*
G36*
G01*
X171400000Y-71015000D02*
X171400000Y-70715000D01*
G75*
G02*
X171550000Y-70565000I150000J0D01*
G01*
X173200000Y-70565000D01*
G75*
G02*
X173350000Y-70715000I0J-150000D01*
G01*
X173350000Y-71015000D01*
G75*
G02*
X173200000Y-71165000I-150000J0D01*
G01*
X171550000Y-71165000D01*
G75*
G02*
X171400000Y-71015000I0J150000D01*
G01*
G37*
G36*
G01*
X171400000Y-69745000D02*
X171400000Y-69445000D01*
G75*
G02*
X171550000Y-69295000I150000J0D01*
G01*
X173200000Y-69295000D01*
G75*
G02*
X173350000Y-69445000I0J-150000D01*
G01*
X173350000Y-69745000D01*
G75*
G02*
X173200000Y-69895000I-150000J0D01*
G01*
X171550000Y-69895000D01*
G75*
G02*
X171400000Y-69745000I0J150000D01*
G01*
G37*
G36*
G01*
X204210000Y-97300000D02*
X204210000Y-97600000D01*
G75*
G02*
X204060000Y-97750000I-150000J0D01*
G01*
X203035000Y-97750000D01*
G75*
G02*
X202885000Y-97600000I0J150000D01*
G01*
X202885000Y-97300000D01*
G75*
G02*
X203035000Y-97150000I150000J0D01*
G01*
X204060000Y-97150000D01*
G75*
G02*
X204210000Y-97300000I0J-150000D01*
G01*
G37*
G36*
G01*
X204210000Y-96350000D02*
X204210000Y-96650000D01*
G75*
G02*
X204060000Y-96800000I-150000J0D01*
G01*
X203035000Y-96800000D01*
G75*
G02*
X202885000Y-96650000I0J150000D01*
G01*
X202885000Y-96350000D01*
G75*
G02*
X203035000Y-96200000I150000J0D01*
G01*
X204060000Y-96200000D01*
G75*
G02*
X204210000Y-96350000I0J-150000D01*
G01*
G37*
G36*
G01*
X204210000Y-95400000D02*
X204210000Y-95700000D01*
G75*
G02*
X204060000Y-95850000I-150000J0D01*
G01*
X203035000Y-95850000D01*
G75*
G02*
X202885000Y-95700000I0J150000D01*
G01*
X202885000Y-95400000D01*
G75*
G02*
X203035000Y-95250000I150000J0D01*
G01*
X204060000Y-95250000D01*
G75*
G02*
X204210000Y-95400000I0J-150000D01*
G01*
G37*
G36*
G01*
X201935000Y-95400000D02*
X201935000Y-95700000D01*
G75*
G02*
X201785000Y-95850000I-150000J0D01*
G01*
X200760000Y-95850000D01*
G75*
G02*
X200610000Y-95700000I0J150000D01*
G01*
X200610000Y-95400000D01*
G75*
G02*
X200760000Y-95250000I150000J0D01*
G01*
X201785000Y-95250000D01*
G75*
G02*
X201935000Y-95400000I0J-150000D01*
G01*
G37*
G36*
G01*
X201935000Y-97300000D02*
X201935000Y-97600000D01*
G75*
G02*
X201785000Y-97750000I-150000J0D01*
G01*
X200760000Y-97750000D01*
G75*
G02*
X200610000Y-97600000I0J150000D01*
G01*
X200610000Y-97300000D01*
G75*
G02*
X200760000Y-97150000I150000J0D01*
G01*
X201785000Y-97150000D01*
G75*
G02*
X201935000Y-97300000I0J-150000D01*
G01*
G37*
G36*
G01*
X200470000Y-101080000D02*
X200130000Y-101080000D01*
G75*
G02*
X199990000Y-100940000I0J140000D01*
G01*
X199990000Y-100660000D01*
G75*
G02*
X200130000Y-100520000I140000J0D01*
G01*
X200470000Y-100520000D01*
G75*
G02*
X200610000Y-100660000I0J-140000D01*
G01*
X200610000Y-100940000D01*
G75*
G02*
X200470000Y-101080000I-140000J0D01*
G01*
G37*
G36*
G01*
X200470000Y-100120000D02*
X200130000Y-100120000D01*
G75*
G02*
X199990000Y-99980000I0J140000D01*
G01*
X199990000Y-99700000D01*
G75*
G02*
X200130000Y-99560000I140000J0D01*
G01*
X200470000Y-99560000D01*
G75*
G02*
X200610000Y-99700000I0J-140000D01*
G01*
X200610000Y-99980000D01*
G75*
G02*
X200470000Y-100120000I-140000J0D01*
G01*
G37*
G36*
G01*
X177915000Y-81520000D02*
X178285000Y-81520000D01*
G75*
G02*
X178420000Y-81655000I0J-135000D01*
G01*
X178420000Y-81925000D01*
G75*
G02*
X178285000Y-82060000I-135000J0D01*
G01*
X177915000Y-82060000D01*
G75*
G02*
X177780000Y-81925000I0J135000D01*
G01*
X177780000Y-81655000D01*
G75*
G02*
X177915000Y-81520000I135000J0D01*
G01*
G37*
G36*
G01*
X177915000Y-82540000D02*
X178285000Y-82540000D01*
G75*
G02*
X178420000Y-82675000I0J-135000D01*
G01*
X178420000Y-82945000D01*
G75*
G02*
X178285000Y-83080000I-135000J0D01*
G01*
X177915000Y-83080000D01*
G75*
G02*
X177780000Y-82945000I0J135000D01*
G01*
X177780000Y-82675000D01*
G75*
G02*
X177915000Y-82540000I135000J0D01*
G01*
G37*
G36*
G01*
X206072500Y-63765000D02*
X205727500Y-63765000D01*
G75*
G02*
X205580000Y-63617500I0J147500D01*
G01*
X205580000Y-63322500D01*
G75*
G02*
X205727500Y-63175000I147500J0D01*
G01*
X206072500Y-63175000D01*
G75*
G02*
X206220000Y-63322500I0J-147500D01*
G01*
X206220000Y-63617500D01*
G75*
G02*
X206072500Y-63765000I-147500J0D01*
G01*
G37*
G36*
G01*
X206072500Y-62795000D02*
X205727500Y-62795000D01*
G75*
G02*
X205580000Y-62647500I0J147500D01*
G01*
X205580000Y-62352500D01*
G75*
G02*
X205727500Y-62205000I147500J0D01*
G01*
X206072500Y-62205000D01*
G75*
G02*
X206220000Y-62352500I0J-147500D01*
G01*
X206220000Y-62647500D01*
G75*
G02*
X206072500Y-62795000I-147500J0D01*
G01*
G37*
G36*
G01*
X148560000Y-80730000D02*
X148560000Y-81070000D01*
G75*
G02*
X148420000Y-81210000I-140000J0D01*
G01*
X148140000Y-81210000D01*
G75*
G02*
X148000000Y-81070000I0J140000D01*
G01*
X148000000Y-80730000D01*
G75*
G02*
X148140000Y-80590000I140000J0D01*
G01*
X148420000Y-80590000D01*
G75*
G02*
X148560000Y-80730000I0J-140000D01*
G01*
G37*
G36*
G01*
X147600000Y-80730000D02*
X147600000Y-81070000D01*
G75*
G02*
X147460000Y-81210000I-140000J0D01*
G01*
X147180000Y-81210000D01*
G75*
G02*
X147040000Y-81070000I0J140000D01*
G01*
X147040000Y-80730000D01*
G75*
G02*
X147180000Y-80590000I140000J0D01*
G01*
X147460000Y-80590000D01*
G75*
G02*
X147600000Y-80730000I0J-140000D01*
G01*
G37*
G36*
G01*
X192800000Y-70995000D02*
X192600000Y-70995000D01*
G75*
G02*
X192500000Y-70895000I0J100000D01*
G01*
X192500000Y-70635000D01*
G75*
G02*
X192600000Y-70535000I100000J0D01*
G01*
X192800000Y-70535000D01*
G75*
G02*
X192900000Y-70635000I0J-100000D01*
G01*
X192900000Y-70895000D01*
G75*
G02*
X192800000Y-70995000I-100000J0D01*
G01*
G37*
G36*
G01*
X192800000Y-70355000D02*
X192600000Y-70355000D01*
G75*
G02*
X192500000Y-70255000I0J100000D01*
G01*
X192500000Y-69995000D01*
G75*
G02*
X192600000Y-69895000I100000J0D01*
G01*
X192800000Y-69895000D01*
G75*
G02*
X192900000Y-69995000I0J-100000D01*
G01*
X192900000Y-70255000D01*
G75*
G02*
X192800000Y-70355000I-100000J0D01*
G01*
G37*
G36*
G01*
X148250000Y-81800000D02*
X148250000Y-82000000D01*
G75*
G02*
X148150000Y-82100000I-100000J0D01*
G01*
X147890000Y-82100000D01*
G75*
G02*
X147790000Y-82000000I0J100000D01*
G01*
X147790000Y-81800000D01*
G75*
G02*
X147890000Y-81700000I100000J0D01*
G01*
X148150000Y-81700000D01*
G75*
G02*
X148250000Y-81800000I0J-100000D01*
G01*
G37*
G36*
G01*
X147610000Y-81800000D02*
X147610000Y-82000000D01*
G75*
G02*
X147510000Y-82100000I-100000J0D01*
G01*
X147250000Y-82100000D01*
G75*
G02*
X147150000Y-82000000I0J100000D01*
G01*
X147150000Y-81800000D01*
G75*
G02*
X147250000Y-81700000I100000J0D01*
G01*
X147510000Y-81700000D01*
G75*
G02*
X147610000Y-81800000I0J-100000D01*
G01*
G37*
G36*
G01*
X149415000Y-80620000D02*
X149785000Y-80620000D01*
G75*
G02*
X149920000Y-80755000I0J-135000D01*
G01*
X149920000Y-81025000D01*
G75*
G02*
X149785000Y-81160000I-135000J0D01*
G01*
X149415000Y-81160000D01*
G75*
G02*
X149280000Y-81025000I0J135000D01*
G01*
X149280000Y-80755000D01*
G75*
G02*
X149415000Y-80620000I135000J0D01*
G01*
G37*
G36*
G01*
X149415000Y-81640000D02*
X149785000Y-81640000D01*
G75*
G02*
X149920000Y-81775000I0J-135000D01*
G01*
X149920000Y-82045000D01*
G75*
G02*
X149785000Y-82180000I-135000J0D01*
G01*
X149415000Y-82180000D01*
G75*
G02*
X149280000Y-82045000I0J135000D01*
G01*
X149280000Y-81775000D01*
G75*
G02*
X149415000Y-81640000I135000J0D01*
G01*
G37*
G36*
G01*
X214070000Y-64680000D02*
X213730000Y-64680000D01*
G75*
G02*
X213590000Y-64540000I0J140000D01*
G01*
X213590000Y-64260000D01*
G75*
G02*
X213730000Y-64120000I140000J0D01*
G01*
X214070000Y-64120000D01*
G75*
G02*
X214210000Y-64260000I0J-140000D01*
G01*
X214210000Y-64540000D01*
G75*
G02*
X214070000Y-64680000I-140000J0D01*
G01*
G37*
G36*
G01*
X214070000Y-63720000D02*
X213730000Y-63720000D01*
G75*
G02*
X213590000Y-63580000I0J140000D01*
G01*
X213590000Y-63300000D01*
G75*
G02*
X213730000Y-63160000I140000J0D01*
G01*
X214070000Y-63160000D01*
G75*
G02*
X214210000Y-63300000I0J-140000D01*
G01*
X214210000Y-63580000D01*
G75*
G02*
X214070000Y-63720000I-140000J0D01*
G01*
G37*
G36*
G01*
X143795000Y-83660000D02*
X143795000Y-83320000D01*
G75*
G02*
X143935000Y-83180000I140000J0D01*
G01*
X144215000Y-83180000D01*
G75*
G02*
X144355000Y-83320000I0J-140000D01*
G01*
X144355000Y-83660000D01*
G75*
G02*
X144215000Y-83800000I-140000J0D01*
G01*
X143935000Y-83800000D01*
G75*
G02*
X143795000Y-83660000I0J140000D01*
G01*
G37*
G36*
G01*
X144755000Y-83660000D02*
X144755000Y-83320000D01*
G75*
G02*
X144895000Y-83180000I140000J0D01*
G01*
X145175000Y-83180000D01*
G75*
G02*
X145315000Y-83320000I0J-140000D01*
G01*
X145315000Y-83660000D01*
G75*
G02*
X145175000Y-83800000I-140000J0D01*
G01*
X144895000Y-83800000D01*
G75*
G02*
X144755000Y-83660000I0J140000D01*
G01*
G37*
G36*
G01*
X160800000Y-96370000D02*
X160600000Y-96370000D01*
G75*
G02*
X160500000Y-96270000I0J100000D01*
G01*
X160500000Y-96010000D01*
G75*
G02*
X160600000Y-95910000I100000J0D01*
G01*
X160800000Y-95910000D01*
G75*
G02*
X160900000Y-96010000I0J-100000D01*
G01*
X160900000Y-96270000D01*
G75*
G02*
X160800000Y-96370000I-100000J0D01*
G01*
G37*
G36*
G01*
X160800000Y-95730000D02*
X160600000Y-95730000D01*
G75*
G02*
X160500000Y-95630000I0J100000D01*
G01*
X160500000Y-95370000D01*
G75*
G02*
X160600000Y-95270000I100000J0D01*
G01*
X160800000Y-95270000D01*
G75*
G02*
X160900000Y-95370000I0J-100000D01*
G01*
X160900000Y-95630000D01*
G75*
G02*
X160800000Y-95730000I-100000J0D01*
G01*
G37*
G36*
G01*
X205630000Y-77400000D02*
X205970000Y-77400000D01*
G75*
G02*
X206110000Y-77540000I0J-140000D01*
G01*
X206110000Y-77820000D01*
G75*
G02*
X205970000Y-77960000I-140000J0D01*
G01*
X205630000Y-77960000D01*
G75*
G02*
X205490000Y-77820000I0J140000D01*
G01*
X205490000Y-77540000D01*
G75*
G02*
X205630000Y-77400000I140000J0D01*
G01*
G37*
G36*
G01*
X205630000Y-78360000D02*
X205970000Y-78360000D01*
G75*
G02*
X206110000Y-78500000I0J-140000D01*
G01*
X206110000Y-78780000D01*
G75*
G02*
X205970000Y-78920000I-140000J0D01*
G01*
X205630000Y-78920000D01*
G75*
G02*
X205490000Y-78780000I0J140000D01*
G01*
X205490000Y-78500000D01*
G75*
G02*
X205630000Y-78360000I140000J0D01*
G01*
G37*
G36*
G01*
X206490000Y-70515000D02*
X206490000Y-70885000D01*
G75*
G02*
X206355000Y-71020000I-135000J0D01*
G01*
X206085000Y-71020000D01*
G75*
G02*
X205950000Y-70885000I0J135000D01*
G01*
X205950000Y-70515000D01*
G75*
G02*
X206085000Y-70380000I135000J0D01*
G01*
X206355000Y-70380000D01*
G75*
G02*
X206490000Y-70515000I0J-135000D01*
G01*
G37*
G36*
G01*
X205470000Y-70515000D02*
X205470000Y-70885000D01*
G75*
G02*
X205335000Y-71020000I-135000J0D01*
G01*
X205065000Y-71020000D01*
G75*
G02*
X204930000Y-70885000I0J135000D01*
G01*
X204930000Y-70515000D01*
G75*
G02*
X205065000Y-70380000I135000J0D01*
G01*
X205335000Y-70380000D01*
G75*
G02*
X205470000Y-70515000I0J-135000D01*
G01*
G37*
G36*
G01*
X201785000Y-64000000D02*
X201415000Y-64000000D01*
G75*
G02*
X201280000Y-63865000I0J135000D01*
G01*
X201280000Y-63595000D01*
G75*
G02*
X201415000Y-63460000I135000J0D01*
G01*
X201785000Y-63460000D01*
G75*
G02*
X201920000Y-63595000I0J-135000D01*
G01*
X201920000Y-63865000D01*
G75*
G02*
X201785000Y-64000000I-135000J0D01*
G01*
G37*
G36*
G01*
X201785000Y-62980000D02*
X201415000Y-62980000D01*
G75*
G02*
X201280000Y-62845000I0J135000D01*
G01*
X201280000Y-62575000D01*
G75*
G02*
X201415000Y-62440000I135000J0D01*
G01*
X201785000Y-62440000D01*
G75*
G02*
X201920000Y-62575000I0J-135000D01*
G01*
X201920000Y-62845000D01*
G75*
G02*
X201785000Y-62980000I-135000J0D01*
G01*
G37*
G36*
G01*
X208280000Y-96515000D02*
X208280000Y-96885000D01*
G75*
G02*
X208145000Y-97020000I-135000J0D01*
G01*
X207875000Y-97020000D01*
G75*
G02*
X207740000Y-96885000I0J135000D01*
G01*
X207740000Y-96515000D01*
G75*
G02*
X207875000Y-96380000I135000J0D01*
G01*
X208145000Y-96380000D01*
G75*
G02*
X208280000Y-96515000I0J-135000D01*
G01*
G37*
G36*
G01*
X207260000Y-96515000D02*
X207260000Y-96885000D01*
G75*
G02*
X207125000Y-97020000I-135000J0D01*
G01*
X206855000Y-97020000D01*
G75*
G02*
X206720000Y-96885000I0J135000D01*
G01*
X206720000Y-96515000D01*
G75*
G02*
X206855000Y-96380000I135000J0D01*
G01*
X207125000Y-96380000D01*
G75*
G02*
X207260000Y-96515000I0J-135000D01*
G01*
G37*
G36*
G01*
X176570000Y-97280000D02*
X176230000Y-97280000D01*
G75*
G02*
X176090000Y-97140000I0J140000D01*
G01*
X176090000Y-96860000D01*
G75*
G02*
X176230000Y-96720000I140000J0D01*
G01*
X176570000Y-96720000D01*
G75*
G02*
X176710000Y-96860000I0J-140000D01*
G01*
X176710000Y-97140000D01*
G75*
G02*
X176570000Y-97280000I-140000J0D01*
G01*
G37*
G36*
G01*
X176570000Y-96320000D02*
X176230000Y-96320000D01*
G75*
G02*
X176090000Y-96180000I0J140000D01*
G01*
X176090000Y-95900000D01*
G75*
G02*
X176230000Y-95760000I140000J0D01*
G01*
X176570000Y-95760000D01*
G75*
G02*
X176710000Y-95900000I0J-140000D01*
G01*
X176710000Y-96180000D01*
G75*
G02*
X176570000Y-96320000I-140000J0D01*
G01*
G37*
G36*
G01*
X225260000Y-83955000D02*
X224940000Y-83955000D01*
G75*
G02*
X224780000Y-83795000I0J160000D01*
G01*
X224780000Y-83400000D01*
G75*
G02*
X224940000Y-83240000I160000J0D01*
G01*
X225260000Y-83240000D01*
G75*
G02*
X225420000Y-83400000I0J-160000D01*
G01*
X225420000Y-83795000D01*
G75*
G02*
X225260000Y-83955000I-160000J0D01*
G01*
G37*
G36*
G01*
X225260000Y-82760000D02*
X224940000Y-82760000D01*
G75*
G02*
X224780000Y-82600000I0J160000D01*
G01*
X224780000Y-82205000D01*
G75*
G02*
X224940000Y-82045000I160000J0D01*
G01*
X225260000Y-82045000D01*
G75*
G02*
X225420000Y-82205000I0J-160000D01*
G01*
X225420000Y-82600000D01*
G75*
G02*
X225260000Y-82760000I-160000J0D01*
G01*
G37*
G36*
G01*
X210875000Y-79950000D02*
X210875000Y-82850000D01*
G75*
G02*
X210625000Y-83100000I-250000J0D01*
G01*
X209825000Y-83100000D01*
G75*
G02*
X209575000Y-82850000I0J250000D01*
G01*
X209575000Y-79950000D01*
G75*
G02*
X209825000Y-79700000I250000J0D01*
G01*
X210625000Y-79700000D01*
G75*
G02*
X210875000Y-79950000I0J-250000D01*
G01*
G37*
G36*
G01*
X206425000Y-79950000D02*
X206425000Y-82850000D01*
G75*
G02*
X206175000Y-83100000I-250000J0D01*
G01*
X205375000Y-83100000D01*
G75*
G02*
X205125000Y-82850000I0J250000D01*
G01*
X205125000Y-79950000D01*
G75*
G02*
X205375000Y-79700000I250000J0D01*
G01*
X206175000Y-79700000D01*
G75*
G02*
X206425000Y-79950000I0J-250000D01*
G01*
G37*
G36*
G01*
X160400000Y-75750000D02*
X160200000Y-75750000D01*
G75*
G02*
X160100000Y-75650000I0J100000D01*
G01*
X160100000Y-75390000D01*
G75*
G02*
X160200000Y-75290000I100000J0D01*
G01*
X160400000Y-75290000D01*
G75*
G02*
X160500000Y-75390000I0J-100000D01*
G01*
X160500000Y-75650000D01*
G75*
G02*
X160400000Y-75750000I-100000J0D01*
G01*
G37*
G36*
G01*
X160400000Y-75110000D02*
X160200000Y-75110000D01*
G75*
G02*
X160100000Y-75010000I0J100000D01*
G01*
X160100000Y-74750000D01*
G75*
G02*
X160200000Y-74650000I100000J0D01*
G01*
X160400000Y-74650000D01*
G75*
G02*
X160500000Y-74750000I0J-100000D01*
G01*
X160500000Y-75010000D01*
G75*
G02*
X160400000Y-75110000I-100000J0D01*
G01*
G37*
M02*
